<?xml version="1.0" encoding="UTF-8"?>
<!DOCTYPE svg PUBLIC "-//W3C//DTD SVG 1.1//EN" "http://www.w3.org/Graphics/SVG/1.1/DTD/svg11.dtd">
<!-- Creator: CorelDRAW X8 -->
<svg xmlns="http://www.w3.org/2000/svg" xml:space="preserve" width="4.67661in" height="5.19855in" version="1.1" style="shape-rendering:geometricPrecision; text-rendering:geometricPrecision; image-rendering:optimizeQuality; fill-rule:evenodd; clip-rule:evenodd"
viewBox="0 0 3294 3662"
 xmlns:xlink="http://www.w3.org/1999/xlink">
 <defs>
  <style type="text/css">
   <![CDATA[
    .str0 {stroke:#8682AB;stroke-width:4.89193}
    .fil7 {fill:#ED3237}
    .fil1 {fill:#D2D3D5;fill-rule:nonzero}
    .fil5 {fill:#F58634;fill-rule:nonzero}
    .fil2 {fill:#EE738A;fill-rule:nonzero}
    .fil3 {fill:#8682AB;fill-rule:nonzero}
    .fil0 {fill:#A0CD47;fill-rule:nonzero}
    .fil6 {fill:#00AFEF;fill-rule:nonzero}
    .fil4 {fill:#00A859;fill-rule:nonzero}
   ]]>
  </style>
 </defs>
 <g id="Layer_x0020_1">
  <metadata id="CorelCorpID_0Corel-Layer"/>
  <path class="fil0" d="M1047 1155c0,8 -1,13 1,19 4,-2 7,-2 10,-2 2,0 4,0 6,-1 3,0 4,-1 6,-1 4,-2 8,-3 13,-3l3 1 1 1c7,-5 13,-10 16,-17 1,-3 2,-5 3,-7 3,-4 5,-7 4,-11 0,-4 -2,-8 -5,-12 0,-1 -2,-2 -3,-3 -3,-3 -6,-6 -7,-9 -2,-5 1,-9 2,-13 2,-3 3,-5 3,-7 -1,-2 -6,-3 -10,-4 -2,0 -4,0 -5,-1 -3,0 -7,-1 -11,-2 -10,-1 -19,-2 -25,-7 -10,-7 -3,-17 0,-21 5,-7 5,-8 2,-17 0,-1 0,-3 -1,-4 -1,-5 -4,-13 -1,-19 2,-4 5,-7 8,-9 2,-1 4,-3 5,-4 4,-5 3,-7 0,-13l-1 -2c-2,-7 -3,-13 -3,-19 0,-2 0,-4 0,-6 -1,-2 -1,-4 -1,-6 -1,-4 -2,-9 -2,-14 1,-7 4,-12 7,-16 1,-1 2,-3 3,-5 1,-2 4,-5 6,-7 2,-2 4,-4 5,-6 1,-2 1,-6 0,-11 0,-4 -1,-8 0,-12 2,-9 13,-13 21,-16 3,-1 6,-2 8,-4 4,-1 5,-2 7,-5 1,-1 1,-3 1,-5 0,-1 1,-3 1,-4 0,0 -1,-1 -1,-1 -2,0 -4,0 -6,0 -8,1 -17,1 -21,-5 -2,-3 -2,-7 -2,-11 0,-1 1,-3 0,-4 -1,-4 -4,-9 -8,-13 -1,-2 -4,-3 -6,-4 -3,-3 -7,-5 -10,-9 -8,-11 -11,-15 -23,-14 1,1 1,2 1,3 1,3 2,5 3,8 0,4 0,7 0,11 0,5 0,9 2,12 0,2 1,4 2,6 3,5 7,12 3,20 -5,13 -23,13 -33,13 -4,4 -11,8 -14,10 -2,1 -5,1 -9,2 -2,1 -7,1 -8,2 -1,1 0,4 0,6 1,3 2,7 0,11 -2,5 -7,7 -11,8 -1,1 -3,2 -4,2 -7,4 -7,5 -4,12 0,2 1,3 1,4l1 4 -4 2c-4,2 -11,1 -17,1 -2,0 -4,0 -8,-1 -1,0 -3,0 -4,0 -1,1 -2,2 -3,3 -1,0 -1,1 -2,1 -3,2 -5,3 -11,2 -2,0 -4,-1 -5,-1 -2,-1 -3,-1 -5,-2 -14,-1 -18,4 -20,8 -3,7 -7,11 -11,13 -2,0 -3,0 -5,0 -3,0 -6,0 -9,-3 -5,-2 -7,-7 -8,-10 -1,-1 -1,-2 -2,-4 -1,-1 -3,-6 -5,-8 -1,-1 -3,-2 -5,-3 -3,-1 -6,-3 -8,-7 -2,-3 -3,-6 -3,-8 0,-2 0,-3 -4,-4 -4,-1 -7,-1 -12,0l-2 0c-3,0 -8,-1 -12,-2 -6,-1 -10,-2 -13,0 1,1 1,2 1,2 3,7 -2,16 -6,24 -2,2 -3,5 -4,6 0,2 1,5 2,8 1,5 3,10 0,16 -1,5 -5,8 -8,10 -2,3 -4,5 -5,7 1,0 1,0 2,0 7,1 16,2 20,-1 1,-1 2,-3 3,-4 0,-1 1,-2 2,-3 9,-11 18,-12 29,-5 5,4 10,6 16,9l1 1c3,1 6,3 8,5 3,3 5,5 7,5 2,1 4,-1 7,-2 2,-1 4,-2 7,-2 6,-1 10,1 12,3 5,4 6,11 5,22 0,5 -1,9 -2,13 -1,5 -2,10 -2,16 0,5 2,9 4,13 2,4 4,8 4,13l1 4 -4 1c-2,1 -3,4 -2,11 0,1 0,1 0,2 1,2 2,3 2,4 2,3 3,5 5,6 2,3 7,3 12,4 6,0 12,1 17,4 2,2 4,6 5,9 1,1 2,2 2,3 1,2 3,5 5,7 3,3 6,7 8,11 4,11 -2,15 -5,17 -3,2 -4,3 -4,5 0,6 4,20 8,24 2,3 5,4 9,4 -2,-2 -4,-5 -4,-9 1,-8 7,-12 11,-15 2,-1 3,-2 4,-2 3,-3 3,-4 3,-9 0,-1 0,-3 0,-4l0 -2c0,-5 -1,-16 10,-16 8,-1 15,8 18,11l2 2c6,7 6,8 15,5 4,0 8,-4 12,-7 5,-5 11,-10 18,-10l3 0 1 3c3,8 5,20 4,31l-1 4z"/>
  <path class="fil1" d="M735 520c21,6 27,25 50,28 7,1 13,0 19,0 1,0 7,-5 8,-5 5,2 5,9 9,13 12,16 32,12 46,26 5,4 10,10 13,16 2,0 4,-1 6,-2 5,-2 11,-5 19,0 1,1 2,1 3,2 3,-5 8,-6 13,-7 5,-2 6,-2 8,-9 0,-1 0,-3 0,-4 0,-2 0,-4 1,-6 1,-3 2,-6 3,-9 1,-2 2,-4 3,-6l1 -3c2,-5 3,-9 2,-13 0,-2 -2,-4 -3,-7 -2,-3 -4,-7 -3,-12 1,-3 3,-5 7,-6 8,-4 16,-1 21,2 6,3 9,4 13,3 3,-1 8,-9 12,-18 5,-9 8,-10 15,-10 0,0 0,0 0,0 1,0 1,0 1,0 -1,-6 -3,-11 -6,-18 -2,-5 -6,-11 -10,-18 -8,-11 -8,-17 -1,-29 2,-4 3,-7 3,-9 -2,-4 -8,-7 -14,-10 -3,-2 -6,-3 -8,-5 -5,-3 -17,-14 -19,-21 0,-3 0,-5 1,-8 0,-1 1,-3 0,-4 -2,-3 -6,-3 -12,-2 -1,0 -3,1 -4,1 -12,0 -19,-6 -24,-12l-2 -2c-9,-11 -19,-23 -14,-40 0,-2 1,-3 1,-5 1,0 1,0 1,-1 -1,0 -3,-2 -5,-3l-1 -1c-4,-2 -8,-5 -13,-4 0,0 0,0 -1,1 -1,0 -2,2 -4,2 -9,3 -15,-3 -19,-7 -2,-1 -3,-2 -4,-3 -6,-5 -12,-7 -18,-10 -2,-1 -5,-2 -7,-3 -5,-2 -8,-6 -12,-10 -4,-5 -7,-9 -13,-9 -2,-1 -4,0 -7,0 -3,1 -8,2 -12,1 -1,0 -2,-1 -3,-1 -1,1 -1,3 -2,4 -4,5 -17,1 -22,7 -6,6 -4,10 -6,17 -7,18 -20,22 -39,23 -22,2 -24,10 -14,30 4,8 6,16 6,25 1,11 -4,22 -4,31 1,18 17,37 21,55 2,14 -4,26 -9,38 -10,26 7,21 29,27z"/>
  <polygon class="fil1" points="691,1915 692,1914 691,1914 "/>
  <path class="fil2" d="M1480 1080c-4,-4 -8,-9 -13,-12 -4,-2 -14,-7 -18,-6 -5,0 -6,10 -11,11 -3,1 -17,-14 -21,-17 -2,-2 -5,-4 -7,-6 -3,0 -7,1 -9,3 -3,2 -4,4 -5,6 -2,4 -5,10 -14,10 0,0 0,0 0,0 -8,0 -14,-4 -20,-8 -3,-2 -7,-4 -10,-5 -2,-1 -3,-1 -5,-1 -3,-1 -7,-1 -11,-4 -1,0 -3,-1 -4,-2 -2,-2 -5,-3 -6,-4 -5,-1 -11,-1 -16,2l-2 2c-6,6 -11,10 -24,5 -13,-5 -14,-17 -15,-27 0,-8 -1,-16 -7,-20 -1,-1 -2,-2 -4,-3 -9,-6 -24,-16 -19,-28 1,-3 5,-5 9,-7 2,-1 4,-2 5,-3 1,-1 4,-5 3,-7 -1,-2 -2,-2 -6,-3 -3,0 -7,0 -10,-2 -3,-2 -4,-4 -5,-7 0,-1 -1,-2 -2,-2 -3,-5 -8,-5 -15,-5 -2,0 -5,-1 -8,-1 -7,-1 -17,-1 -21,1 -2,1 -3,4 -4,6 -1,4 -3,7 -6,10 -10,9 -19,7 -23,5 -9,-4 -15,-16 -15,-28l0 -3c0,-6 0,-11 -3,-15 -4,-6 -11,-13 -22,-21l-4 -2 2 -4c5,-7 13,-12 20,-16 4,-2 7,-4 9,-7 3,-2 4,-3 4,-4 0,-1 -1,-2 -4,-3 -2,-1 -4,-1 -7,0 -3,0 -6,0 -10,-1 -1,0 -3,-1 -4,-2 0,1 0,1 0,1 0,3 -1,6 -3,9 -2,5 -6,6 -10,8 -2,2 -5,3 -9,4 -7,2 -14,5 -15,10 -1,3 -1,6 0,9 0,5 1,11 -1,16 -2,3 -4,6 -7,8 -2,2 -3,4 -4,6 -2,2 -3,4 -4,5 -3,4 -4,7 -5,11 0,5 1,8 1,12 1,3 1,5 1,7 1,3 1,5 1,7 0,5 0,10 3,16l0 2c3,6 6,13 -1,21 -2,3 -4,4 -6,6 -2,2 -5,4 -6,6 -1,3 0,8 2,13 0,1 1,2 1,3 3,11 3,15 -3,24 -5,8 -5,9 -3,10 4,3 13,5 21,6 5,0 9,1 12,2 2,0 3,0 4,1 6,1 14,2 17,9 2,6 -1,10 -3,14 -1,2 -2,5 -2,6 1,1 3,3 5,5 1,2 3,3 5,5 3,5 6,10 6,17 1,6 -2,11 -5,16 -1,2 -2,3 -3,5 -5,11 -13,17 -22,22 2,7 1,13 0,19 -1,2 -1,4 -1,6 -1,6 -1,14 1,17 2,3 6,4 12,5 4,1 9,2 14,6 8,6 4,13 2,17 -1,1 -2,2 -2,4 -1,3 -1,7 0,10 0,4 0,8 0,11 -1,4 -3,8 -5,11 -1,2 -2,4 -2,6 -1,3 -1,5 0,5 0,0 2,1 9,0 4,-1 6,-2 10,-4 0,-1 1,-1 1,-2 1,-1 2,-3 6,-4 3,-1 7,0 10,1 2,1 4,1 5,1 1,0 2,0 3,-1 2,-1 3,-1 4,-2 2,0 18,-4 26,1 3,1 5,4 6,6 1,1 2,2 3,3 1,0 3,0 5,0 2,0 4,0 6,1 5,1 6,2 8,4 0,0 1,1 2,2 4,4 6,7 8,9 3,5 4,5 14,4 9,-1 19,-1 28,2 14,4 24,12 26,24 3,14 -2,21 -7,28 -2,2 -5,5 -7,9 -3,6 0,12 3,19 3,6 6,14 3,22 -2,4 -8,8 -16,13 -2,1 -3,2 -5,3 -3,2 -7,4 -11,5 -7,3 -11,5 -12,10 -1,3 -1,4 -2,6 0,5 0,10 -8,14 -4,2 -8,2 -12,3 -8,2 -14,4 -16,10 -1,3 0,6 2,10 2,3 5,8 3,14 -1,4 -3,6 -4,8 -2,1 -3,3 -3,5 0,1 0,2 1,3 0,3 2,6 0,10 -1,5 -7,11 -13,17 -3,3 -5,6 -7,8 -7,9 -10,19 -7,27 2,6 7,11 16,14 5,2 8,2 12,1 3,0 5,0 8,0 9,1 13,6 17,12 1,2 3,5 5,7 5,7 20,19 29,18 1,0 3,-1 3,-3 1,-1 0,-5 0,-8 -1,-2 -1,-5 -1,-7 0,-3 1,-6 2,-8 0,-3 1,-6 1,-8 -1,-5 -4,-7 -8,-10 -2,-1 -4,-3 -6,-4l0 -1c-4,-3 -5,-4 -5,-6 0,-1 0,-2 -1,-4 -1,-2 -2,-5 -2,-8 0,-3 -1,-6 -2,-7 -2,-3 -10,-6 -18,-6l-4 0 0 -4c-1,-6 1,-11 2,-15 2,-5 3,-9 2,-14 -1,-2 -1,-3 -2,-4 -2,-4 -4,-9 -1,-17 4,-7 9,-8 13,-9 2,0 4,-1 6,-2 1,-1 2,-2 3,-3 4,-4 8,-8 18,-5 9,3 10,8 10,13 0,2 0,4 1,6 2,8 2,8 11,10 9,1 14,1 21,-3 2,-2 3,-3 5,-4 4,-3 9,-6 16,-6 11,0 19,7 27,13 7,6 13,12 20,12 7,0 9,-6 13,-19 2,-11 6,-23 17,-27 9,-3 16,4 21,8 2,3 5,5 7,6 0,0 0,0 2,0 1,0 4,-1 8,1 7,5 10,12 13,18 3,9 6,15 18,15 0,-1 3,-2 5,-3 7,-4 16,-9 22,-5 2,1 4,3 5,9l0 4 -5 0c0,0 -1,1 -1,1 -1,0 -2,0 -2,0 -1,5 -1,10 0,16 0,1 0,2 0,3 3,-1 6,-1 9,-1 8,0 17,-1 20,-4 2,-2 1,-6 1,-9 0,-3 -1,-5 0,-8 1,-8 2,-18 9,-23 5,-3 11,-4 19,-3 9,2 12,7 16,12 2,3 4,6 7,9 4,3 9,3 15,3 5,0 10,1 15,3 8,3 11,10 12,16 1,3 2,6 4,8 2,1 6,1 10,1 3,-1 7,-1 11,0 3,1 7,4 14,10 4,5 14,14 17,13 1,0 2,-1 2,-4l1 -4 4 0c4,0 6,2 9,3 2,0 3,1 5,1 2,0 3,-1 5,-1 3,-1 7,-3 12,-2 13,3 10,17 8,27 -1,3 -2,7 -2,9 0,3 1,7 1,9 1,7 2,15 -3,23 -2,3 -4,4 -5,6 -1,0 -2,1 -2,1 0,1 0,2 2,6 2,3 3,4 6,5l0 -1c3,1 5,3 7,4 2,2 3,3 5,3 6,0 8,1 11,3 1,1 2,1 3,2 8,4 16,-5 24,-16 1,-1 2,-2 3,-3 1,-1 1,-2 2,-3l-1 0c0,-3 0,-5 0,-8 0,-9 0,-19 6,-27 3,-4 7,-8 11,-11 6,-5 11,-9 14,-17 1,-3 0,-4 -8,-8 -2,-1 -4,-2 -5,-3 -11,-6 -15,-11 -11,-24 2,-8 3,-11 -1,-18l-1 -3c-2,-4 -4,-9 -4,-15 1,-19 14,-22 26,-25 3,-1 6,-2 9,-3 7,-3 11,-6 14,-12 1,-2 2,-4 3,-5 1,-6 3,-9 11,-12l3 -1c4,-2 8,-3 11,-6 0,0 1,-2 2,-4 1,-3 3,-6 6,-8 5,-4 12,-2 17,0 3,1 5,3 7,4 2,2 4,3 7,3 3,0 7,-1 11,-2 2,-1 4,-2 6,-2 3,-1 5,-1 8,-1 1,0 3,0 5,0 7,-1 6,-4 6,-5 -1,-7 -6,-9 -15,-11 -3,-1 -7,-2 -10,-3 -4,-1 -8,-2 -13,-3 -2,-1 -4,-1 -7,-2 -11,-2 -24,-5 -29,-14l-2 -3 3 -2c5,-4 6,-7 5,-12 0,-1 0,-1 0,-2 -1,-2 -2,-5 -1,-8 1,-4 3,-6 5,-7 1,0 2,-1 2,-2 0,-1 0,-2 -1,-3 -4,-7 -20,-12 -28,-12l-4 0 0 -5c1,-16 17,-17 23,-18 1,0 2,0 3,0 3,0 7,-1 9,-2 1,0 2,-1 2,-3 1,-2 3,-4 6,-6 3,-2 7,-2 10,-1 1,0 3,0 4,-1 -1,-1 -5,-9 -9,-14 -3,-4 -8,-6 -13,-8 -5,-2 -11,-4 -14,-8 -3,-2 -4,-5 -5,-8 -1,-3 -2,-5 -4,-6 -7,-10 -9,-19 -6,-25 2,-5 6,-8 11,-10 1,-1 2,-1 3,-2 4,-2 4,-3 4,-3 0,-1 -4,-3 -6,-4 -3,-2 -7,-4 -9,-7 -3,2 -5,4 -9,5 -8,3 -11,-4 -20,-7 -15,-5 -22,5 -35,10 -11,3 -19,-2 -30,-3 -8,-1 -16,1 -24,0 -24,-2 -26,-11 -21,-32 -8,-3 -20,0 -29,0 -7,-6 -15,-9 -22,-17 -5,-7 -7,-8 -16,-11 -7,-2 -10,-3 -16,-1 -12,4 -18,6 -29,-4 -8,-8 -12,-15 -23,-19 -7,-3 -15,-1 -21,-7 -6,-6 -4,-13 -7,-20 -4,-8 -14,-10 -22,-11 -5,-1 -14,0 -19,-3 -4,-3 -7,-13 -11,-17z"/>
  <path class="fil0" d="M1408 826c-6,-2 -7,-10 -9,-15 -1,-4 -2,-10 -5,-13 -4,-5 -12,-9 -17,-13 -6,-7 -10,-16 -20,-17 -15,-3 -30,8 -40,-7 -2,-4 -3,-9 -8,-11 -5,-2 -13,2 -17,5 -7,6 -7,9 -15,5 -3,-1 -6,-3 -9,-6 -3,1 -6,1 -9,1 -3,0 -7,0 -10,0 -3,1 -5,2 -9,3 -5,3 -12,6 -20,3 -6,-3 -11,-7 -16,-11 -3,-2 -6,-5 -10,-7 -1,0 -2,-1 -3,-2 -2,-2 -6,-4 -8,-4 -4,0 -16,8 -17,11 -2,2 -2,4 -2,6 0,4 -1,9 -8,15 -1,0 -2,1 -3,2 -5,3 -6,4 -4,8 1,0 3,1 4,4 1,5 0,11 -1,13 -2,6 -7,9 -10,12 -3,3 -6,5 -7,7 -1,2 0,5 1,8 1,3 1,6 1,9 0,5 -3,9 -6,12 -1,2 -2,3 -3,4 0,0 1,1 1,1 2,0 4,0 7,0 3,-1 6,-1 10,0 7,3 9,8 10,11 0,4 -2,9 -7,12 -3,3 -7,5 -10,7 -5,4 -11,7 -15,11 10,7 17,14 21,20 5,7 5,14 5,20l0 3c-1,9 4,17 10,20 4,2 9,1 13,-4 2,-1 3,-4 4,-6 2,-4 3,-8 7,-10 6,-5 18,-4 27,-3 3,1 5,1 7,1 8,0 16,1 22,8 1,1 2,3 3,5 1,1 1,2 2,3 1,0 3,1 5,1 4,0 10,0 14,6 3,6 1,12 -5,18 -2,2 -4,3 -7,4 -1,1 -4,3 -5,4 -2,5 11,13 16,17 2,1 3,2 4,3 9,6 10,17 11,26 1,10 2,17 10,20 7,3 9,1 14,-3l3 -2c6,-5 14,-7 23,-4 3,1 6,3 9,4 1,1 2,2 3,3 3,1 6,1 9,2 2,0 4,1 6,1 4,1 8,4 12,7 5,3 10,6 15,6 0,0 0,0 0,0 4,0 4,-1 6,-5 2,-3 3,-6 8,-9 2,-1 4,-2 6,-3 -15,-17 4,-30 15,-42 13,-16 -8,-28 -1,-43 4,-11 18,-15 22,-26 3,-9 2,-21 9,-28 11,-12 29,-9 40,-19 6,-5 6,-12 7,-19 -3,-4 -4,-6 -8,-9 -11,-9 -30,-6 -41,-15 -8,-7 -7,-16 -19,-16 -5,0 -14,2 -18,0z"/>
  <path class="fil3 str0" d="M1203 568c1,-4 1,-8 -1,-9 -3,-2 -6,-1 -8,0 -2,1 -4,3 -7,4 -7,6 -21,15 -30,2 -2,-2 -3,-3 -4,-5 -1,-1 -2,-3 -4,-4l-1 -2c-3,-2 -5,-4 -6,-8 -1,-3 -2,-5 -2,-7 0,-1 0,-2 0,-3 0,0 0,0 -2,0 -7,-2 -10,0 -15,6 -1,1 -1,2 -2,2 -2,4 -4,4 -10,5 -10,0 -27,1 -35,-5 -4,-4 -7,-10 -9,-16 -1,-2 -2,-5 -2,-6 -2,-4 -5,-7 -8,-10 -5,-4 -9,-9 -11,-15 -1,-2 -1,-4 -1,-5 0,-3 0,-4 -1,-4 -2,-2 -10,-1 -13,1 -3,1 -5,2 -7,4 -4,4 -8,7 -15,8 -4,1 -6,1 -8,1 -4,0 -4,0 -7,4 -4,9 -10,20 -16,23 -8,3 -15,0 -20,-3 -6,-3 -10,-4 -14,-2 -2,1 -2,1 -2,1 0,1 1,4 2,5 1,3 3,6 4,9 1,7 -1,13 -3,18l-1 3c0,2 -2,5 -3,7 -1,3 -2,5 -3,7 0,1 0,3 0,4 0,2 0,4 0,6 -3,9 -6,13 -15,15 -7,2 -9,3 -9,8 1,2 3,4 5,6 3,1 5,2 9,2 3,0 6,0 10,1l3 1 0 2c1,5 0,9 -1,13 0,3 -1,7 0,10 1,9 6,16 12,23l3 5c4,6 7,9 7,18 0,8 1,16 4,23 2,5 4,7 7,8 4,1 8,1 10,0 0,-1 0,-1 0,-2l2 -19 7 18c1,2 4,3 8,5 3,1 7,3 10,6 7,7 6,12 6,17 -1,2 -1,4 -1,7 1,4 3,6 8,8 4,3 9,6 11,11 1,3 1,7 2,11 0,0 0,0 0,0 16,-1 22,6 31,18 2,2 5,4 8,6 2,1 5,3 7,5 5,5 9,12 11,18 0,2 0,4 0,7 0,1 0,4 1,5 1,2 8,2 12,2 3,-1 6,-1 8,0 3,0 5,1 6,2 2,-3 3,-4 4,-6 3,-3 4,-4 4,-7 0,-1 0,-4 -1,-6 -1,-4 -2,-9 0,-14 2,-4 6,-7 9,-10 3,-2 6,-4 7,-8 1,-2 2,-6 1,-7 -1,-1 -3,-2 -4,-4 -4,-11 3,-15 8,-19 1,0 2,-1 3,-2 4,-2 4,-4 4,-8 0,-2 1,-5 3,-9 3,-6 18,-16 25,-16 5,0 9,3 13,6 1,0 2,1 3,2 4,2 7,5 11,7 4,4 9,7 14,9 4,2 7,1 13,-2 3,-1 7,-3 11,-3 4,-1 7,-1 11,-1 -2,-2 -4,-4 -6,-5 -10,-10 -8,-16 -4,-29 3,-8 4,-15 3,-24 -1,-4 -3,-8 -2,-12 0,-6 4,-11 6,-16 3,-11 1,-19 -10,-22 -12,-4 -24,-8 -27,-23 -1,-4 0,-8 2,-12 0,-1 0,-2 -1,-3 0,-3 -1,-6 -3,-8 -1,-1 -3,-1 -5,-2 -4,-1 -8,-3 -10,-6 -4,-5 -2,-10 0,-13 0,-1 1,-2 1,-3z"/>
  <path class="fil1" d="M727 886c2,0 4,-1 8,-1 9,-1 13,2 18,6 2,1 4,2 6,4 5,2 9,3 13,3 1,0 2,0 3,-1 2,0 4,-1 5,-1 6,-7 16,-5 24,-3 3,1 7,1 9,1l2 0c5,-1 10,-2 16,0 8,3 9,7 10,12 0,1 0,3 1,4 1,2 3,3 5,4 3,1 5,2 7,4 3,3 5,7 7,11 1,2 1,3 2,5 1,3 2,4 4,6 3,1 5,2 7,1 2,-1 4,-3 6,-7 4,-11 14,-15 29,-13 3,0 5,1 7,1 1,1 2,1 4,1 2,1 3,0 5,-1 0,0 1,0 1,-1 1,-1 2,-2 3,-3 3,-1 6,-1 10,0 1,0 2,0 2,0 2,0 4,0 6,0 3,0 6,0 9,0 -2,-7 -4,-15 9,-22 2,-1 3,-1 5,-2 4,-1 5,-2 6,-4 1,-1 0,-4 0,-6 -1,-4 -2,-8 0,-12 3,-4 8,-5 15,-6 2,0 5,-1 6,-1 5,-2 11,-6 12,-9l1 -2 3 0c6,0 24,1 27,-7 2,-4 1,-7 -2,-13 -2,-2 -3,-4 -4,-7 -2,-5 -2,-10 -2,-15 0,-3 1,-6 0,-9 -1,-3 -1,-5 -2,-7 -1,-3 -2,-6 -3,-9 0,-2 0,-3 0,-5 0,-3 -1,-7 -2,-9 0,-2 -3,-4 -7,-6 -4,-3 -10,-6 -11,-15 -1,-3 0,-7 0,-9 0,-4 1,-6 -3,-10 -2,-1 -5,-3 -7,-4 -3,-1 -6,-2 -9,-4 0,0 0,1 0,1 -5,3 -13,3 -18,1 -6,-2 -9,-6 -12,-12 -4,-9 -5,-18 -5,-27 0,-6 -1,-8 -5,-13l-4 -5c-5,-7 -11,-16 -13,-26 -1,-5 0,-10 1,-14 0,-2 0,-4 0,-6 -1,-1 -2,-1 -4,-1 -4,0 -9,0 -14,-3 -4,-3 -6,-6 -9,-10 -1,-3 -3,-5 -5,-7 -3,-2 -6,-1 -11,1 -1,1 -3,2 -6,3 1,5 0,11 -5,15 -17,16 -58,-3 -67,18 -4,10 2,14 -7,23 -9,9 -18,6 -13,22 5,18 18,30 5,47 -6,7 -17,5 -6,14 5,5 16,4 22,7 1,17 -48,30 -60,41 -5,-3 -8,9 -9,13 -2,8 -4,13 -13,18 -7,4 -14,6 -15,15 -1,8 5,12 3,20 -1,5 -7,12 -13,16 3,3 7,6 11,9 5,2 7,2 11,1z"/>
  <path class="fil1" d="M3157 1041c1,-1 2,-2 2,-3 -1,0 -3,1 -4,2 0,1 -1,2 -1,4 -1,1 -1,3 -3,5 0,0 0,1 0,1 1,-1 1,-2 2,-3 1,-3 3,-5 4,-6z"/>
  <path class="fil1" d="M688 185c7,2 15,3 21,8 8,6 5,8 9,17 5,13 16,17 29,24 5,2 18,9 25,18 1,0 2,1 3,1 2,1 3,2 5,2 2,1 5,0 8,0 4,-1 7,-2 11,-1 8,1 13,7 18,12 3,3 6,6 9,8 2,1 4,2 6,3 7,3 14,5 20,11 2,1 3,2 5,4 5,4 7,6 11,5 0,0 0,-1 1,-1 1,-1 2,-2 4,-3 9,-2 15,3 20,6l1 1c8,5 11,7 8,15 -1,1 -1,2 -2,3 -3,13 4,22 13,33l2 1c5,7 10,9 16,9 2,0 3,0 4,-1 6,0 16,-2 21,6 2,4 1,8 1,12 -1,1 -1,2 -1,3 1,3 9,13 14,16 3,1 5,2 8,4 8,4 16,7 18,15 2,5 0,10 -3,16 -5,9 -6,11 0,20 5,7 9,14 11,20 3,6 5,13 7,20 2,-1 5,-3 7,-6 3,-2 5,-4 9,-5 4,-2 16,-5 22,-1 5,3 5,8 5,11 0,2 0,3 1,4 1,3 4,7 8,11 4,3 7,7 9,11 1,2 3,5 4,8 1,4 3,10 5,12 6,4 22,3 29,3 2,0 3,0 4,0 1,-2 1,-3 3,-4 6,-7 11,-11 22,-9 9,2 10,6 10,11 0,2 0,4 1,6 1,1 1,2 4,4l1 1c3,2 5,5 6,7 1,1 1,2 3,4 4,5 8,3 18,-4 3,-2 5,-4 8,-5 6,-3 13,-3 17,1 5,4 7,11 5,18 -1,2 -2,4 -2,5 -2,3 -2,3 -1,4 1,1 4,2 6,2 3,2 6,3 8,5 2,2 3,3 4,5 0,-2 1,-4 1,-6 2,-8 3,-20 16,-10 12,8 9,14 13,25 5,13 24,15 33,5 3,-2 3,-6 5,-8 6,-5 18,-4 25,-7 8,-14 24,-17 21,-36 -1,-6 -5,-11 -7,-17 -1,-8 5,-22 1,-29 -5,-7 -21,-6 -29,-8 -8,-2 -14,-7 -20,-13 -11,-11 -26,-28 -29,-44 -2,-11 1,-16 9,-23 4,-3 8,-4 11,-7 8,-7 5,-17 8,-27 2,-8 8,-13 12,-20 3,-6 2,-8 8,-12 9,-6 23,-4 34,-4 23,0 25,-13 34,-31 7,-15 21,-15 32,-25 12,-10 10,-21 13,-35 2,-10 8,-17 12,-27 8,-17 -3,-29 -21,-24 -9,2 -8,7 -16,3 -9,-5 -11,-19 -21,-21 -10,-2 -11,2 -20,-5 -7,-5 -10,-10 -14,-18 -9,-16 -18,-22 -35,-9 -18,13 -37,-1 -54,10 -7,4 -9,10 -19,12 -10,3 -20,-4 -29,3 -8,6 -9,17 -14,25 -12,19 -45,11 -62,4 -4,-2 -7,-5 -11,-6 -5,-2 -11,1 -16,-1 -13,-3 -33,-18 -36,-32 -3,-14 18,-31 9,-42 -3,-4 -13,-4 -17,-5 -10,-2 -7,-3 -14,-8 -15,-8 -33,-7 -48,-14 -7,-3 -10,-13 -15,-19 -9,-11 -29,-12 -42,-23 -18,-15 -33,-20 -51,-31 -16,-11 -32,-39 -53,-29 -19,10 -14,32 -28,41 -7,4 -16,4 -23,3 -19,-3 -58,-11 -69,13 -3,6 2,12 -4,17 -7,6 -20,2 -28,3 -17,1 -26,8 -36,22 -6,8 -7,18 -12,26 -24,1 -28,16 -11,33 15,15 49,19 68,25z"/>
  <path class="fil1" d="M1847 1216c6,3 11,6 11,12 0,5 -4,8 -8,11 -1,0 -3,1 -4,2 -3,1 -6,3 -7,5 -2,3 1,10 6,17 1,2 2,4 4,7 1,2 2,5 3,6 3,3 7,4 11,6 6,2 13,4 17,11 7,10 11,17 10,20 0,9 -9,9 -12,8 -2,0 -5,0 -6,1 -1,0 -1,1 -2,3 -1,2 -2,4 -5,5 -4,3 -9,4 -14,4l-2 0c-8,1 -12,2 -14,6 9,1 24,6 30,15 2,3 3,7 1,11 -1,3 -3,5 -4,6 -1,1 -3,2 -3,2 0,1 1,2 1,3 0,1 1,2 1,3 1,7 -1,13 -5,17 5,4 14,6 21,8 3,0 6,1 8,1 4,2 8,2 12,3 3,1 7,2 11,3 8,2 19,6 21,19 1,8 -4,13 -14,15 -2,0 -4,0 -6,0 -2,0 -4,0 -6,1 -2,0 -4,1 -6,1 -4,2 -9,3 -14,3 -5,0 -8,-2 -11,-4 -2,-2 -3,-3 -5,-4 -5,-1 -8,-2 -9,0 -1,0 -2,2 -3,4 -1,2 -2,5 -4,7 -4,4 -10,6 -14,7l-3 1c-4,2 -5,3 -6,6 -1,2 -1,4 -3,7 -4,8 -9,13 -19,16 -3,2 -7,2 -10,3 -12,4 -18,6 -19,18 0,3 1,6 3,10l1 3c5,10 4,15 1,25 -2,7 -1,9 7,14 2,1 3,1 5,2 6,3 16,7 12,19 4,-1 8,-2 12,0 2,1 4,3 5,4 3,2 4,3 6,2 2,-1 3,-2 4,-5 1,-3 1,-5 3,-7 6,-9 17,-9 25,-9l3 0 1 4c2,9 7,10 17,12 3,1 7,2 10,3 9,3 12,9 15,15 1,2 1,3 2,5 1,-1 1,-1 2,-2 2,-3 4,-6 7,-8 6,-3 13,-1 19,1 1,0 2,1 4,1 4,1 5,1 5,1 1,0 1,-1 1,-1 2,-2 3,-4 8,-6 9,-4 19,-3 28,-2 3,1 5,1 8,1 11,1 23,-5 35,-12 0,-3 2,-7 4,-10 1,-1 2,-3 2,-4 1,-1 1,-2 1,-4 1,-3 2,-8 6,-11 4,-3 9,-2 14,-2 2,0 6,0 7,-1 0,0 1,0 1,-3l0 -4 4 0c1,0 2,-1 3,-1 9,-1 16,-1 20,2 3,2 3,6 4,9 0,1 1,3 1,4 1,2 3,2 5,3 2,1 3,1 4,2 6,3 9,6 12,10 3,3 5,7 7,11 3,5 6,11 10,13 2,1 4,0 4,0 3,-2 4,-6 4,-11l0 -3 3 -1c7,-3 15,-3 22,-2 3,0 5,0 7,0 -1,-6 1,-10 8,-13 6,-2 12,-4 19,-5 2,-1 5,-2 8,-2 0,-1 0,-2 0,-3 2,-8 3,-15 1,-22 -5,-21 8,-35 18,-43 3,-2 3,-3 5,-6 0,0 0,-1 0,-2 1,-3 1,-6 4,-8 3,-4 8,-3 13,-3 3,0 7,0 8,-1 1,-1 2,-3 3,-5 1,-1 2,-3 3,-4 5,-6 9,-7 13,-8 1,0 3,-1 4,-2 9,-3 20,-16 21,-25 0,-4 -3,-6 -8,-10 -5,-3 -11,-8 -12,-17 -1,-11 5,-16 11,-21 1,-2 3,-3 5,-5 4,-4 6,-8 7,-13l0 -3c2,-6 2,-9 9,-15 9,-9 11,-13 11,-15 -1,-3 -4,-5 -8,-7 -2,-1 -4,-3 -5,-4 -1,0 -1,-1 -2,-1 -1,1 -2,3 -3,6 0,-1 -1,-1 0,0 0,0 0,0 0,0 -4,4 -15,2 -21,3 -10,1 -12,6 -21,9 -9,4 -22,5 -31,4 -9,0 -17,-2 -24,-8 -4,-3 -6,-12 -10,-14 -10,-6 -14,5 -21,10 -8,6 -16,7 -26,9 -18,4 -23,-9 -39,-14 -13,-4 -29,-6 -42,-5 -14,2 -28,7 -39,-7 -5,-6 -3,-5 -3,-12 1,-9 5,-4 -2,-10 -17,-17 -37,-1 -58,-2 -17,-1 -28,0 -39,-15 -9,-11 0,-31 -7,-40 -6,-7 -29,-4 -38,-6 -14,-3 -21,-12 -37,-11 -1,0 -2,0 -3,0 1,1 3,2 4,3z"/>
  <path class="fil1" d="M2510 1285c0,3 1,7 3,10 4,10 1,26 -8,32 -2,1 -3,1 -4,2 -2,1 -3,1 -4,5 -1,3 -1,7 0,11 0,3 0,5 0,8 2,3 3,7 5,10 5,6 14,8 16,15 1,1 1,2 1,3 4,-2 8,-2 14,-2 3,1 6,1 8,2 3,1 6,1 9,1 -1,0 -1,0 -1,0 0,-4 0,-10 5,-14 5,-5 14,-4 20,-3l2 0c3,0 7,0 12,0 17,0 31,1 37,6 3,3 4,6 4,9 2,5 2,6 6,7 3,0 5,-1 9,-3 4,-2 8,-5 13,-5 0,0 0,0 0,0 5,0 9,2 13,3 5,1 9,2 14,-2 5,-4 5,-8 5,-14l0 -7 4 0c3,0 6,0 9,0 4,1 10,1 12,0 2,-1 3,-4 5,-6 1,-2 2,-4 3,-6 3,-4 11,-14 21,-15 5,-1 10,1 14,5 7,8 7,18 6,27 -1,12 -1,19 9,23 3,1 5,0 8,-2 4,-2 10,-5 19,3 3,3 5,5 6,7 4,4 6,7 12,9l2 1c13,4 23,7 20,27 0,2 -1,4 -2,6 0,2 -1,3 -1,4 0,1 0,2 0,4 1,3 2,6 0,10 -3,8 -11,9 -18,10 -3,0 -7,1 -9,3 -1,0 -1,1 -2,2 2,2 5,4 6,6 2,3 4,9 2,12 -3,3 -8,5 -11,8 -1,1 -1,3 -3,4 -1,1 -3,1 -4,2 -5,6 -3,18 -4,25 -1,8 -6,21 -13,26 -1,1 -2,2 -4,2 1,0 1,0 1,0 4,6 8,11 14,12 8,1 10,5 12,9 0,2 1,3 2,5 1,2 3,3 8,3 1,0 1,-1 2,-1 0,0 0,0 0,-1 0,-1 0,-3 0,-5 2,-7 5,-10 9,-12 1,-1 2,-2 4,-4 2,-2 2,-5 3,-9l0 -2c0,-1 0,-2 0,-2 1,-4 2,-5 4,-7l1 0c3,-2 8,-4 12,-5l3 -2 3 4c3,6 9,9 15,9 5,-5 6,-13 7,-21 0,-3 1,-5 1,-8 1,-2 1,-4 1,-7 1,-5 1,-11 5,-17 2,-4 6,-6 9,-9 2,-1 4,-2 6,-4 3,-3 2,-6 2,-12l0 -2c-1,-11 3,-18 7,-26l2 -3c4,-6 5,-9 3,-12 -2,-3 -6,-6 -9,-8 -5,-4 -8,-8 -8,-13 0,-4 3,-8 7,-11l1 -1c2,-1 3,-1 4,-3 1,-2 1,-4 2,-5 1,-4 2,-7 5,-11l4 3 -2 -4c2,-1 5,-4 7,-7 4,-4 7,-9 12,-11 4,-2 8,-2 12,-1 1,0 3,0 4,0 2,0 3,-1 3,-1 0,0 0,-1 0,-2 0,-4 0,-7 -1,-11 -1,-4 -2,-9 -1,-14 1,-8 5,-13 10,-18 3,-3 7,-7 7,-11 1,-2 1,-5 0,-8 0,-7 -1,-15 4,-20 4,-5 10,-7 16,-8 4,-2 8,-3 10,-5 3,-2 3,-3 5,-6 1,-2 2,-4 3,-6 4,-4 6,-5 10,-6l1 0c6,-2 15,-6 13,-17l0 -1c-1,-5 -2,-10 1,-13 2,-3 5,-4 9,-4 1,0 3,0 5,0 4,1 11,1 13,-1 0,0 1,0 1,-2l-1 -4 4 0c2,-1 4,-1 7,0 3,0 7,0 9,-1 0,0 0,-1 0,-1 1,-2 1,-3 2,-4 0,-2 2,-3 3,-4 0,-1 0,-1 1,-2 2,-3 3,-6 5,-10 3,-6 6,-7 11,-7 1,0 2,-1 3,-1 3,0 5,-2 8,-4 3,-2 6,-4 11,-5 3,-1 6,-1 8,-1 9,-1 14,-1 18,-6 3,-5 0,-10 -5,-17 -1,-2 -2,-3 -2,-5 -1,-1 -2,-2 -3,-3 -2,-3 -5,-7 -6,-11 0,-2 0,-3 0,-5 0,0 0,-1 0,-1 0,-1 -1,-3 -2,-4 -3,-4 -8,-12 0,-19 2,-2 5,-4 7,-5 4,-2 5,-2 6,-6 0,-1 -1,-3 -1,-4 0,-3 0,-7 1,-11 1,-2 2,-4 4,-6 -8,7 -18,11 -29,10 -2,-1 -4,-1 -6,-1 -10,-2 -14,-2 -19,6 -1,1 -1,2 -2,3 -2,3 -3,7 -7,9 -4,3 -8,3 -12,3 -2,0 -4,0 -6,1 -7,3 -11,9 -15,16 -2,3 -4,7 -7,10l-1 1c-4,5 -7,8 -14,10 -3,1 -7,1 -10,2 -6,1 -12,1 -17,4 -3,1 -5,3 -8,5 -3,3 -7,5 -11,7 -3,1 -5,2 -8,2 -2,1 -5,1 -7,2 -12,6 -21,19 -28,30 -4,6 -4,7 -5,13 0,8 -1,18 -8,24 -3,3 -8,4 -13,5 -9,1 -10,2 -10,5 0,0 1,1 1,2 1,1 3,4 2,7 -1,2 -3,4 -5,5 -5,2 -11,1 -21,-1 -2,0 -4,-1 -6,-1 -4,0 -8,0 -12,-1 -8,0 -17,0 -27,-3 -1,0 -3,-1 -4,-1 -6,-2 -17,-6 -21,-4 -1,1 -1,1 -2,2 -1,2 -2,4 -5,6 -2,1 -4,1 -6,2 -1,0 -3,1 -4,1 -1,1 -2,2 -3,3 -2,1 -4,3 -6,4 -3,1 -6,2 -8,2 -6,0 -11,-2 -16,-4 -4,-1 -8,-2 -11,-2 0,0 0,1 0,1 -6,2 -13,4 -20,6 -9,4 -20,8 -28,12 -5,2 -9,6 -15,7 -12,1 -24,-7 -36,-8 -8,-1 -17,-1 -25,1 -7,1 -13,5 -20,7 -6,1 -18,3 -25,1 -6,-2 -11,-9 -18,-11 -9,-3 -25,3 -32,8 -8,5 -9,17 -18,22 -1,0 -2,1 -4,1z"/>
  <path class="fil1" d="M1571 2455c0,0 -1,0 -1,0 -1,1 -2,3 -4,4 -5,3 -11,2 -17,1 -5,0 -11,-1 -15,2 0,1 0,4 -3,5 -2,1 -4,2 -6,2 -5,0 -10,-2 -12,-4 -5,-4 -6,-10 -6,-16 -1,-1 -1,-2 -1,-3 0,-3 -1,-6 -2,-9 -1,-6 -3,-12 -3,-17 0,-1 0,-3 1,-4 0,0 0,-1 0,-1 -1,-1 -3,1 -4,1 -2,1 -4,2 -6,2 -3,1 -8,1 -11,-2 -3,-3 -3,-7 -3,-10 0,-1 0,-3 0,-4 0,-2 -1,-3 -3,-5 -2,-2 -3,-3 -5,-6 -1,-3 -2,-5 -2,-7 0,-1 0,-2 0,-3 -1,-6 -6,-15 -11,-17 -1,0 -2,0 -3,0 -2,1 -5,1 -8,0 -3,-2 -5,-4 -6,-6 -2,-2 -3,-3 -4,-3 -1,-1 -2,-1 -3,-1 -3,0 -7,1 -10,-2 -3,-3 -4,-6 -4,-9 -2,-4 -2,-5 -5,-4 -3,0 -6,3 -7,7l-1 3 -3 0c0,0 0,0 0,0 -9,0 -12,-3 -15,-5 -1,-2 -2,-3 -5,-4 0,0 -2,-1 -3,-1 -3,0 -8,0 -11,-5 -2,-4 0,-10 1,-14 1,-3 2,-6 1,-8 -1,-4 -4,-8 -6,-9l-3 0 0 -3c-2,-7 1,-10 4,-11 1,-1 1,-1 2,-2 1,-2 2,-5 3,-8 1,-1 2,-3 3,-5 6,-13 7,-20 -3,-28 -1,-1 -2,-1 -3,-2 -2,0 -4,-1 -6,-3 -1,-2 -1,-4 -1,-5 -3,-3 -7,-5 -10,-6 -4,0 -7,2 -11,4 -5,4 -12,9 -22,5 -3,-1 -5,-3 -7,-4 -2,-1 -3,-2 -5,-3 -1,0 -4,0 -6,1 -4,0 -5,1 -5,1 -1,1 0,4 1,6 1,5 2,12 -4,16 -6,6 -15,-1 -20,-5l-1 -1c-7,-5 -9,-11 -12,-18 -1,-1 -1,-3 -2,-5 -3,-6 -7,-10 -11,-12 -1,0 -3,-1 -4,-1 -3,0 -7,-1 -11,-5 -1,-2 -2,-5 -3,-7 -1,-3 -2,-6 -4,-6 0,0 -2,0 -3,0 -1,1 -2,1 -3,1 -12,1 -16,-4 -20,-8 -2,-2 -3,-4 -6,-6 0,0 -1,1 -1,1 -1,0 -3,1 -3,1 0,1 0,2 1,3 1,2 3,5 2,10 -2,4 -4,8 -6,11 -3,5 -6,9 -5,15 0,2 0,4 1,6 1,7 3,16 -4,22 -3,2 -5,3 -7,4 -2,1 -4,2 -5,3 -1,1 -2,4 -2,6 0,2 -1,3 -1,5l-1 3 -3 0c-7,1 -12,-3 -15,-7 -2,-1 -4,-3 -5,-4 -1,0 -2,-1 -3,-1 0,1 0,1 0,2 -1,1 -1,3 -2,5 -2,3 -3,4 -5,5 0,0 -1,0 -1,1 -1,1 -2,1 -3,2 -1,1 -2,1 -2,2 -1,2 1,5 3,8 1,2 2,4 3,6 1,5 3,8 -1,10 0,0 0,0 0,1 0,1 -1,2 -1,3 -1,1 -1,1 0,3 0,2 2,3 3,5 3,3 6,6 6,11 -1,3 -6,13 -7,15 -3,4 -8,7 -12,9 -2,2 -5,3 -7,5 -1,1 -2,3 -4,5 -1,2 -3,5 -5,7 -3,2 -6,2 -9,3 0,0 -1,0 -1,0l0 1c-1,9 2,16 6,23 5,9 10,18 6,31 -3,9 -4,17 -5,26 -1,4 -2,8 -2,12 -2,9 -7,12 -12,15 0,0 0,0 -1,0 7,1 16,4 16,14 0,7 -5,12 -9,16 -2,3 -4,5 -5,7 -2,5 -3,10 -4,15 0,5 -1,10 -4,16 0,2 -2,4 -3,6 -1,3 -3,5 -3,8 0,4 4,8 7,13 6,7 14,16 7,29 -5,8 -14,11 -23,13 -1,0 -2,1 -3,1 2,2 4,3 7,4 12,7 26,15 19,34 -1,3 -2,5 -3,6 -2,3 -2,4 -1,8 1,3 3,6 5,9 3,3 6,7 7,12 5,2 11,2 18,2 6,1 12,1 18,3 4,1 7,4 11,6 4,2 7,4 12,5 5,1 5,0 7,-5 1,-2 2,-4 4,-6 3,-4 7,-6 10,-8 2,-1 4,-2 6,-3 1,-1 1,-1 1,-3 0,-2 0,-4 1,-6 2,-5 10,-8 14,-9 4,-1 7,-1 11,1 2,1 3,2 5,3 1,1 3,2 4,3 1,0 1,-1 2,-1 2,-1 4,-2 7,-1 2,1 4,2 6,3l2 1c1,0 2,1 3,2 0,0 2,1 2,1 1,0 4,-2 6,-4 2,0 2,-2 3,-4 1,-4 2,-7 5,-10 6,-4 11,0 15,2 1,1 3,2 3,2 2,1 3,0 5,0l0 0c7,-2 10,-5 10,-13 -1,-4 -2,-5 -4,-8 -2,-1 -3,-2 -4,-4 -3,-3 -3,-7 -3,-9 1,-6 8,-10 13,-12 3,-2 5,-3 8,-3 2,-1 4,-2 5,-3 1,0 2,-1 2,-2 2,-2 4,-4 7,-5 4,-1 7,-1 10,-1 3,1 5,1 7,0 2,-1 3,-2 5,-3 1,-2 4,-4 6,-5 10,-5 15,-2 23,1l4 2c4,1 10,4 13,2 0,-1 0,-1 0,-3 0,-2 0,-3 1,-6 0,-3 3,-5 4,-7 1,-1 3,-2 3,-3 0,-1 0,-4 0,-6 0,-4 -1,-8 1,-11 4,-6 16,-6 21,-5 4,2 8,6 12,10 3,3 7,7 9,7 2,-1 2,-6 0,-16 0,-2 -1,-4 -1,-6l0 -3 3 -1c2,-1 5,-2 7,-3 5,-2 8,-3 10,-6 2,-1 3,-3 4,-4 2,-4 5,-8 13,-11 9,-3 20,-5 25,0 2,1 2,2 3,3 7,-4 14,-3 21,-3 7,1 13,1 19,-2 6,-3 12,-9 14,-13 1,-2 1,-4 1,-6 0,-4 1,-8 7,-13 2,-2 5,-3 7,-5 8,-5 13,-8 13,-15 -1,-3 -1,-4 -2,-5 -1,-4 -1,-6 2,-10 0,-1 -1,-1 -1,-1z"/>
  <path class="fil1" d="M2287 1489c0,0 -2,0 -3,0 -2,-1 -4,-1 -6,-2 -4,-2 -10,-6 -15,-11 -1,1 -2,1 -3,2 -4,3 -9,3 -13,3 -3,-1 -6,-1 -8,0 0,1 0,2 0,3 0,2 -1,4 -1,5 -2,5 -4,6 -8,9 -13,11 -17,21 -14,34 2,9 1,17 -1,25 0,2 -1,4 -1,6l0 2 -3 1c-4,1 -7,2 -11,3 -6,2 -12,3 -17,5 -3,1 -3,2 -3,2 0,0 0,1 0,2 0,2 0,3 1,4l0 5 -4 0c-5,1 -9,1 -13,0 -6,0 -11,0 -16,1 -1,6 -3,12 -8,15 -3,3 -8,3 -12,1 -7,-3 -11,-10 -15,-17 -2,-3 -3,-7 -5,-9 -4,-4 -6,-6 -10,-8 -1,-1 -2,-1 -3,-1 -3,-2 -6,-3 -9,-7 -2,-2 -2,-5 -3,-7 0,-2 0,-4 -1,-4 -2,-1 -10,0 -13,0 0,0 0,0 0,0 -1,3 -2,5 -3,6 -4,3 -9,3 -14,3 -3,0 -6,-1 -7,0 -2,1 -2,4 -3,7 -1,1 -1,3 -2,4 0,2 -1,4 -3,6 -1,2 -3,5 -3,7l2 3 -4 2c-12,7 -28,15 -42,14 -2,0 -5,-1 -8,-1 -8,-1 -17,-1 -23,1 -3,2 -4,3 -5,4 -3,3 -6,5 -15,3 -1,0 -3,-1 -5,-1 -4,-1 -10,-3 -12,-2 -1,1 -3,3 -4,5 -2,3 -4,6 -6,7l-3 2 -3 -2c-3,-3 -6,-8 -7,-11 -3,-5 -5,-9 -10,-11 -3,-1 -6,-1 -9,-2 -9,-2 -19,-4 -23,-16 -7,0 -11,1 -14,5 -1,1 -1,3 -2,5 -1,3 -3,8 -8,10 -8,3 -13,-1 -16,-3 -1,-1 -2,-2 -3,-3 -2,-1 -4,0 -8,1 -2,1 -4,2 -6,2 -3,4 -7,7 -10,10 -4,3 -8,6 -10,10 -4,5 -4,13 -4,21 0,1 0,3 0,4 3,0 6,1 10,4 1,1 2,2 3,3 0,1 1,2 2,3 1,1 3,1 4,2 1,1 2,1 4,2 5,3 10,6 13,12 1,2 2,4 2,6 1,2 1,4 2,6 1,1 4,4 5,5l1 1c3,2 4,3 5,6l1 3c1,2 1,2 2,2 3,2 8,2 13,2 2,-1 4,-1 6,-1 4,0 9,2 11,5 3,3 4,7 4,11 0,3 -1,6 -2,9 -1,3 -2,5 -1,8 1,1 1,2 1,3 1,2 2,4 2,8 0,1 0,3 0,4 0,1 0,3 0,5 0,2 2,4 3,7 1,2 3,5 3,8 2,7 -1,11 -3,15 -2,2 -3,4 -3,6 0,0 0,1 0,1 0,0 2,0 3,0l4 0c4,1 10,1 13,2 2,2 4,3 6,5 2,2 3,3 4,2 1,0 1,0 2,0 4,-2 9,-3 12,0 4,3 2,9 1,11 -2,7 -9,10 -15,13 -3,1 -7,2 -8,4 -1,1 -2,3 -2,5 0,3 0,6 -2,8 -1,3 -5,6 -10,10 -1,0 -3,1 -4,1 -1,1 -2,1 -3,2 1,-1 2,-1 3,-1 5,-2 9,-2 16,4 7,6 9,6 20,6 4,0 8,-1 12,-1 2,0 4,-1 7,-1 3,0 6,-1 9,-2 3,-1 6,-2 10,-2 4,-1 8,0 11,1 4,1 6,2 9,-1 5,-3 10,-6 15,-5 4,1 8,4 11,10 5,9 3,16 1,22 -1,2 -3,5 -3,8 -1,9 0,10 6,11 3,1 5,2 7,3 5,2 10,4 13,2 2,-1 3,-3 4,-6 3,-4 6,-9 16,-10 5,-1 10,0 14,1 6,2 9,3 12,-4l3 -5 4 3c2,1 3,3 5,5 5,5 11,11 16,9 6,-2 8,-10 7,-15 -1,-2 -1,-3 -2,-4 -1,-4 -3,-8 -2,-14 1,-3 3,-6 5,-8 1,-3 3,-5 3,-7 0,0 -1,-1 -2,-2 -1,-1 -3,-3 -3,-5 -2,-4 -1,-7 -1,-11 1,-1 1,-3 1,-4l0 -4 4 -1c11,-1 21,5 28,14l1 1c7,9 9,13 20,13 2,0 3,0 4,0 6,0 13,0 19,3 2,2 3,3 4,5 0,0 1,1 1,1l2 3c3,5 4,8 10,9 0,0 0,0 0,0 0,-2 0,-4 -1,-5 0,-1 -1,-2 -2,-3 -2,-2 -4,-4 -5,-8 -1,-3 -1,-7 -2,-9 0,-5 0,-8 -3,-12 -5,-5 -10,-9 -17,-11 -12,-3 -14,-7 -18,-17 -5,-12 -9,-15 -19,-16 -2,0 -4,0 -6,0 -14,-1 -33,-1 -41,-16 -1,-4 -2,-8 -2,-13 0,-3 -1,-7 -2,-9 -1,-2 -3,-5 -6,-7 -5,-5 -11,-11 -9,-20 2,-8 13,-16 21,-15 3,1 5,3 8,4 1,1 3,3 4,3 1,-1 2,-3 3,-3 6,-1 11,-1 17,0 6,1 11,4 15,7 5,3 9,5 12,4 2,0 4,-3 7,-7 2,-4 4,-7 6,-10 3,-5 6,-10 8,-16 6,-20 17,-29 35,-28 3,0 5,0 7,0 4,1 7,1 10,0 2,-1 4,-2 6,-4 2,-1 4,-3 7,-4l2 -1c4,-2 6,-3 9,-6 3,-2 4,-5 6,-8 1,-3 2,-5 3,-7 6,-8 13,-8 19,-9 4,0 8,0 11,-2 6,-4 7,-9 8,-17 0,-3 1,-7 2,-11 1,-5 4,-8 6,-12 4,-5 6,-8 3,-15 -3,-9 -7,-19 -1,-30 1,-2 3,-3 4,-4 2,-2 3,-4 3,-5 0,-1 0,-2 -1,-4 -1,-2 -2,-3 -3,-5 -2,-4 -1,-9 -1,-14 0,-2 0,-4 0,-7 0,-1 0,-2 0,-4 0,-1 0,-5 -1,-6z"/>
  <path class="fil1" d="M1320 1987c1,3 12,10 15,9 0,0 1,-1 2,-2 0,-1 1,-2 1,-3 1,-1 2,-3 3,-5 3,-5 7,-12 13,-15 5,-2 11,-1 15,1 3,0 5,1 7,1 5,0 9,-4 13,-9 3,-2 6,-5 9,-7 1,-1 1,-1 2,-1 4,-4 6,-3 12,0 4,2 7,5 10,8l1 1c4,5 8,9 11,15 2,2 3,4 4,7 2,6 4,10 8,11 1,0 3,1 5,1 4,1 8,1 11,3 1,-4 3,-6 5,-8 1,-1 3,-3 4,-5 3,-4 1,-7 -2,-12 -3,-3 -5,-7 -6,-12 -1,-9 4,-15 9,-21 1,-2 3,-5 4,-7 1,-1 2,-3 3,-5 1,-4 3,-7 5,-11 1,-1 2,-2 3,-3 3,-3 4,-5 5,-9l1 -3c0,-4 1,-8 6,-13 2,-1 3,-2 5,-3 2,-1 3,-1 4,-2 3,-6 3,-14 3,-21 -1,-4 -1,-7 -1,-10l1 -2 2 -2c9,-5 20,-4 29,-2 2,0 4,1 6,1 5,0 11,-1 18,-3 1,-1 2,-1 3,-2 3,-1 6,-3 10,-3 2,-1 5,-1 7,0 3,0 6,0 8,-1 3,-1 3,-3 3,-8 0,-3 0,-5 1,-8 -1,0 -2,0 -3,-1l-21 -3 21 -5c5,-1 5,-2 5,-6 0,-2 0,-6 1,-9 6,-17 22,-24 35,-27 0,-2 0,-4 0,-6 0,-4 0,-8 1,-12 0,-5 0,-8 -3,-12 -3,-3 -11,-9 -14,-9 -1,1 -3,2 -5,2 0,0 0,0 0,0 -6,0 -10,-3 -13,-5 -2,-1 -4,-3 -6,-4 -2,0 -7,1 -10,2 -7,2 -13,3 -17,-1 -3,-4 -1,-9 0,-11 1,-2 2,-3 2,-4 2,-4 2,-5 3,-9 0,-7 1,-11 4,-17 2,-4 2,-4 1,-6l0 -3c0,-4 -1,-13 7,-16 5,-2 13,1 24,5 4,1 8,2 9,3 3,0 5,0 8,1 3,0 6,0 8,1 4,0 9,2 13,3 5,2 9,3 14,4 3,0 7,-1 10,-2 4,-1 8,-2 13,-3 2,0 4,0 6,1 4,0 6,0 8,-2 2,-1 2,-1 2,-3 0,-1 0,-3 1,-5 1,-3 2,-4 4,-6 -3,-1 -4,-3 -7,-7 -5,-9 -3,-13 2,-18 1,-1 3,-2 4,-4 3,-5 2,-10 1,-16 0,-3 -1,-7 -1,-11 0,-3 1,-7 2,-11 3,-12 3,-15 -1,-16 -2,-1 -4,0 -7,1 -2,1 -5,2 -8,2 -4,0 -7,-1 -9,-2 -1,-1 -2,-1 -2,-1 -2,3 -4,6 -7,7 -8,2 -17,-7 -26,-15 -4,-3 -9,-8 -11,-9 -2,0 -4,0 -7,0 -5,1 -11,2 -16,-2 -5,-4 -6,-9 -7,-13 -2,-5 -3,-8 -7,-10 -4,-2 -8,-2 -12,-2 -7,0 -14,-1 -20,-5 -5,-3 -8,-7 -10,-11 -3,-4 -5,-7 -10,-8 -5,-1 -9,-1 -11,1 -3,3 -5,8 -6,17 -1,2 0,4 0,6 0,5 1,11 -4,16 -5,6 -15,6 -25,7 -5,0 -10,0 -13,1l-5 2 0 -6c-1,-2 -1,-5 -1,-7 -1,-7 -1,-15 1,-22 -3,2 -5,3 -7,4 -4,2 -7,3 -9,3 -18,2 -23,-10 -26,-19 -3,-6 -5,-11 -9,-14 -1,-1 -1,-1 -3,0 -1,0 -4,1 -7,-1 -4,-1 -7,-4 -9,-7 -6,-5 -9,-8 -12,-6 -7,2 -9,11 -12,20 -3,12 -6,26 -21,26 -11,-1 -18,-7 -26,-14 -7,-6 -13,-11 -21,-11 -4,-1 -7,2 -11,4 -2,2 -4,3 -6,4 -10,6 -17,6 -27,4 -12,-2 -15,-3 -18,-16 0,-3 -1,-5 -1,-7 0,-4 0,-4 -4,-6 -4,-1 -5,0 -8,3 -2,2 -3,3 -6,5 -3,2 -6,2 -8,3 -4,0 -5,1 -7,4 -1,3 -1,5 1,9 1,2 2,4 3,6 1,8 -1,13 -2,19 -1,2 -2,5 -3,8 6,0 17,2 22,9 2,3 2,7 3,11 0,2 0,5 1,6 1,2 1,4 2,5 0,0 0,0 1,1l1 1c2,1 3,2 5,4 5,3 11,7 12,16 0,4 -1,8 -2,11 -1,2 -1,4 -1,6 0,1 0,3 0,5 1,5 2,10 0,14 -2,4 -6,7 -11,8 -13,1 -31,-14 -36,-21 -3,-3 -4,-6 -6,-8 -3,-6 -5,-8 -10,-8 -2,0 -4,0 -6,0 -5,1 -10,1 -16,-1 -14,-5 -20,-14 -22,-21 -3,-10 0,-23 9,-35 2,-2 5,-5 8,-8 4,-5 10,-11 11,-14 0,-1 0,-2 -1,-4 0,-2 -1,-4 -1,-6 0,-6 3,-9 5,-11 1,-2 2,-3 3,-4 0,-3 -1,-5 -3,-8 -2,-4 -5,-9 -3,-17 4,-12 15,-14 24,-15 3,-1 6,-2 9,-3 3,-2 3,-3 4,-6 0,-2 0,-5 1,-9 3,-8 11,-12 18,-15 3,-1 6,-3 9,-5 2,-1 3,-2 5,-3 4,-2 12,-7 13,-9 2,-4 -1,-9 -3,-15 -4,-7 -8,-16 -2,-26 2,-5 4,-8 7,-11 5,-6 8,-10 5,-20 -2,-12 -14,-16 -20,-18 -7,-2 -16,-2 -25,-1 -13,2 -16,-1 -21,-7 -2,-2 -4,-5 -7,-8 -2,-2 -3,-3 -3,-4 -1,0 -2,0 -3,0 -1,-1 -3,-1 -4,-1 -3,0 -7,0 -10,-2 0,0 0,0 0,0 -4,4 -8,6 -13,7 0,1 0,1 0,2 1,5 2,9 -6,15 -6,3 -12,4 -18,6 -5,1 -10,2 -14,4 -1,1 -2,1 -2,3 -1,1 -2,2 -3,3 -4,5 -10,7 -15,9 -1,0 -2,1 -3,1 -9,3 -14,8 -21,13 -1,2 -3,3 -5,5 -2,2 -5,3 -7,4 -3,2 -6,3 -8,6l-2 3c-3,4 -7,9 -13,11 -6,3 -13,3 -19,3 -8,0 -14,0 -19,5 -2,2 -3,4 -3,7 -1,1 -1,3 -2,4 -2,6 -8,9 -13,11 -3,1 -6,3 -7,5 -3,5 1,12 6,19 3,6 7,12 7,17 0,5 -2,8 -4,11 -1,2 -2,4 -2,6 0,9 8,14 16,15 9,1 20,-1 32,-6 1,-1 2,-1 2,-1 2,-1 4,-3 9,-3 3,1 6,2 9,2 8,3 11,3 14,0l7 -12 1 14c0,2 0,4 1,6 1,4 2,9 0,14 -4,10 -15,11 -23,11 -1,1 -2,1 -3,1 0,0 0,0 0,0 -1,1 -1,1 -1,2l0 3 -2 1c-6,2 -11,2 -16,2 -3,0 -6,-1 -8,0 -11,1 -23,6 -24,11 -1,3 -1,5 4,8 1,0 2,1 3,1 3,1 5,2 7,4 2,2 3,5 3,7 1,1 1,3 2,3 1,2 4,3 7,4 4,2 8,3 10,8 1,5 -2,9 -5,13 -4,5 -10,8 -15,10 -4,2 -7,4 -10,7l-2 2 -3 -2c-2,0 -3,-2 -5,-3 -1,-1 -3,-3 -4,-3 -1,2 3,10 6,12 9,7 20,16 20,32 0,5 0,12 -5,14 -6,3 -13,-3 -20,-9 -3,-2 -4,-4 -6,-5 -4,-3 -10,-2 -16,-2 -4,0 -8,0 -13,-1 -9,-1 -13,-8 -17,-13 -4,-5 -6,-8 -11,-7 -1,0 -2,1 -3,1 0,0 0,0 0,0 1,0 1,1 1,2 2,10 1,15 -9,23 -5,4 -10,6 -15,8l-3 2c-3,2 -3,3 -3,6 0,3 0,7 -3,12 -5,9 -14,7 -19,5 -3,-1 -5,-1 -8,-1 -2,0 -4,0 -6,2 0,1 -1,3 -2,4 -5,4 -10,4 -16,2 -6,-3 -11,-10 -11,-18 0,-13 17,-17 30,-20 1,-1 3,-1 4,-1 -1,-2 -2,-3 -3,-4 -4,-4 -8,-7 -8,-13 1,-10 11,-11 18,-12 4,-1 9,-2 11,-4 1,-4 -1,-7 -5,-13 -2,-4 -5,-7 -6,-11 -1,-6 2,-11 4,-16 3,-6 3,-9 2,-11 -2,-1 -12,-2 -14,-1 0,0 -1,2 -1,4 -1,3 -2,6 -5,8 -5,4 -16,5 -23,2 -5,-2 -8,-6 -8,-11 -1,-6 1,-9 3,-11 0,0 0,-1 0,-1 0,0 0,-1 -2,-4 -1,-1 -1,-1 -2,-2 -1,-1 -1,-2 -2,-4l0 -3c-1,-1 -1,-3 -1,-4 0,-1 0,-2 0,-3 -10,7 -23,7 -34,0 -6,-3 -9,-5 -10,-4 0,0 0,1 0,3 0,4 3,6 9,9 5,2 10,5 11,11 1,7 -7,10 -14,14 -2,1 -4,2 -5,2 -8,6 -12,10 -11,16 0,1 1,1 1,2 1,1 3,3 3,6 1,6 -1,10 -3,13 0,1 -1,2 -1,3 0,1 -1,2 -2,3 0,0 0,1 0,1 0,0 0,0 0,1 1,2 5,4 7,6 2,1 4,2 6,4 6,5 10,13 9,20 0,2 0,4 0,6 1,4 1,8 0,12 -1,3 -3,4 -5,5 -1,1 -1,2 -2,2 -3,5 -1,8 1,14 2,4 4,9 3,14 -2,17 -24,17 -39,18 -3,0 -7,0 -9,0 -7,1 -17,6 -18,8 0,1 4,3 5,4 3,2 6,4 8,7 3,4 2,9 2,13 0,2 0,5 1,6 1,1 2,1 3,2 3,1 6,2 7,6 1,2 0,4 -1,7 -5,7 -13,7 -20,7 -4,0 -7,0 -9,1 -3,1 -3,4 -4,5 0,3 0,6 2,8 1,2 3,4 4,5 5,5 13,12 2,23 -6,7 -9,11 -14,19 -5,7 -10,8 -14,8 -2,0 -4,0 -7,1 -4,1 -8,3 -9,5 0,0 3,2 8,5 3,1 5,2 7,4l5 4 -7 3c-1,1 -3,2 -4,2 -2,1 -4,2 -6,3 0,1 0,2 0,3 -1,3 -1,5 0,7 0,2 1,4 2,7 1,2 2,3 2,5 3,8 1,14 -1,20 8,2 19,1 26,-2 0,-1 1,-1 2,-2 2,-1 7,-5 12,-2 6,4 5,13 4,20 -1,1 -1,2 -1,3 -1,21 3,24 5,25 1,0 2,0 4,-1 3,-1 7,-3 12,-1 2,0 3,1 5,2 6,2 11,4 18,4 2,0 5,-1 8,-1 6,-1 13,-2 17,0 9,3 9,12 8,20 0,9 1,15 6,17 5,2 10,0 16,-4 4,-3 8,-5 13,-6 6,-1 13,1 19,3 3,2 5,3 8,3 3,1 8,0 13,-1 11,-1 24,-3 30,7 2,4 2,10 2,17 0,7 0,16 3,18 1,1 2,1 4,1 3,0 6,-2 10,-4 3,-2 7,-4 12,-4 2,-1 5,-1 8,-1 5,0 10,0 13,-1 5,-3 6,-8 7,-16 1,-7 2,-13 7,-18 5,-5 10,-6 16,-7 3,-1 6,-2 8,-3 4,-3 4,-6 4,-11 0,-5 0,-10 3,-14 8,-12 21,-6 30,-1 5,2 10,4 13,4 2,0 3,-1 4,-3 2,-2 6,-6 13,-2 4,2 19,17 17,25l0 2 -3 2c-11,4 -16,8 -17,10 0,2 1,3 2,4 6,5 16,1 26,-2 6,-2 11,-3 16,-3 3,0 6,0 11,1 8,2 19,4 21,-1 1,-1 0,-3 0,-5 -1,-4 -2,-8 0,-12 4,-8 22,-12 29,-12 9,1 12,7 15,11 1,3 3,5 5,7 6,4 15,8 21,3 1,0 2,-2 3,-4 2,-3 4,-7 9,-8 4,0 8,2 12,5 4,2 7,4 9,4 4,-1 5,-3 8,-9 2,-5 4,-11 11,-14 9,-5 36,-1 44,10 4,6 2,12 1,16 -1,3 -1,4 0,6z"/>
  <path class="fil1" d="M1855 1851l-1 -2 1 0c0,0 0,-1 0,-1 2,-5 6,-6 9,-8 1,0 2,-1 3,-1 6,-3 7,-5 7,-6 1,-1 1,-3 1,-5 1,-3 1,-7 5,-11 2,-2 6,-4 10,-6 5,-2 10,-4 11,-7 0,0 0,0 0,0 -1,0 -1,0 -2,0 -1,1 -3,1 -4,1 -6,1 -9,-2 -12,-5 -1,-1 -2,-2 -3,-3 -2,0 -6,-1 -9,-1l-4 0c-4,0 -8,0 -11,-4 -2,-3 -1,-7 -1,-9 1,-3 3,-6 4,-8 2,-3 3,-5 3,-8 -1,-2 -2,-4 -3,-6 -1,-3 -3,-6 -4,-10 0,-2 0,-4 0,-7 0,-1 0,-2 0,-3 0,-2 0,-3 -1,-5 0,-1 -1,-2 -1,-3 -2,-6 0,-11 1,-14 1,-2 1,-4 1,-6 0,-2 0,-4 -1,-5 -1,-1 -3,-2 -5,-2 -2,0 -3,0 -5,0 -6,1 -13,1 -18,-2 -4,-2 -5,-4 -6,-7l-1 -3c0,0 -1,-1 -1,-1 0,0 -1,-1 -2,-2l0 0c-2,-2 -6,-5 -7,-7 -2,-3 -3,-6 -3,-9 -1,-1 -1,-3 -2,-4 -1,-4 -6,-6 -9,-8 -2,-1 -3,-1 -4,-2 -2,-1 -4,-2 -5,-3 -2,-1 -4,-3 -4,-4 -1,-1 -2,-2 -2,-2 -1,-1 -3,-2 -3,-2 -1,0 -2,1 -4,3 -1,1 -2,2 -3,4 -7,10 -20,26 -35,18 -1,-1 -2,-1 -3,-2 -3,-2 -3,-2 -8,-2 -4,-1 -7,-3 -10,-5 0,1 -1,1 -2,2 -1,1 -2,2 -2,3 0,1 0,2 0,3 -1,3 -1,5 -4,8 -6,6 -12,5 -16,5 -2,-1 -4,-1 -5,-1 -4,0 -6,1 -10,2 -4,2 -9,4 -15,3 -5,-1 -10,-3 -15,-4 -4,-2 -8,-3 -12,-4 -2,0 -4,0 -7,-1 -3,0 -6,0 -8,-1 -3,0 -6,-1 -11,-3 -5,-2 -15,-5 -18,-5 -1,1 -2,2 -1,7l0 3c1,5 1,6 -2,11 -3,5 -3,7 -3,13 -1,6 -2,9 -4,12 0,2 -1,3 -2,4 0,1 0,1 0,2 2,0 5,-1 7,-2 6,-1 11,-2 15,-1 3,1 6,3 8,5 3,2 5,3 8,3 0,0 0,0 0,0 2,-1 4,-2 6,-2 6,1 17,10 19,12 6,6 6,12 5,19 0,4 0,8 0,12 0,3 0,6 -1,9l0 3 -3 1c-18,4 -28,11 -31,21 -1,3 -1,5 -1,7 0,3 0,6 -2,9l4 1 -4 5c-1,2 -1,4 -1,7 0,5 0,13 -8,17 -5,2 -9,2 -13,2 -2,-1 -3,-1 -5,-1 -2,1 -4,2 -7,3 -1,1 -2,1 -4,2 -6,2 -14,5 -22,4 -2,-1 -4,-1 -6,-1 -8,-2 -15,-3 -22,0 0,2 0,4 1,6 0,9 0,18 -4,26 -2,4 -6,5 -8,6 -1,1 -3,2 -3,2 -3,2 -3,4 -4,8 0,1 0,2 0,3 -2,6 -4,9 -7,13 -1,1 -2,2 -3,3 -2,2 -3,5 -4,8 -1,2 -2,5 -3,7 -2,2 -3,5 -5,7 -4,5 -8,10 -7,15 0,3 2,5 4,8 4,5 8,12 3,22 -2,3 -4,5 -6,6 -2,2 -3,3 -2,7l0 2c0,7 0,12 -10,17 -1,0 -3,1 -5,2 -6,3 -16,7 -17,11 0,1 -1,2 1,4 1,2 3,3 5,4 3,2 6,4 8,7 4,5 4,8 3,12 0,1 0,2 -1,3 0,1 0,2 0,3 -1,2 -1,5 -1,6 1,0 3,2 5,3 6,3 14,7 13,15 -1,5 -4,8 -7,10 -2,2 -4,3 -4,4 0,2 2,6 3,8l0 1c5,12 -9,23 -18,28l-5 3 0 -2c-1,2 -2,3 -3,4 -1,3 -3,5 -4,8 0,0 0,0 0,0 1,1 2,1 3,1 3,1 7,1 9,4 7,7 4,20 0,25 -1,2 -3,3 -5,4 -3,3 -4,4 -3,5 0,0 0,0 0,0l2 0c1,0 2,0 3,0 4,0 7,0 11,6 1,1 2,3 2,4 2,2 2,2 4,3 1,0 2,0 4,1 3,0 7,0 10,5 4,4 4,8 4,12 0,5 0,6 2,7 1,0 3,0 5,1 5,1 13,2 14,11 0,5 -1,8 -4,10 -4,4 -10,3 -14,2 0,0 0,0 0,0 -2,3 -3,6 -6,8 -4,2 -9,2 -12,1 -4,-2 -8,-4 -11,-7 -4,-2 -7,-5 -10,-5 -1,0 -1,0 -1,0 0,1 0,2 1,4 0,0 0,1 1,2 3,12 -3,16 -9,21l-4 4c-6,4 -7,5 -5,11 1,3 2,6 3,8 1,3 2,6 3,9 3,10 0,18 -4,25 1,1 1,3 2,3 0,1 2,1 3,0 3,0 5,0 8,1 3,2 5,4 7,6 1,2 2,3 3,3 1,1 2,1 3,1 2,-1 4,-1 7,0 9,3 15,16 17,23 0,2 0,3 0,4 0,2 0,2 1,4 1,1 2,2 3,4 3,2 5,5 6,10 0,2 0,4 0,5 0,1 0,3 0,3 0,0 1,0 1,0 1,0 2,0 3,0 1,0 2,0 3,-1 3,-1 9,-4 13,0 5,4 4,9 3,11 0,0 0,1 0,1 0,4 1,9 3,14 0,4 1,7 2,10 0,1 0,3 0,4 1,4 1,9 3,10 1,1 5,2 7,2 1,-2 1,-3 3,-5 7,-6 16,-4 22,-3 1,0 2,0 2,0 0,-2 0,-4 0,-5 -1,-7 -1,-15 1,-21 1,-4 3,-8 6,-11 2,-3 3,-5 4,-7 2,-5 3,-8 4,-13l1 -1c2,-10 5,-12 13,-13l1 0c11,-1 15,-3 20,-10 1,-2 3,-4 5,-6 2,-1 4,-3 5,-5 1,-2 0,-3 0,-5 -1,-3 -2,-6 -1,-10l1 -5 4 2c6,1 14,0 18,-5 1,-2 1,-4 2,-7 1,-4 2,-8 5,-12 1,-1 4,-2 6,-4 4,-2 4,-2 4,-4l0 -2 2 -1c6,-7 1,-17 -3,-22 -2,-2 -3,-3 -4,-4 -6,-6 -8,-9 -3,-20 0,-1 1,-2 1,-3 2,-2 2,-4 3,-6 -6,-1 -11,-3 -16,-5l-5 -2 2 -4c1,-2 2,-4 2,-5 0,0 -1,-1 -2,-2l-1 -1c-4,-6 -8,-12 -5,-22 1,-2 1,-3 2,-5 2,-4 3,-6 1,-9 -2,-2 -5,-4 -8,-5 -5,-3 -11,-6 -13,-13 -1,-6 -1,-10 2,-13 3,-5 10,-5 14,-5 2,0 4,-1 7,-3 3,-2 7,-5 13,-3 7,1 11,8 14,15 3,4 5,9 8,10 0,0 1,0 2,0 2,0 4,0 7,1 2,1 3,3 5,4 1,2 1,2 2,2 0,0 1,0 1,-1 2,-1 5,-2 8,-1 5,1 7,4 9,7 0,1 1,2 1,3 3,4 5,5 7,5 1,-1 2,-1 2,-6 0,-2 -1,-5 0,-7 1,-2 2,-4 3,-5 -1,-1 -2,-2 -2,-2 -2,-1 -2,-2 -3,-3 -1,-1 -1,-1 -3,-1 -2,-1 -3,-1 -5,-1 -4,0 -9,0 -12,-4 -3,-3 -4,-8 -6,-13l0 -2c-2,-8 0,-12 2,-16 0,-1 1,-2 2,-3 2,-6 1,-6 -3,-8 -2,-1 -5,-3 -8,-5 -5,-5 -10,-10 -14,-16 -5,-7 -4,-10 -1,-14 1,-1 2,-3 3,-5 2,-3 2,-7 1,-12l0 -3c-1,-4 -1,-10 6,-15 4,-2 8,-2 11,-3 3,0 6,0 7,-2 4,-3 7,-8 8,-13 0,-1 1,-2 1,-4 0,-4 1,-10 8,-13 3,-2 6,-2 9,-3 2,0 5,0 6,-1l2 -1c4,-1 6,-3 13,-2 4,0 7,2 10,4 2,1 3,2 5,2 4,0 8,-1 10,-4 1,-2 2,-4 3,-6 1,-3 3,-7 5,-9 4,-4 8,-5 12,-6 3,0 6,-1 8,-2 2,-3 2,-3 1,-6 0,-1 -1,-2 -1,-4 -1,-5 -1,-7 1,-11 1,-1 1,-2 2,-3 1,-3 2,-7 2,-11 0,-6 1,-13 5,-19 2,-3 4,-4 6,-6 2,-2 3,-3 3,-5 0,-3 -2,-5 -3,-8 -1,-1 -2,-2 -2,-3 -1,-1 -2,-2 -2,-3 -2,-3 -4,-6 -3,-9 1,-3 4,-5 7,-6 3,-2 6,-2 8,-3 3,0 5,-1 8,-2 2,-1 2,-1 2,-3 0,-2 1,-5 2,-8 3,-5 8,-7 11,-8l2 0c4,-2 9,-5 14,-8 4,-2 9,-5 13,-7 -1,-2 -2,-4 -3,-7l-1 0c-1,-2 -1,-3 -1,-5z"/>
  <path class="fil1" d="M2306 1209c2,11 8,21 10,32 1,0 2,0 2,0 3,0 7,0 9,-1 2,-2 5,-4 7,-7 5,-4 10,-9 18,-11 5,-1 10,0 13,1 6,1 9,2 12,0 1,-1 3,-3 4,-5 2,-1 3,-3 4,-4 0,-2 0,-3 -1,-5 -3,-13 -9,-23 -7,-37 2,-16 16,-40 2,-54 -13,-14 -33,5 -49,7 -6,1 -21,-2 -26,2 -8,6 -6,31 -5,40 2,14 4,28 7,42z"/>
  <path class="fil1" d="M2792 1639c2,3 3,5 5,7 0,-2 1,-4 1,-5 0,-1 0,-3 -1,-5 0,-1 0,-2 0,-3 -1,-4 -1,-7 -1,-11l0 -2c0,-2 -1,-4 -1,-5 -1,-5 -2,-11 6,-16 2,-2 3,-3 2,-7 -2,-1 -4,-3 -6,-6 -1,-2 -2,-4 -3,-6 -1,-2 -1,-3 -4,-3 -10,-2 -16,-9 -20,-15 -1,-1 -2,-2 -2,-3 -5,1 -8,3 -10,8 -3,6 3,19 -7,18 -7,0 -14,-8 -21,-5 -6,2 -7,9 -14,11 -5,2 -11,0 -16,-1 -5,-1 -11,-1 -16,-1 -4,10 -4,21 -4,31 0,5 2,11 1,15 -1,6 -6,11 -9,17 -3,9 0,12 8,19 3,4 8,7 12,10 3,3 7,6 9,10 2,4 0,9 1,13 1,5 2,10 2,16 0,3 0,6 1,9 4,6 13,4 18,-1 6,3 8,9 17,7 4,-2 16,-11 18,-15 4,-7 1,-22 0,-31 0,-5 -1,-12 0,-18 1,-2 2,-5 5,-6 3,-2 5,-3 7,-6 2,-4 0,-7 -1,-11 0,-2 -1,-6 0,-8 1,-3 5,-2 8,-2 6,0 8,-3 11,-6 3,2 3,5 4,7z"/>
  <path class="fil1" d="M2683 1465c3,1 6,1 9,3 0,0 1,2 2,2 13,5 29,-4 42,-3 8,0 15,3 24,2 5,0 8,-4 12,-5 6,-2 18,0 27,3 1,-2 2,-3 4,-5 4,-3 9,-4 14,-5 6,-1 10,-2 11,-5 0,-1 0,-3 0,-4 -1,-2 -1,-5 -1,-7 0,-2 1,-4 2,-6 0,-2 1,-3 1,-4 2,-12 -1,-13 -14,-18l-2 0c-8,-3 -12,-8 -16,-12 -1,-2 -3,-4 -5,-7 -4,-3 -5,-3 -9,-1 -3,2 -8,5 -16,2 -15,-6 -14,-20 -14,-31 1,-8 1,-16 -3,-20 -2,-3 -5,-4 -7,-3 -5,0 -11,6 -15,11 -1,2 -2,3 -2,5 -2,4 -5,8 -9,10 -5,2 -11,2 -17,1 -1,0 -2,0 -3,0 -1,7 -1,13 -9,19 -9,7 -16,5 -22,3 -3,-1 -6,-2 -10,-2 0,0 0,0 0,0 -2,0 -5,2 -8,3 -4,3 -10,6 -16,4 -9,-1 -11,-8 -12,-12 -1,-2 -1,-4 -2,-5 -4,-4 -22,-4 -31,-4 -5,0 -10,0 -13,0l-1 0c-4,-1 -12,-1 -14,1 -2,1 -2,3 -2,7 0,2 1,3 0,5l0 3 -3 1c-6,1 -11,0 -16,-1 -2,-1 -5,-2 -7,-2 -6,0 -10,1 -14,3 -2,6 -5,12 -6,17 -2,16 10,25 13,39 0,3 -1,6 0,8 4,8 20,13 28,14 11,3 21,-4 32,0 11,4 16,9 28,3 9,-5 22,-2 32,-3 8,-1 14,-1 22,-3 5,-2 11,-2 16,-1z"/>
  <path class="fil4" d="M2488 1346c-1,-5 -1,-10 1,-15 2,-7 4,-8 8,-10 1,-1 2,-1 3,-2 5,-3 7,-15 5,-20 -2,-5 -4,-10 -4,-14 -6,-1 -13,-4 -18,-6 -8,-4 -14,-8 -24,-10 -16,-2 -30,-2 -45,-9 -15,-6 -29,-16 -29,-31 0,-1 0,-1 0,-2 -1,1 -2,2 -3,3 -7,5 -13,3 -19,1 -3,0 -6,-1 -9,-1 -5,2 -9,5 -13,10 -3,2 -6,5 -10,8 -2,1 -6,2 -12,2 -1,0 -1,0 -1,0 0,12 -5,25 -3,37 1,9 0,14 -3,20 1,1 1,2 3,4 1,0 2,1 4,2 5,3 11,7 11,14 1,8 -6,16 -13,22 -5,5 -5,6 -6,11l-1 3c-1,6 -4,11 -8,17 -2,2 -5,4 -7,6 -5,4 -8,7 -7,13 0,5 3,7 8,11 6,4 12,8 12,17 -1,13 -15,29 -27,34 -1,0 -3,1 -4,1 -4,2 -6,2 -9,5 0,1 0,1 0,1 3,4 10,9 14,11 1,0 2,1 3,1 3,0 6,1 8,3 4,3 4,8 4,12 0,2 0,3 0,4 0,2 0,5 0,8 0,4 -1,7 1,10 0,1 1,2 1,3 2,3 4,6 3,10 0,4 -3,7 -6,10 -1,1 -2,2 -2,3 -4,6 -2,13 2,22 4,12 -1,18 -5,24 -2,2 -4,5 -5,9 -1,3 -1,6 -2,9 -1,8 -2,17 -11,23 -5,4 -11,4 -15,4 -6,1 -10,1 -12,5 -1,2 -2,4 -3,6 -2,3 -4,7 -7,10 -4,4 -7,6 -12,8l-2 1c-2,1 -4,2 -6,3 -2,2 -5,4 -8,5 -5,2 -10,2 -14,1 -2,0 -4,-1 -6,-1 0,0 0,0 0,0 -14,0 -22,7 -26,22 -2,8 -6,13 -10,19 -2,3 -4,6 -5,9 -4,7 -8,10 -13,12 -6,2 -12,-2 -19,-6 -4,-2 -8,-4 -12,-5 -4,-1 -8,-1 -12,-1 0,1 -2,3 -4,3 -5,1 -9,-2 -12,-4 -1,-1 -3,-2 -3,-2 -4,0 -10,4 -11,8 -1,4 2,7 6,12 3,3 6,5 8,9 2,4 2,9 3,13 0,3 0,6 1,9 5,10 21,10 33,11 2,0 4,0 6,0 16,1 22,9 27,21 3,9 4,10 13,13 9,2 15,7 21,14 4,6 5,11 5,16 0,2 1,5 1,7 1,2 2,3 3,5 2,1 3,3 4,5 1,3 2,6 2,10 3,0 6,1 8,3 3,2 4,6 5,10 1,1 1,3 2,4 0,0 1,2 2,5 1,3 3,10 5,11 0,0 2,0 4,-1 3,0 5,-1 8,-1 2,1 4,1 6,2 3,1 5,2 8,1 7,-1 14,-2 21,6 4,5 6,8 10,12 6,6 6,13 5,20 0,0 0,1 0,1 3,-1 6,-1 9,-2 7,-1 14,-1 20,-6 8,-9 8,-26 21,-30 6,-2 9,-3 13,-8 2,-4 4,-7 6,-11 1,-1 3,-6 4,-7 6,-2 7,9 7,12 -1,6 -5,10 -7,14 -1,2 -3,4 -3,6 -1,1 0,2 -1,3 -3,6 -11,3 -14,7 -4,3 -3,11 -1,14 6,10 21,1 28,9 3,4 16,2 20,-2 3,-4 3,-11 7,-15 7,-8 15,-15 20,-24 2,-4 8,-20 15,-17 5,2 0,11 0,14 0,7 4,6 9,10 7,5 13,32 25,21 2,-1 3,-3 3,-4 -1,-1 -2,-2 -4,-3 -5,-2 -9,-1 -11,-6 -3,-8 3,-12 6,-17 3,-9 0,-21 0,-31 0,-8 4,-15 5,-23 1,-12 -5,-21 -9,-32 -4,-12 -8,-23 -9,-36 -2,-12 -5,-25 -1,-36 0,-3 4,-6 2,-8 -2,-4 -16,-7 -20,-9 -13,-6 -13,-9 -9,-22 0,-2 2,-3 1,-5 -1,-5 -9,-8 -12,-10 -4,-2 -6,-4 -9,-8 -4,-5 -15,-15 -11,-23 1,-3 8,-5 11,-8 3,-4 4,-8 6,-13 2,-8 4,-16 3,-25 -1,-4 -1,-13 -3,-15 -6,-8 -31,-5 -41,-9 -13,-7 -19,-12 -25,-25 -1,-3 -3,-7 -5,-9 -4,-4 -10,-4 -14,-8 -13,-13 3,-29 17,-29 5,0 13,6 18,3 5,-2 4,-12 5,-16 2,-18 10,-22 27,-22 11,0 32,-1 36,-15 2,-4 -1,-13 -5,-16 -1,0 -3,1 -4,0 -3,-1 -4,-4 -6,-6 -2,-3 -5,-12 -7,-13 -4,-2 -12,6 -15,8 -2,1 -8,5 -10,4 -3,-1 -6,-13 -9,-16 -6,-9 -17,-12 -26,-18 -6,-5 -11,-1 -16,-9 -9,-16 -5,-25 10,-36 8,-5 15,-10 19,-18 4,-9 5,-11 1,-19 -2,-5 -10,-20 -6,-25 8,-8 22,6 26,10 7,6 12,10 20,13 4,2 11,11 15,11 7,0 5,-11 5,-15 7,-4 11,12 14,15 3,2 4,2 8,2 5,1 8,2 13,7 6,6 8,16 16,22 5,4 12,3 17,5 4,-5 5,-14 6,-20 1,-4 0,-8 3,-10 2,-1 4,0 6,1z"/>
  <path class="fil0" d="M236 1297c4,0 9,-1 13,1 4,2 4,7 7,10 4,3 7,2 11,8 9,14 -1,30 -4,45 -1,5 -1,10 -3,14 -3,6 -9,6 -13,10 -8,10 9,17 16,22 7,5 14,14 22,13 10,-2 18,-9 29,-9 3,11 5,21 3,32 -3,13 3,14 10,23 3,5 3,12 5,18 3,8 7,15 12,21 7,9 10,15 12,26 1,6 1,11 -2,16 7,2 15,5 20,4 2,0 3,-2 5,-3 1,-2 4,-5 7,-6 8,-3 16,0 23,3l2 1c12,3 19,4 30,1 2,-1 3,-1 5,-2 8,-2 16,-5 26,1 4,2 7,5 10,8 3,3 7,5 10,7 1,0 3,0 5,-1 4,0 10,-1 14,4 2,2 2,5 2,7 0,1 0,2 0,2 1,2 3,5 4,7 3,3 3,3 6,3 1,0 3,0 5,0 1,0 1,0 2,0 2,0 3,1 5,3l1 1c2,2 3,3 4,5 1,1 2,3 3,3 4,5 8,7 12,6 4,0 8,-3 14,-10l1 -2c4,-5 8,-11 15,-12 3,0 7,1 10,4 5,4 7,11 9,19 2,11 4,16 10,16 0,0 0,0 0,0l4 0 0 4c0,6 0,12 0,18 -1,5 -1,10 -1,15 0,9 1,11 6,16 1,1 2,3 4,4 6,7 7,15 8,21 1,6 1,11 5,16 2,3 5,3 10,3 3,0 6,0 10,0 12,3 15,12 18,21 0,1 1,2 1,4 3,8 6,8 17,7 9,-2 13,-2 19,6 3,3 4,6 6,9 1,3 3,6 5,8 1,0 1,-1 2,-1 4,-2 8,-2 13,-2 5,0 10,0 12,-2 0,0 0,0 0,0 0,-1 -1,-1 -1,-1 -2,-1 -5,-2 -7,-5 -3,-3 -3,-8 -3,-12 1,-3 1,-6 -1,-8 0,-1 -2,-2 -4,-3 -5,-3 -10,-7 -9,-13 1,-12 24,-15 25,-16 2,0 6,0 10,0 11,0 29,-1 30,-10 0,-3 -1,-6 -2,-10 -3,-6 -6,-13 0,-22 1,-2 3,-3 4,-4 1,-1 1,-1 2,-1 0,-2 0,-6 0,-9 -1,-2 -1,-4 -1,-6 1,-6 -3,-11 -6,-14 -1,-1 -3,-2 -4,-3 -5,-2 -10,-6 -11,-10 -2,-4 -1,-7 1,-9 0,-1 0,-2 1,-3 0,-1 1,-2 1,-3 2,-3 3,-5 2,-7 0,-1 0,-2 -1,-3 -1,-1 -2,-3 -2,-5 -3,-13 7,-20 14,-25 2,-1 4,-2 6,-3 3,-1 8,-4 9,-5 -1,-2 -4,-3 -6,-4 -6,-3 -13,-7 -14,-16 -1,-6 1,-10 4,-12 6,-4 14,1 19,4 10,6 21,5 28,-2l3 -2 3 3c4,4 5,8 5,11 0,1 0,2 0,3 1,2 1,2 1,3 1,1 1,2 2,3 5,7 6,11 2,16 -1,1 -2,2 -1,4 0,1 0,2 3,4 4,2 11,1 13,-1 1,-1 2,-3 2,-4 1,-3 2,-7 6,-9 5,-3 19,-1 24,3 6,6 3,15 0,21 -2,3 -3,7 -3,10 1,2 3,5 5,8 4,6 9,13 5,22 -4,6 -11,8 -18,9 -7,1 -10,1 -10,3 0,2 3,4 5,6 3,3 7,7 8,13l0 3 -3 2c-2,1 -6,1 -10,2 -9,3 -23,6 -23,12 0,4 3,8 6,10 2,1 4,1 5,0 0,-1 1,-3 2,-4 5,-4 9,-5 13,-5 4,0 7,1 10,1 6,2 8,2 9,-1 2,-2 2,-4 2,-7 0,-4 0,-10 7,-14l4 -2c5,-2 9,-4 13,-7 7,-6 7,-7 6,-14 0,-1 0,-2 0,-2 -1,-3 -1,-5 0,-8 2,-2 5,-3 9,-4 11,-1 16,6 20,11 3,4 6,9 12,10 3,0 7,0 11,0 7,0 14,-1 21,4 2,1 4,3 6,5 3,3 8,7 11,8 0,-1 1,-2 0,-6 0,-10 -6,-17 -17,-25 -2,-2 -10,-12 -9,-20 0,-3 2,-6 6,-7 5,-3 10,1 13,4 0,0 1,1 1,1 3,-2 6,-4 9,-6 5,-2 9,-4 12,-8 3,-3 3,-5 3,-5 0,0 -3,-1 -4,-2 -4,-1 -9,-3 -12,-7 -1,-1 -2,-4 -2,-6 0,-1 -1,-2 -1,-3 -1,0 -2,-1 -4,-1 -1,-1 -3,-2 -4,-2 -4,-2 -12,-8 -9,-19 4,-13 29,-17 31,-17 4,-1 7,0 10,0 4,0 7,0 10,-1 0,0 0,-1 0,-2l-1 -4 5 -1c2,0 4,0 7,0 8,-1 14,-2 16,-6 1,-3 0,-6 -1,-9 -5,2 -12,0 -16,-1 -3,-1 -6,-2 -7,-2 -2,0 -3,1 -5,2 0,0 -1,0 -2,1 -14,6 -26,8 -37,7 -12,-2 -24,-10 -24,-23 0,-5 2,-9 4,-12 1,-2 2,-4 2,-6 0,-3 -3,-8 -6,-13 -5,-8 -11,-18 -6,-27 2,-5 7,-7 12,-9 4,-2 7,-3 8,-6 0,-1 1,-2 1,-4 1,-3 2,-6 5,-10 8,-8 17,-8 26,-8 6,0 11,0 16,-2 3,-2 6,-5 9,-9l2 -3c3,-4 7,-6 11,-8 2,-1 4,-2 5,-3 2,-2 4,-3 5,-5 7,-5 13,-10 24,-14 1,-1 2,-1 3,-1 5,-2 9,-3 11,-6 1,-1 1,-2 2,-3 1,-2 2,-4 5,-5 5,-4 11,-5 17,-6 6,-1 11,-2 15,-5 3,-2 3,-2 3,-2 0,-1 0,-1 0,-2 -1,-3 -2,-6 0,-11l1 -3 3 0c4,0 8,-2 11,-4 -1,-1 -1,-2 -2,-3 -4,-2 -13,-1 -19,1 -1,0 -2,1 -3,1 -2,1 -4,2 -6,2 -3,1 -6,0 -8,-1 -2,-1 -5,-2 -6,-1 0,0 0,0 -1,1 -1,1 -2,2 -3,3 -4,3 -9,5 -14,6 -5,1 -12,2 -16,-3 -3,-2 -4,-7 -3,-12 0,-4 2,-7 4,-10 1,-2 2,-5 3,-7 0,-3 0,-6 0,-9 -1,-4 -1,-9 0,-14 1,-2 2,-4 3,-5 2,-4 2,-4 0,-6 -3,-2 -6,-3 -10,-4 -6,-1 -14,-2 -18,-10 -3,-6 -3,-17 -2,-22 0,-2 0,-4 1,-6 1,-7 2,-13 0,-19 -2,0 -5,1 -7,2 -2,1 -4,1 -7,2 -3,1 -5,1 -7,1 -5,0 -6,0 -9,4l-4 5 -3 -6c-6,-11 -6,-19 -4,-30l0 -4c1,-8 -1,-16 -2,-23 -3,1 -6,4 -9,6 -5,4 -9,9 -16,10 -14,3 -17,1 -24,-8l-1 -2c-5,-6 -9,-8 -11,-8 -2,0 -3,0 -2,7l0 2c0,1 0,2 0,3 0,6 0,11 -6,17 -2,1 -3,2 -5,2 -4,3 -7,5 -7,9 0,1 1,2 2,4 2,2 4,5 4,9l0 4 -4 0c-9,1 -17,-1 -23,-7 -5,-5 -10,-22 -10,-30 1,-7 5,-10 8,-12 3,-2 3,-2 2,-6 -2,-3 -4,-7 -7,-10 -2,-2 -4,-4 -5,-7 -1,-1 -2,-3 -3,-4 -1,-2 -2,-5 -3,-6 -2,-2 -7,-2 -12,-3 -6,0 -13,-1 -17,-5 -3,-2 -5,-5 -6,-8 -1,-2 -2,-3 -3,-4l-1 -2 0 -1c0,-1 0,-3 0,-4 0,-6 -1,-14 5,-18 -1,-2 -2,-5 -3,-7 -2,-5 -4,-10 -5,-17 0,-7 1,-12 3,-18 0,-4 1,-8 1,-11 1,-11 -1,-15 -2,-15 0,-1 -1,-2 -5,-1 -1,0 -3,1 -5,1 -3,2 -7,4 -12,3 -4,-1 -8,-4 -11,-7 -2,-2 -4,-3 -5,-4l-2 -1c-6,-3 -11,-5 -17,-9 -8,-5 -11,-5 -17,2 -1,1 -1,2 -2,3 -1,2 -3,5 -5,6 -7,5 -17,4 -26,3 -2,0 -4,0 -6,0l-4 0 0 -4c-1,-10 4,-14 8,-18 3,-3 5,-5 6,-7 1,-3 0,-7 -1,-11 -1,-3 -2,-7 -1,-11 0,-2 1,-5 4,-10 3,-5 7,-12 6,-16 0,0 0,-1 -1,-1 -1,0 -3,1 -4,1 -2,0 -3,1 -4,1 -6,0 -12,-1 -18,-4 -3,-2 -5,-4 -7,-5 -4,-3 -7,-5 -13,-4 -2,0 -4,0 -7,1 -4,1 -9,2 -16,-3 -5,-3 -10,-7 -14,-10l3 -3c-11,7 -23,5 -35,7 -10,3 -16,14 -19,23 -5,15 -10,29 -16,43 -5,12 -8,25 -16,35 -6,7 -16,16 -23,20 -14,9 -25,12 -39,14 -16,3 -20,6 -22,22 -1,4 -1,6 -4,9 -3,4 -7,5 -10,8 -4,5 -5,12 -7,18 -4,11 -11,21 -19,30 -4,4 -16,9 -18,14 -4,10 8,18 -8,23 -20,5 -43,-2 -64,1 -10,2 -19,4 -28,6 -5,2 -12,6 -17,6 -7,0 -15,-8 -16,-15 -2,-4 2,-9 1,-13 -2,-11 -17,-7 -26,-7 -14,0 -18,-9 -27,6 -8,14 -15,30 -28,41 -7,5 -10,8 -13,16 -3,10 -8,16 -18,22 -12,7 -30,16 -34,31 -6,16 -3,39 -3,56 13,5 30,2 44,2z"/>
  <path class="fil1" d="M3293 1047c-1,-3 -5,-4 -7,-6 -3,-3 -3,-8 -4,-12 -4,-13 -24,-17 -37,-17 -3,-1 -8,1 -10,0 -6,-2 -10,-9 -13,-14 -3,-6 -5,-14 -9,-18 -7,-6 -17,-8 -23,-13 -3,-4 -3,-6 -4,-10 -1,-10 -12,-11 -14,-19 -1,-4 2,-9 0,-13 -1,-4 -3,-6 -6,-8 -6,-4 -17,-4 -21,-11 -3,-3 -1,-7 -4,-10 -4,-5 -12,-2 -17,1 -5,5 -9,11 -15,16 -6,3 -9,2 -15,3 -15,1 -26,14 -40,15 -7,0 -14,-2 -21,-3 -8,0 -12,2 -19,3 -8,2 -20,-1 -24,-11 -6,2 -18,0 -23,5 -3,2 -4,10 -7,14 -2,3 -9,5 -10,9 -1,1 0,3 0,4 -2,7 -2,13 -8,18 -12,8 -31,-5 -44,3 -10,7 0,24 -12,31 -8,5 -19,2 -26,8 -5,4 -4,6 -5,11 -4,9 -9,15 -19,18 -11,3 -26,5 -31,19 -3,8 1,13 -4,20 -3,4 -5,6 -8,9 -3,4 -4,5 -6,9 -4,7 -13,10 -12,19 -13,-2 -26,-7 -37,5 -3,4 -3,7 -8,8 -4,2 -12,1 -16,1 -7,-1 -29,-8 -32,1 -2,4 7,11 7,15 1,4 -3,5 -3,9 -2,23 28,16 40,20 14,4 6,18 8,29 2,11 4,14 11,20 2,1 3,2 4,4 5,-1 11,1 16,3 6,2 12,4 17,2 2,-1 3,-2 4,-3 2,-1 3,-2 5,-3 2,-1 4,-2 6,-3 1,0 3,0 4,-1 0,0 1,-1 2,-2 1,-2 2,-4 4,-5 8,-5 20,-1 29,2 1,1 3,1 4,1 8,3 16,3 25,4 4,0 8,0 12,0 2,0 4,1 7,1 4,1 12,3 14,2 0,0 0,0 0,0 -1,-1 -2,-4 -2,-6 0,-11 10,-13 17,-14 4,0 8,-1 10,-3 4,-3 4,-10 5,-17 0,-9 1,-11 6,-18 7,-12 17,-26 32,-33 2,-1 5,-2 8,-2 2,-1 5,-1 7,-2 3,-1 6,-4 8,-6 3,-2 6,-4 10,-6 6,-3 13,-4 19,-5 4,-1 7,-1 10,-2 5,-1 6,-2 9,-7l1 -1c3,-3 5,-6 7,-9 4,-7 10,-16 19,-19 3,-1 6,-1 9,-2 3,0 5,0 7,-1 2,-1 3,-3 4,-6 1,-1 1,-2 2,-3 9,-14 18,-13 29,-11 1,0 3,1 5,1 10,1 19,-3 24,-11 1,-1 1,-2 1,-3 1,-2 2,-5 4,-7 4,-3 8,-6 15,-7l0 5 5 0c0,8 -2,10 -5,14 -1,2 -2,3 -3,6 -2,2 -3,4 -5,5 -2,2 -3,4 -4,6 0,2 0,4 0,7 0,2 1,4 0,6 0,9 -6,11 -10,13 -2,1 -4,2 -5,3 -2,2 -2,3 1,8 1,2 3,3 3,5 1,2 1,4 1,6 0,0 0,1 0,1 1,3 3,6 5,9 1,2 2,3 2,4 1,1 2,2 3,4 4,7 11,17 4,27 -6,9 -16,9 -24,10 -3,0 -5,0 -8,1 -2,0 -4,2 -7,3 -3,3 -6,5 -11,6 -2,0 -4,0 -5,0 -1,0 -1,0 -2,1 0,0 0,0 -1,2 -2,4 -3,7 -6,11 0,1 -1,2 -2,2 0,1 -1,2 -1,3 -1,0 -1,1 -1,2 0,2 -1,4 -2,6 -3,3 -8,3 -16,2 -1,0 -1,0 -2,0 -1,2 -2,4 -3,5 -5,4 -13,4 -20,3 -1,0 -3,0 -4,0 -1,0 -2,0 -2,0 0,1 0,4 1,6l0 2c2,12 -5,22 -19,26l-1 0c-4,2 -4,2 -6,4 -1,1 -2,3 -2,4 -2,3 -3,6 -7,9 -4,3 -9,5 -13,6 -5,2 -10,3 -12,6 -2,2 -2,8 -2,13 0,4 1,7 0,10 -1,7 -6,12 -10,17 -4,3 -7,7 -7,12 -1,3 0,7 1,12 1,3 1,7 1,12 0,9 -4,11 -12,12 -1,0 -3,0 -4,-1 -3,0 -6,0 -9,1 -2,2 -5,5 -8,8 -3,4 -6,7 -9,9 -2,2 -3,5 -4,8 -1,2 -1,4 -2,5 -2,5 -4,6 -7,8l-1 1c-2,1 -3,2 -3,3 0,2 2,4 4,6 4,3 9,6 12,10 2,3 2,7 2,10 2,0 3,1 5,3 7,4 8,4 9,3 2,-2 2,-5 3,-8 1,-4 2,-9 6,-14 3,-3 8,-4 12,-6 6,-2 9,-4 10,-7 0,-2 0,-3 0,-4 1,-7 2,-12 14,-13 3,0 7,0 11,1 6,1 12,2 15,-1l0 -1c0,-1 1,-3 2,-5 1,-2 3,-4 5,-6 1,-1 2,-2 3,-2 0,-1 1,-3 2,-4 3,-4 6,-9 10,-8 5,0 8,5 10,9 1,4 2,8 2,12 0,2 0,4 0,5 1,2 1,4 1,6 0,1 0,4 0,5 0,-1 1,0 2,0 2,0 4,1 6,2 0,-1 1,-2 1,-3 9,-14 29,-18 33,-35 4,-14 -3,-30 -4,-44 0,-13 -2,-27 2,-39 3,-11 4,-19 4,-30 0,-33 31,-28 51,-43 11,-8 22,-15 34,-22 13,-8 17,-19 26,-30 7,-8 17,-15 27,-10 5,2 7,8 12,10 5,2 10,0 15,2 11,5 11,22 24,22 13,-1 14,-9 11,-18 -6,-18 -36,-34 -25,-54 5,-8 8,-18 5,-27 2,0 3,0 5,-1 6,-3 15,-4 19,-11 3,-4 6,-15 3,-19z"/>
  <path class="fil5" d="M2937 1654c2,-11 -2,-21 -5,-31 -3,-6 -4,-12 -7,-18 0,-1 0,-1 -1,-2 -1,-1 -3,-2 -4,-3 -2,-1 -3,-2 -4,-4 -2,-2 -4,-4 -7,-5 -4,-2 -10,-1 -15,-1 -3,1 -6,1 -8,1 0,0 0,0 0,0 -1,0 -2,0 -3,0 -4,0 -9,1 -13,-2 -1,-2 -2,-4 -2,-6 1,-3 2,-5 4,-7 0,0 1,-1 1,-2 2,-4 2,-13 -1,-17l-1 0c-8,0 -18,-3 -23,-11 -3,1 -5,2 -6,3l-2 1c0,0 0,0 0,0 0,1 0,1 0,2l0 2c-1,5 -2,10 -6,15 -2,2 -4,3 -6,4 -2,2 -3,2 -4,7 0,1 0,3 -1,4 0,4 -1,9 -9,9 -1,1 -1,1 -2,1 1,4 0,7 -6,12 -3,2 -3,3 -2,7 0,2 0,4 0,7l1 2c0,3 0,6 0,9 0,1 1,2 1,3 1,2 1,5 1,8 0,3 -1,6 -3,8 1,1 1,1 2,1 7,5 6,12 8,19 2,7 6,13 10,20 6,11 10,24 14,36 6,19 12,39 8,58 -1,4 -3,9 -3,13 -1,7 7,13 11,19 4,5 5,10 3,17 -1,7 0,12 3,18 2,6 3,14 3,21 -1,14 -3,29 2,43 2,5 2,10 4,16 1,4 2,9 3,14 1,4 3,4 6,1 5,-3 6,-8 6,-13 -1,-11 -6,-22 -10,-32 0,-1 0,-2 -1,-3 -3,-12 -2,-22 1,-33 2,-10 -1,-23 13,-17 9,4 14,4 18,-8 3,-6 4,-11 10,-16 4,-3 9,-4 11,-10 3,-10 -2,-22 -7,-30 -3,-4 -4,-5 -5,-9 0,-6 2,-11 3,-16 0,-6 -2,-10 -2,-15 0,-13 21,-18 24,-31 3,-12 -1,-26 -3,-38 -2,-8 0,-14 1,-21z"/>
  <path class="fil6" d="M2269 1944c1,-6 1,-11 -2,-14 -4,-4 -7,-7 -11,-12 -3,-4 -5,-4 -13,-3 -5,1 -8,0 -11,-1 -2,-1 -3,-1 -5,-2 -1,0 -3,1 -5,1 -3,1 -7,2 -10,0 -4,-1 -6,-6 -10,-16 0,-2 -1,-4 -1,-5 -1,-1 -1,-2 -2,-4 -1,-2 -2,-6 -3,-7 -1,0 -4,0 -6,0 -3,0 -5,0 -7,-1 -9,-2 -13,-8 -16,-13l-1 -3c-1,-1 -2,-2 -2,-3 0,1 0,0 -1,0 -3,-2 -9,-2 -14,-2 -1,0 -3,0 -4,0 -15,-1 -20,-7 -27,-17l-1 0c-4,-6 -10,-10 -17,-11 0,1 0,1 0,2 0,2 -1,5 0,6 0,0 1,1 1,2 2,1 4,3 4,6 1,6 -2,10 -4,14 -1,2 -3,4 -3,5 -1,3 0,5 2,8 0,2 1,4 1,5 3,10 -1,22 -12,26 -10,4 -19,-4 -25,-11 0,0 -1,0 -1,0 -6,8 -14,6 -20,4 -3,-1 -7,-2 -10,-2 -6,1 -7,3 -9,7 -1,3 -3,6 -8,9 -7,4 -14,1 -20,-2 -2,-1 -4,-2 -6,-2 -11,-3 -15,-9 -13,-21 1,-4 2,-8 3,-10 2,-6 4,-9 1,-14 -2,-4 -4,-6 -6,-6 -2,0 -5,2 -7,4 -7,5 -13,3 -17,2 -3,-1 -5,-2 -8,-1 -3,0 -6,1 -8,2 -4,1 -7,2 -12,2 -2,0 -4,0 -6,1 -5,0 -9,0 -13,1 -12,0 -17,0 -26,-9 -4,-3 -4,-3 -7,-2 -1,1 -2,1 -3,1 0,1 0,1 1,2 1,1 1,2 2,3l3 6 -6 1c-5,1 -11,5 -17,8 -5,3 -10,6 -15,8l-2 1c-3,1 -5,1 -6,3 -1,1 -1,3 -1,4 0,4 -1,8 -8,11 -3,2 -6,2 -9,3 -2,0 -5,1 -7,2 0,0 -1,0 -1,1 0,0 1,1 1,1 1,1 1,2 2,4 1,0 1,1 2,2 2,3 5,7 5,12 1,8 -4,11 -7,13 -1,2 -3,3 -4,4 -2,4 -3,9 -3,14 0,5 -1,10 -3,15 -1,1 -1,3 -2,4 -1,1 -1,1 0,4 0,1 0,2 1,3 1,4 3,9 -4,15 -4,4 -8,5 -12,5 -4,1 -6,1 -7,3 -2,1 -3,4 -4,6 -1,3 -2,6 -4,8 -4,5 -11,9 -17,8 -5,0 -8,-2 -10,-4 -2,-1 -4,-2 -6,-2 -4,-1 -5,0 -8,1l-2 1c-3,1 -6,2 -9,2 -2,0 -5,1 -6,2 -2,1 -3,2 -3,6 -1,2 -1,4 -1,5 -2,7 -6,14 -11,18 -4,4 -9,4 -12,4 -3,0 -5,1 -7,2 -3,1 -3,2 -2,6l0 3c1,6 1,11 -2,17 -1,3 -3,5 -4,6 0,1 0,1 -1,1l0 0c1,0 1,1 2,3 4,5 8,10 13,14 2,2 4,3 6,4 6,3 11,7 7,19 -1,1 -2,3 -2,4 -2,4 -3,5 -2,10l1 1c1,3 2,9 3,10 1,1 4,1 7,1 2,1 4,1 6,1 4,1 6,2 8,4 0,1 1,1 2,2 4,5 7,7 4,13 -1,1 -2,2 -2,4 -1,1 -1,2 -1,4 0,4 1,11 -7,14 -8,3 -14,-4 -16,-7 -1,-2 -2,-3 -3,-4 -1,-1 -2,-3 -3,-4 0,0 -1,1 -1,1 -2,1 -4,2 -6,2 -5,0 -7,-3 -9,-5 -1,0 -1,-1 -2,-2 -2,0 -6,1 -9,-1 -5,-3 -9,-8 -12,-14 -2,-5 -5,-10 -8,-11 -2,0 -4,1 -6,3 -3,2 -7,4 -12,4 -2,0 -6,0 -7,1 -1,1 -1,3 0,6 1,3 3,4 8,6 4,2 8,5 11,9 5,7 2,13 0,18 0,1 -1,2 -1,4 -2,5 -1,8 3,14l1 1c4,5 5,7 3,11 5,2 9,3 14,4l3 0 0 3c1,7 -1,11 -3,15 0,1 -1,2 -1,3 -3,6 -3,6 1,9 1,1 3,3 4,5 8,9 12,23 4,33 0,6 -6,9 -9,10 -2,1 -3,2 -4,2 -1,2 -2,5 -2,8 -1,3 -2,7 -4,10 -4,7 -13,9 -21,9 0,0 0,1 0,1 1,3 2,7 -1,13 -1,2 -4,5 -6,7 -1,1 -3,3 -4,4 -6,10 -13,12 -25,14l-2 0c-5,1 -5,1 -6,6l0 1c-1,5 -2,9 -5,15 -1,3 -3,5 -5,8 -2,3 -4,6 -5,9 -1,4 -1,11 0,17 0,2 0,4 0,5 0,0 0,0 0,0 1,0 1,-1 2,-1 2,-4 5,-5 10,-4 2,1 3,2 5,3 0,-1 0,-2 1,-3 0,-1 0,-2 0,-3 0,-7 4,-7 10,-8 2,-1 4,-1 6,-1 3,0 6,0 8,-1 1,-1 2,-1 2,-3 1,-2 2,-5 5,-7 5,-4 13,-6 19,-5 4,1 7,2 9,3 7,3 11,4 16,0 11,-9 11,-22 10,-34 -2,-13 1,-22 6,-28 4,-4 10,-5 17,-5 12,2 16,13 20,23 0,2 1,4 2,6 2,-3 5,-6 8,-7 6,0 10,4 13,7 1,1 2,2 3,3 2,1 3,2 4,2 0,-1 0,-2 0,-2 1,-3 1,-6 3,-9 2,-3 4,-5 6,-6 2,-1 3,-1 3,-4 0,-2 0,-4 0,-6 0,-1 -1,-3 -1,-4l0 -2c0,-7 0,-12 5,-19l2 -1c4,-5 9,-11 15,-14 4,-3 9,-5 13,-7 4,-1 8,-2 11,-4l2 -1c7,-5 10,-6 11,-13 2,-7 5,-11 9,-14 4,-3 9,-3 15,-2 6,2 9,6 12,10 1,1 1,2 3,3 2,3 5,4 7,6 2,1 3,2 4,2 4,3 7,6 10,10 8,6 14,12 23,11 12,0 16,-3 21,-14 3,-6 6,-11 12,-14 3,-2 7,-3 11,-4 4,-1 8,-2 10,-4 2,-2 3,-4 4,-7 2,-5 5,-11 19,-9 2,0 7,2 11,5 0,0 0,0 0,0 7,-11 8,-23 19,-31 5,-4 13,-4 18,-8 4,-3 7,-10 9,-15 1,-2 2,-6 0,-7 -3,-2 -7,1 -10,0 -9,-4 11,-19 16,-20 4,-2 8,-4 12,-7 2,-1 4,-4 6,-5 2,-2 5,0 7,3 4,6 -9,12 -4,17 4,4 11,-1 14,-3 5,-3 10,-6 15,-9 7,-4 15,-3 23,-3 7,0 16,2 23,0 13,-4 19,-17 26,-27 4,-5 9,-13 14,-16 2,-2 6,-3 9,-4 3,-2 6,-5 8,-8 5,-5 14,-9 15,-17 1,-7 -7,-12 -2,-19 5,-5 12,-5 18,-9 4,-4 5,-10 5,-15 0,-8 -3,-21 -9,-27 0,-4 0,-5 1,-8 1,-6 0,-13 0,-19 -2,-11 4,-27 14,-34 4,-3 9,-5 13,-8 5,-3 9,-7 13,-11 2,-3 4,-6 7,-9 3,-3 7,-6 11,-8 0,-1 0,-3 0,-4z"/>
  <path class="fil1" d="M3047 1408c-1,-1 -2,-1 -2,-2 -1,0 -2,0 -3,0 -2,-1 -5,-1 -7,-3 -2,-3 -2,-8 -2,-11 0,-2 0,-3 0,-4 -1,-2 -1,-4 -1,-7 0,-3 0,-6 -1,-8 -1,-2 -2,-3 -2,-4 -1,1 -2,3 -2,4 -1,1 -2,3 -3,4 -2,2 -3,3 -4,4 -2,1 -3,2 -3,3 -1,1 -1,1 -1,2 0,2 0,4 -4,7 -6,5 -14,4 -21,3 -4,-1 -7,-1 -9,-1 -5,0 -5,1 -5,1 -1,0 -1,2 -1,3 0,2 0,4 0,5 -2,9 -10,12 -16,15 -4,1 -7,2 -9,4 -2,2 -3,5 -4,9 0,4 -1,8 -4,11 -2,3 -5,4 -8,4 -5,0 -10,-3 -13,-5 -1,-1 -2,-1 -3,-2 -1,1 -2,3 -2,4l-2 3c-5,8 -7,12 -6,20l0 2c0,6 1,14 -5,20 -2,2 -5,3 -7,5 -3,2 -5,3 -7,6 -2,4 -2,8 -3,13 0,3 0,6 -1,8 0,2 -1,5 -1,7 -1,8 -3,16 -7,23 6,7 7,19 3,27 0,1 -1,2 -2,4 0,0 -1,0 -1,0 2,0 3,0 4,0 2,0 3,0 4,0 0,0 0,0 0,0 3,0 5,0 7,-1 6,0 13,-1 19,1 3,2 6,4 8,6 1,-1 2,-1 3,-2 4,-1 10,4 13,7 3,2 3,3 8,3 4,-1 7,-1 12,-1 4,-1 11,-3 16,-2 9,2 16,13 24,17 16,5 21,-16 23,-27 6,-28 15,-48 29,-67 12,-14 16,-33 19,-50 1,-8 8,-26 6,-32 -3,-13 -25,-14 -26,-26z"/>
  <path class="fil1" d="M1062 2916c4,-1 7,1 9,2 1,1 2,2 2,2 2,0 3,-1 3,-2 1,-2 0,-4 -1,-4 -4,-3 -7,-5 -7,-12 0,-1 0,-1 0,-2 0,-3 -1,-5 -2,-6 -1,0 -3,-1 -5,0 0,0 0,0 0,0 0,2 0,4 -1,6 -4,6 -9,5 -11,4 -1,0 -2,0 -3,0 0,-1 -2,-1 -2,-1 -1,1 -1,1 -3,2 -1,0 -2,0 -2,0 -5,1 -6,4 -8,10 -1,3 -3,7 -6,11 0,0 0,0 0,1 0,-1 1,-1 2,-1 2,0 3,1 6,3l1 1c2,2 5,3 8,3l3 1c1,0 1,1 2,1 4,1 5,1 7,0 0,0 2,-1 2,-1 0,0 0,-2 0,-3 0,-1 0,-1 0,-2 -1,-3 -2,-12 6,-13z"/>
  <path class="fil1" d="M771 3073c0,3 -1,5 -1,8 2,2 3,4 5,7 4,8 4,8 13,8l4 0c7,0 20,1 22,12 1,3 0,5 0,7 -1,1 -1,3 -1,3 2,2 5,3 8,4 3,1 7,3 10,5 6,5 8,11 10,17 3,7 5,12 13,14 7,1 12,2 18,2 0,0 1,0 2,0 4,0 7,0 9,1 2,2 3,4 4,6 0,1 1,3 1,3 2,2 4,3 9,4 3,1 8,2 12,5 4,3 5,8 7,12 1,3 2,6 3,8 4,3 13,3 21,3 3,0 6,0 8,0l4 0 0 6c0,2 0,4 0,6 1,0 2,1 3,1 1,1 2,1 3,2 7,3 14,4 20,3 5,0 10,-2 12,-6 1,-1 1,-2 1,-3 0,-4 1,-6 5,-9 10,-6 21,-3 30,-1 13,3 16,3 27,-2 1,0 2,-1 4,-1 6,-2 10,-4 13,-8 1,-2 2,-3 2,-4 2,-4 3,-7 9,-10 2,-2 5,-3 9,-4 6,-2 11,-4 11,-7 0,-3 -5,-6 -7,-7 -2,-1 -5,-1 -8,-2 -9,-1 -16,-2 -18,-8 -2,-3 0,-7 3,-10 2,-2 4,-4 6,-5 2,-1 2,-1 3,-5 0,-1 0,-3 0,-4 0,-3 -1,-7 1,-11 1,-4 4,-6 7,-9 2,-1 3,-3 4,-4 0,0 0,-1 0,-2 0,-3 0,-6 2,-8 3,-3 7,-4 10,-4 2,-1 3,-1 4,-1 1,-1 3,-2 4,-2 2,-2 4,-3 7,-4 10,-4 19,-5 30,2 1,1 2,2 3,3 3,-2 7,-2 10,-2 1,0 3,0 4,0 3,-1 3,-1 4,-5 1,-1 1,-3 2,-5 4,-7 9,-10 14,-13 3,-2 6,-4 9,-7 4,-5 2,-8 -6,-16 -3,-3 -6,-6 -8,-9 -3,-5 -4,-9 -2,-13 2,-6 8,-8 14,-11 9,-3 9,-4 8,-5 -2,-7 -14,-11 -31,-12 -12,-1 -20,-5 -22,-13 -2,-6 0,-10 2,-13 0,-1 1,-2 1,-3 1,-4 -3,-13 -6,-15 -2,-2 -6,-2 -11,-1 -5,1 -11,4 -13,7l-2 3c-4,7 -6,11 -18,10 -2,0 -4,-1 -7,-1 -2,-1 -6,-2 -8,-1 0,0 0,0 -1,0 0,1 0,2 -2,4 0,1 -1,1 -1,2 -2,3 -3,5 -9,7 -5,1 -10,-1 -14,-2 -1,0 -2,0 -3,0 -3,-1 -7,-1 -9,-3 -1,-1 -2,-1 -2,-2 -1,0 -1,0 -2,-1 -1,0 -1,0 -2,0l-2 0c0,-1 -1,-1 -2,-1 -1,3 -1,7 -1,11l0 4c0,4 0,9 -3,12 -1,2 -3,3 -7,2 -7,0 -8,-5 -9,-9l-1 -2c0,-3 -1,-4 -2,-5 -2,-4 -6,-7 -10,-10l-1 -1c-4,-3 -8,-7 -6,-14 0,-2 1,-6 3,-8 3,-2 7,-3 10,-3 1,0 4,-1 4,-1 1,-1 1,-1 1,-2 -1,-2 -1,-4 1,-6 -2,1 -3,1 -4,0 -4,0 -7,-3 -8,-7 -1,-3 0,-7 1,-11 0,-3 1,-6 1,-8 -1,-6 -4,-15 -9,-20 -2,-2 -4,-2 -6,-3 -4,-1 -7,-2 -10,-5 -7,-8 -4,-17 -2,-24 1,-3 2,-5 2,-7 1,-3 0,-6 -1,-9 0,-4 -1,-7 -1,-11 0,-3 1,-5 2,-8 1,-2 1,-4 1,-6 0,-1 -2,-3 -3,-5 -2,-3 -5,-8 -5,-13l1 -4 4 0c7,1 13,2 20,4 8,2 16,4 24,4 0,-1 1,-2 1,-3 1,-5 2,-7 -1,-10 -5,-1 -5,-6 -5,-8 0,-5 2,-8 4,-11 1,-2 2,-4 2,-6 0,-2 -2,-3 -5,-6 -3,-1 -6,-4 -8,-7 -4,-8 2,-13 6,-17 1,0 2,-1 3,-2 1,-1 2,-2 3,-3 5,-4 5,-4 3,-6 -1,-2 -2,-3 -4,-5 -4,-4 -11,-11 -6,-20 4,-7 12,-8 19,-9 2,0 5,0 6,-1 2,0 4,-1 5,-1 4,-2 8,-4 15,-4 6,0 11,3 16,5 1,0 3,1 5,2 -1,-2 -2,-3 -4,-5 -2,-3 -5,-6 -6,-11 -3,-8 -1,-12 1,-15 1,-1 2,-3 3,-5 4,-12 -3,-16 -15,-23 -6,-3 -11,-6 -15,-10l-5 -4 6 -3c3,-2 7,-3 12,-4 7,-3 14,-5 17,-10 4,-7 1,-11 -5,-18 -5,-6 -10,-12 -10,-19 0,-6 3,-10 5,-13 1,-2 2,-3 2,-5 2,-4 3,-9 3,-14 1,-5 2,-11 5,-17 1,-3 4,-6 7,-9 3,-3 6,-6 6,-10 0,-3 -2,-4 -10,-6 -3,0 -5,-1 -8,-1l-6 -2 4 -5c3,-4 7,-6 10,-8 4,-2 6,-3 7,-9 1,-4 1,-8 2,-12 1,-8 3,-17 5,-26 3,-10 -1,-17 -5,-24 -3,-6 -6,-13 -7,-21 -3,1 -6,3 -9,5l-1 1c-7,5 -13,5 -19,6 -3,0 -6,0 -10,1 -17,5 -21,19 -24,38 0,1 0,3 0,4 -1,7 -2,15 -11,19 -4,2 -9,2 -14,3 -8,1 -14,1 -18,6 0,2 -1,4 -1,6 -1,2 -1,4 -3,6 -2,5 -5,9 -9,13 -4,4 -9,7 -14,7 -5,-1 -8,-4 -12,-9l0 0c-14,10 -30,21 -49,16 -5,-1 -9,-3 -13,-6 -5,-4 -11,-7 -15,-6 -2,1 -4,2 -4,3 -1,2 2,7 4,10 1,1 2,2 3,3 5,7 13,18 7,29 -3,5 -7,8 -11,10 -3,1 -5,3 -6,5 -1,2 -2,3 -3,5 -3,6 -6,13 -18,15 -9,1 -18,-1 -26,-4 -6,-2 -12,-3 -17,-4 -2,15 -14,17 -23,18 -4,0 -9,1 -12,3 -4,2 -6,6 -8,10 -3,6 -8,14 -22,13 -4,-1 -8,-2 -11,-2 -7,-2 -9,-3 -12,3 -8,14 -7,22 2,33 9,11 13,21 12,30 -1,8 -5,15 -13,21 -2,1 -6,3 -9,5 -10,5 -24,13 -21,20 1,3 5,5 9,7 6,3 13,6 14,13 2,5 0,9 -2,12 0,0 -1,1 -1,2l-1 3c-3,6 -4,9 -3,17 1,2 1,5 2,8 3,12 7,28 -5,36 -5,3 -11,4 -18,4 -5,0 -9,0 -11,1 3,5 7,10 12,14 10,8 15,8 18,21 2,9 1,18 4,28 4,12 0,20 3,33 2,32 20,56 38,82 10,14 10,33 18,47 8,12 22,16 23,32z"/>
  <path class="fil1" d="M522 2053c6,9 19,8 21,21 1,8 -4,14 -7,21 -3,6 -5,13 -7,18 -6,3 -8,9 -9,16 2,0 5,1 7,2 4,1 5,2 8,0 1,-1 2,-2 3,-3 3,-3 6,-5 14,-5l4 1 0 3c2,12 6,25 11,27 0,0 2,0 4,-2 2,0 2,-2 2,-4 0,-3 1,-7 4,-10 2,-2 5,-2 7,-3 1,0 4,0 4,-1 -1,-1 -2,-2 -2,-4 -1,-6 -2,-11 -3,-16l-1 -4c-1,-6 0,-8 6,-11l0 -1c4,-1 6,-2 8,-2 3,0 3,0 4,-3 0,-1 0,-3 1,-4 0,-6 2,-8 9,-9 -1,-1 -1,-2 -1,-2 -1,-4 -4,-11 3,-16l4 -4 3 5c1,3 5,7 8,10 1,2 3,3 4,4 7,9 8,8 11,6 2,-2 3,-3 3,-6 1,-2 2,-5 4,-8 3,-2 5,-4 8,-5 2,-1 3,-2 3,-4 0,0 0,0 -1,0 -5,-4 -12,-8 -12,-16 0,-3 1,-5 2,-7 1,-2 1,-3 1,-4 -1,-3 -6,-5 -11,-7 -7,-3 -16,-7 -14,-17 1,-3 2,-6 4,-7 5,-3 11,-2 17,0 3,1 5,1 7,1 6,0 7,-1 7,-5 1,-3 2,-8 7,-12 2,-2 4,-3 6,-3 2,-1 3,-2 4,-3 2,-1 2,-2 3,-2 2,-3 4,-5 8,-6 2,-1 3,-1 6,-1 1,0 4,-1 6,-1 -1,0 -1,0 -2,0 -1,0 -2,0 -3,0 -2,0 -5,0 -9,1 -10,1 -24,2 -31,-5 -5,-5 -1,-11 1,-15 1,-2 2,-5 2,-6 0,-2 -1,-3 -1,-4 -1,-7 -3,-15 3,-22 6,-7 14,-7 22,-8 2,0 4,0 6,0 4,-7 5,-11 3,-16 0,-1 -1,-3 -2,-4 -1,-3 -3,-6 -3,-9 -1,-3 0,-7 0,-10 0,-2 0,-3 0,-5l0 -4 3 -1c2,0 3,-1 5,-1 -6,-3 -12,-8 -10,-15 2,-7 14,-10 15,-11 3,0 6,-1 8,-1 4,0 5,0 8,-4 4,-8 9,-13 15,-20 4,-5 3,-6 -2,-11 -1,-1 -3,-3 -5,-5 -3,-4 -5,-10 -3,-16 0,-1 0,-2 1,-3 -4,-3 -6,-7 -8,-11 -1,-2 -3,-5 -4,-7 -5,-5 -5,-5 -12,-4 -9,2 -21,3 -26,-12 -1,-2 -1,-3 -2,-5 -2,-8 -4,-12 -11,-14 -2,-1 -5,0 -8,0 -5,0 -12,1 -17,-7 -5,-6 -6,-13 -7,-19 -1,-7 -2,-12 -6,-17 -1,-1 -3,-3 -4,-4 -5,-6 -8,-10 -8,-22 0,-5 0,-10 1,-15 0,-5 0,-9 0,-14 -9,-2 -12,-13 -14,-22 -1,-6 -3,-12 -6,-14 -1,-2 -2,-2 -3,-2 -3,0 -6,4 -8,8l-2 3c-7,8 -14,12 -20,13 -6,1 -13,-2 -19,-8 -2,-2 -3,-4 -4,-5 -1,-1 -2,-3 -3,-3l-1 -2c-1,0 -2,0 -3,0 -1,0 -3,0 -4,0 -4,-1 -7,-1 -11,-6 -1,-1 -5,-6 -6,-10 -1,-1 -1,-3 -1,-5 0,-1 0,-2 0,-2 0,0 -4,0 -6,0 -3,1 -7,1 -10,0 -4,-2 -8,-5 -12,-9 -3,-2 -5,-5 -8,-6 -7,-4 -12,-3 -19,0 -2,0 -4,1 -6,1 -13,4 -22,3 -34,-1l-3 -1c-6,-2 -12,-4 -17,-3 -1,1 -2,2 -4,4 -2,2 -5,5 -10,6 -7,1 -17,-2 -25,-5 0,0 0,0 0,0 -3,4 -5,9 -3,16 1,5 10,8 8,12 -1,4 -19,10 -23,12 -10,3 -24,12 -34,9 -9,-3 -8,-19 -10,-27 -16,4 -32,11 -48,13 -2,0 -6,-1 -8,0 -6,3 -4,11 -13,13 -18,6 -25,-8 -37,-17 -8,-6 -19,0 -29,1 -9,0 -20,1 -29,0 -8,-2 -21,-16 -27,-11 -4,4 -8,18 -9,23 -1,5 1,9 -1,13 -7,13 -22,2 -31,0 -15,-4 -23,7 -28,17 -4,7 -10,12 -16,15 -6,3 -11,2 -12,10 4,3 8,8 13,10 9,5 22,0 28,-9 4,-6 4,-14 12,-15 6,-1 14,1 13,8 -1,8 -16,9 -17,16 -1,4 1,4 2,6 4,11 4,23 7,34 8,3 20,0 26,6 6,4 5,13 7,19 2,8 7,19 13,26 9,9 23,7 34,10 9,2 13,6 19,12 9,8 22,6 34,3 10,-3 15,-11 23,-14 7,-4 17,1 24,-5 7,-6 5,-12 15,-15 7,-2 13,-3 17,3 5,8 -1,9 -5,14 -6,9 -1,18 -7,27 -3,4 -7,9 -11,13 -3,3 -6,8 -9,11 -11,11 -38,5 -51,9 -15,3 -23,21 -41,19 -13,-2 -17,-10 -25,-18 -8,-7 -8,-6 -16,-2 -10,5 -19,5 -15,18 2,7 14,18 19,25 7,8 11,15 15,24 4,10 8,19 12,28 9,21 26,30 45,40 18,11 24,26 33,43 6,10 18,19 26,27 8,7 11,8 21,9 19,1 31,26 50,24 9,0 15,-8 22,-13 7,-4 15,-2 22,-6 5,-10 15,-5 24,-8 6,-2 10,-4 16,-4 10,-1 27,4 34,-3 9,-7 5,-19 13,-26 10,-8 27,-13 33,-25 5,-8 1,-19 3,-28 3,-17 7,-19 -4,-33 -14,-19 6,-28 12,-45 3,-8 1,-25 15,-13 3,2 4,8 7,10 3,2 12,-1 16,-1 6,-1 28,-1 18,12 -5,7 -18,2 -25,5 -5,2 -8,7 -10,12 -5,14 5,25 3,39 -1,7 -7,13 -8,21 -1,9 3,8 8,14 7,8 2,17 -3,25 -6,9 -7,17 -2,26 3,5 7,10 10,15 4,6 4,13 7,19z"/>
  <path class="fil1" d="M649 2800c1,3 1,5 2,8 5,-2 10,-2 15,-2 5,0 10,0 13,-2 6,-5 5,-14 1,-27 0,-3 -1,-6 -1,-9 -2,-10 0,-14 2,-21l1 -3c1,-1 2,-3 2,-4 2,-2 2,-3 2,-5 -1,-3 -5,-5 -10,-7 -5,-2 -11,-5 -14,-12 -5,-15 13,-24 25,-31 4,-1 7,-3 8,-4 6,-5 10,-10 10,-15 1,-7 -2,-14 -10,-24 -11,-13 -12,-26 -3,-42 7,-12 16,-10 23,-8 3,1 5,2 9,2 8,1 10,-2 13,-9 3,-4 6,-9 12,-13 4,-3 10,-4 15,-4 10,-1 15,-2 16,-13l0 -4 3 0c9,-1 17,1 25,4 7,2 15,4 21,3 8,-1 9,-5 12,-10 1,-2 2,-4 3,-6 3,-4 6,-6 10,-8 3,-2 5,-3 7,-6 3,-6 -1,-12 -6,-19 -1,-2 -2,-3 -3,-4 -3,-5 -8,-12 -6,-18 2,-4 5,-7 10,-8 8,-3 16,2 23,6 3,3 7,5 10,6 15,3 29,-6 42,-15l8 -6 3 6c3,3 6,7 7,7 0,0 2,0 7,-4 3,-4 6,-7 7,-11 1,-1 2,-3 2,-4 1,-3 1,-6 3,-8 6,-9 15,-10 24,-11 4,0 9,-1 12,-2 4,-2 4,-5 5,-11 0,-2 0,-4 1,-6 2,-16 5,-38 30,-44 4,-1 8,-2 11,-2 6,0 9,-1 15,-4l1 -1c5,-4 11,-7 17,-10l-2 -3c2,-1 5,-2 8,-2 1,-1 4,-1 5,-1 1,-1 2,-3 3,-5 1,-2 3,-5 6,-7 2,-2 5,-4 7,-5 4,-3 8,-5 10,-7 1,-2 4,-9 5,-11 0,-1 -2,-2 -3,-4 -3,-2 -5,-5 -6,-9 -1,-4 0,-6 1,-9 0,0 0,-1 0,-1 1,-2 1,-3 2,-4 0,-1 0,-1 -1,-2 0,-1 -1,-3 -2,-4 -2,-4 -6,-9 -3,-16 1,-4 4,-6 5,-7 1,0 1,0 2,-1 1,-1 2,-2 3,-2 0,0 0,0 1,-1 0,-1 1,-3 1,-4 1,-3 2,-6 6,-8 3,-1 7,1 10,3 3,1 5,3 7,5 2,2 3,3 5,4 0,0 0,0 0,0 1,-4 1,-8 4,-11 2,-3 6,-4 8,-5 2,-1 4,-2 5,-3 3,-2 2,-7 1,-13 0,-2 -1,-5 -1,-7 -1,-9 3,-15 6,-21 2,-3 4,-6 5,-9 0,-1 0,-1 -1,-3 -1,-1 -2,-3 -2,-7 0,-6 5,-8 8,-9 1,-1 2,-1 3,-2l3 -1 2 1c5,3 7,6 10,9 3,4 4,5 12,5 1,0 2,0 2,0 3,-1 6,-2 9,0 5,2 7,7 8,11 1,1 1,3 2,4 1,2 2,2 5,2 2,1 4,1 7,2 8,4 13,12 15,16 1,2 2,4 2,6 3,6 4,10 9,14l2 1c6,5 8,5 9,5 1,-1 1,-2 0,-7 -1,-4 -2,-9 1,-13 2,-3 5,-5 10,-5 3,-1 7,-1 10,0 4,1 6,2 8,4 2,1 3,2 5,2 5,2 9,1 14,-3 5,-3 10,-7 18,-5 5,1 11,4 15,9 2,1 2,3 2,4 0,1 1,1 2,1 1,1 3,1 4,3 16,13 12,25 6,39 -1,2 -2,3 -2,4 -1,4 -3,8 -5,11 -2,1 -3,2 -4,3 4,3 8,9 9,14 1,4 0,8 -1,12 -1,3 -2,7 -2,8 0,0 2,0 4,0 2,1 4,1 6,2 4,2 6,4 7,5 2,2 3,3 6,3 2,-5 7,-10 14,-10 0,0 0,0 0,0 4,0 6,1 8,2 2,-4 2,-8 0,-12 0,-3 -1,-6 -2,-8 -2,-3 -3,-6 -4,-9 -3,-12 2,-16 8,-21l5 -4c5,-5 6,-6 5,-12 0,0 0,-1 -1,-2 -1,-4 -2,-8 1,-12 1,-2 4,-3 9,-3 5,0 10,4 14,7 3,2 6,4 9,5 3,1 4,1 4,0 1,0 2,-2 3,-6l1 -3 3 0c1,0 3,0 5,0 2,1 6,1 7,0 1,0 1,-1 1,-2 0,-2 -1,-2 -7,-3 -2,-1 -5,-1 -7,-2 -7,-4 -7,-10 -7,-15 0,-3 0,-5 -2,-7 0,-1 -2,-1 -4,-2 -2,0 -4,0 -6,-1 -6,-2 -7,-4 -8,-7 -1,-1 -1,-2 -2,-3 -1,-2 -2,-2 -2,-2 0,0 -1,0 -2,0 -1,0 -2,0 -4,0l-1 0c-3,0 -7,-1 -9,-6 -2,-8 4,-12 7,-15 1,-1 2,-1 3,-2 2,-3 3,-11 1,-14 -1,-1 -3,-1 -4,-1 -3,-1 -5,-1 -8,-3 -2,-1 -5,-4 -3,-8 1,-1 1,-1 1,-1 1,-4 3,-8 5,-10 2,-4 4,-7 3,-11l0 -2c-1,-3 -2,-8 0,-12 2,-3 4,-4 7,-4 0,0 1,0 2,0l5 -3 1 6c0,4 0,7 -1,10 0,1 0,2 0,3 5,-4 9,-9 8,-12l-1 -1c-1,-3 -3,-8 -3,-12 0,-6 4,-9 7,-11 2,-2 4,-3 4,-4 0,-2 -4,-5 -8,-6 -3,-2 -6,-4 -8,-6 -3,-4 -2,-9 -1,-13 0,-1 0,-2 1,-3 0,-1 0,-2 0,-3 1,-2 1,-3 -1,-5 -1,-1 -3,-3 -5,-4 -3,-2 -6,-3 -9,-7 -3,-4 -3,-9 -2,-11 3,-9 14,-13 22,-17 2,-1 4,-2 5,-2 2,-1 3,-2 4,-3l-2 0c1,-2 1,-3 1,-4 -1,-2 -7,-3 -10,-3 -3,-1 -6,-1 -7,-2 -8,-2 -11,-9 -13,-16 -1,-2 -2,-4 -3,-6 -3,-4 -6,-8 -10,-12l-2 -2c-2,-3 -5,-5 -7,-6 -1,-1 -2,-1 -3,-1 0,0 0,0 0,0 0,0 -1,1 -2,1 -3,2 -5,4 -7,7 -5,5 -11,10 -20,11 -3,0 -6,-1 -9,-2 -4,-1 -7,-2 -9,-1 -4,2 -7,7 -9,12 -1,2 -2,4 -4,5 0,1 0,1 0,2 -2,2 -3,5 -7,7 -8,2 -23,-8 -26,-14 -3,-5 -1,-9 0,-13 1,-3 1,-5 -1,-8 -4,-7 -26,-11 -33,-7 -3,1 -5,5 -6,9 -3,6 -6,14 -15,14 -5,1 -10,-2 -14,-5 -3,-1 -6,-3 -7,-3 0,1 -2,3 -2,4 -2,2 -3,5 -6,7 -10,7 -23,2 -31,-4 -4,-3 -6,-6 -8,-9 -2,-5 -4,-6 -8,-7 -6,0 -18,4 -20,7 0,1 0,4 1,6 0,3 1,7 -1,11 -5,11 -20,8 -31,6 -4,-1 -7,-2 -9,-2 0,0 0,0 0,0 -3,0 -8,2 -13,4 -12,3 -26,8 -35,0 -5,-5 -5,-9 -5,-12 2,-8 12,-14 20,-17 -2,-4 -9,-12 -12,-14 -1,0 -1,0 -1,0 0,0 -1,1 -2,1 -1,2 -4,5 -9,6 -5,1 -11,-2 -18,-5 -10,-5 -15,-7 -18,-2 -2,2 -2,5 -2,8 0,6 1,14 -8,20 -4,2 -8,3 -12,3 -4,1 -8,2 -11,5 -3,3 -3,8 -4,13 -1,8 -3,18 -11,22 -5,3 -12,3 -18,3 -2,0 -5,0 -7,1 -3,0 -6,2 -9,3 -4,2 -8,4 -13,5 0,0 -1,0 -2,0 -3,0 -6,-1 -8,-3 -6,-5 -6,-16 -7,-25 0,-4 0,-10 -1,-12 -3,-5 -12,-4 -21,-3 -6,1 -11,2 -16,1 -3,-1 -6,-2 -10,-3 -5,-2 -10,-4 -14,-3 -3,0 -6,2 -9,4 -7,4 -15,9 -24,5 -12,-4 -12,-16 -11,-25 0,-7 0,-11 -3,-12 -2,-1 -9,0 -13,1 -3,0 -7,1 -9,1 -9,-1 -15,-3 -21,-5 -2,-1 -3,-1 -5,-2 -2,-1 -3,0 -6,1 -2,1 -6,2 -10,1 -12,-3 -11,-24 -11,-33 0,-2 1,-3 1,-5 0,-2 1,-9 0,-10 0,0 -1,1 -2,2 -1,0 -2,1 -3,2 -10,5 -27,6 -37,1 -3,1 -6,1 -9,1 -7,0 -12,1 -15,5 -3,3 -2,7 -1,14 0,1 0,3 1,4 0,5 -2,9 -4,12 0,2 -1,4 -1,5 4,4 15,3 23,2 4,-1 8,-1 10,-1 1,0 2,0 2,0 5,0 13,-1 15,5 1,4 0,6 -1,8 -3,4 -10,5 -16,6 -2,0 -3,0 -4,0 -2,1 -3,2 -4,4 -1,1 -2,2 -4,3 -2,2 -5,3 -7,4 -1,0 -2,1 -3,1 -3,3 -3,5 -4,8 -1,6 -3,11 -15,12 -3,0 -7,-1 -10,-1 -3,-1 -8,-2 -10,-2 0,1 0,1 0,2 -1,2 2,4 9,7 6,3 13,6 15,13 2,4 0,7 -1,9 0,2 -1,3 -1,4 0,3 3,5 8,8 1,1 2,2 3,2l2 1 0 2c2,10 -4,13 -8,15 -2,1 -4,2 -5,3 -1,2 -2,3 -2,5 -1,3 -2,6 -6,10 -10,8 -18,0 -24,-7 -1,-1 -2,-2 -4,-4 0,0 -1,-1 -2,-2 1,2 1,5 1,8l-1 3 -3 0c-4,1 -5,1 -6,1 1,0 0,1 0,1 0,2 0,3 0,5 -2,9 -8,9 -11,10 -2,0 -4,0 -5,1l-1 1c-1,0 -1,0 -1,0 0,1 0,1 0,1l1 4c1,5 2,11 3,16 0,1 0,1 0,1 1,2 3,5 1,9 -2,4 -7,5 -10,6 -1,0 -3,0 -3,1 -1,0 -1,1 -1,4 0,3 -1,7 -5,11 -4,2 -7,3 -9,3 -2,0 -4,-1 -5,-1 -10,-4 -14,-21 -15,-30 -2,0 -2,1 -4,2 -1,1 -2,3 -4,4 -6,5 -12,3 -16,1 -2,0 -3,-1 -5,-1 0,5 1,11 1,15 1,13 6,28 0,41 -3,8 -10,13 -11,21 -2,12 5,24 7,35 2,10 3,15 -1,24 -1,3 -4,9 -2,12 2,5 1,2 6,1 6,-2 17,-5 22,2 4,7 -3,12 -7,16 -8,10 -12,17 -10,30 2,12 2,25 2,37 0,15 9,21 15,34 6,13 7,23 8,37 0,13 -1,29 4,42 4,11 13,18 16,29 7,26 -7,53 -3,78 3,13 15,54 30,52 2,7 -1,14 -6,19 14,19 22,38 32,59 8,15 18,33 23,49 2,9 1,19 4,29z"/>
  <path class="fil1" d="M1965 2279c-6,-1 -7,0 -9,4 -1,3 -3,7 -6,10 -4,3 -9,4 -14,5 -3,1 -7,2 -9,3 -4,3 -5,6 -7,10 -7,14 -14,20 -30,20 -13,1 -21,-7 -29,-14 -3,-3 -6,-6 -10,-8l-2 -2c-4,-2 -7,-5 -10,-8 -1,-1 -2,-3 -4,-4 -2,-4 -4,-5 -7,-6 -3,-1 -5,-1 -7,0 -3,2 -4,6 -5,9 -3,11 -8,14 -15,18l-2 1c-4,3 -8,4 -12,6 -5,1 -9,3 -12,5 -5,3 -10,9 -14,13l-1 1c-3,4 -3,6 -3,13l0 2c0,1 1,2 1,3 0,3 0,5 0,8 -1,7 -5,9 -7,11 -1,1 -3,1 -3,3 -1,1 -2,3 -2,5 -1,4 -1,8 -5,9 -4,2 -9,0 -13,-3 -2,-1 -3,-3 -5,-4 -2,-2 -4,-4 -5,-4 -1,1 -3,4 -4,6 -1,1 -2,2 -2,3l-4 4 -3 -4c-3,-4 -5,-9 -7,-14 -3,-10 -6,-16 -12,-17 -5,0 -8,0 -10,3 -3,3 -4,10 -3,20 1,14 1,30 -13,41 -9,9 -18,5 -25,2 -2,-1 -5,-1 -7,-2 -4,-1 -9,0 -12,3 -1,1 -2,2 -2,3 -1,3 -3,6 -7,8 -4,2 -8,2 -12,2 -1,0 -3,0 -5,1 0,0 -1,0 -2,0 0,1 0,3 -1,4 -1,5 -3,7 -5,9 0,1 -1,2 -2,3 -1,2 -2,3 -2,3 1,1 2,3 2,6 2,14 -8,20 -16,25 -2,1 -5,3 -7,4 -3,2 -3,3 -3,6 0,3 0,6 -2,10 -3,8 -14,15 -18,17 -8,4 -16,4 -23,3 -9,0 -16,-1 -21,6l-7 7 -1 -9c0,-1 0,-2 0,-4 0,0 0,-2 -1,-3 -1,0 -7,0 -16,3 -5,2 -7,3 -9,7 -1,2 -2,3 -4,5 -4,5 -9,7 -14,8 -1,1 -2,1 -3,2 0,0 0,1 0,2 1,8 4,22 -6,25 -8,2 -14,-4 -19,-9 -3,-3 -6,-6 -8,-7 -3,-1 -9,0 -10,1 -1,1 0,3 0,5 0,3 1,7 -1,10 -1,3 -3,5 -4,6 -1,2 -3,3 -3,4 0,1 0,2 0,3 0,2 0,7 -4,10 -7,5 -16,1 -21,-1l-5 -2c-7,-3 -9,-4 -15,-1 -1,1 -3,2 -4,3 -2,2 -4,4 -7,5 -4,2 -8,2 -12,1 -2,0 -4,0 -6,0 -1,1 -1,1 -3,3 -1,1 -2,2 -4,4 -2,1 -5,2 -8,3 -2,1 -3,1 -5,2 -3,2 -9,5 -9,7 0,0 0,1 1,2 1,1 2,2 3,3 3,3 6,6 6,14 1,12 -5,19 -16,21l-1 1c-2,0 -4,1 -7,0 -3,0 -5,-2 -7,-3 -3,-2 -4,-3 -5,-2 -1,0 -1,2 -2,4 -1,3 -2,7 -6,10 -3,2 -6,4 -7,4 -5,2 -9,0 -11,-2 -1,-1 -2,-1 -2,-1 -1,-1 -2,-1 -2,-2 -2,0 -3,-1 -4,-1 0,0 -1,0 -1,0 -1,1 -3,2 -5,2 -5,-1 -8,-3 -11,-5 -1,-1 -2,-2 -3,-2 -2,-1 -3,-1 -5,0 -4,1 -7,3 -8,4 0,0 0,1 0,2 0,3 -1,6 -4,10 -3,2 -6,3 -8,4 -3,2 -5,3 -7,5 -1,1 -2,3 -3,5 -2,5 -5,10 -13,10 -1,0 -2,0 -4,0 -6,-1 -10,-4 -15,-7 -3,-2 -6,-4 -9,-5 -5,-1 -10,-1 -16,-2 -7,0 -13,0 -20,-3 -5,0 -11,-2 -16,-4 -4,-2 -8,-4 -12,-4 -5,0 -8,1 -12,3 -1,1 -3,1 -5,2 -2,1 -5,1 -8,1 -6,1 -10,2 -12,5 -1,2 0,4 5,9 1,2 3,4 4,6 6,9 0,14 -4,18 -1,1 -2,1 -3,2 -1,1 -2,2 -3,3 -4,4 -4,4 -4,6 1,1 3,3 5,4 4,3 8,6 9,12 0,5 -2,9 -4,12 -1,2 -2,4 -2,5 0,0 0,0 0,0 1,1 2,2 4,3 5,7 3,13 1,19 0,1 0,3 -1,5l0 3 -4 0c-10,2 -21,-1 -31,-3 -3,-1 -7,-2 -11,-3 0,0 1,1 1,2 2,2 4,5 5,9 0,4 -1,7 -2,10 0,2 -1,4 -1,5 0,3 1,6 1,9 1,3 2,8 1,12 0,3 -1,6 -2,9 -3,7 -4,11 -1,15 1,1 4,2 6,2 3,1 7,3 10,5 8,8 11,22 11,26 1,3 0,7 -1,10 0,3 -1,7 0,8 0,1 0,1 0,1 2,0 4,-1 5,-3 2,-2 3,-5 5,-8 2,-6 4,-13 12,-15 1,-1 2,-1 3,-1l1 0c1,-1 2,-1 3,-2 3,0 5,1 7,1 1,0 1,1 1,1 2,0 2,0 2,0 0,0 0,-1 0,-2 0,-1 0,-4 2,-6 4,-5 14,-4 18,-1 4,4 4,9 4,13 0,0 0,1 1,2 0,2 0,2 3,4 4,3 6,9 4,15 -1,5 -6,8 -11,8 -3,-1 -5,-2 -7,-3 -1,-1 -1,-1 -2,-1 0,1 0,2 0,3 1,1 1,2 1,3 0,6 -1,8 -6,11 -6,4 -10,3 -14,1l-5 -1c-4,-1 -8,-2 -12,-5l-1 -1c0,0 -1,0 -1,-1 0,0 -1,1 -1,1l-1 0c0,0 0,0 -1,0 1,2 1,4 -1,7 -2,5 -7,5 -11,6 -2,0 -4,0 -5,1 0,0 0,2 -1,3 0,2 0,2 4,5l1 1c4,3 8,7 12,11 2,3 2,6 3,9l0 2c1,2 1,2 2,3 0,-1 0,-4 0,-6l0 -4c0,-5 0,-11 3,-16 4,-5 9,-4 12,-3l2 1c2,0 3,0 5,1 1,1 2,2 2,2 2,1 5,2 7,2 1,0 2,1 3,1 4,1 7,2 10,1 2,-1 2,-1 3,-2 1,-1 1,-2 2,-4 1,-1 1,-1 1,-2 2,-2 3,-3 7,-5 3,-1 8,0 12,1 2,1 4,1 5,1 7,0 7,0 10,-5l2 -3c4,-6 11,-11 20,-12 7,-2 13,0 18,3 5,4 10,17 9,24 -1,2 -2,4 -3,6 -1,2 -1,3 -1,5 1,2 2,6 14,7 16,1 35,5 40,18 4,10 -7,14 -14,17 -3,1 -8,3 -9,5 0,1 0,3 2,6 1,2 4,4 6,7 7,6 17,16 6,28 -3,4 -7,6 -10,8 -5,3 -8,6 -11,10 -1,2 -1,3 -2,5 -1,3 -3,8 -10,10 -2,0 -4,0 -7,0 6,5 12,8 19,8l2 0c3,1 9,1 10,-1 1,0 0,-2 0,-3 0,-2 0,-4 1,-6 2,-6 8,-12 12,-16 3,-3 6,-5 7,-7 9,-12 21,-19 35,-20 7,0 14,2 20,4 5,2 11,4 16,4 14,-2 20,-6 25,-17 10,-20 22,-28 36,-24 3,1 6,3 8,5 3,1 5,3 7,3 2,0 3,0 6,-2 1,-1 3,-2 6,-3 5,-1 11,0 16,1 9,2 15,3 17,-1 1,-1 1,-3 2,-4 0,-4 1,-7 8,-10 3,-2 7,-3 11,-4 -3,-2 -6,-3 -8,-4 -7,-3 -15,-10 -17,-17 -2,-7 5,-12 8,-17 5,-8 0,-13 -3,-20 -3,-8 -3,-14 0,-21 3,-11 8,-21 10,-32 3,-12 3,-29 -5,-40 -6,-8 -14,-16 -14,-28 0,-5 3,-10 6,-16 3,-7 5,-14 7,-21 2,-11 2,-23 6,-34 6,-15 27,-9 36,-21 3,-4 5,-9 9,-13 3,-4 9,-6 14,-7 5,-1 9,0 13,3 3,2 7,4 11,4 4,1 11,2 12,-3 1,-2 0,-5 1,-7 2,-2 6,-3 8,-5 3,-2 6,-6 8,-9 2,-3 3,-7 5,-9 5,-3 8,-10 9,-16 1,-6 0,-14 3,-20 2,-3 6,-6 9,-8 3,-4 9,-9 14,-8 7,1 13,6 20,8 7,3 14,8 22,8 4,0 5,-3 8,-5 3,-3 6,-6 10,-7 6,-2 11,-4 17,-8 5,-3 9,-2 15,-2 9,0 10,-8 11,-15 1,-7 8,-12 9,-19 0,-4 0,-7 -2,-10 -2,-3 -5,-5 -6,-9 -1,-3 -2,-10 -1,-13 0,-7 7,-10 12,-13 10,-7 21,-11 29,-21 4,-6 9,-15 17,-18 5,-2 12,-1 17,-2 7,-1 12,-1 17,-6 8,-6 16,-13 21,-22 5,-8 10,-19 16,-26 5,-5 10,-10 16,-13 7,-4 15,-9 20,-16 3,-4 5,-8 10,-11 9,-6 19,-6 28,-10 7,-3 14,-12 18,-17 3,-5 4,-11 7,-16 2,-4 6,-8 10,-10 5,-4 10,-8 15,-12 7,-8 6,-19 13,-26 12,-13 27,-22 37,-36 -3,-2 -6,-3 -8,-3z"/>
  <path class="fil1" d="M1418 3009c-3,2 -3,3 -4,5 0,1 0,4 -2,7 -6,10 -18,7 -27,5 -4,-1 -9,-2 -12,-1 -1,0 -2,1 -4,2 -2,1 -6,3 -11,3 -4,0 -8,-3 -11,-5 -2,-2 -4,-3 -5,-3 -10,-3 -18,3 -26,19 -7,16 -18,20 -32,21 -7,1 -14,-1 -20,-3 -6,-2 -11,-4 -16,-4 -12,1 -21,6 -29,16 -2,3 -5,6 -7,8 -5,4 -9,9 -10,13 -1,1 -1,2 -1,3 0,3 1,6 -2,9 -4,5 -12,5 -17,4l-2 0c-12,0 -20,-7 -29,-13 -2,-2 -5,-4 -7,-6 -7,-5 -12,-5 -22,-1 -2,0 -4,1 -6,2 -1,1 -2,2 -4,3 -2,1 -4,1 -6,1 -2,1 -4,1 -5,2 0,0 0,1 0,2 0,2 0,4 -1,6 -1,3 -4,5 -6,7 -2,2 -4,4 -5,5 -1,2 -1,5 -1,8 1,2 1,3 0,5 0,7 -3,10 -7,12 -1,1 -2,2 -4,3 0,1 0,1 -1,1 3,1 8,2 11,3 4,0 8,1 10,2 11,5 13,11 13,15 0,9 -10,13 -18,15 -2,1 -5,2 -6,3 -4,2 -4,4 -6,6 0,2 -1,4 -3,6 -4,7 -11,9 -17,11 -2,1 -3,1 -4,2 -13,4 -17,6 -32,2 -8,-2 -16,-4 -23,0 -1,1 -2,1 -2,1 0,2 0,4 -1,7 -3,7 -12,10 -19,11 -1,0 -2,0 -4,0 -6,0 -14,-1 -21,-4 -1,-1 -2,-1 -3,-2 -1,-1 -2,-1 -3,-1 0,0 0,0 0,0 -4,3 -9,4 -14,6 -2,0 -3,1 -5,1 1,3 3,3 9,4 5,1 11,1 14,6 3,3 3,6 3,9l0 2c1,6 1,6 6,9 2,1 4,2 7,3 10,4 26,12 22,27 -2,6 -7,9 -11,12 -2,1 -3,2 -5,4 2,2 4,3 6,4 1,1 4,2 6,3 6,3 12,5 15,10 1,3 1,9 0,17 0,1 0,2 0,2 0,8 -4,15 -7,21 -4,9 -8,16 -4,25 3,6 6,8 13,6 2,-1 4,-2 7,-3 3,-1 6,-3 10,-3 9,-2 20,-2 25,2 5,5 5,12 4,18l0 3c-1,4 -2,9 -3,13 0,4 -1,8 -2,11 -2,7 -4,12 -1,17l1 2c1,2 3,5 2,10 0,3 -1,5 -2,7 0,1 0,1 0,1 0,1 1,1 2,1 4,1 8,2 12,7 4,6 6,15 3,22 -2,5 -5,9 -9,13 -3,3 -6,6 -7,10 -1,2 0,4 0,6 1,2 2,4 2,8 0,6 -4,10 -7,13 -2,1 -3,2 -4,4 -2,3 -1,7 3,13 1,2 2,3 4,5 3,4 6,7 6,14 0,3 0,6 -1,8 0,1 0,1 0,2 0,2 0,3 0,5 1,2 1,4 1,7 -1,8 -9,13 -16,17 -2,2 -5,3 -6,4 -1,0 -1,1 -1,1 3,1 5,3 8,3l3 4c3,5 9,8 15,11 5,2 9,6 14,9 1,1 2,3 4,3 3,2 9,0 13,-1 6,-2 8,-7 13,-11 10,-8 22,-9 34,-14 7,-2 11,-6 16,-12 5,-5 23,-24 7,-26 -3,-1 -6,0 -9,0 -1,0 -4,0 -5,-1 -2,-2 2,-5 4,-6 4,-3 11,-2 14,-6 3,-3 1,-8 2,-12 0,-5 3,-6 6,-9 8,-6 6,-16 13,-22 4,-4 11,-6 16,-6 4,0 8,0 11,-1 8,-1 15,-5 22,-7 3,-2 6,-5 10,-6 5,-2 11,2 17,2 5,0 7,-1 10,-5 1,-1 5,-7 5,-9 -1,-5 -15,-3 -17,-8 -2,-6 6,-15 9,-20 2,-4 3,-8 4,-13 1,-6 3,-9 9,-14 5,-5 12,-9 17,-15 3,-4 4,-9 5,-13 2,-5 4,-11 4,-17 0,-3 0,-7 1,-10 2,-6 11,-8 17,-11 7,-4 12,-4 19,1 3,2 5,4 9,4 3,0 7,-3 10,-2 3,2 4,8 9,8 4,1 7,-3 10,-6 5,-5 8,-11 8,-18 0,-11 2,-23 0,-33 -2,-11 -6,-21 -4,-33 2,-5 4,-11 5,-16 0,-7 -5,-12 -9,-17 -4,-6 -11,-14 -12,-21 0,-8 5,-15 7,-23 1,-7 2,-13 0,-20 -1,-5 -2,-9 -3,-13 -1,-5 2,-6 5,-9 5,-5 8,-8 9,-15 1,-5 1,-11 4,-15 3,-6 10,-9 14,-14 3,-5 5,-9 7,-14 2,-4 5,-8 7,-12 2,-5 2,-9 2,-13 1,-7 -2,-15 2,-21 2,-4 6,-7 8,-11 2,-4 3,-9 3,-13 0,-9 -4,-17 -2,-27 1,-5 4,-9 5,-13 1,-4 3,-11 2,-16 -5,0 -10,1 -15,3z"/>
  <path class="fil1" d="M1018 3626c1,-1 2,-2 3,-3 2,-1 5,-3 8,-5 5,-2 11,-6 11,-10 0,-1 0,-3 0,-4 -1,-2 -1,-5 -1,-7 0,-2 0,-3 1,-4 0,-2 0,-3 0,-5 0,-4 -2,-6 -4,-10 -2,-1 -3,-3 -5,-6 -2,-3 -7,-12 -3,-21 2,-3 4,-5 6,-7 3,-2 4,-4 4,-6 0,-2 0,-3 -1,-5 -1,-3 -2,-7 -1,-12 2,-6 6,-10 10,-13 3,-4 6,-6 7,-10 1,-4 0,-9 -3,-14 -1,-2 -3,-3 -7,-4 -2,0 -4,-1 -6,-2l-3 -1 0 -2c0,-4 1,-6 2,-9 1,-1 2,-2 2,-3 0,-3 -1,-4 -2,-6 -1,-1 -1,-2 -1,-2 -4,-9 -2,-16 0,-23 1,-3 2,-7 3,-10 0,-5 1,-9 2,-14l0 -3c1,-5 1,-8 0,-9 -2,-1 -8,-2 -19,0 -2,0 -5,1 -8,2 -2,2 -5,3 -8,4 -14,3 -20,-4 -23,-11 -6,-13 0,-24 4,-33 3,-5 6,-11 6,-17 0,-1 0,-2 1,-3 0,-3 0,-10 0,-12 -1,-2 -7,-4 -10,-5 -3,-2 -6,-3 -8,-4 -4,-3 -7,-6 -10,-8l-2 -3 1 -3c3,-4 7,-7 10,-9 3,-3 6,-4 7,-7 2,-7 -4,-11 -17,-17 -3,-1 -5,-2 -7,-3 -9,-5 -10,-7 -11,-16 0,-1 0,-2 0,-2 0,-2 0,-4 -1,-4 -1,-2 -4,-3 -8,-3 -6,-1 -17,-2 -17,-16l0 -3 3 -1c2,-1 5,-2 8,-3 4,-1 9,-2 11,-4 1,-1 1,-2 1,-4 -1,0 -2,0 -3,0 -9,0 -21,0 -27,-6 -3,-3 -5,-8 -6,-11 -1,-4 -2,-7 -4,-8 -2,-2 -5,-3 -8,-4 -5,-1 -10,-2 -14,-6 -1,-2 -2,-3 -2,-5 -1,-1 -1,-2 -1,-2 -1,0 -3,0 -4,0 -1,0 -2,0 -3,0 -6,0 -12,-1 -19,-3 -13,-3 -16,-11 -19,-19 -2,-5 -3,-10 -8,-13 -2,-2 -4,-3 -7,-4 -4,-1 -8,-2 -11,-5 -4,-3 -3,-8 -2,-11 0,-2 1,-3 0,-5 0,-3 -7,-4 -13,-4l-4 0c-10,-1 -15,-1 -20,-11 -1,7 -1,14 1,21 3,8 10,14 13,23 2,7 0,15 4,21 11,16 38,10 43,32 3,12 -2,17 -5,28 -6,16 11,27 21,37 9,9 18,17 20,29 1,6 -1,12 1,17 1,6 5,11 8,16 4,9 5,17 8,26 3,7 8,14 11,22 3,10 0,20 2,31 2,12 11,20 16,30 7,16 7,32 10,48 3,13 2,24 2,38 0,14 13,18 16,32 2,10 -6,22 6,29 16,9 31,-6 44,13 9,13 17,29 29,39z"/>
  <path class="fil7" d="M1074 480c-9,3 4,39 13,59 7,2 18,1 23,1 2,0 3,0 4,0 1,-2 1,-3 3,-4 6,-7 11,-11 22,-9 9,2 10,6 10,11 0,2 0,4 1,6 1,1 1,2 4,4l1 1c3,2 5,5 6,7 1,1 1,2 3,4 4,5 8,3 18,-4 3,-2 5,-4 8,-5 6,-3 13,-3 17,1 5,4 7,11 5,18 -1,2 -2,4 -2,5 -2,3 -2,3 -1,4 1,1 4,2 6,2 3,2 6,3 8,5 2,2 3,3 4,5 0,-2 1,-4 1,-6 2,-8 3,-20 16,-10 12,8 9,14 13,25 5,13 24,15 33,5 3,-2 3,-6 5,-8 6,-5 18,-4 25,-7 8,-14 24,-17 21,-36 -1,-6 -5,-11 -7,-17 -1,-8 5,-22 1,-29 -5,-7 -21,-6 -29,-8 -8,-2 -14,-7 -20,-13 -11,-11 -26,-28 -29,-44 -2,-11 1,-16 9,-23 4,-3 8,-4 11,-7 8,-7 5,-17 8,-27 2,-8 8,-13 12,-20 3,-6 2,-8 8,-12 9,-6 23,-4 34,-4 23,0 25,-13 34,-31 7,-15 21,-15 32,-25 12,-10 10,-21 13,-35 2,-10 8,-17 12,-27 8,-17 -3,-29 -21,-24 -9,2 -8,7 -16,3 -9,-5 -11,-19 -21,-21 -10,-2 -11,2 -20,-5 -7,-5 -10,-10 -14,-18 -9,-16 -18,-22 -35,-9 -18,13 -37,-1 -54,10 -7,4 -9,10 -19,12 -10,3 -20,-4 -29,3 -8,6 -9,17 -14,25 -11,18 -41,12 -58,5 -6,1 -12,1 -17,-3 -2,-2 -5,-3 -7,-4 -2,0 -5,0 -7,-1 -4,-1 -8,-3 -12,-5 -36,-5 -73,19 -53,48 71,101 -60,5 -9,84 17,26 -20,88 17,95 34,6 65,40 33,53z"/>
 </g>
</svg>
