<?xml version="1.0" encoding="UTF-8"?>
<!DOCTYPE svg PUBLIC "-//W3C//DTD SVG 1.1//EN" "http://www.w3.org/Graphics/SVG/1.1/DTD/svg11.dtd">
<!-- Creator: CorelDRAW X7 -->
<?xml-stylesheet href="world map main partners-010.css" type="text/css"?>
<svg xmlns="http://www.w3.org/2000/svg" xml:space="preserve" width="100%" height="100%" version="1.1" style="shape-rendering:geometricPrecision; text-rendering:geometricPrecision; image-rendering:optimizeQuality; fill-rule:evenodd; clip-rule:evenodd"
viewBox="0 0 4618 2566"
 xmlns:xlink="http://www.w3.org/1999/xlink">
 <g id="Layer_x0020_1">
  <metadata id="CorelCorpID_0Corel-Layer"/>
  <g id="_1826508529792">
   <path class="fil0" d="M3174 382c7,4 27,11 20,23 -7,7 -20,-2 -28,-4 -17,0 -16,-6 -19,-20 -6,1 -11,8 -14,13 3,10 11,11 7,25 -11,52 23,6 43,35 3,6 4,14 7,22 3,7 8,13 6,21 -13,6 -22,-3 -25,-15 0,-6 -1,-14 -5,-16 -6,-4 -13,0 -16,2 -4,6 6,12 -10,29 -18,18 -30,35 -48,31 -10,-1 -26,-6 -22,-18 10,-9 20,8 37,-16 3,-5 7,-12 10,-18 5,-11 2,-11 -3,-20 -8,-19 3,-35 -4,-47 -4,-8 -4,-15 -1,-23 4,-10 5,-12 4,-24 -7,-9 -33,-6 -38,2 -5,5 -6,12 -10,18 -5,6 -9,10 -13,16 -6,7 -4,11 -6,21 -1,12 2,14 9,20 7,7 21,25 10,37 -13,3 -20,-11 -29,-16 -4,-4 -10,-5 -14,-7 -7,-3 -9,-5 -14,-8 -14,-10 -37,-4 -54,-11 -6,-3 -9,-7 -15,-9 3,14 19,18 22,28 1,8 -3,14 -10,14 -9,0 -13,-6 -20,-5 -6,2 -6,8 -17,8 -31,-4 -40,25 -46,-8 -5,0 -14,3 -21,3 -10,1 -11,1 -17,8 -11,16 -19,12 -29,22 -4,3 -7,8 -14,11 -7,2 -14,1 -20,-2 -25,-9 -1,-28 0,-28 -4,-6 -14,-11 -21,-6 -6,7 -4,20 0,28 6,10 7,18 -3,24 -11,5 -13,-6 -27,3 -8,5 -16,6 -23,12 0,7 15,32 -11,26 -7,-1 -31,-9 -34,-11 4,12 18,12 14,24 -16,6 -46,-9 -48,-24 -3,-15 7,-19 -6,-32 -7,-6 -19,-10 -17,-22 8,-4 16,3 24,8 13,7 48,10 63,6 4,-2 7,-4 11,-6 3,-2 4,-2 6,-4 4,-2 4,-1 5,-6 -4,-8 -17,-16 -27,-19 -25,-12 -28,-23 -61,-28 -27,-2 -20,-15 -27,-19 -4,0 -10,4 -14,4 -10,-1 -4,-7 -16,-3 -7,3 -5,5 -8,14 -7,23 4,17 8,32 2,7 -1,13 -1,20 0,16 7,22 7,39 0,14 -1,28 3,40 3,11 14,20 11,30 -4,15 -34,28 -37,48 7,2 10,0 13,6 0,8 -13,14 -21,15 -3,11 -7,18 -5,32 2,11 8,17 8,30l21 6c18,4 16,20 23,35 4,7 8,12 7,23 47,20 8,30 65,57 14,7 32,3 37,23 3,14 0,28 -13,31 -7,3 -7,0 -8,7 3,6 -3,-3 3,4 4,5 0,11 -3,18 -4,8 -10,13 -12,19 5,4 8,5 12,9 4,3 8,8 13,10 5,3 10,3 15,4 5,1 6,2 7,5l5 8c51,1 35,1 75,26 10,6 13,10 27,9 -6,-19 -21,-22 -27,-47 -3,-9 -6,-23 2,-31 7,-10 14,-8 19,-16 -5,-10 -14,-16 -21,-24 -8,-7 -13,-24 -6,-34 6,-9 19,-15 25,-22 5,-6 7,-8 12,-12 5,-2 12,-5 17,-6 46,-11 40,28 66,16 10,-5 20,-15 34,-10 13,4 19,17 33,7 1,-8 -2,-23 -2,-33 0,-14 5,-18 12,-23 14,-12 30,-16 51,-18 36,-4 55,-18 80,5 27,26 57,-3 76,18 12,12 22,36 30,42 13,10 33,2 52,14 7,5 37,29 42,29l20 -12c30,-16 46,-22 76,-3 7,6 14,5 21,-2 8,-10 0,-17 10,-25 8,-6 14,-9 26,-9 12,2 17,5 22,12 17,18 20,15 49,18 18,3 32,12 51,16 38,7 70,-34 89,-12 5,4 3,6 6,11 14,-6 33,-7 37,-34 6,-23 -17,-38 30,-38 24,0 40,1 51,18 12,14 16,33 27,45 7,6 15,11 19,17 5,6 10,15 15,22 18,21 33,-18 49,2 11,15 -6,37 -16,49 -10,14 -34,17 -25,36l0 3c4,-3 8,-5 14,-4 7,1 5,5 11,8 12,2 41,-40 50,-52 7,-10 14,-18 20,-30 7,-10 18,-19 20,-33 1,-8 -2,-15 0,-24 1,-8 4,-13 7,-19 3,-7 3,-14 3,-23 1,-10 3,-18 -4,-21 -23,-13 -18,-10 -33,-1 -9,3 -12,0 -17,-5 -12,-10 -29,-7 -6,-31l33 -33c17,-14 28,-33 52,-46 22,-12 53,7 84,-8 9,-3 17,-4 25,2 7,7 5,13 21,8 20,-7 18,-20 33,-35 5,-6 10,-11 15,-17 12,-10 36,-15 50,-7 1,9 -1,11 -4,18 7,-1 32,-13 37,-17 3,-3 5,-10 11,-15 3,-4 7,-7 13,-7 10,1 3,13 0,19 -7,11 -6,21 -17,30 -20,13 -43,49 -60,59 -16,8 -17,-3 -27,19 -7,15 -11,10 -14,34 -2,14 0,33 6,41 8,13 8,23 8,42 0,0 0,-1 1,0l23 -31c5,-7 7,-4 13,-13 3,-7 3,-15 9,-19 5,-4 14,-4 18,-9 4,-3 3,-13 7,-19 4,-6 12,-7 9,-17 -6,-15 -3,-7 -3,-24 -3,-2 -6,-3 -9,-6 0,-12 10,-22 16,-30 7,-9 14,-12 26,-19 10,-5 10,1 15,1 10,2 20,-10 34,-9 9,1 10,6 16,7 4,2 43,-29 51,-34 12,-4 19,-6 30,-13 14,-11 22,3 36,-5 -2,-6 -5,-12 -7,-16 -5,-10 -15,-18 -23,-23 -24,-13 -2,-25 13,-17 5,2 7,5 14,4 23,-3 10,-29 26,-29 11,-1 8,12 22,13 13,2 17,1 26,10 6,6 10,10 21,14 14,2 17,-2 23,-13 6,-13 9,-10 21,-15 0,-12 -8,-14 -17,-18 -7,-2 -15,-9 -24,-9 -8,7 -11,17 -20,0 -10,-19 -21,-24 -38,-35 -22,-12 -51,-30 -76,-33 -11,-2 -21,-2 -32,-3 -23,0 -36,-11 -30,7 3,11 -5,22 -16,19 -4,0 -13,-6 -14,-8 -9,-7 -2,-12 0,-19 -13,-4 -13,1 -21,6 -8,3 -16,1 -26,1 -7,0 -21,-1 -29,0 -12,1 -10,10 -22,8 -9,-12 -25,-34 -37,-40 -6,-3 -56,1 -71,-3 -12,-2 -16,-7 -27,-12 -13,-6 -16,-4 -23,-15 -6,-6 -16,-15 -29,-11 -8,2 -14,19 -24,13 -7,-5 -6,-14 -10,-20 -7,-9 -38,-11 -47,-5 -3,2 -4,4 -8,6 -3,2 -7,4 -10,6 3,10 5,17 -6,22 -9,2 -21,1 -28,0 -16,-3 -15,1 -26,3 -14,3 -16,-3 -24,-7 -14,-6 -10,29 -39,13 -7,-3 -14,-9 -17,-14 -10,-12 -3,-16 2,-23 0,-16 -9,-24 -25,-25 -18,-1 -32,-9 -38,-9 -11,30 -18,21 -35,16 -18,-4 -35,1 -49,-12 -21,-19 -40,-1 -64,-4 -11,-2 -17,-9 -30,-1 -11,6 -10,12 -27,13 -10,2 -25,6 -33,0 -2,-16 22,-20 32,-25 5,-2 27,-19 35,-24 7,-6 30,-19 32,-27 1,-16 -23,-16 -34,-24 -18,-14 -30,4 -47,-2 -6,-1 -12,-7 -18,-10 -11,-6 -8,-10 -15,-16 -13,-10 -34,8 -39,16 -5,7 -5,10 -15,14 -9,2 -14,1 -22,7 -17,15 -24,5 -48,7 -8,2 -13,5 -20,9 -7,3 -14,5 -23,6 -8,0 -18,-1 -25,2 -30,17 -7,28 -19,42 -13,17 -58,-2 -71,17 -16,22 14,20 16,36 1,11 -7,14 -16,12 -17,-6 -18,-25 -40,-19l-13 9c-5,5 -1,-1 -4,5z"/>
   <path class="fil0" d="M4406 2394c10,-28 -25,-23 -25,-22 -7,3 -7,11 -10,18 -6,26 -27,24 -40,36 -6,5 -23,22 -24,29 -2,11 4,13 11,16 17,9 26,14 47,-13 19,-23 4,-24 20,-33 9,-5 17,-21 21,-31z"/>
   <path class="fil0" d="M4425 2381c10,-5 14,-16 18,-27 5,-13 20,-16 17,-27 -7,-3 -15,2 -22,-3 -5,-4 -5,-13 -10,-16 -5,3 -6,14 -10,20 -5,6 -10,8 -10,18 7,4 15,0 18,10 2,7 -3,14 -1,25z"/>
   <path class="fil0" d="M4395 2458c-7,8 10,39 20,26 8,-9 -3,-23 -9,-26 -7,-5 -8,-4 -11,0z"/>
   <path class="fil0" d="M4451 2329c-5,1 -10,1 -15,-2l0 0 0 0c-2,-3 -4,-6 -5,-9 -1,-2 -2,-5 -3,-6 -1,1 -2,4 -3,7 -2,4 -3,8 -5,11 -2,2 -3,3 -4,5 -3,2 -5,5 -6,9 2,1 4,1 6,1 5,1 10,2 13,10l0 0c1,4 0,8 -1,12 0,3 -1,6 -1,9 7,-5 10,-14 14,-23 2,-6 7,-11 11,-14 3,-4 6,-6 6,-10 -2,0 -5,0 -7,0zm-12 -7c4,2 8,2 12,1 3,0 7,0 10,1l1 0 1 2c2,8 -3,12 -8,17 -4,3 -8,7 -9,12l0 1c-5,11 -9,22 -20,27l-3 2 -1 -4c-1,-6 0,-11 1,-15 1,-4 1,-7 1,-10 -2,-4 -5,-5 -9,-5 -3,0 -6,-1 -8,-2l-2 -1 0 -2c0,-8 4,-12 7,-16 1,-1 3,-2 4,-4 1,-2 3,-6 4,-9 2,-5 3,-9 6,-12l1 -1 2 1c4,3 6,7 7,11 1,2 2,4 3,6l0 0z"/>
   <path class="fil0" d="M3813 259c3,4 12,11 7,17 -3,3 -16,4 -21,5 -13,3 -21,22 -35,17 -2,-11 3,-15 6,-22 3,-6 5,-13 10,-18 4,-4 11,-8 17,-9 8,0 12,5 16,10zm33 31c-6,-6 -29,-6 -39,-5 -16,2 -25,19 -15,26 4,4 30,9 38,9 8,0 8,-6 12,-12 2,-5 9,-10 4,-18l0 0zm37 24c3,1 11,-5 22,2 4,2 12,12 3,18 0,0 -60,19 -64,4 -2,-9 15,-31 23,-33 7,-2 12,8 16,9l0 0zm475 102c2,12 13,14 25,15 12,0 29,2 27,-13 -10,-9 -18,-4 -30,-8 0,0 -26,-16 -22,6l0 0zm-24 -18c25,7 0,35 -10,26 -2,-3 -1,-3 -5,-5 -8,4 -5,7 -25,10 -62,10 -39,-41 -18,-41 11,0 13,8 30,5 11,-2 17,2 28,5l0 0z"/>
   <path class="fil0" d="M1448 2085c-14,-1 -28,2 -35,-11 -10,-21 11,-20 -4,-35 -19,-16 -39,-13 -45,-26 -2,-7 -2,-13 -5,-18 -13,6 -14,13 -32,2 -8,-3 -10,-2 -15,3 -12,8 -23,21 -27,38 -3,12 -3,28 -7,39 -9,17 -9,7 -13,34 -2,17 -7,16 -6,39 2,13 6,27 4,40 -2,21 -15,51 -20,74 -8,60 2,88 -2,135 -2,14 -9,20 -12,35 -1,6 -1,12 -4,18 -4,12 -9,27 -4,41 7,27 24,12 38,26 -4,38 -1,17 -13,30 2,8 6,8 12,11 4,2 8,6 14,6 6,0 10,-4 17,-4 7,0 13,0 20,0 -6,-9 -20,-14 -27,-23 -4,-6 -6,-10 -10,-16 -3,-5 -7,-8 -6,-18 3,-12 -1,-9 -3,-21 -2,-23 15,-19 19,-30 4,-12 1,-7 8,-15 12,-12 23,-17 12,-30 -7,-9 -24,-14 -14,-30 8,-12 24,-11 28,-21 3,-6 1,-14 6,-20 4,-6 10,-5 14,-10 -3,-2 -3,-2 -6,-3 -1,-1 -3,-1 -5,-3 -16,-7 -5,-30 -3,-31 15,-2 13,10 31,5 -3,-29 6,-40 36,-36 12,2 17,-1 24,-8 23,-26 13,-20 10,-38 -3,-13 -14,-7 -16,-21 -1,-10 2,-10 6,-13 -12,-53 30,-81 35,-95z"/>
   <path class="fil0" d="M938 477c2,9 4,19 -8,20 -9,-5 -5,-13 -11,-18 -1,-1 -17,-11 -20,-11 -5,14 -1,16 -20,17 -10,0 -30,1 -38,0 -6,-1 -7,-5 -13,-7 -6,-1 -11,0 -17,-2 -11,-3 -10,-16 -23,-16 -4,11 2,10 -8,19 1,9 4,11 0,19 -3,5 -6,9 -13,9 -12,-12 3,-21 -27,-21 -16,0 -33,0 -49,-1 -31,-1 -8,-19 -8,-27 -10,-4 -23,-3 -34,-4 -12,-1 -19,-6 -30,-8 -13,-3 -20,-10 -29,-11 -15,-1 -28,19 -32,2 -2,-3 -2,-7 -2,-10 -7,4 -14,22 -25,13 -6,-6 -10,-24 -19,-27 -5,8 -3,18 -14,22 -7,1 -7,0 -13,4 -23,13 -25,-6 -38,0 -14,7 -16,3 -32,3 2,8 5,6 2,17 -7,3 -10,2 -19,-1 -7,-5 -11,-5 -18,-8 -14,-3 -16,-15 -33,-17 -6,63 -4,161 -3,232 12,3 17,9 26,10 17,1 11,9 18,17 12,4 17,-11 30,-4 6,17 -7,17 -13,23 13,22 22,-10 29,0 3,6 0,16 0,25 10,0 16,-13 21,-6 9,9 -10,24 -4,35 9,6 13,-11 26,-4 11,6 4,19 4,30 8,11 28,17 34,26 4,9 3,18 7,24 4,5 13,8 21,11 8,4 13,7 18,12l22 19c12,10 283,-2 318,-2 14,0 32,-7 41,2 6,5 6,10 13,12 7,2 14,3 21,4 13,4 31,-1 38,-10 8,-7 16,-21 33,-9l24 27c13,21 0,16 26,27 14,5 28,2 37,13 16,25 -10,23 -19,24 -1,5 -4,18 0,21 10,10 22,-10 26,-15 7,-10 20,-10 34,-10 13,0 17,-10 30,-13 19,-3 37,10 50,-12 4,-8 -3,-9 0,-19 6,-17 16,-31 28,-41 22,-17 20,-25 44,-25 26,0 45,14 66,-4 7,-4 14,-19 21,-20 6,-2 10,2 17,0 6,-1 9,-6 15,-8 -8,-12 -9,-4 -2,-20 -10,-2 -17,-10 -24,-10 -9,-2 -19,8 -27,-2 0,-7 3,-9 7,-13 4,-1 13,-1 17,-3 -3,-3 -26,-15 -31,-18 -6,-4 -9,-8 -16,-11 -7,-4 -13,-3 -13,-12 6,-6 9,-3 17,-6 -1,-10 -27,-40 -31,-48 -3,-4 -3,-6 -4,-10 -2,-6 -2,-7 -4,-9 -8,3 -8,21 -15,27 -4,5 -17,15 -25,14 -10,0 -9,-4 -13,-9 -3,-3 -9,-5 -11,-8 -9,-11 2,-34 -8,-36 -11,-4 -12,1 -22,-11 -5,-5 -13,-18 -19,-20 -4,-3 -24,-3 -33,-4 -11,-2 -21,-5 -31,1 4,10 19,15 12,37 -2,3 -3,5 -3,9 -2,5 0,7 -2,12 -3,7 -8,9 -8,15 4,8 14,10 21,17 11,13 6,16 4,31 -1,16 -7,17 -15,24 -15,12 -17,7 -26,13 0,12 6,3 7,22 0,17 16,24 0,42 -4,5 -7,12 -14,12 -6,-2 -27,-29 -30,-35 -6,-11 -4,-17 -4,-31 0,-19 -4,-16 -19,-16 -20,0 -17,0 -30,-8 -8,-7 -18,-8 -25,-16 -4,-3 -4,-7 -10,-9 -4,-3 -12,-4 -16,-5 -5,-2 -8,-6 -14,-5 -7,3 -6,7 -16,5 -4,-13 2,-27 -11,-33 -13,-6 -20,-4 -20,-27 0,-27 3,-32 14,-48 6,-7 9,-13 13,-19 6,-5 11,-10 17,-13 -6,-5 -13,-6 -18,-11 -7,-6 -9,-14 4,-14 13,-2 24,10 27,9 4,-2 7,-7 10,-13 4,0 18,7 28,-18 -4,0 -35,1 -27,-23 9,-2 30,16 39,6 4,-6 0,-15 8,-17 9,-1 13,4 19,5 4,-6 1,-20 11,-15 2,1 3,3 6,6 4,3 8,-2 11,-5 16,-16 2,-16 2,-30 0,-13 14,-17 -2,-29 -10,-6 -14,-12 -31,-8 0,7 7,7 3,15 -3,5 -7,9 -12,12 -5,9 -4,23 -14,29 -8,7 -25,-1 -24,-13 1,-7 4,-9 3,-17 -12,-33 -17,6 -23,8 -13,0 -10,-13 -11,-23 -2,-11 -10,-9 -19,-16l0 -14c-3,-3 -7,-5 -10,-9 -3,-6 -1,-8 -3,-14 -2,-5 -5,-4 -10,-7 -4,-2 -7,-4 -11,-6 -3,3 -1,8 -7,14 -3,5 -7,6 -6,14 0,21 14,11 23,20 4,3 4,9 6,15 4,12 21,22 -17,35z"/>
   <path class="fil0" d="M3659 912c10,0 32,-9 49,12 4,6 3,15 -3,17 -6,4 -21,-2 -34,6 -10,6 -16,14 -26,20 -14,9 -18,6 -35,6 -19,2 -10,16 -22,25 -8,8 -21,8 -32,12 -12,4 -19,10 -30,14 -33,9 -44,-12 -73,-14 -37,-2 -43,6 -64,-22 -21,-29 -41,-16 -50,-40 -4,-14 -1,-27 -11,-35 -4,-3 -10,-4 -14,-8 -5,-2 -9,-6 -13,-10 -17,5 -19,20 -23,27 -6,12 -21,7 -33,14 -1,11 2,19 -5,25 -6,4 -17,2 -19,10 -4,12 6,31 -14,48 -17,14 -27,27 -50,37 -7,2 -14,4 -20,10 -1,4 10,30 10,30 2,3 7,4 12,9 2,5 5,10 7,15 21,9 20,1 27,28 8,28 -22,50 40,65 14,4 28,19 52,33 3,1 6,2 9,3 5,4 4,5 10,4 28,-9 12,-11 45,-5 13,1 26,-14 34,-20 22,-15 23,18 32,21 1,0 3,0 4,1 6,2 13,10 13,18 3,22 -17,16 11,60 9,13 16,11 21,18 12,-6 32,-20 46,-23 28,-4 18,22 33,36 5,-2 14,-9 20,-10 7,-2 10,4 17,12 4,-2 5,-4 10,-6 4,-3 8,-4 12,-5 8,-4 13,-11 22,-15 8,-2 20,-1 28,-3 9,-4 14,-11 20,-16 6,-7 10,-11 17,-18 10,-12 6,-7 12,-25 5,-14 25,-23 28,-45 -6,-4 -10,-5 -8,-16 1,-13 -5,-10 -2,-23 0,-5 9,-15 -11,-33 -5,-4 -9,-9 -10,-17 0,-9 4,-15 8,-17 12,-8 23,-13 27,-25 -27,-1 -25,12 -35,7 -6,-2 -4,-11 -7,-17 -5,-6 -26,-12 0,-24 5,-2 10,-5 14,-9 6,-4 8,-6 13,-11 4,-4 10,-10 15,-7 12,8 -1,26 -4,36 19,-4 17,-21 46,-17 8,-19 20,-16 35,-28 14,-11 13,-9 30,-17 4,-2 9,-2 11,-3 5,-12 -7,-17 5,-30 4,-6 14,-10 21,-17 6,-6 11,-13 16,-21 4,-8 10,-24 -3,-27 -6,-1 -14,10 -26,10 -14,1 -15,-7 -23,-16 -14,-23 -25,-24 -35,-41 -9,-14 -17,-38 -30,-45 -10,-6 -55,-10 -61,0 -4,5 11,31 -17,55 -17,16 -36,5 -39,37z"/>
   <path class="fil0" d="M903 1269c-2,-22 3,-26 16,-35 20,-14 29,-28 48,-20 9,3 13,0 19,4 7,4 10,4 14,-4l12 -16c10,-4 34,2 41,8 3,2 10,12 14,10 6,-3 6,-10 19,-2 4,5 8,10 11,15 8,15 -3,19 20,48 3,2 4,6 8,4 3,-20 -8,-38 -11,-49 -3,-8 -7,-25 -7,-34 1,-10 3,-10 7,-15 10,-15 3,-9 19,-23 12,-10 31,-25 41,-39 13,-19 -2,-22 -2,-49 0,-9 0,-14 5,-17 7,1 8,11 11,17 4,-4 3,-5 6,-9 1,-2 5,-6 7,-8 13,-16 -3,-33 35,-37 20,-3 7,-14 15,-29 1,-5 10,-12 14,-16 14,-15 11,5 28,-9 3,-3 5,-4 7,-7 -14,-2 -14,-6 -12,-22 1,-14 -3,-20 -12,-24 -18,18 -15,7 -14,24 0,11 -11,22 -19,25 -18,9 -29,-9 -51,7 -8,6 -5,3 -8,12 -7,19 -19,15 -27,16 -16,1 -13,12 -22,20 -5,5 -21,13 -28,15 -10,1 -10,-4 -14,-6 -7,-5 -7,-3 -13,-9 0,-19 20,-5 14,-30 -4,-2 -11,-2 -14,-8 -2,-6 8,-35 -17,-11 -17,16 -9,35 -17,43 -5,5 -13,10 -19,7 -4,-9 0,-45 3,-57 4,-23 30,-14 36,-24 -6,-4 -15,-5 -23,-6 -9,0 -20,-5 -24,-4 -9,2 -10,8 -22,8 -37,1 -25,-18 -17,-26 -5,-2 -28,-6 -32,-8 -12,-8 -2,-17 -29,-13l-242 8 -89 -1c1,10 1,19 -5,25 -10,5 -17,-47 -69,-55 2,2 1,1 4,4 1,1 1,1 4,2 16,12 36,30 43,50 8,24 -12,41 -3,99 3,14 3,37 7,48l21 33c5,10 15,29 20,35 17,18 37,7 40,26 0,3 0,6 0,8 2,6 2,6 26,2 25,-4 50,18 57,19 44,6 40,-21 65,-7 17,8 19,50 40,36 6,-2 7,-12 16,-8 5,3 15,26 20,33 4,6 8,10 12,15 5,7 6,11 17,11z"/>
   <path class="fil0" d="M1524 1695c-4,-7 7,-12 7,-19 1,-2 1,-2 0,-2 -7,-4 -11,2 -17,4 -6,3 -16,3 -16,-4 -1,-8 17,-17 20,-27 -3,-6 -6,-9 -8,-17 -3,-7 -3,-13 -6,-20 -12,6 -6,12 -13,22 -14,22 -31,0 -43,13 -8,9 -11,7 -18,-1 -13,1 -34,7 -37,-9 -3,-17 8,-32 -10,-38l-4 3c-3,3 -2,3 -6,4 -4,1 -6,2 -10,4 -14,9 -7,8 -20,3 0,11 9,16 4,27 -7,14 -42,34 -51,6 -30,0 -37,-3 -30,32 2,10 17,42 -17,53 -14,5 -23,12 -28,26 -7,19 -3,25 4,41 11,19 23,5 36,18 4,3 7,13 14,12 4,0 13,-7 15,-11 10,-7 26,-17 33,2 6,16 -1,3 7,21 3,7 5,12 15,12 8,1 14,-1 22,3 6,3 12,8 15,12 9,18 -3,24 17,38 11,8 22,13 24,31 1,18 -6,35 3,47 4,4 10,9 14,14 6,6 6,10 10,17 11,15 20,2 21,32 2,39 -21,42 -37,71 7,11 19,13 27,23 4,3 6,9 12,14 1,1 4,5 5,6 3,4 2,5 5,7 4,-6 2,-7 4,-17 1,-7 8,-26 11,-28 6,-4 9,1 13,3l21 -35c2,-3 -1,-16 -1,-25 1,-7 4,-15 7,-20 9,-16 16,-17 33,-22 13,-3 8,-4 15,-13 5,-5 13,-3 20,-5 34,-3 34,-34 47,-63 6,-15 13,-25 13,-45 0,-19 -6,-37 7,-46 12,-9 6,-3 12,-17 2,-10 27,-26 31,-53 1,-8 -2,-18 -4,-25 -3,-8 -6,-11 -15,-12 -27,0 -34,-30 -52,-26 -16,3 -9,0 -20,-4 -13,-2 -31,17 -37,-5 -3,-12 -4,-9 -13,-15 -4,-4 -9,-9 -17,-8 -7,0 -10,8 -16,12 -5,4 -14,5 -18,-1z"/>
   <path class="fil0" d="M2807 935c12,-4 23,-16 37,-14 16,1 16,25 7,33 -4,4 -14,6 -17,10 -1,2 -6,18 -3,21 0,3 10,12 12,16 4,5 7,11 10,17 4,1 8,0 11,1 7,1 4,3 11,3 25,0 33,12 20,-44 -5,-24 9,-23 26,-21 4,-3 0,-9 6,-14 3,-4 8,-4 14,-3 13,2 16,8 16,25 5,5 5,1 9,11 10,21 35,6 50,19 12,7 9,23 19,29 8,6 25,8 38,7 9,-9 10,-23 22,-28 5,-3 12,-1 19,-1 10,-1 40,-13 62,-7 17,6 11,12 35,9 4,-14 2,-20 4,-34 3,-13 13,-10 23,-15 3,-10 -1,-20 6,-25 7,-5 16,-5 24,-7 13,-5 2,-13 23,-30l4 -4c-10,-8 -23,-14 -33,-21 -18,-16 -18,-10 -42,-13 -17,-4 -22,-14 -29,-27 -31,-53 -37,-18 -72,-30 -27,-8 -23,-18 -36,-20 -11,-4 -84,9 -94,13 -7,4 -13,6 -17,11 -7,7 -7,9 -7,23 1,20 10,39 -16,37 -17,-3 -17,-19 -41,-9 -14,6 -25,18 -40,3 -10,-12 -18,-16 -40,-11 -19,5 -19,13 -32,24 -5,2 -13,8 -16,11 -4,6 -4,18 0,25 4,6 11,7 14,13 3,4 3,4 7,9 3,3 3,3 6,8z"/>
   <path class="fil0" d="M2612 1190c-4,3 -5,9 -11,5 -6,-2 0,-2 -7,-2l-26 3c-10,2 -8,3 -16,6 -11,6 -39,-19 -59,-14 -3,49 3,97 1,146 37,-3 74,0 107,-2 11,0 11,-4 27,-9 -12,-27 -4,-20 -23,-52 -4,-8 -8,-15 -14,-23 -3,-5 -4,-7 -7,-12 -3,-4 -6,-6 -3,-13 7,-5 8,2 13,3 5,3 17,-8 22,11 6,18 33,47 43,62 16,22 9,44 24,60 30,33 22,36 34,51 10,-4 12,-7 25,-3 8,4 15,8 28,5 13,-2 23,-15 44,-23 32,-10 49,0 66,-36 7,-13 3,-15 0,-27 -9,1 -52,13 -39,-17 -10,-10 -5,-12 -11,-23 -9,-2 -14,5 -21,-1 -3,-4 -3,-13 -5,-20 -3,-7 -5,-11 -8,-18 -3,-6 -5,-12 -9,-18 -30,-3 -27,20 -58,-6 -14,-11 -26,-25 -44,-34 -10,-5 -23,-3 -26,7 -3,8 3,11 -3,18 -3,4 -7,8 -11,10 -44,24 -16,-24 -33,-34z"/>
   <path class="fil0" d="M3079 1262c-2,17 14,24 13,37 -2,14 -17,14 -33,20 3,2 10,8 13,16 3,11 -4,17 5,23 23,15 20,-17 35,-15 5,12 1,39 7,58 10,40 5,48 22,77 15,25 20,61 30,72 6,-4 13,-19 19,-25 13,-16 7,-8 11,-32 2,-8 3,-12 3,-21 -1,-8 -3,-12 0,-20 4,-15 11,-19 20,-25 6,-6 48,-47 54,-53 4,-6 4,-10 7,-16 10,-15 17,-9 27,-15 0,-11 -3,-17 -3,-30 0,-9 0,-24 -2,-30 -20,4 -45,-18 -60,-24 -20,-7 -47,-15 -37,-46 -17,-11 -27,-20 -22,-42 3,-11 0,-19 -2,-29 -3,-10 -8,-13 -19,-14 3,36 -28,7 -30,26 -3,14 17,12 2,47 -7,15 -30,43 -40,51 -7,6 -14,7 -20,10z"/>
   <path class="fil0" d="M2153 1135c-3,28 12,34 0,46l-30 23c-37,32 -54,14 -57,49 4,2 31,28 38,34 32,26 81,58 106,80 5,6 14,15 21,18 6,-9 92,-64 98,-70 -13,-16 -26,5 -30,-38 -1,-24 -1,-48 2,-72 -9,-4 -10,-12 -15,-21 -2,-8 -8,-15 -11,-24 -10,-24 20,-26 4,-57 -38,0 -37,1 -68,11 -33,9 -11,0 -44,15 -4,3 -10,4 -14,6z"/>
   <path class="fil0" d="M3307 891c1,1 1,1 1,2 20,19 30,7 34,41 6,33 14,18 39,37 17,14 17,31 44,32 11,1 24,0 35,1 14,3 19,6 29,11 22,11 41,0 58,-8 10,-5 18,-5 28,-9 16,-4 12,-10 18,-22 5,-10 18,-9 29,-9 26,0 32,-19 49,-27 11,-6 27,-1 32,-5 3,-7 -11,-17 -18,-18 -11,-4 -26,7 -31,-2 -5,-10 7,-27 12,-30 -2,-26 -28,-14 -42,-6 -51,24 -60,-3 -101,-8 -27,-2 -32,0 -47,-18 -16,-18 -37,-12 -44,-2 -6,6 0,14 -10,24 -27,23 -30,-20 -73,-6 -13,4 -34,13 -42,22z"/>
   <path class="fil0" d="M2494 1341c0,8 0,22 -1,29 -6,11 -10,0 -12,22 -3,27 -3,33 -14,51 -17,28 -11,30 -3,45 13,21 6,29 33,63 20,22 11,11 28,36 8,9 8,9 20,12 10,3 12,7 17,13 9,10 9,6 20,3 32,-11 23,-10 29,-21 3,-4 4,-4 5,-9 -18,-22 -31,-19 -27,-42 3,-10 18,-31 25,-46l20 -33c2,-6 0,-5 1,-13 3,-34 9,-34 20,-52 -2,-8 -6,-12 -7,-23 -3,-11 -3,-18 -6,-26 -1,-5 -8,-18 -13,-19 -4,-3 -14,6 -20,7 -15,3 -39,1 -57,1 -19,0 -38,1 -58,2z"/>
   <path class="fil0" d="M2329 1741c0,5 3,7 4,12 12,0 36,-1 44,2 12,6 9,13 18,21 15,15 31,-20 51,-3 8,7 8,17 7,31 -2,21 3,18 18,21 10,2 6,7 26,10 7,3 23,5 30,5 1,-7 4,-30 6,-36 2,-10 8,-14 17,-20 -6,-7 -13,-19 -16,-31 -3,-13 -4,-33 4,-41 10,0 10,11 14,18 6,-16 2,-17 -7,-25 -11,-11 2,-16 0,-25 -1,-17 0,-22 9,-32 7,-8 7,-12 13,-24 -10,-12 -16,-16 -27,-20 -19,-4 -17,-16 -26,-24 -11,6 -16,12 -30,14 -14,3 -21,6 -33,10 -11,2 -29,-5 -35,0 -6,6 -9,24 -12,35 -2,13 -7,21 -11,33 -11,34 4,62 -64,69z"/>
   <path class="fil0" d="M654 1178c5,5 9,11 10,20 3,13 3,14 10,21 32,25 15,21 16,40 13,8 26,9 30,28 3,17 3,9 13,17 5,5 7,10 15,13 -4,-16 -25,-44 -37,-56 -8,-11 -8,-21 -14,-32 -4,-7 -20,-17 -15,-33 4,-10 24,-8 28,5 7,19 1,21 14,34 9,8 16,13 24,23 7,9 3,15 17,29 12,11 39,35 43,50 6,15 -7,26 4,39 5,6 17,17 26,19 13,6 21,6 31,16 15,13 13,7 32,13 18,6 17,5 37,4 15,-3 24,6 31,13 7,-6 17,-8 17,-22 3,-36 44,0 43,-37 -2,-20 1,-20 8,-31 -10,-2 -27,-1 -34,5 -11,9 -6,19 -11,32 -9,19 -13,0 -25,5 -8,4 -18,16 -27,8 -4,-2 -5,-6 -10,-9 -17,-16 -5,-17 -15,-28 -4,-5 -6,-6 -10,-12 -14,-21 -2,-48 -2,-77 -15,2 -17,-7 -31,-25 -7,-9 -14,-28 -23,-34 -5,4 -10,13 -22,10 -19,-3 -17,-34 -33,-39 -24,-9 -7,11 -56,8 -24,0 -25,-26 -84,-17z"/>
   <path class="fil0" d="M2799 1213c25,-1 24,11 35,28 3,5 31,24 40,24 9,1 11,-6 24,-3 10,3 12,9 17,16 6,9 34,15 49,14 1,-2 1,-6 2,-9 3,-10 15,-17 13,-28 -3,-14 -18,-17 -18,-37 0,-11 1,-13 -2,-24 -2,-12 -11,-52 0,-61l9 -5c-37,-43 -24,-22 -51,-38 -19,-11 -6,-12 -29,0 -5,3 -10,2 -15,4 -9,3 -5,9 -10,15 -6,6 -27,8 -35,2l-22 -23c-19,-18 -9,-18 -26,-20 -27,-5 -16,-6 -33,-11 -5,16 -8,12 -4,33 2,6 2,6 6,9 14,10 15,17 13,40 -2,19 14,21 21,32 3,6 4,15 7,22 3,7 6,13 9,20z"/>
   <path class="fil0" d="M2332 1174c-21,28 -30,14 -27,76 1,64 6,45 23,55 5,4 4,5 7,8l27 10c24,3 1,-27 87,32 10,6 20,14 29,19 13,-9 10,-12 10,-37 0,-51 -1,-99 -2,-150l-17 -12c-8,-4 -18,-3 -25,-1 -24,6 -4,33 -27,34 -17,2 -49,-27 -59,-30 -8,-2 -19,-3 -26,-4z"/>
   <path class="fil0" d="M2584 2073c-13,-1 -26,4 -23,-16 3,-12 10,-13 10,-31 -1,-13 -4,-23 -16,-24 -14,-1 -20,4 -28,9 -17,10 -19,31 -39,39 -11,5 -15,-1 -28,9 -16,13 -19,3 -26,0 -2,20 -2,27 -12,39 -15,18 -26,-2 -37,6 2,4 7,12 10,17 2,6 5,12 8,18 9,21 -13,71 44,43 26,-13 22,17 73,-19 23,-16 28,-39 45,-59 5,-5 17,-20 19,-31z"/>
   <path class="fil0" d="M2416 465c-14,21 -10,3 -24,25l-24 50c-3,8 -3,15 -6,21 -6,19 -19,12 -22,27 -4,20 3,53 -2,75 -7,23 -16,25 0,57 2,6 5,10 7,18 3,9 3,15 8,18 7,-2 6,-8 13,-13 6,-5 11,-4 17,-6 2,-19 -4,-31 7,-45 6,-9 19,-17 19,-32 -14,-9 -19,-14 -16,-44 3,-31 41,-36 53,-65 11,-30 15,-24 32,-25 2,-17 -1,-32 -7,-47 -7,-18 0,-21 -12,-24 -25,-2 -15,10 -43,10z"/>
   <path class="fil0" d="M2017 1447c3,8 6,14 10,20 5,9 5,14 16,15 23,0 17,2 30,31 41,-8 28,-4 43,-29 10,-20 28,-29 48,-33 9,-3 3,-2 7,-5 9,-7 41,1 51,-21 6,-10 9,-31 0,-38 -30,-29 -81,-62 -113,-90 -5,-2 -3,-4 -8,-2 -7,1 -10,6 -8,13 0,14 3,33 6,45 5,20 2,28 2,47 2,16 13,34 -1,37 -16,3 -27,-3 -43,3 -15,6 -21,7 -40,7z"/>
   <path class="fil0" d="M2353 1519l15 14c4,6 7,11 11,18 28,1 80,-50 82,-58 -17,-20 -10,-33 2,-52 13,-23 11,-29 14,-61l-60 -39c-45,-27 -40,-25 -40,24 0,16 0,34 -4,48 -4,15 -13,20 -17,33 -4,12 4,26 9,37 5,16 -10,22 -12,36z"/>
   <path class="fil0" d="M1256 1934l0 -1c13,-18 15,4 13,-28 -1,-17 2,-60 0,-70 0,-4 -6,-8 -8,-12 -15,-17 -13,-4 -30,-13 -7,-2 -15,-18 -17,-27 -6,-12 0,-27 4,-36 13,-24 31,-23 38,-28 6,-3 6,-7 9,-12 -12,-3 -31,3 -41,-3 -6,-4 -16,-21 -20,-28 -10,2 -12,13 -17,20 -8,8 -13,10 -22,16 -13,10 -11,14 -18,19 -3,3 -24,7 -29,7 0,21 6,17 16,27 6,6 11,17 14,27 12,40 16,29 27,58 4,7 7,26 12,31 5,6 18,10 27,13 15,6 37,25 41,41l1 -1z"/>
   <path class="fil0" d="M2232 1389c6,59 -28,57 -49,60l-8 2c0,2 0,1 3,2 2,1 2,2 3,4 7,6 9,18 20,20 20,4 27,-11 41,-12 17,-1 13,8 43,8 17,0 34,-1 51,-1 7,-8 10,-15 14,-29 5,-12 12,-16 16,-27 6,-13 7,-70 6,-88 -19,6 -27,-12 -41,-6l-99 67z"/>
   <path class="fil0" d="M1078 1505c-8,0 -9,-2 -15,2 -3,4 -6,6 -3,13 9,4 10,-1 18,7 5,6 5,10 13,13 24,8 24,16 34,17 5,-5 5,-12 8,-15 4,-4 12,-4 17,-2 5,3 5,10 8,16 3,6 4,6 6,16 7,62 -9,52 -17,69 1,1 0,0 3,3 0,0 0,1 1,1 0,0 1,1 3,2 7,5 13,10 23,11 14,4 20,2 30,13 7,7 14,24 19,28 9,3 30,0 40,0 -3,-12 -10,-31 -8,-46 1,-20 20,-13 35,-17 -1,-7 -7,-20 -7,-27 -1,-11 4,-25 2,-31 -6,-3 -12,0 -17,-2 -8,-1 -9,-4 -13,-7 -10,-6 -23,9 -29,-5 -3,-3 -3,-10 -4,-15 -1,-6 -4,-10 -6,-14 -3,-9 -7,-23 -8,-32 -26,8 -24,23 -30,33 -19,28 -20,0 -30,-5 -6,-2 -18,-4 -24,0 -7,7 -7,11 -20,5 -17,-10 -20,-13 -27,-30l-2 -1z"/>
   <path class="fil0" d="M2773 1555c-24,-13 -34,-9 -53,-32 -7,-11 -8,-18 -5,-35 3,-11 -12,-17 -19,-23 -14,-14 -3,-7 -28,-6 -6,1 -12,2 -17,4 -10,2 -10,-2 -15,7 -5,9 -11,18 -17,29 -10,21 -31,46 -22,59 2,4 8,6 11,9 6,5 7,8 11,12 9,7 16,12 25,18 5,5 18,18 24,20 8,3 17,-11 27,-14 14,-5 17,5 34,-5 11,-7 43,-24 44,-43z"/>
   <path class="fil0" d="M2329 1923c17,0 36,-1 53,-2 20,0 34,10 48,9l21 -1 -4 -54c-3,-23 20,-25 26,-28 4,-2 8,-6 11,-7 -7,-6 -10,-8 -21,-9 -27,-3 -10,-31 -16,-47 -8,-20 -30,2 -43,2 -22,2 -15,-24 -36,-26 -9,-1 -22,0 -32,0 4,13 7,13 13,38 11,55 3,52 -10,82 -7,13 -10,25 -10,43z"/>
   <path class="fil0" d="M2481 833c9,25 -10,29 -18,48 4,10 4,11 4,23 54,5 41,-13 61,-10 17,4 27,27 33,42 6,-2 7,-8 16,-8 7,-1 11,3 17,6 5,3 13,3 13,11 0,7 -6,9 -5,19 9,1 16,-4 22,-6 0,-12 -9,-22 7,-27 4,-1 10,-1 14,-2 6,-2 8,-4 13,-6 3,-29 25,-4 23,-36 -2,-22 -22,-16 -36,-24 -48,-28 -31,-31 -43,-44 -4,-5 -13,-10 -20,-11 -3,3 -4,7 -7,11 -11,18 -15,22 -35,21 -27,-1 -42,-18 -59,-7z"/>
   <path class="fil0" d="M1275 1834c0,30 -2,64 0,94 3,25 8,23 11,36 4,18 -3,7 10,36 13,-1 17,-17 31,-9 23,12 16,2 33,-3 -1,-21 4,-27 17,-35 20,-12 22,2 40,-2 4,-39 -13,-32 -28,-48 -10,-10 -6,-15 -10,-29 -3,-10 -12,-17 -20,-17 -22,-2 -29,5 -42,-36 -2,-14 -12,-8 -21,-2l-21 15z"/>
   <path class="fil0" d="M2474 471c3,9 7,12 9,25 0,12 1,22 1,34 6,3 17,9 14,19 -5,19 -25,25 -34,36 -4,6 -13,14 -14,24 0,6 1,30 1,36 2,9 13,14 20,15 7,2 19,-4 26,-6 10,-1 24,0 34,0 3,-7 9,-18 14,-22 23,-28 33,-21 19,-42 -14,-22 -6,-48 -10,-66 -4,-14 -7,-17 -6,-33 3,-20 -3,-12 -7,-25 -6,-11 2,-23 3,-32 -7,1 -14,2 -23,3 -25,3 0,17 -27,27 -6,1 -16,4 -20,7z"/>
   <path class="fil0" d="M1958 1363c1,2 11,24 11,26 4,15 -4,23 -7,33 14,-1 24,-4 34,6 9,9 12,14 31,13 26,-2 18,-5 35,-8 12,-4 28,2 39,-4 0,-5 -2,-10 -4,-16 -4,-20 3,-34 -3,-57 -4,-12 -5,-22 -7,-35 -1,-17 -3,-26 10,-32 -3,-5 -27,-24 -31,-28 -3,20 -10,12 -33,17 -21,5 -7,19 -17,38 -6,10 -16,31 -18,35 -8,7 -27,7 -40,12z"/>
   <path class="fil0" d="M2739 1094c-4,-22 -7,-19 3,-39 -5,-9 -9,-11 -15,-23 -11,0 -17,-2 -25,-6 -9,14 -40,11 -57,7 -20,-5 -27,-25 -53,-13 -8,4 -15,10 -24,13 -4,1 -10,1 -14,3 -6,2 -7,3 -13,6 -24,12 -37,-16 -20,37 6,18 23,35 41,29 20,-6 19,2 27,4 10,3 16,-8 27,-9 18,-3 12,7 29,5 10,-2 21,-2 31,-5 10,-4 14,-7 27,-9 10,-1 26,-1 36,0z"/>
   <path class="fil0" d="M2473 422c-7,-4 -4,-5 -9,-7 -8,6 -14,19 -30,15 -10,-2 -8,-2 -18,3 -4,2 -12,3 -16,6 0,7 2,6 2,14 -12,6 -27,-6 -32,8 9,1 10,0 16,6 3,9 -11,10 -26,36 -7,16 -17,24 -24,39 -4,6 -7,15 -11,20 -4,6 -12,7 -17,13 -23,28 -67,31 -64,59l10 40c1,3 1,8 3,13 2,11 7,12 17,14 10,3 12,-3 18,-9 20,-22 20,-23 33,-5 1,-15 7,-22 8,-36 3,-25 -7,-67 10,-78 25,-16 5,-9 27,-52 6,-9 16,-41 30,-49 17,-10 4,-14 23,-13 7,1 24,-17 43,-7 7,2 4,7 8,12 6,-3 20,-6 24,-9 9,-6 0,-18 13,-22 17,-8 50,1 51,-18 0,-6 -2,-5 -8,-6 -7,-2 -9,-3 -14,-4 -13,-5 -19,12 -34,14 -9,3 -8,-1 -10,-4 -9,-10 -13,6 -23,7z"/>
   <path class="fil0" d="M3107 1109c-10,13 -1,30 -17,49l-31 36c-6,5 -11,8 -19,13 -22,17 -2,37 -64,30 3,9 13,16 6,30 -4,8 -13,14 -13,26 23,3 49,-8 66,8 4,3 10,13 15,14 6,1 8,-6 20,-8 7,0 12,0 15,-5 5,-13 -27,-39 -5,-48 13,-6 12,-4 20,-13 71,-76 17,-70 34,-96 6,-10 16,-1 26,-5 4,-16 -4,-32 -13,-37 -6,-1 -27,9 -40,6z"/>
   <path class="fil0" d="M2124 899l-8 1c-2,12 21,10 28,21 6,7 2,8 9,10 12,5 12,9 10,24 -3,11 -3,26 -6,34 7,3 17,11 26,12 11,3 21,1 32,6 17,-43 29,-5 51,-20 -1,-6 -2,-17 -4,-26 0,-13 -4,-13 -5,-22 -5,-18 14,-26 17,-41 0,-10 -5,-17 -10,-18 -7,-3 -12,5 -23,-4 -10,-7 -20,-21 -31,-25 -16,13 8,10 -37,31 -6,3 -8,1 -13,3 -6,1 -3,4 -7,9 -6,6 -19,5 -29,5z"/>
   <path class="fil0" d="M2227 1478c0,17 1,36 -6,48 -4,6 -6,6 -6,18 0,7 2,19 -1,25 30,3 17,3 25,18 8,12 20,11 32,9 10,-3 8,-3 17,2 15,-54 24,-32 40,-42 5,-2 8,-12 11,-17 3,-4 10,-13 10,-15 0,-15 -1,-12 6,-22 4,-7 7,-11 3,-20 -5,-9 -5,-12 -8,-21 -2,5 -5,9 -8,12 -4,6 -6,6 -14,6 -12,-1 -27,0 -37,0 -15,2 -23,0 -34,-4 -15,-8 -19,-2 -30,3z"/>
   <path class="fil0" d="M2966 1225c13,9 45,12 55,-1 8,-10 4,-12 15,-20 24,-21 16,-9 37,-36 33,-39 16,-20 24,-51 5,-15 7,-7 -2,-25 -8,-16 -18,11 -49,11 -11,0 -20,-5 -30,1 -14,7 -21,23 -42,30 -15,5 -15,4 -15,23 0,12 2,21 5,32 5,15 1,21 2,36z"/>
   <path class="fil0" d="M1238 1537c-14,-22 -2,-36 0,-48 -6,0 -19,7 -23,11 4,9 6,23 9,32 2,6 4,8 7,14 3,12 0,17 8,17 3,1 6,-1 9,-1 5,-1 8,-1 13,1 15,10 5,5 22,6 13,1 13,11 10,23 -3,13 -1,17 2,29 4,15 5,42 32,26 27,-14 9,-25 10,-36 0,-3 0,-3 2,-5 10,-7 7,8 18,-1 7,-6 10,-5 19,-9 0,-11 -2,-15 3,-24 4,-9 5,-12 5,-22 -11,-10 -4,-10 -10,-20 -5,-4 -7,-1 -14,-6 -3,-3 -6,-6 -10,-10 -11,0 -14,9 -33,6 -5,-1 -9,-5 -15,-2 -7,1 -4,5 -14,3 -9,-12 1,-18 -25,-22 -2,2 -5,6 -8,9 -3,5 -3,6 -2,12 3,13 -4,18 -15,17z"/>
   <path class="fil0" d="M1258 2184c0,-18 -7,-33 -5,-54 2,-8 5,-12 6,-21 6,-38 10,-23 16,-41 1,-7 1,-17 3,-24 4,-21 10,-25 17,-37 -9,-10 -12,-19 -13,-37 -2,-9 -4,-12 -7,-19 -3,-6 -4,-12 -4,-21 -12,4 -12,11 -12,24 0,63 -4,37 -7,63 -3,12 0,30 0,42 0,41 -10,16 -11,74 -2,56 -6,29 -12,65 -3,13 -4,19 -13,25 -9,8 -2,14 -2,29 2,54 -5,54 -5,72 5,-3 6,-6 13,-5 4,11 -8,66 -13,72 -8,1 -4,-2 -10,-2 -7,12 -1,9 3,18 0,8 -7,12 -10,22 -3,7 -4,18 -1,26 4,3 6,0 11,5 6,9 -13,16 12,28 2,-48 4,-23 10,-51 1,-10 2,-13 5,-21 3,-7 6,-16 6,-24l-1 -83c0,-59 24,-103 24,-125z"/>
   <path class="fil0" d="M2332 1930c0,7 13,29 16,37 14,39 4,77 32,131 19,-10 26,13 40,-8 13,-19 7,-35 4,-49 -7,-24 -8,-33 5,-48 7,-11 4,-41 7,-57 -23,0 -32,-8 -50,-8 -9,0 -48,0 -54,2z"/>
   <path class="fil0" d="M2547 1698c28,21 4,33 10,50 0,4 3,8 4,12 10,26 -4,16 20,35 16,12 10,7 16,6 10,-3 22,11 24,32 32,-5 47,10 57,-14 -7,-16 -7,-19 -10,-40 -3,-29 -9,-15 0,-42 -7,-7 -9,-5 -15,-14 -4,-10 -4,-11 -14,-16 -7,-5 -34,-13 -37,-18 -3,11 -3,18 -13,21 -12,3 -17,3 -24,-4l3 -19c-6,0 -10,1 -14,1 -7,1 -7,1 -7,10z"/>
   <path class="fil0" d="M2272 799c4,41 -10,39 -10,63 0,11 4,11 10,17 10,9 9,24 0,36 -10,14 -15,13 -6,33 20,-18 28,-9 43,-23 7,-6 12,-9 19,-15 5,-6 11,-9 18,-16 -1,-11 -11,-17 -7,-27 4,-18 30,-12 19,-45 -6,-13 -9,-15 -2,-29 -8,-3 -14,-8 -25,-2 -10,5 -16,7 -22,-4 -17,-28 -4,-27 0,-55 2,-15 -13,-2 -17,1 -26,17 2,22 0,51 -1,17 -6,15 -20,15z"/>
   <path class="fil0" d="M2533 1841c31,4 19,30 15,36 -15,2 -17,-19 -21,-31 -6,-1 -30,-5 -36,-2 -5,1 -8,6 -27,13 -20,7 -8,35 -7,70 44,2 23,3 47,10 3,-4 13,-10 23,-20 7,-8 13,-16 28,-17 6,-15 9,-17 17,-26 10,-11 0,-6 15,-30 7,-11 12,-17 4,-34 0,-1 0,-1 -2,-2 -1,-1 -2,-1 -4,-2l-18 -15c-6,0 -3,3 -7,3 -5,0 -5,-3 -8,-4 -7,6 -12,7 -15,19 -2,5 -4,28 -4,32z"/>
   <path class="fil0" d="M2084 1102c9,0 13,6 22,4 5,-1 4,-3 21,-6 16,-2 13,-6 20,-8 13,-4 10,0 17,-11 7,-8 6,-11 9,-21 1,-9 5,-14 10,-20 12,-24 25,-14 29,-28 -12,-3 -28,-3 -39,-8 -30,-14 -8,-10 -39,-10 -15,0 -40,0 -54,-5 -8,-2 -16,-7 -20,3 0,3 -1,12 -1,15 0,3 -5,6 10,6 8,0 38,-6 18,30 -10,17 -4,38 -3,59z"/>
   <path class="fil0" d="M2621 1840c0,5 0,7 0,12 -2,13 7,15 8,31 2,10 -1,16 -4,22 -13,24 -16,17 -21,-1 -5,-9 -6,-10 -7,-21 -8,-2 -13,-3 -18,-7 -7,7 -14,12 -18,25 23,6 36,12 30,46 -4,31 -6,37 -20,56 16,39 -7,46 -4,64l18 0c-6,-18 -11,-18 9,-26 11,-5 18,-11 20,-27 1,-53 -26,-38 7,-69 8,-9 13,-15 24,-22 8,-5 18,-11 26,-18 8,-8 12,-17 14,-32 0,-14 -2,-35 -4,-45 -9,7 -8,12 -25,11 -12,0 -22,-1 -35,1z"/>
   <path class="fil0" d="M3349 1351c4,10 6,8 12,16 35,42 11,38 18,62 20,7 16,-12 31,-10 6,14 -4,14 10,39 7,-15 -7,-45 2,-71 5,-22 28,-25 38,-37 -20,-10 -24,-23 -34,-42 -7,-15 -3,-19 0,-33 3,-13 -7,-25 -14,-17 -4,3 -6,5 -10,9 -21,14 -14,19 -20,38 -6,21 -27,32 -33,46z"/>
   <path class="fil0" d="M2703 1100c3,29 2,44 -18,53 -10,5 -36,17 -41,25 9,20 18,-2 37,3 37,8 52,59 83,45 9,-3 13,-3 23,-3 2,-4 4,-5 6,-9 -3,-6 -6,-12 -9,-19 -1,-6 -2,-13 -5,-19 -7,-11 -22,-14 -23,-30 -2,-12 8,-30 -9,-41 -11,-7 -30,-5 -44,-5z"/>
   <path class="fil0" d="M2441 1936c-1,12 -1,47 -5,55 -3,6 -6,8 -9,12 -5,11 0,29 5,41 1,7 0,5 2,7 3,3 10,8 13,8 7,0 13,-11 26,-12 34,-4 25,-18 42,-35 6,-6 16,-11 25,-16 -5,-8 -10,-19 -16,-25 -6,-6 -20,-12 -23,-19 -4,-10 3,-7 -8,-12 -22,-12 -33,-5 -52,-4z"/>
   <path class="fil0" d="M2877 1028c1,17 -2,12 -17,21 1,15 11,5 8,39 30,-3 29,-22 46,-8 16,13 21,6 41,24 3,4 6,6 10,11 3,5 6,7 10,12 21,-7 26,-29 51,-33 -3,-19 -35,-22 -48,-43 -6,-8 -6,-15 -14,-18 -13,-5 -12,-1 -19,-13 -10,-17 -37,5 -43,8 -12,5 -15,-1 -25,0z"/>
   <path class="fil0" d="M2459 876c4,-5 21,-26 19,-35 -2,-7 -8,-9 -7,-20 0,-11 5,-12 5,-25 -17,-15 -26,-16 -47,-16 -6,0 -9,6 -16,3 -7,-4 -6,-12 -30,3 -6,3 -8,5 -14,7 -17,6 -11,12 -6,27 6,18 -1,23 30,37 20,8 2,8 30,12 13,2 23,4 36,7z"/>
   <path class="fil0" d="M2490 911c-39,0 -29,-4 -37,12 -3,4 -4,7 -7,12 -7,11 3,19 8,25 19,24 7,41 12,79 37,-23 31,-9 47,-12 5,0 12,-1 18,-2 -7,-21 -11,-10 3,-46 1,-7 4,-9 3,-14 -6,-14 -4,-19 -6,-35 -3,-13 -10,-19 -14,-26 -11,5 -13,7 -27,7z"/>
   <path class="fil0" d="M3499 1647c-3,-11 -8,-12 -9,-27 -1,-12 -3,-18 -7,-28 -16,-24 -24,-13 -31,-37 -7,-22 -16,-29 -10,-56 8,-40 14,-17 34,-11 -3,-30 0,-27 37,-36 -13,-51 -16,-41 -36,-36 -25,6 -15,-34 -28,-49 -10,6 -20,10 -23,25 -7,29 6,27 0,66 0,8 10,35 6,68 -2,7 -7,12 -3,19 1,3 8,10 11,13 7,9 10,23 13,35 6,19 7,21 19,31 7,6 18,20 27,23z"/>
   <path class="fil0" d="M2404 1609c9,-5 3,-15 23,-13 14,2 17,3 32,-2 21,-8 32,-3 51,-19 -4,-8 -20,-24 -29,-32 -10,-11 -15,-22 -18,-41 -7,4 -12,11 -17,16 -19,17 -34,33 -60,39 -23,5 -23,17 -21,46 1,6 0,8 5,11 17,10 16,-5 34,-5z"/>
   <path class="fil0" d="M2799 1069c2,10 18,21 24,28 4,3 7,9 14,11 36,7 27,-36 23,-45 -14,-23 0,-18 11,-26 0,-11 -6,-12 -14,-12 -13,0 -9,-10 -26,-30 -5,-7 -10,-8 -5,-20 1,-9 1,-16 7,-20 8,-4 13,-1 17,-10 4,-8 1,-18 -7,-18 -9,0 -49,22 -54,26 -12,10 -5,32 1,43 13,18 31,24 20,58 -3,10 -3,12 -11,15z"/>
   <path class="fil0" d="M2905 1019c7,-4 29,-18 42,-7 5,6 2,10 14,13 24,6 5,19 44,41 17,9 21,10 28,30 7,0 13,1 22,0 0,-8 0,-10 -2,-16 -4,-26 3,-17 7,-42 -11,-2 -24,-4 -31,-10 -8,-8 -7,-21 -16,-28 -12,-10 -37,0 -48,-15 -4,-6 -3,-10 -10,-12 -4,9 -3,19 -17,11 -7,-5 -13,-11 -14,-21 -43,-3 -17,6 -19,56z"/>
   <path class="fil0" d="M2604 1683c10,7 27,11 38,18 16,9 16,23 29,30 10,-39 22,-35 22,-48 -1,-12 -4,-21 -4,-35 1,-15 3,-19 0,-33 -11,3 -14,19 -36,0 -9,-10 -18,-18 -31,-25 -21,21 6,37 -15,82 -3,5 -2,6 -3,11z"/>
   <path class="fil0" d="M2693 1610c5,16 3,19 2,35 -2,13 1,25 3,38l20 -19c25,-28 49,-43 71,-78 4,-8 8,-16 12,-24 10,-16 19,-35 20,-60 -5,3 -7,4 -14,5 -23,5 -16,10 -41,13 -12,1 -23,1 -31,-5 -9,-7 -9,-16 -16,-24 -1,12 0,21 6,28 15,18 20,18 39,25 9,2 19,7 15,18 -9,19 -39,40 -56,46 -10,3 -18,-2 -30,2z"/>
   <path class="fil0" d="M2025 1241c4,12 21,8 35,9 2,-18 7,-25 23,-30 13,-6 23,-9 33,-19 5,-3 10,-7 14,-12 6,-3 10,-7 16,-11 14,-10 -3,-19 1,-42 -9,0 -16,2 -24,0 -9,-1 -17,-7 -23,-4 -10,6 -3,16 -30,32 -6,4 -11,8 -14,14 -13,23 1,42 -31,63z"/>
   <path class="fil0" d="M977 923c27,12 35,-10 50,-4 23,9 44,-1 44,21 -15,12 -28,5 -35,19 -4,10 -4,39 -4,51 12,-3 11,-7 12,-21 3,-22 25,-38 33,-38 13,-2 9,14 9,25 10,1 15,5 15,18 -1,14 -10,10 -15,19 4,3 7,2 11,7 4,4 6,5 13,1 38,-13 21,-31 45,-32 2,-1 26,2 23,-16 -10,-1 -26,2 -31,6 -9,8 -9,17 -22,21 -15,3 -20,-5 -17,-22 3,-21 12,-8 25,-17 0,-20 -22,-15 -45,-24 -24,-9 -5,-13 -31,-38 -4,-4 -13,-14 -18,-16 -13,-3 -15,6 -22,12 -15,15 -28,3 -40,28z"/>
   <path class="fil0" d="M1416 1958c-13,1 -20,-6 -30,-3 -6,2 -16,11 -19,16 -3,7 -1,24 0,32 3,14 9,11 19,16 52,23 28,34 31,47 3,15 19,13 37,13 9,-11 11,-17 11,-36 -1,-23 -10,-12 -18,-26 -3,-4 -6,-10 -9,-15 -10,-13 -24,-13 -22,-44z"/>
   <path class="fil0" d="M2272 982c9,-9 22,-17 34,-4 9,10 7,19 22,32 8,8 21,14 31,21 14,11 14,27 23,32 3,-27 10,-14 14,-26 -47,-22 -41,-33 -48,-46 -6,-8 -13,-13 -13,-28 -2,-23 15,-20 28,-3 6,7 10,16 17,22 0,-13 -1,-18 7,-24 9,-5 15,-4 20,-11 -10,-6 -21,-8 -25,-19 -14,7 -13,6 -30,3 -13,-2 -20,-4 -31,-8 -16,20 -45,17 -52,34 -3,4 0,20 3,25z"/>
   <path class="fil0" d="M2477 826c9,1 16,-5 27,-3 7,3 13,8 23,9 6,1 20,3 25,1 9,-2 12,-8 18,-16 17,-24 7,-21 -2,-44 -8,-22 4,-20 -35,-29 -6,10 -8,12 -15,19 -15,16 -3,4 -18,16 -4,5 -16,13 -17,18 -2,4 -7,25 -6,29z"/>
   <path class="fil0" d="M2720 1416c3,8 6,12 6,24 0,9 -1,20 3,27 6,10 10,6 18,3 16,-4 16,2 46,-13 6,-4 11,-9 18,-12 20,-10 13,1 37,-22 -1,-14 -4,-22 -7,-34 -54,8 -55,40 -91,28 -15,-5 -14,-10 -30,-1z"/>
   <path class="fil0" d="M3490 1338c1,24 17,15 21,29 6,16 -10,27 -12,39 11,9 8,12 14,27 6,16 3,18 20,21 10,3 18,11 17,24 -2,9 -13,17 -19,23 2,6 2,5 5,10 1,1 1,1 1,2l3 4c6,-4 11,-8 17,-12 7,-6 8,-9 8,-22 2,-22 5,-37 -11,-47 -7,-5 -8,-9 -14,-15 -10,-11 -24,-17 -16,-41 3,-9 7,-12 13,-18 -3,-5 -6,-9 -7,-15 -2,-6 -3,-13 -7,-16 -12,-8 -24,4 -33,7z"/>
   <path class="fil0" d="M2545 1995c10,1 13,1 22,5 5,-11 10,-11 14,-28 1,-9 4,-24 6,-35 1,-31 -32,-33 -44,-26 -8,4 -15,13 -20,19 -8,5 -23,12 -15,22 10,11 22,7 37,43z"/>
   <path class="fil0" d="M2292 1602l6 6c7,7 10,9 8,24l71 -8c-5,-4 -12,-3 -15,-9 -3,-6 -3,-17 -3,-24 -3,-22 3,-28 14,-37 -3,-9 -13,-21 -20,-24 -11,12 -11,31 -31,34 -19,3 -17,4 -30,38z"/>
   <path class="fil0" d="M2847 1388c1,6 3,10 4,16 2,5 2,11 3,15 3,2 10,-1 14,-2 7,-4 7,-6 12,-11 7,-8 20,-6 24,-17 6,-13 1,-14 17,-27 27,-24 21,-23 10,-35 -6,-5 -6,-8 -11,-11 -6,-3 -12,-3 -16,-7 -6,-6 -4,-12 -9,-17 -4,3 -5,6 -7,13 0,8 -3,14 -3,16 -1,10 9,17 2,32 -9,20 -19,30 -40,35z"/>
   <path class="fil0" d="M3083 1031c9,2 13,1 19,6 8,6 7,19 27,23 5,1 5,0 8,-3 16,-11 17,1 54,-33 5,-4 10,-8 15,-12 -25,1 -25,-20 -69,-10 -5,1 -10,4 -15,5 -8,2 -13,0 -20,1 -6,0 -10,4 -13,8 -3,6 -6,12 -6,15z"/>
   <path class="fil0" d="M1955 1356c38,-5 40,-6 47,-25 3,-8 4,-10 8,-16 9,-17 -1,-30 10,-38 12,-9 30,-4 39,-10 3,-14 -2,-9 -20,-11 -10,-1 -13,-4 -20,-10 -14,7 -44,58 -56,75 -10,13 -12,16 -8,35z"/>
   <path class="fil0" d="M2099 1594c11,-4 18,-7 32,-3 0,-12 -3,-22 0,-33 5,-9 12,-12 7,-25 -4,-10 -4,-2 -24,-6 -20,-3 -5,-15 -32,-9 -12,2 -8,11 -12,25 -1,6 -4,6 -3,12 13,39 10,24 23,31 4,2 6,6 9,8z"/>
   <path class="fil0" d="M2353 1634c2,26 16,44 7,59 -5,11 -14,5 -22,11 -5,2 -13,16 -16,20l4 11c9,0 30,-6 37,-9 14,-6 16,-13 19,-32 5,-32 17,-40 21,-78 -24,1 -8,18 -50,18z"/>
   <path class="fil0" d="M2319 1718c4,-6 10,-17 14,-19 7,-6 17,-1 23,-10 6,-11 -8,-30 -8,-55 -13,0 -23,1 -36,4 -9,1 -7,1 -10,9 -1,6 -3,11 -4,18 -6,29 -7,22 13,42 2,4 4,7 8,11z"/>
   <path class="fil0" d="M3777 1058c9,15 -2,17 -2,30 15,5 24,-1 24,24 0,11 -3,21 -2,33 6,0 10,-5 15,-7 7,-5 10,-4 17,-6 4,-10 1,-33 -6,-40 -7,-8 -19,-14 -19,-34 9,-4 19,-9 23,-16 5,-6 13,-20 16,-26 -14,4 -23,12 -34,20 -6,3 -13,4 -19,8 -7,5 -7,8 -13,14z"/>
   <path class="fil0" d="M1982 1511l13 15c14,0 28,-8 40,1 4,5 19,21 27,21 4,-5 4,-10 5,-18 2,-11 5,-10 -1,-18 -9,-16 -2,-24 -23,-24 -10,0 -10,-4 -17,-4 -4,0 -20,-1 -23,0 -5,1 -8,6 -11,13 -3,10 -4,8 -10,14z"/>
   <path class="fil0" d="M3059 1094c16,-3 31,-24 41,-6 4,9 4,16 16,15 8,0 18,-3 24,-6 0,-5 -8,-25 -10,-30 -6,-3 -11,-4 -16,-7 -19,-11 3,-23 -48,-22 0,12 -4,17 -7,25 -3,5 1,22 0,31z"/>
   <path class="fil0" d="M2104 1513c3,4 5,7 12,8 4,2 14,2 17,-1l3 -5c5,-10 5,-18 32,-13 23,4 26,-8 37,-17l-4 -2c-1,0 -1,0 -3,-1 -4,-1 -6,-3 -8,-4 -12,-11 -9,-32 -43,-15 -11,6 -19,12 -24,20 -10,14 -4,16 -19,30z"/>
   <path class="fil0" d="M1118 1732c7,-1 24,-4 27,-8 7,-7 7,-11 17,-18 33,-22 16,-16 32,-31l4 -4c-6,-2 -10,-3 -16,-5 -28,-6 -25,-13 -40,-19 -5,11 -9,21 -15,31 -13,18 6,20 6,34 -6,8 -15,4 -15,20z"/>
   <path class="fil0" d="M3517 1542l17 -22c-4,-8 -11,-14 -6,-24 3,-6 15,-11 16,-19 2,-12 -8,-16 -17,-17 -4,-1 -8,-3 -11,-2 -5,1 -9,3 -13,5 -24,6 -23,0 -21,26 0,7 1,8 4,13 11,17 25,7 28,31 0,2 2,3 2,4l1 5z"/>
   <path class="fil0" d="M2386 987c3,3 14,9 26,20 14,13 8,18 14,33 15,35 30,26 31,39 2,7 -3,13 -3,20 6,0 9,-3 12,-8 4,-6 7,-5 11,-11 -1,-2 -16,-18 -17,-28 -1,-6 0,-6 1,-12 -25,-3 -21,-14 -32,-33 -6,-7 -10,-11 -12,-23 -1,-13 -1,-19 -5,-31 -5,1 -5,4 -9,5 -17,8 -18,2 -17,29z"/>
   <path class="fil0" d="M1282 905c4,6 10,10 11,17 3,9 -3,18 0,27 5,2 17,5 20,4 9,-2 10,-11 17,-8 9,1 10,9 6,15 -6,6 -11,5 -13,17 9,-5 16,-14 34,-17 9,-1 15,0 19,-6l11 -17c-11,3 -21,27 -40,11 -18,-15 -14,-18 -15,-31 -2,-7 -3,-6 -7,-8 -2,-16 14,-30 -15,-21 -12,5 -22,7 -28,17z"/>
   <path class="fil0" d="M2137 1593c14,5 10,9 21,-2 6,-6 15,-7 20,-15 0,-24 -4,-44 0,-67 -20,0 -32,-9 -37,10 -3,8 0,5 3,12 4,14 -3,19 -6,27 -4,10 -2,24 -1,35z"/>
   <path class="fil0" d="M2636 1115c2,23 -5,29 -11,43 13,6 9,7 16,14 52,-38 59,-16 57,-70 -10,2 -16,7 -27,9 -12,1 -23,3 -35,4z"/>
   <path class="fil0" d="M1430 2374c-9,15 -17,24 -11,55 0,7 0,8 5,11 13,5 26,9 37,2 6,-2 14,-13 16,-18 1,-8 -10,-14 -13,-19 -7,-10 -7,-11 -17,-18 -7,-4 -13,-10 -17,-13z"/>
   <path class="fil0" d="M3331 1275c3,15 14,10 22,17 3,3 6,11 12,19l6 6c1,-6 5,-8 7,-16 1,-8 1,-15 4,-22 4,-12 17,-17 26,-25 -2,-8 -8,-22 -15,-23 -10,-1 -18,13 -31,21 -9,4 -6,0 -11,7 -13,14 -13,10 -20,16z"/>
   <path class="fil0" d="M2799 1849c-8,3 -6,3 -9,10 -3,6 -6,6 -10,11 -7,13 2,16 -17,22 -17,5 -41,-5 -37,41 1,14 11,20 9,28 -2,8 -12,17 -15,27 -5,13 -1,19 3,31 4,12 20,52 36,35 4,-5 11,-18 14,-25 9,-20 13,-40 20,-60 11,-30 1,-30 13,-50 4,-7 1,-7 4,-16 1,-14 10,-10 3,-32 -3,-8 -4,-27 -14,-22z"/>
   <path class="fil0" d="M1431 1635c0,-11 -8,-17 -8,-29 -2,-8 4,-19 5,-28 -5,-6 -11,-8 -18,-15 -7,-7 -7,-14 -20,-13 -3,28 -10,25 -8,40 18,8 19,9 17,34 -2,11 0,16 10,16 7,-1 17,-1 22,-5z"/>
   <path class="fil0" d="M3856 1153c10,7 28,-7 47,-3 3,8 1,20 14,14 6,-2 13,-8 20,-11 15,-8 28,-9 38,-23 13,-16 6,-33 14,-51 5,-10 6,-10 5,-25 -2,-10 1,-23 -10,-22 -22,4 -16,24 -22,42 -8,23 -22,26 -32,31 -10,5 -10,12 -15,16 -2,2 -19,2 -27,3 -11,4 -34,14 -32,29z"/>
   <path class="fil0" d="M1999 1531c1,6 13,24 16,27 4,5 17,10 24,16 14,12 27,31 54,25 -6,-15 -16,-3 -23,-19 -1,-4 -3,-12 -6,-17 -2,-9 -2,-7 -10,-11 -7,-4 -15,-13 -21,-19 -11,-8 -20,-2 -34,-2z"/>
   <path class="fil0" d="M2416 946c1,8 6,13 6,27 1,12 1,17 8,25 16,22 11,35 30,35l0 -38c0,-23 -7,-25 -16,-37 -8,-12 -4,-13 -10,-16 -7,-5 -14,0 -18,4z"/>
   <path class="fil0" d="M2447 743c2,18 2,19 -6,32 19,0 28,6 39,16 6,-7 11,-13 20,-19 8,-6 14,-11 18,-19 -5,-2 -11,-3 -15,-5 -32,-16 -23,-6 -56,-5z"/>
   <path class="fil0" d="M2184 1573c8,-4 16,-5 26,-5 -5,-47 10,-36 11,-61 0,-8 0,-17 0,-25 -13,1 -13,12 -27,21 -10,9 -14,5 -11,36 1,12 0,23 1,34z"/>
   <path class="fil0" d="M1958 1429c-5,16 -5,24 4,37 17,-1 14,-1 30,6 10,6 20,6 34,6 -4,-7 -7,-12 -10,-20 -8,-17 -3,-7 -14,-17 -6,-4 -9,-11 -17,-13 -9,-3 -19,0 -27,1z"/>
   <path class="fil0" d="M2551 1672c0,16 6,8 19,9 5,-9 4,-12 12,-18 10,-7 15,-9 23,-1 4,-27 6,-22 2,-50 -8,2 -13,5 -20,8 -27,9 -12,13 -27,31 -6,6 -9,9 -9,21z"/>
   <path class="fil0" d="M3455 1363c5,13 8,36 14,47 10,0 14,-4 24,-5 3,-10 17,-25 14,-35 -3,-7 -10,-7 -14,-11 -6,-4 -6,-10 -9,-16 -10,4 -21,13 -29,20z"/>
   <path class="fil0" d="M2302 1199l23 -28c-4,-5 -17,-11 -17,-27 1,-10 4,-9 1,-20 -6,-22 -1,-18 -23,-21 2,8 5,17 2,27 -3,10 -10,14 -9,24 0,2 19,41 23,45z"/>
   <path class="fil0" d="M3312 1280c2,11 2,18 3,31l4 30c10,-2 13,-10 25,-10 2,3 2,6 5,9 4,-6 10,-11 16,-18 -2,-2 -13,-24 -17,-26 -12,-6 -17,-3 -23,-18l-13 2z"/>
   <path class="fil0" d="M1434 1579c-1,9 -6,18 -6,26 0,7 6,16 8,23 2,8 -3,25 8,12 7,-8 13,-7 23,-5l1 -51c-11,-3 -21,-4 -34,-5z"/>
   <path class="fil0" d="M3305 1277c-4,-24 -20,-23 -41,-36 -7,-5 -14,-11 -21,-17 -5,-1 -26,-10 -28,-7 -4,5 -2,18 9,26 10,6 17,6 27,11 17,7 31,24 54,23z"/>
   <path class="fil0" d="M2079 1100c0,-14 -5,-32 -2,-46 3,-15 14,-21 9,-35l-29 0c0,8 2,18 2,27 -2,11 -7,14 -5,22 10,23 -5,34 25,32z"/>
   <path class="fil0" d="M2446 737c13,-1 30,-6 42,-2 10,2 26,14 36,12 6,-9 1,-34 -7,-36 -2,-1 -3,-1 -4,-1l-30 0c1,6 1,11 -5,14 -5,2 -9,-4 -12,-6 -10,-7 -20,9 -20,19z"/>
   <path class="fil0" d="M2735 1032c7,25 42,28 51,31 7,1 7,4 11,0 7,-5 10,-14 12,-25 -29,0 -27,-11 -36,-12 -4,0 -30,6 -38,6z"/>
   <path class="fil0" d="M2352 889c-7,17 4,5 -19,23 0,0 -1,1 -2,3l-5 4c10,3 22,5 33,6 16,3 18,-3 26,-12 18,-19 1,-28 -15,-25 -7,1 -11,1 -18,1z"/>
   <path class="fil0" d="M2396 909c-3,7 -9,9 -10,14 3,8 17,16 24,19 9,-5 7,-12 29,-6 4,-8 12,-18 14,-29 -34,-13 -34,14 -57,2z"/>
   <path class="fil0" d="M973 1446c4,5 7,9 14,11 3,1 8,1 12,2 4,1 5,2 10,4 1,-5 3,-8 4,-12 4,-27 9,-11 9,-26 -2,-6 -2,-12 -2,-18 -6,-1 -13,0 -18,2 -9,1 -9,2 -10,12 -2,18 -10,14 -19,25z"/>
   <path class="fil0" d="M1024 1437c-5,5 -4,5 -5,15 -2,7 -3,8 -6,14 24,4 19,9 34,-6 13,-9 26,-7 36,-13 -10,-6 -10,-14 -27,-18 -16,-2 -13,12 -32,8z"/>
   <path class="fil0" d="M3997 838c0,20 -2,31 -2,50 0,12 2,37 14,34 6,-3 8,-11 8,-18 0,-18 -2,-9 9,-15 6,-16 -8,-31 -8,-58 0,-12 4,-39 -13,-33 -11,4 -8,27 -8,40z"/>
   <path class="fil0" d="M2349 883c11,2 16,-1 26,-2 11,-1 15,5 21,8 3,-2 8,-9 8,-13 -1,-13 -22,-12 -38,-31 -13,14 -1,2 -17,17 -7,7 -7,12 0,21z"/>
   <path class="fil0" d="M1037 1476c4,12 10,11 20,26l2 1c10,-7 7,-4 22,-6 0,-10 0,-14 0,-25 0,-11 5,-13 7,-19 -19,6 -32,5 -51,23z"/>
   <path class="fil0" d="M2614 1184c14,8 10,26 10,33 1,7 0,3 2,6 5,2 15,-4 19,-6 11,-7 7,-7 7,-23 -8,-6 -10,-4 -16,-14 -2,-8 -7,-15 -14,-16 -4,4 -7,14 -8,20z"/>
   <path class="fil0" d="M2461 904c3,-15 -2,-23 -15,-24 -10,-3 -24,-5 -36,-6 -1,5 0,7 -3,12 -3,3 -5,3 -7,8 -7,12 9,12 14,9 36,-14 36,2 47,1z"/>
   <path class="fil0" d="M2683 1451l-24 -46c-17,14 -24,52 -14,52l38 -6z"/>
   <path class="fil0" d="M4046 987c-7,-10 -21,-2 -39,-21 -5,-5 -5,-8 -13,-8 -9,11 -2,24 -12,39 -14,18 -11,31 3,23 10,-6 9,-2 20,-2 7,0 12,-4 17,-8 9,-4 29,-10 24,-23z"/>
   <path class="fil0" d="M2480 705c14,-4 26,-3 40,-1 -2,-12 1,-18 3,-29 -12,0 -25,0 -35,3 -15,6 -12,14 -8,27z"/>
   <path class="fil0" d="M2705 1021c21,6 37,6 59,-1 -22,-18 -25,-18 -59,-18l0 19z"/>
   <path class="fil0" d="M4021 2382c0,2 7,14 8,20 2,9 3,16 7,21 15,17 40,-21 39,-39 -2,-20 -17,-8 -26,-10 -4,0 -30,-8 -28,8z"/>
   <path class="fil0" d="M2218 847c4,5 13,11 17,16 6,6 12,12 23,11 0,-6 -1,-7 -1,-13 0,-5 2,-11 1,-14 -6,-7 -19,-6 -26,-15 -7,12 -8,11 -14,15z"/>
   <path class="fil0" d="M3886 1153c-6,1 -10,6 -17,9 -12,2 -35,-4 -26,19 3,7 3,17 10,18 6,0 41,-31 43,-35 4,-8 -3,-14 -10,-11z"/>
   <path class="fil0" d="M2541 960c6,-6 11,-13 17,-18 -3,-7 -8,-20 -13,-26 -4,-7 -11,-16 -22,-16 1,6 4,6 7,12 3,4 4,9 5,13 2,9 2,18 3,27l3 8z"/>
   <path class="fil0" d="M2572 1705c5,1 19,1 23,-11 3,-8 6,-22 4,-30 -14,-4 -28,17 -27,41z"/>
   <path class="fil0" d="M1473 1636c19,0 12,-18 24,-30l-6 -4c-1,-3 -3,-4 -6,-5 -4,-4 -7,-7 -11,-9l-1 48z"/>
   <path class="fil0" d="M2609 1869c10,-11 6,-46 2,-54 -3,-3 -17,-17 -13,1 4,12 9,16 4,29 -3,7 5,20 7,24z"/>
   <path class="fil0" d="M1963 1473c2,18 8,21 13,32 7,-2 9,-4 12,-10 2,-7 2,-8 7,-13 -9,-7 -19,-12 -32,-9z"/>
   <path class="fil0" d="M2948 981c6,-20 7,-39 -17,-34 -9,13 3,32 17,34z"/>
   <path class="fil0" d="M2605 1875c-3,10 -3,11 0,20 3,6 6,12 9,18 7,-7 15,-28 4,-45 -4,8 -6,7 -13,7z"/>
   <path class="fil0" d="M3305 1259c2,4 4,10 6,14 10,1 23,-5 30,-12 3,-2 3,-5 5,-7 -11,-6 -32,-1 -41,5z"/>
   <path class="fil0" d="M2560 1786c1,-14 -5,-24 -9,-34 -4,-12 -4,-24 -11,-33 -3,5 -3,13 -2,21 0,7 2,14 5,19 1,6 11,25 17,27z"/>
   <path class="fil0" d="M2598 1876c4,-8 3,-11 0,-18 -6,-11 -1,-11 0,-21 -1,2 -31,38 0,39z"/>
   <path class="fil0" d="M2545 1871c5,-20 0,-21 -11,-24 0,6 1,10 3,15 3,5 4,8 8,9z"/>
   <path class="fil0" d="M3917 1873c-2,4 -3,9 -2,13 1,7 5,13 7,16 2,3 4,3 6,4 2,0 5,1 7,2l1 0c2,3 3,4 4,6 1,1 1,2 5,2 13,0 16,5 18,10 2,2 3,4 6,5 3,-3 4,-6 6,-10 1,-3 2,-7 5,-11l1 -2c4,-7 7,-12 6,-23 -3,-28 -2,-43 0,-50 1,-4 4,-6 6,-6 3,0 5,2 7,5 5,6 10,19 12,30l0 3c2,9 2,15 11,17l0 0c14,3 14,4 15,14 0,3 1,5 1,9l0 0c1,3 2,4 3,6 4,4 8,8 6,32 -1,5 0,6 2,6 1,1 3,0 4,0 4,0 9,-1 13,3 1,2 3,5 4,8 2,3 4,7 6,9l0 0 0 1c1,1 3,3 4,4 2,2 5,4 7,9 5,5 6,9 7,13 0,2 0,4 2,5l1 0 0 0c1,1 1,1 2,1 2,1 3,2 5,4l1 1c2,4 2,6 2,9 0,1 0,3 8,8l0 0c3,2 7,7 10,12 4,6 6,12 7,16l0 0c2,11 5,17 7,21 5,10 10,17 3,50 0,3 -1,6 -1,9 -3,14 -5,30 -13,36 -14,13 -14,18 -14,23 0,4 0,9 -4,15 -1,3 -3,4 -5,6 -2,2 -4,4 -6,11 0,3 0,7 0,11 0,7 1,13 -1,17l-1 1c-3,4 -9,5 -15,5 -2,1 -5,1 -7,2l0 0c-6,1 -8,4 -10,6 -2,2 -3,3 -5,5l0 0c-20,14 -27,2 -34,-11l0 0c-1,2 -2,3 -3,5 -4,6 -7,12 -15,12l0 0c-4,-1 -6,-3 -8,-4 -2,-2 -6,-5 -17,-5 -3,0 -6,0 -8,-1 -2,-1 -4,-2 -7,-4l0 0c-14,-15 -14,-17 -13,-23 0,-3 1,-8 -2,-17 -2,-1 -4,-1 -5,-2 -6,-1 -9,-1 -10,-13l-9 -3 0 -2c-1,-4 -1,-7 0,-11 -2,4 -4,4 -5,4 -1,0 -3,0 -9,6l0 1c-7,7 -12,5 -16,1 -2,-4 -4,-9 -5,-13 -1,-2 -1,-4 -2,-5 -5,-7 -5,-12 -5,-15 -1,-3 -1,-4 -19,-5 -4,0 -8,-2 -13,-4 -10,-4 -23,-10 -36,-2l-4 2c-6,4 -9,6 -12,7 -2,0 -3,0 -5,-1 -3,0 -7,-1 -14,-1 -3,0 -6,2 -10,5 -6,3 -12,9 -14,11 -5,5 -8,9 -13,11 -5,2 -10,3 -17,5l0 0c-2,0 -4,0 -6,0 -4,0 -8,0 -14,-2l-2 -1c-4,-1 -6,-2 -10,1 -1,1 -3,3 -5,4 -6,7 -12,13 -25,12 -5,0 -11,-2 -15,-5 -5,-2 -10,-6 -13,-9l-1 -1 0 -1c-1,-10 0,-12 2,-15 0,-2 1,-3 2,-6l0 0c1,-4 0,-9 -1,-13 0,-3 -1,-6 -1,-9 -1,-10 -4,-15 -6,-20 -2,-4 -4,-8 -6,-14 -3,-7 -6,-16 -9,-24 -1,-3 -3,-9 -4,-12 -1,-6 -3,-10 -4,-13 -3,-11 -4,-14 5,-24 -1,-1 -2,-2 -2,-3 -1,-2 -3,-4 -3,-7l0 0c-2,-6 0,-8 1,-11 1,-1 1,-3 1,-4l0 -1 0 0c2,-5 2,-8 3,-11 0,-6 1,-10 8,-16l5 -4c13,-11 20,-17 41,-18 4,-11 12,-10 22,-9 4,0 9,0 14,-1 6,-2 7,-4 9,-8l1 -2 1 0c6,-6 6,-10 6,-19l0 -5c0,-12 3,-16 8,-16 3,0 7,3 11,6 4,3 7,5 9,5 2,-4 2,-6 3,-10l0 -3 0 0c2,-4 5,-8 8,-11 5,-12 6,-13 9,-14 1,0 3,-1 7,-4l0 0c5,-3 11,-6 17,-7 4,0 9,1 13,5 3,2 4,3 5,5 2,2 4,4 9,5 -1,-7 2,-13 7,-22l2 -5c4,-7 8,-11 12,-13 4,-2 10,-3 18,-3 5,-1 6,-2 7,-3 1,-2 2,-3 5,-4 5,-2 8,-1 12,1 2,0 3,1 5,1l0 0c4,1 9,1 15,1 9,0 17,0 22,3 5,5 5,9 2,13 -2,3 -5,6 -8,8 -3,2 -6,4 -6,6l0 0z"/>
   <path class="fil0" d="M3738 1501c-13,5 -3,16 0,23 2,7 2,25 17,15 17,-10 -9,-40 -17,-38zm55 45c-4,-8 0,-10 -1,-19 -16,-8 -16,15 -36,19 -8,3 -14,4 -18,12 -9,16 8,12 15,12 3,4 15,29 23,24 4,-4 4,-8 7,-15 3,-9 4,-9 9,-15 4,-7 4,-9 1,-18l0 0zm-57 -104c6,6 22,15 36,41 23,47 1,59 -32,-2 -9,-20 -19,-4 -29,-20 -16,-21 -6,-31 -2,-37 3,-7 2,-14 3,-24 7,-2 13,-5 17,1 14,20 -1,32 7,41l0 0z"/>
   <path class="fil0" d="M3762 1647c7,-1 8,5 6,11 -8,18 -33,10 -40,11 -9,0 -23,9 -15,18 6,7 13,-16 29,-6 6,5 3,12 0,14 -3,4 -9,6 -13,9 4,6 7,4 9,15 0,6 -2,5 1,11 1,5 3,4 1,8 -7,8 -14,2 -18,-3 -7,-9 -6,-16 -11,-17 0,5 0,11 -2,16 -6,2 -7,1 -11,-5 -4,-5 -9,-6 -10,-11 -2,-6 4,-8 6,-14 1,-5 1,-12 1,-18 3,-20 17,-42 37,-36 6,1 10,3 17,2 7,0 9,-4 13,-5l0 0z"/>
   <path class="fil0" d="M3765 1794c10,1 30,-14 30,6 -3,3 -6,4 -12,7 -8,6 -27,26 -33,16 -4,-6 0,-9 2,-14 -9,-7 -23,-1 -37,-5 -4,-1 -13,-4 -9,-12 3,-4 13,-3 19,-3 7,0 15,0 23,1 7,0 10,4 17,4l0 0z"/>
   <path class="fil0" d="M3658 1788c3,-2 23,1 27,2 13,8 -6,17 -9,19 -14,11 -12,8 -19,-1 -6,-6 -13,-16 1,-20l0 0z"/>
   <path class="fil0" d="M3631 1788c-10,-8 -9,-16 -24,-18 -23,-5 -37,1 -53,-9 -7,-3 -11,-2 -17,0 -7,1 -26,3 -6,18 13,10 15,9 32,10 14,2 15,9 32,9 17,0 17,9 35,8 11,-2 19,-9 1,-18l0 0z"/>
   <path class="fil0" d="M3526 1696c8,15 0,27 -3,40 -10,44 -19,20 -32,10 -7,-6 -31,-28 -34,-35 -8,-18 0,-18 -15,-34 -23,-25 -9,-18 -16,-32 -7,-15 -41,-31 -41,-53 7,-6 17,0 24,2 11,3 13,3 17,14 3,6 23,27 36,31 14,3 25,18 31,33 3,12 6,15 11,22 13,13 9,2 22,2z"/>
   <path class="fil0" d="M3817 1647c5,4 7,3 7,11 0,10 -8,19 -18,18 -6,-7 -6,-25 0,-35 8,-1 6,3 11,6zm3 60c31,-7 31,31 19,27 -5,-2 -6,-5 -10,-8 -5,-1 -9,0 -13,-2 -11,-4 -7,-14 4,-17l0 0z"/>
   <path class="fil0" d="M2944 262c14,-5 21,-9 38,-12 16,-2 29,-3 43,-7 13,-4 30,-11 41,-4 0,12 -14,16 -31,22 -39,17 -29,10 -70,32 -11,6 -26,10 -33,18 -7,8 -12,24 -20,36 -5,11 -15,22 -7,39 7,14 15,30 -11,24 -23,-5 -19,-4 -36,-15 -17,-12 -37,2 -5,-42 3,-2 4,-3 5,-7 13,-17 9,-3 29,-37 8,-13 14,-18 24,-28 13,-13 13,-14 33,-19zm48 -162c3,-9 39,-15 39,8 -6,6 -13,7 -23,7 -9,1 -19,-4 -16,-15l0 0zm-201 11c8,-2 13,-5 20,-9 8,-5 10,-9 19,-12 7,-3 20,-2 23,6 3,8 -9,13 -12,18 -5,8 -7,9 -18,13 -7,2 -16,5 -22,7 -24,4 -34,-13 -10,-23l0 0zm89 -2c0,-15 10,-17 22,-17 13,0 16,-7 27,-1 22,13 39,-1 49,11 7,8 -2,15 -9,18 -8,3 -17,1 -27,6 -5,2 -14,7 -22,6 -10,-3 -9,-10 -18,-14 -12,-4 -12,-1 -22,-9l0 0zm-471 13c-2,-13 24,-12 34,-8 44,14 27,6 63,9 7,0 9,1 15,6 0,10 -7,13 -11,18 -6,5 -7,9 -14,12 -18,11 -35,1 -43,7 0,6 4,13 7,16 4,3 9,6 14,8 6,3 13,4 16,10 3,11 -14,27 -41,11 -10,-8 -9,-27 -20,-26 -6,0 -7,9 -10,14 -5,9 -23,34 -30,39 -13,7 -19,-2 -27,-14 -12,-13 10,-17 15,-25 -2,-11 -8,-8 0,-20 -21,-1 -34,20 -48,3 -4,-4 -6,-9 -6,-16 -2,-12 -17,-19 2,-27 17,-9 20,2 28,7 6,-8 7,-19 20,-12 3,8 -1,20 10,19 0,-8 -6,-11 -3,-18 7,-13 33,11 43,12 6,0 13,-1 16,-6 -9,-6 -29,-6 -30,-19l0 0z"/>
   <path class="fil0" d="M2126 705c8,5 20,3 22,14 3,14 -8,18 -10,28 19,9 15,3 26,22 1,4 4,8 6,10 5,8 5,16 10,23 5,9 12,5 18,12 3,14 -8,12 -11,27 -2,29 -24,9 -50,20 -9,3 -23,8 -28,-2 -3,-14 12,-16 18,-22 -16,-5 -16,-5 -16,-24 0,-15 15,-11 22,-18 0,-6 -5,-16 -7,-18 -6,-6 -10,-2 -16,-11 -6,-12 -4,-5 -13,-11 -15,-10 -3,-30 0,-39 3,-11 13,-24 24,-26 12,-2 6,9 5,15l0 0z"/>
   <path class="fil0" d="M2073 763c-14,4 -9,10 -17,18 -9,9 -13,9 -9,23 3,12 -10,16 -5,27 7,14 31,-2 35,-4 5,-1 10,-2 13,-5 9,-7 3,-19 7,-29 3,-8 13,-12 2,-24 -6,-8 -15,-8 -26,-6l0 0z"/>
   <path class="fil0" d="M1865 537c2,-13 23,-24 34,-16 9,7 6,13 17,6 8,-6 10,-6 20,-7 33,-2 33,-20 60,11 4,5 10,11 7,19 -4,12 -22,20 -34,23 -14,5 -27,15 -41,14 -7,0 -14,-3 -23,-6 -30,-8 -10,-23 -23,-33 -7,-5 -10,-3 -17,-11z"/>
   <path class="fil0" d="M1077 1327c4,-5 27,-11 37,-11 7,1 10,5 16,7 7,4 10,4 17,5 5,3 10,6 14,10 7,5 10,3 16,7 15,8 25,12 24,23 -7,6 -29,6 -39,1 -5,-4 -7,-7 -12,-12 -17,-13 -17,-11 -32,-14 -8,-2 -8,-8 -15,-8 -7,-1 -9,5 -17,4 -6,-1 -13,-5 -9,-12l0 0z"/>
   <path class="fil0" d="M1221 1381c-10,4 -20,4 -20,17 7,6 27,6 40,5 7,0 10,-4 17,-5 10,-3 10,0 17,-6 3,-17 -16,-13 -27,-19 -26,-12 -23,-8 -27,8z"/>
   <path class="fil0" d="M1450 871c6,8 13,5 20,10 10,4 5,13 11,22 3,6 10,12 7,21 -8,3 -11,-2 -20,-6 -4,-1 -8,-1 -11,-2 -4,-3 -4,-6 -7,-9 -10,-8 -26,15 -43,6 -14,-7 7,-30 12,-37 7,-11 8,-35 28,-29 4,11 -6,16 3,24z"/>
   <path class="fil0" d="M1813 10c47,9 29,12 57,21 5,1 27,8 14,17 -7,3 -56,8 -67,8 -13,-1 -21,-1 -33,2 -8,2 -20,6 -25,12 24,10 54,-16 75,-2 0,12 -7,11 -9,17 3,1 9,1 12,1 10,-1 15,-8 23,-16 8,-8 22,-19 32,-7 3,17 -15,25 -20,43 10,-4 25,-20 33,-26 17,-12 33,11 43,-1 10,-9 7,-28 37,-17 65,23 14,34 -10,44 -7,3 -12,8 -19,10 -14,6 -32,1 -41,18 -4,8 3,16 0,25 -3,10 -24,26 -17,40 1,1 0,1 3,1 3,0 -2,0 6,-3 15,-4 8,11 12,20 3,4 10,7 6,12 -3,4 -18,1 -31,7 4,14 20,12 28,21 4,5 4,14 0,18 -6,5 -10,2 -15,9 2,11 12,6 12,18 -3,3 -4,3 -10,3 -24,4 0,12 -1,28 -7,4 -20,6 -30,4 -7,-3 -14,-14 -23,-3 -10,15 17,35 24,41 22,16 18,47 8,48 -16,1 -32,-31 -36,-34 0,2 0,-1 -1,3 -6,14 -13,18 -13,29 13,4 27,0 37,7 0,8 -3,9 -9,13l-40 23c-14,7 -18,3 -34,6 -14,1 -14,12 -28,2 -6,7 -10,16 -16,23 -4,7 -11,14 -17,19 -30,28 -37,8 -48,5 -3,13 0,17 -13,19 -7,2 -16,5 -19,12 -1,10 3,5 -5,28 -3,9 -6,14 -12,20 -15,14 -1,7 -11,37 -4,13 0,29 -19,29 -18,-1 -25,-13 -44,-17 -18,-3 -21,-6 -32,-29 -5,-8 -5,-15 -7,-24 -3,-6 -10,-13 -15,-18 -5,-8 -7,-12 -8,-22 -5,-21 -24,-22 -16,-36 3,-5 2,1 3,-5 -9,-16 -16,-16 -4,-35 3,-5 5,-12 11,-14 4,-3 10,-3 13,-5 8,-5 7,-23 4,-30 -14,-2 -10,8 -20,12 -24,8 -37,-36 14,-37 -1,-4 -1,-3 -4,-5 -6,-2 -11,-5 -15,-10 -15,-15 -13,0 -23,-6 -7,-4 -6,-15 -5,-24 3,-13 0,-14 -4,-25 -7,-19 -3,-24 -18,-37 -5,-5 -10,-10 -14,-13 -6,-6 -8,-11 -13,-16 -6,-3 -15,-5 -20,-7 -9,-2 -14,-5 -20,-7 -24,-9 -27,2 -46,2 -11,0 -10,-2 -22,1 -16,4 -52,-25 -32,-37 6,-3 12,-6 19,-7 8,-2 17,0 24,-2 -1,-2 0,-3 0,-3 0,0 -1,0 -3,-1 -7,-4 -33,0 -43,-1 -7,-1 -27,-15 -31,-18 0,-24 24,-16 37,-22 4,-2 7,-6 13,-7 13,-2 20,4 33,-6 4,-2 22,-24 8,-26 -6,-1 -17,2 -18,-5 -2,-13 18,-19 30,-24 18,-8 41,-4 44,-10 3,-9 -3,-21 8,-24 9,-2 16,5 24,4 6,-6 5,-14 15,-17 8,-2 15,0 25,-3 29,-9 22,3 27,27 5,-1 3,-1 6,-5 1,-4 3,-10 3,-15 5,-22 15,19 37,5 -3,-4 -6,-6 -6,-14 20,-15 41,10 58,20 9,4 13,4 19,-3 -3,-12 -13,-12 -20,-20 -9,-10 6,-19 13,-23 7,-2 57,-8 67,-7 14,1 12,9 27,-1 21,-17 75,-11 101,-10 13,1 18,6 30,8z"/>
   <path class="fil0" d="M1086 544c-5,-2 -8,-2 -13,-5 -3,-2 -7,-7 -12,-5 -5,3 -5,4 -8,11 -2,6 -3,10 -6,15 -4,8 -13,18 -1,25 8,3 18,11 27,6 7,-4 13,-16 24,-11 0,0 21,14 27,1 4,-9 -11,-11 -28,-26 -6,-5 -5,-7 -10,-11zm-491 -308c27,-10 22,-22 44,-27 7,-1 7,3 13,3 5,1 11,0 15,1 12,5 0,20 -3,24 -14,13 -15,2 -27,6 -5,2 -7,10 -21,12 -18,4 -53,-8 -21,-19l0 0zm158 -4c-15,13 -2,25 -2,35 -25,2 -15,-13 -38,-18 -20,-5 -12,-4 -23,-7 -11,-4 -16,1 -17,12 -3,13 -3,12 -11,18 -16,11 4,26 25,12 7,-4 17,0 23,2 -9,5 -14,4 -14,15 15,12 30,0 41,-6 14,-8 34,-8 53,-8 14,0 20,-14 14,-27 -7,-15 -21,8 -30,-7 -4,-8 -7,-33 -21,-21l0 0zm-175 67c-36,2 -12,16 -20,33 -5,7 -19,32 -16,41 6,7 11,3 19,9 8,6 5,24 35,7 6,-3 10,-8 14,-14 6,-7 10,-7 13,-14 7,-11 3,-9 16,-15 6,-3 11,-7 17,-9 26,-16 -4,-27 -9,-28 -8,-1 -17,1 -25,1 -17,-1 7,-13 -44,-11l0 0zm168 -130c7,0 14,-1 15,4 2,8 -4,11 -8,14 -5,3 -10,7 -15,8 -10,5 -27,4 -35,-2 -2,-20 28,-24 43,-24l0 0zm187 103c7,-4 22,-1 27,3 7,6 5,18 -5,21 -32,6 -39,-17 -22,-24l0 0zm-115 -43c16,-9 37,37 26,43 -16,7 -39,-36 -26,-43l0 0zm85 -59c5,-1 25,3 30,5 10,4 16,15 5,21 -8,4 -25,3 -30,-1 -7,-5 -15,-19 -5,-25l0 0zm-91 -18c23,-6 32,6 49,12 31,13 24,33 10,32 -9,-1 -12,-7 -24,-7 -9,-1 -22,-1 -27,-5 -6,-3 -3,-6 -6,-11 -3,-2 -30,-14 -2,-21l0 0zm94 111c2,21 -11,22 -25,16 0,-8 3,-14 -6,-18 -6,-1 -14,1 -16,-6 -2,-8 3,-12 7,-16 6,-4 10,-2 16,3 12,8 24,-3 24,21l0 0zm-27 57c0,0 30,-21 30,1 -1,7 -6,12 -6,18 5,5 10,4 15,8 4,4 5,12 1,18 -3,4 -21,20 -26,21 -15,3 -22,-9 -29,-15 -6,-4 -25,-16 -17,-27 2,-5 8,-1 12,1 9,4 12,2 15,-4 -6,-8 -13,-2 -13,-15 8,-10 8,-4 18,-6l0 0zm-44 116c7,4 17,5 19,12 -2,6 -5,6 -12,7 -5,1 -8,3 -14,1 -38,-7 -28,-25 -48,-10 -12,8 -13,6 -27,8 -9,2 -9,10 -26,8 -11,-1 -18,-3 -26,-9 -22,-17 -42,-8 -42,-26 7,-10 25,-8 41,-9 1,-1 4,-1 7,-1 4,-2 3,-1 6,-4 -9,-16 -56,3 -71,-14 0,-10 8,-11 15,-13 -5,-1 -14,0 -20,-3 -27,-15 36,-49 46,-51 21,-5 8,24 8,24 13,3 12,-17 25,-13 10,2 14,14 24,15 4,-5 3,-9 7,-14 8,-1 11,6 16,12 1,3 2,6 4,9 1,6 1,8 6,9 5,-11 -5,-18 -2,-33 7,-7 10,-2 21,-2 -1,-13 2,-18 13,-17 9,1 15,6 10,17 -4,10 -8,10 -5,23 1,9 2,19 4,27 3,12 8,9 18,12l20 11c5,3 14,15 5,17 -3,1 -8,0 -12,1 -10,1 -8,5 -10,6l0 0zm140 -125c-10,0 -20,-1 -29,2 -8,2 -14,4 -16,14 -7,25 9,41 19,36 4,-2 4,-4 10,-6 10,-4 17,1 28,-17 22,-31 3,-29 -12,-29l0 0zm111 15c11,-4 24,-10 31,1 7,10 6,25 7,40 4,-3 4,-6 11,-8 6,-1 10,3 15,3 10,-12 21,-17 37,-9 4,4 4,5 7,10 4,6 5,5 11,7 4,4 4,6 9,10 10,8 15,0 25,5 6,3 4,7 3,15 38,1 38,15 44,19 7,4 7,0 13,9 1,13 -14,25 -3,33 17,12 41,10 54,30 7,15 14,7 27,15 0,12 -8,18 -14,22 -6,4 -16,14 -21,16 -17,6 -17,-25 -44,-24 -16,23 8,20 19,32 5,4 32,53 -7,44 -10,-3 -12,-11 -25,-12 3,7 28,25 21,36 -1,3 -3,3 -6,2 -7,0 -15,-5 -21,-8 -8,-5 -13,-10 -23,-15 -18,-8 -10,-9 -20,-18 -4,-5 -8,-3 -11,-9 -3,-5 -1,-9 -7,-11 -11,-5 -19,5 -31,5 -37,-2 -32,-23 -5,-28 10,-2 25,4 32,-4 0,-9 -7,-6 -7,-19 5,-7 18,-9 28,-3 10,3 23,8 28,-3 -5,-12 -17,-7 -25,-11 -9,-6 -6,-22 -14,-30 -3,-2 -9,-3 -13,-6 -6,-3 -9,-4 -13,-8 -9,-8 -13,-11 -23,-18 -7,-3 -15,-15 -23,-17 -10,-1 -11,11 -31,8 -11,-3 -21,-6 -34,-5 -13,1 -24,3 -37,0 -11,-4 -21,-1 -30,-9l0 -6c12,-9 13,-2 16,-12 -7,-2 -51,-1 -27,-44 15,-28 47,-34 52,-24 3,11 -12,12 -10,34 2,10 12,24 22,22 0,-3 -10,-20 -10,-36 1,-16 15,-19 23,-21l0 0zm-128 -238c-9,6 -8,9 -20,12 -10,5 -12,6 -9,20 4,13 -7,13 -3,25 9,20 34,0 46,11 -5,4 -14,9 -12,17 2,3 15,15 16,16 7,7 16,4 23,1 10,-2 18,0 24,-6 7,-7 9,-9 16,-15 8,-6 10,-11 4,-21 -3,-6 -9,-15 -11,-19 -10,-11 -13,-1 -19,-13 -6,-10 -6,-10 -17,-13 -21,-7 -24,-28 -38,-15l0 0zm162 180c-53,-14 -39,-3 -63,0 -10,1 -25,-1 -35,-3 -23,-6 -9,-12 -19,-22 -6,-6 -40,-13 -57,-20 -35,-15 -34,24 -4,25 16,1 20,1 28,11 7,7 -1,21 10,30 7,6 20,8 30,8 23,0 49,8 71,5 15,-3 20,-4 34,-5 16,0 49,-18 5,-29l0 0zm67 -249c21,-6 20,7 27,8 4,0 10,-3 14,-5l50 -1c18,0 15,6 25,9 16,2 34,-3 49,9 8,7 14,4 22,7 5,14 -20,18 -31,20 -13,2 -40,-2 -40,12 9,1 13,-3 17,2 6,8 -18,13 -31,24 -17,13 -33,24 -51,35 -7,3 -16,1 -23,3 -10,2 -11,5 -23,5 -7,1 -15,4 -20,9 7,7 42,2 27,25 -2,4 -7,12 -14,14 -7,4 -17,1 -23,5 -7,5 -2,13 -15,17 -10,1 -20,-2 -27,3 11,5 32,0 37,16 -3,11 -19,12 -30,12 -19,0 -30,-6 -47,-3 -7,2 -14,5 -21,4 -8,-1 -13,-4 -20,-4 -12,0 -26,2 -25,-14 2,-11 13,-11 22,-13 -3,-7 -4,-5 -4,-13 19,-15 32,9 38,7 1,-5 -1,-5 -4,-10 -2,-3 0,-2 -2,-8 -1,-10 -14,2 -23,-3 -5,-3 -4,-13 2,-18 4,-3 11,-3 17,-4 34,-4 26,12 36,7 1,-4 0,-5 -3,-7 -16,-11 -7,-4 -20,-17 -4,-5 -41,-29 -7,-32 38,-3 27,22 45,21 0,-12 -7,-9 -6,-23 12,-8 35,-4 36,-18 -6,0 -10,3 -14,4 -6,1 -10,1 -16,1 -24,1 -40,13 -60,0 -7,-5 -5,-5 -12,-1 -27,12 -54,-31 -32,-42 5,-2 7,-2 13,-5 17,-9 19,3 27,-1 7,-5 19,-19 39,-10 11,6 15,-1 25,-4 9,-5 3,-5 23,-15 18,-9 10,-5 27,0 9,3 17,-7 26,-8l0 0z"/>
   <path class="fil0" d="M4065 1778c8,26 43,36 33,47 -3,3 -5,0 -13,0 -19,-2 -19,10 -32,-11 -2,-5 -4,-5 -7,-8 -2,-4 -4,-6 -7,-10 -3,-5 -10,-11 -18,-11 -4,5 -4,10 -9,15 -3,3 -18,17 -25,17 -3,0 -5,-1 -7,-3l0 -102c1,1 2,1 2,1 9,3 30,11 36,15 23,16 20,24 44,34 11,5 6,10 3,16l0 0z"/>
   <path class="fil0" d="M3974 1801c-1,-3 -4,-6 -9,-6 -7,0 -11,2 -18,1 -6,0 -12,-5 -10,-11 3,-6 7,-7 11,-11 0,-8 -3,-12 -5,-15 -25,-29 -23,-9 -42,-15 -5,-2 -5,-6 -11,-9 -6,-5 -7,-3 -13,-6 -4,-1 -8,-6 -8,-12 -2,-6 4,-9 8,-11 -1,-1 1,0 -3,-1 0,0 -1,0 -3,0 -1,-1 -2,-1 -4,-1 -11,-4 -17,-21 -13,-26 3,-2 17,-1 22,0 25,4 17,22 21,33 3,5 11,8 18,7 12,-2 8,-22 30,-20 9,0 13,3 19,8 6,6 7,5 10,5l0 90z"/>
   <path class="fil0" d="M3594 1629c6,-2 13,1 20,0 4,-11 7,-21 16,-27 11,-8 14,4 25,-17 20,-36 19,-4 29,1 5,4 7,1 12,6 2,14 -8,13 -14,19 -1,0 -1,0 -2,-1 -1,0 -3,-1 -5,-2 -2,0 -4,-1 -5,-1 -2,-1 -4,-1 -5,-1 -2,0 -4,1 -5,1 -2,1 -3,2 -5,3 -2,2 -3,4 -5,6 -2,4 -4,8 -6,13l-2 4c-1,3 -2,5 -3,7 -1,1 -2,3 -3,4 -1,1 -3,3 -4,4 -1,1 -2,1 -3,2 -1,0 -2,-1 -3,-1l-1 -1c-1,0 -3,-1 -4,-1 -2,0 -4,0 -6,0 -3,1 -6,2 -8,3l-3 2c-1,0 -2,1 -3,1 -1,0 -2,0 -3,-1 -1,0 -3,-1 -4,-2 -2,-1 -4,-3 -5,-5 -1,0 -2,-1 -2,-2 1,-6 0,-12 7,-14l0 0z"/>
   <path class="fil0" d="M3679 1617l-1 -1c-1,0 -3,-1 -5,-2 -1,0 -3,-1 -4,-1 -2,0 -3,-1 -4,0 -1,0 -2,0 -3,0 -1,1 -3,1 -4,2 -1,1 -2,3 -3,5 -2,3 -4,7 -6,11l-2 5c-1,3 -2,5 -3,7 -2,2 -3,4 -4,5 -1,2 -3,4 -5,5 -1,1 -2,2 -4,3 -3,1 -5,0 -8,-1l0 -1c-1,0 -2,-1 -3,-1 -1,0 -3,0 -4,0 -2,1 -5,2 -7,3l-3 2c-2,0 -3,1 -5,1 -1,0 -3,0 -4,-1 -2,0 -4,-1 -6,-3 -2,-1 -4,-3 -6,-5 -2,-2 -5,-5 -7,-8 -5,-4 -12,-7 -15,3 -7,24 7,41 10,48 7,12 2,19 17,25 10,4 4,1 11,8 7,9 23,-3 30,4 3,4 8,16 21,-4 7,-9 9,-16 14,-27 8,-15 9,-10 10,-31 23,-9 10,-12 8,-27 -2,-6 -6,-15 -6,-19 0,-2 0,-4 1,-5z"/>
   <path class="fil0 str0" d="M2546 1514c-50,2 -39,16 -65,13 3,6 8,14 16,24 20,22 11,11 28,36 8,9 8,9 20,12 10,3 12,7 17,13 9,10 9,6 20,3 32,-11 23,-10 29,-21 3,-4 4,-4 5,-9 -18,-22 -31,-19 -27,-42 1,-3 3,-6 5,-10l-6 -5c-16,-19 -31,-15 -42,-14z"/>
   <path class="fil0" d="M3215 1527c-1,-1 -3,-1 -4,-1 -1,-1 -2,0 -1,1 0,1 1,2 0,3 -3,5 -2,11 -3,15 0,8 1,14 4,20 1,2 4,4 7,4 9,-1 15,-10 12,-19 -3,-9 -9,-16 -15,-23z"/>
   <path class="fil0" d="M3110 1660c0,0 0,-1 1,-1 0,0 1,-1 1,-1 1,0 2,-1 2,-1 0,0 1,0 1,0 0,0 1,-1 1,-1 0,1 -1,1 -1,2 0,1 0,1 0,2 0,1 0,1 -1,1 -1,0 -1,0 -1,1 -1,0 -1,0 -2,0 0,0 -1,-1 -1,-1 0,-1 0,-1 0,-1z"/>
   <path class="fil0" d="M3107 1686c0,0 0,-1 0,-1 -1,0 -1,-1 -1,-1 0,0 0,-1 0,-2 1,0 2,0 2,-1 0,0 0,0 0,0 1,0 1,-1 1,-1 1,0 1,0 1,0 0,-1 1,-1 0,-1 0,0 -2,-1 -1,-2 1,0 1,0 1,0 1,-1 1,0 1,0 0,0 1,-1 1,0 0,0 1,1 1,2 1,1 0,1 0,2 0,0 1,0 1,0 0,1 1,1 1,2 0,0 1,1 0,2 0,0 0,1 0,1 -1,0 -1,0 -1,0 0,1 -1,1 -1,1 -1,0 -1,0 -2,0 0,1 -1,1 -1,1 -1,1 -1,0 -2,0 0,-1 0,-1 -1,-1 0,0 -1,-1 0,-1z"/>
   <path class="fil0" d="M3113 1697c0,0 0,0 0,0 0,0 1,0 0,0 0,1 0,0 0,0z"/>
   <path class="fil0" d="M3107 1702c0,0 1,0 1,0 0,0 0,0 1,0 0,0 1,-1 1,0 0,0 0,1 -1,2 -1,0 -1,-1 -1,-1 0,0 -1,-1 -1,-1z"/>
   <path class="fil0" d="M1100 779c-4,0 -11,2 -20,2 -13,0 -23,5 -35,11 -1,8 19,62 29,69 10,6 25,14 36,6 4,-2 23,-13 23,-16 0,-9 -36,-27 -36,-61 0,-3 3,-8 3,-11l0 0z"/>
   <path class="fil0" d="M3496 1646c-2,0 -21,-11 -25,-19 -6,-12 -15,-9 -21,-38 0,-4 -4,-32 9,-18 15,17 17,2 28,34 2,6 13,39 9,41z"/>
   <g>
    <path class="fil0" d="M3102 1576c0,0 0,0 1,0 0,0 0,0 0,-1 1,0 1,0 1,1 0,0 1,0 1,0 0,0 1,1 1,1 0,0 -1,1 -1,1 0,0 0,0 0,1 0,0 0,0 -1,-1 0,0 0,0 0,0 0,-1 0,-1 -1,-1 0,0 -1,0 -1,-1z"/>
    <path class="fil0" d="M3104 1581c0,0 0,-1 1,-1 0,0 0,-1 0,0 0,0 1,0 1,0 0,0 0,0 0,0 1,0 1,-1 1,-1 0,0 0,-1 1,-1 0,0 0,0 1,0 0,0 0,-1 0,0 0,0 1,0 1,1 -1,0 -1,0 0,0 0,0 0,1 0,1 -1,0 -1,0 -1,1 0,0 0,0 0,0 0,1 0,1 -1,1 0,0 0,0 0,0 0,0 0,1 0,1 -1,0 -1,-1 -1,0 0,0 0,0 0,1 0,0 -1,0 0,1 0,0 0,0 0,1 0,0 -1,1 0,1 1,1 1,1 2,1 0,0 0,0 0,0 0,1 1,1 1,1 0,0 0,1 0,1 1,1 1,1 1,1 0,0 0,0 0,1 -1,0 -1,1 0,2 0,0 0,1 1,1 0,0 0,-1 1,0 0,0 0,0 0,0 0,0 1,1 1,1 0,1 0,1 0,1 0,1 -1,1 -1,1 0,1 0,2 -1,2 -1,0 -1,0 -2,0 0,0 0,-1 -1,-1 0,-1 0,-1 -1,-2 0,0 0,0 0,0 0,-1 0,-1 0,-1 0,0 0,-1 0,-1 0,0 0,-1 -1,-1 0,0 -1,-1 -1,-1 0,0 0,-1 0,-1 0,0 0,0 0,-1 0,0 -1,0 0,0 0,0 0,0 0,-1 -1,0 -1,-1 -1,-1 0,0 0,-1 0,-1 0,0 -1,0 -1,0 0,-1 0,-1 0,-2 -1,0 -1,0 0,-1 0,0 0,0 0,0 -1,0 -1,-1 -1,-1 1,0 1,0 0,0 0,0 0,-1 0,-1 1,-1 1,0 1,-1 0,0 0,0 0,-1 1,0 1,0 0,0z"/>
    <path class="fil0" d="M3098 1590c0,0 0,0 0,0 0,0 1,0 1,-1 0,0 0,0 0,-1 0,0 1,0 1,0 -1,-1 -1,-1 0,-1 0,0 0,0 0,0 1,0 1,0 1,0 0,1 -1,1 -1,1 0,0 0,0 0,1 -1,0 -1,0 -1,1 0,0 0,0 0,1 0,0 0,0 -1,0 0,0 0,-1 0,-1z"/>
    <path class="fil0" d="M3105 1594c0,0 0,0 0,0 0,0 0,0 0,1 0,0 0,0 0,0 0,0 0,-1 0,-1z"/>
    <path class="fil0" d="M3104 1597c0,0 0,-1 0,-1 0,0 0,0 0,0 0,0 0,0 1,0 0,0 -1,0 0,0 0,0 0,-1 0,0 1,0 1,1 1,2 0,0 1,2 0,3 0,1 1,2 0,2 0,1 0,1 0,1 0,0 0,0 -1,0 0,0 0,0 0,1 -1,0 -1,0 -1,0 -1,0 -1,0 -1,0 0,0 0,0 0,0 0,0 0,-1 0,-1 0,0 0,0 0,0 1,0 0,-1 0,-1 0,0 0,0 0,-1 0,0 0,0 -1,0 0,0 0,0 0,0 0,0 0,0 0,-1 0,0 1,0 1,0 0,0 0,0 0,-1 0,0 0,0 0,0 0,0 0,-1 0,-1 0,0 0,0 0,-1 0,0 0,0 0,0 0,0 0,0 1,-1 0,0 0,0 0,0 0,0 0,0 0,0z"/>
    <path class="fil0" d="M3104 1606c0,0 0,0 0,-1 1,0 1,0 2,0 0,-1 0,-1 1,-1 0,1 0,1 0,1 0,1 0,1 -1,1 0,0 0,0 0,0 -1,0 -2,0 -2,0z"/>
    <path class="fil0" d="M3103 1607c0,0 0,-1 1,-1 0,0 1,0 2,0 1,0 1,0 2,0 0,0 1,0 1,0 0,1 0,1 0,1 -1,1 -1,1 -1,1 0,1 -2,2 -2,2 -1,1 -1,1 -2,1 0,0 0,0 0,0 -1,0 -1,0 -1,0 0,-1 0,0 0,-1 0,0 0,0 0,0 -1,0 0,0 0,0 0,-1 0,-1 -1,-1 0,0 0,-1 1,-1 0,0 0,0 0,-1 0,0 0,0 0,0z"/>
    <path class="fil0" d="M3111 1605c0,0 0,0 0,-1 1,0 1,0 1,-1 0,0 0,-1 1,-1 0,0 0,0 0,0 0,0 1,-1 1,0 0,0 1,1 1,1 1,0 1,0 2,1 0,1 0,2 0,2 0,0 -1,1 -1,0 0,0 -1,1 -1,1 0,0 -1,0 -1,0 0,-1 0,-1 0,-1 0,0 0,0 0,-1 -1,0 -1,0 -1,0 0,0 -1,-1 -1,0 0,0 0,0 -1,0z"/>
    <path class="fil0" d="M3103 1613c0,0 0,0 0,-1 0,0 1,0 1,0 1,0 2,0 2,0 0,0 0,0 0,0 0,0 0,1 -1,1 -1,1 -2,0 -2,0z"/>
    <path class="fil0" d="M3105 1616c0,0 0,0 0,0 1,0 1,0 0,0 0,0 0,0 0,0z"/>
    <path class="fil0" d="M3105 1618c0,0 0,0 0,0 1,0 1,-1 1,0 1,0 0,1 0,1 -1,0 -1,0 -1,-1z"/>
    <path class="fil0" d="M3112 1613c0,0 0,0 0,-1 0,0 1,0 1,0 1,0 2,1 1,1 0,0 0,0 -1,0 0,0 -1,0 -1,0z"/>
    <path class="fil0" d="M3112 1614c0,0 0,0 1,0 0,0 0,-1 0,-1 0,0 1,0 1,0 1,1 2,2 2,3 0,0 1,1 1,1 1,0 1,0 1,1 0,0 0,0 -1,0 0,1 0,1 0,1 -1,0 -1,0 -1,0 0,1 0,1 0,1 0,0 -1,0 -1,0 0,1 0,1 0,2 0,0 0,0 -1,0 -1,0 -1,0 -2,0 0,-1 -1,-2 -1,-2 1,-1 1,-2 1,-2 0,-1 0,-2 0,-4z"/>
    <path class="fil0" d="M3112 1623c0,0 1,0 1,0 1,0 1,0 2,0 0,0 0,1 0,1 0,0 0,1 0,1 -1,0 -1,0 -1,1 0,0 0,0 0,0 0,0 0,0 0,1 0,0 0,0 -1,1 0,0 0,0 -1,0 0,0 0,-1 0,-1 0,-1 0,-3 0,-4z"/>
    <path class="fil0" d="M3112 1631c0,0 0,-1 1,-1 1,0 1,0 1,1 0,1 0,1 0,1 0,1 1,2 1,2 1,0 1,0 1,0 1,0 1,0 1,0 1,0 1,-1 1,-1 1,0 1,1 1,1 0,0 0,0 0,1 0,0 0,1 -1,1 0,0 0,-1 -1,0 0,0 0,0 -1,0 0,0 0,0 -1,0 0,0 0,0 0,0 -1,0 -1,1 -1,1 -1,0 -1,-1 -1,-1 0,0 0,0 0,0 0,-1 -1,-1 -1,-2 -1,0 -1,0 -1,0 -1,0 -1,0 -1,-1 0,0 2,-2 2,-2z"/>
    <path class="fil0" d="M3112 1638c0,0 0,0 0,-1 1,0 1,0 1,0 0,0 1,0 1,1 0,0 -1,0 -2,0z"/>
    <path class="fil0" d="M3112 1640c0,0 0,-1 1,-1 0,0 1,0 2,0 0,1 0,1 1,1 1,0 1,0 1,0 0,1 -1,1 -1,1 1,0 1,1 0,1 0,1 0,1 0,1 0,1 0,1 -1,1 0,0 -1,0 -1,1 -1,0 -1,0 -1,0 0,1 0,1 0,1 -1,0 -1,0 -1,-1 0,-1 0,-2 0,-3 0,0 0,-2 0,-2 0,0 0,0 0,0z"/>
    <path class="fil0" d="M3101 1622c0,0 0,-1 0,-1 0,0 1,-1 0,-1 0,-1 0,-1 1,-1 0,0 0,-1 0,-1 1,0 1,0 2,1 0,0 0,0 0,1 0,0 0,0 1,0 0,0 0,0 0,1 0,1 0,1 0,2 0,0 0,2 0,3 1,0 1,1 1,1 0,0 0,0 0,1 0,0 0,0 0,1 0,0 -1,1 -1,1 0,0 0,1 -1,2 0,0 0,0 -1,0 0,0 -1,0 -1,0 0,0 0,0 -1,0 0,-1 0,-2 0,-3 -1,0 -1,0 0,0 0,0 0,-1 0,-1 0,-1 0,-1 0,-2 0,0 0,0 0,0 0,-1 0,-1 0,-1 0,-1 0,-3 0,-3z"/>
    <path class="fil0" d="M3103 1638c0,0 0,0 0,-1 0,0 0,0 0,0 0,-1 0,-1 1,-1 0,-1 2,-1 2,0 1,2 1,3 0,3 -1,1 -2,1 -2,1 0,0 -1,0 -1,-1 1,0 1,0 1,-1 -1,0 -1,0 -1,0z"/>
    <path class="fil0" d="M3103 1644c0,0 0,0 0,0 0,0 0,0 0,-1 0,0 0,0 0,-1 1,-1 2,-1 3,-1 0,0 1,0 1,1 -1,1 0,3 -1,4 -1,1 -1,1 -2,1 0,0 -1,-1 -1,-1 0,-1 0,-1 0,-1 0,0 0,-1 0,-1z"/>
    <path class="fil0" d="M3104 1653c0,0 0,0 0,-1 1,0 1,0 0,-1 0,0 1,-1 1,-1 1,-1 2,-1 3,-1 1,0 2,1 2,1 0,0 1,0 1,0 0,0 0,1 1,1 0,0 0,1 0,1 -1,1 -2,2 -2,2 -1,0 -1,1 -2,1 0,0 0,0 -1,0 0,1 -1,1 -1,0 -1,0 -1,-1 -1,-1 0,-1 0,-1 0,-1 0,0 -1,0 -1,0z"/>
    <path class="fil1" d="M3156 1514c0,31 -55,111 -55,111 0,0 -55,-80 -55,-111 0,-30 25,-55 55,-55 31,0 55,25 55,55z"/>
    <path class="fil2" d="M3127 1512c0,14 -11,26 -26,26 -14,0 -26,-12 -26,-26 0,-14 12,-26 26,-26 15,0 26,12 26,26z"/>
    <path class="fil1" d="M3056 1519c0,-26 21,-48 47,-48 16,0 30,8 38,19 -8,-14 -23,-24 -41,-24 -26,0 -48,21 -48,48 0,11 4,21 10,29 -4,-7 -6,-15 -6,-24z"/>
    <path class="fil1" d="M3088 1604c8,12 13,21 13,21 0,0 55,-80 55,-111 0,-1 0,-3 0,-4 -2,8 -5,16 -9,24 -10,22 -26,36 -42,53 -5,6 -11,11 -17,17z"/>
   </g>
   <g>
    <path class="fil1" d="M1267 1737c0,30 -55,110 -55,110 0,0 -55,-80 -55,-110 0,-31 25,-55 55,-55 30,0 55,24 55,55z"/>
    <path class="fil2" d="M1238 1734c0,14 -12,26 -26,26 -14,0 -26,-12 -26,-26 0,-14 12,-26 26,-26 14,0 26,12 26,26z"/>
    <path class="fil1" d="M1166 1741c0,-26 22,-47 48,-47 16,0 29,7 38,18 -8,-14 -24,-24 -41,-24 -27,0 -48,22 -48,48 0,11 3,21 10,29 -4,-7 -7,-15 -7,-24z"/>
    <path class="fil1" d="M1199 1826c7,13 13,21 13,21 0,0 55,-80 55,-110 0,-2 0,-4 0,-5 -2,8 -6,17 -9,24 -11,22 -26,36 -43,54 -5,5 -10,11 -16,16z"/>
   </g>
   <g>
    <path class="fil0" d="M1389 1531c7,-11 -5,-13 -8,-23l-4 2c-2,0 -3,0 -5,1 -3,2 -6,2 -8,4l25 16z"/>
    <path class="fil1" d="M1465 1495c0,30 -55,111 -55,111 0,0 -55,-81 -55,-111 0,-30 25,-55 55,-55 31,0 55,25 55,55z"/>
    <path class="fil2" d="M1436 1493c0,14 -11,26 -26,26 -14,0 -25,-12 -25,-26 0,-15 11,-26 25,-26 15,0 26,11 26,26z"/>
    <path class="fil1" d="M1365 1500c0,-26 21,-48 48,-48 15,0 29,7 38,19 -9,-15 -24,-24 -42,-24 -26,0 -48,21 -48,48 0,11 4,21 10,29 -4,-7 -6,-15 -6,-24z"/>
    <path class="fil1" d="M1397 1585c8,12 13,21 13,21 0,0 55,-81 55,-111 0,-2 0,-3 0,-5 -2,9 -5,17 -9,25 -10,22 -26,35 -42,53 -5,6 -11,11 -17,17z"/>
   </g>
   <g>
    <path class="fil1" d="M1085 935c0,31 -55,111 -55,111 0,0 -55,-80 -55,-111 0,-30 25,-55 55,-55 30,0 55,25 55,55z"/>
    <path class="fil2" d="M1056 933c0,14 -12,26 -26,26 -14,0 -26,-12 -26,-26 0,-14 12,-26 26,-26 14,0 26,12 26,26z"/>
    <path class="fil1" d="M985 940c0,-26 21,-47 47,-47 16,0 29,7 38,18 -8,-14 -24,-24 -41,-24 -27,0 -48,22 -48,48 0,11 4,21 10,29 -4,-7 -6,-15 -6,-24z"/>
    <path class="fil1" d="M1017 1025c8,13 13,21 13,21 0,0 55,-80 55,-111 0,-1 0,-3 0,-4 -2,8 -5,16 -9,24 -11,22 -26,36 -42,53 -6,6 -11,12 -17,17z"/>
   </g>
   <g>
    <path class="fil1" d="M3245 1247c0,30 -55,110 -55,110 0,0 -55,-80 -55,-110 0,-31 25,-55 55,-55 31,0 55,24 55,55z"/>
    <path class="fil2" d="M3216 1244c0,15 -11,26 -26,26 -14,0 -25,-11 -25,-26 0,-14 11,-26 25,-26 15,0 26,12 26,26z"/>
    <path class="fil1" d="M3145 1252c0,-27 21,-48 48,-48 15,0 29,7 38,18 -9,-14 -24,-24 -42,-24 -26,0 -48,22 -48,48 0,11 4,21 10,29 -4,-7 -6,-15 -6,-23z"/>
    <path class="fil1" d="M3177 1336c8,13 13,21 13,21 0,0 55,-80 55,-110 0,-2 0,-3 0,-5 -2,8 -5,17 -9,24 -10,22 -26,36 -42,54 -5,5 -11,11 -17,16z"/>
   </g>
   <g>
    <path class="fil1" d="M2340 527c0,30 -55,111 -55,111 0,0 -55,-81 -55,-111 0,-30 24,-55 55,-55 30,0 55,25 55,55z"/>
    <path class="fil2" d="M2311 525c0,14 -12,26 -26,26 -15,0 -26,-12 -26,-26 0,-15 11,-26 26,-26 14,0 26,11 26,26z"/>
    <path class="fil1" d="M2239 532c0,-26 22,-48 48,-48 15,0 29,7 38,19 -8,-15 -24,-24 -42,-24 -26,0 -47,21 -47,48 0,11 3,21 9,29 -4,-7 -6,-15 -6,-24z"/>
    <path class="fil1" d="M2272 617c7,12 13,21 13,21 0,0 55,-81 55,-111 0,-1 0,-3 0,-5 -3,9 -6,17 -9,25 -11,22 -26,35 -43,53 -5,6 -10,11 -16,17z"/>
   </g>
   <g>
    <path class="fil1" d="M3822 1380c0,30 -55,110 -55,110 0,0 -55,-80 -55,-110 0,-31 24,-55 55,-55 30,0 55,24 55,55z"/>
    <path class="fil2" d="M3793 1377c0,14 -12,26 -26,26 -15,0 -26,-12 -26,-26 0,-14 11,-26 26,-26 14,0 26,12 26,26z"/>
    <path class="fil1" d="M3721 1384c0,-26 21,-47 48,-47 15,0 29,7 38,18 -8,-14 -24,-24 -42,-24 -26,0 -47,22 -47,48 0,11 3,21 9,29 -4,-7 -6,-15 -6,-24z"/>
    <path class="fil1" d="M3754 1469c7,13 13,21 13,21 0,0 55,-80 55,-110 0,-2 0,-4 -1,-5 -2,8 -5,16 -9,24 -10,22 -25,36 -42,53 -5,6 -11,12 -16,17z"/>
   </g>
   <g>
    <path class="fil0" d="M2235 826c6,8 14,12 27,14 3,-15 7,-15 6,-38 -14,0 -30,12 -33,24z"/>
    <path class="fil1" d="M2292 735c0,31 -55,111 -55,111 0,0 -55,-80 -55,-111 0,-30 25,-55 55,-55 30,0 55,25 55,55z"/>
    <path class="fil2" d="M2263 733c0,14 -12,26 -26,26 -14,0 -26,-12 -26,-26 0,-14 12,-26 26,-26 14,0 26,12 26,26z"/>
    <path class="fil1" d="M2191 740c0,-26 22,-48 48,-48 16,0 29,8 38,19 -8,-14 -24,-24 -41,-24 -27,0 -48,22 -48,48 0,11 4,21 10,29 -4,-7 -7,-15 -7,-24z"/>
    <path class="fil1" d="M2224 825c8,12 13,21 13,21 0,0 55,-80 55,-111 0,-1 0,-3 0,-4 -2,8 -5,16 -9,24 -11,22 -26,36 -42,53 -6,6 -11,12 -17,17z"/>
   </g>
   <g>
    <path class="fil0" d="M2884 1299c-10,15 -14,12 -34,12 -6,-1 -16,16 23,10 11,-2 10,-10 11,-22z"/>
    <path class="fil1" d="M2902 1222c0,31 -55,111 -55,111 0,0 -55,-80 -55,-111 0,-30 25,-55 55,-55 31,0 55,25 55,55z"/>
    <path class="fil2" d="M2873 1220c0,14 -11,26 -26,26 -14,0 -26,-12 -26,-26 0,-14 12,-26 26,-26 15,0 26,12 26,26z"/>
    <path class="fil1" d="M2802 1227c0,-26 21,-48 47,-48 16,0 30,8 38,19 -8,-14 -23,-24 -41,-24 -27,0 -48,21 -48,48 0,11 4,21 10,29 -4,-7 -6,-15 -6,-24z"/>
    <path class="fil1" d="M2834 1312c8,12 13,21 13,21 0,0 55,-80 55,-111 0,-1 0,-3 0,-5 -2,9 -5,17 -9,25 -10,22 -26,36 -42,53 -5,6 -11,11 -17,17z"/>
   </g>
   <g>
    <path class="fil1" d="M3491 1363c0,30 -55,111 -55,111 0,0 -55,-81 -55,-111 0,-30 24,-55 55,-55 30,0 55,25 55,55z"/>
    <path class="fil2" d="M3461 1361c0,14 -11,25 -25,25 -15,0 -26,-11 -26,-25 0,-15 11,-26 26,-26 14,0 25,11 25,26z"/>
    <path class="fil1" d="M3390 1368c0,-27 21,-48 48,-48 15,0 29,7 38,19 -9,-15 -24,-24 -42,-24 -26,0 -48,21 -48,48 0,11 4,21 10,29 -4,-7 -6,-15 -6,-24z"/>
    <path class="fil1" d="M3423 1453c7,12 13,21 13,21 0,0 55,-81 55,-111 0,-2 -1,-3 -1,-5 -2,9 -5,17 -9,25 -10,22 -25,35 -42,53 -5,6 -11,11 -16,17z"/>
   </g>
   <path class="fil0" d="M17 464c4,6 16,6 21,9 10,7 9,17 13,21 6,6 14,-3 23,8 4,5 3,4 9,7 18,13 -9,19 -22,18 -14,-2 -18,-11 -27,-13 -7,2 -7,8 -16,13 -5,4 -14,5 -18,10 6,6 11,3 14,12 4,8 4,13 16,12 7,-1 17,-1 23,-3 10,-2 10,-9 17,-10 18,-4 13,37 11,39 -3,7 -10,7 -17,10 -20,6 -16,-4 -21,0 -6,5 -5,11 -9,14 -4,5 -10,6 -13,12 3,6 9,9 12,18 3,10 3,18 10,23 8,5 14,-5 22,-4 12,2 9,12 9,23 9,3 13,-2 20,-1 3,0 6,1 10,2 4,0 7,-1 11,-1 14,0 16,23 10,35 -4,9 -18,15 -27,23 -17,13 -24,13 -28,21 8,-1 17,-7 24,-11 14,-4 23,-12 34,-21 3,-4 6,-6 9,-10 17,-21 32,-10 34,-40 0,-12 3,-9 15,-23l17 -19c5,-5 19,-15 23,-4 3,17 -21,14 -15,42 5,-1 10,-8 15,-12 6,-5 13,-5 17,-11 -1,-6 -4,-6 -1,-12 7,-13 38,7 45,11 12,5 13,4 26,6 10,1 17,4 26,6 -2,-48 0,-106 0,-156l1 -77c-36,0 -33,-7 -64,-8 -11,0 -24,1 -31,-5 -19,-15 -33,3 -60,-14 -10,-6 -19,-1 -30,-1 -16,-2 -4,-12 -24,-3 -9,4 -21,4 -27,9 -6,7 -3,10 -21,13 -13,2 -18,2 -23,12 -6,9 -7,15 -17,20 -12,6 -19,4 -25,8l0 0c0,2 -1,2 -1,2z"/>
   <g>
    <path class="fil1" d="M2244 872c0,31 -55,111 -55,111 0,0 -55,-80 -55,-111 0,-30 24,-55 55,-55 30,0 55,25 55,55z"/>
    <path class="fil2" d="M2214 870c0,14 -11,26 -25,26 -15,0 -26,-12 -26,-26 0,-14 11,-26 26,-26 14,0 25,12 25,26z"/>
    <path class="fil1" d="M2143 877c0,-26 21,-48 48,-48 15,0 29,8 38,19 -9,-14 -24,-24 -42,-24 -26,0 -48,22 -48,48 0,11 4,21 10,29 -4,-7 -6,-15 -6,-24z"/>
    <path class="fil1" d="M2176 962c7,12 13,21 13,21 0,0 55,-80 55,-111 0,-1 0,-3 -1,-4 -2,8 -5,16 -9,24 -10,22 -25,36 -42,53 -5,6 -11,12 -16,17z"/>
   </g>
   <g>
    <path class="fil0" d="M2140 1474c7,-10 -5,-12 -8,-22l-4 2c-2,0 -3,0 -5,1 -3,1 -6,2 -8,4l25 15z"/>
    <path class="fil1" d="M2216 1439c0,30 -55,110 -55,110 0,0 -55,-80 -55,-110 0,-30 25,-55 55,-55 31,0 55,25 55,55z"/>
    <path class="fil2" d="M2187 1436c0,15 -11,26 -26,26 -14,0 -25,-11 -25,-26 0,-14 11,-25 25,-25 15,0 26,11 26,25z"/>
    <path class="fil1" d="M2116 1444c0,-27 21,-48 48,-48 15,0 29,7 37,19 -8,-15 -23,-24 -41,-24 -26,0 -48,21 -48,47 0,11 4,21 10,30 -4,-7 -6,-16 -6,-24z"/>
    <path class="fil1" d="M2148 1528c8,13 13,21 13,21 0,0 55,-80 55,-110 0,-2 0,-3 0,-5 -2,9 -5,17 -9,25 -10,21 -26,35 -42,53 -5,5 -11,11 -17,16z"/>
   </g>
   <g>
    <path class="fil0" d="M2261 1466c6,-10 -5,-12 -8,-22l-4 2c-2,0 -3,0 -5,1 -3,1 -6,2 -8,4l25 15z"/>
    <path class="fil1" d="M2337 1431c0,30 -55,110 -55,110 0,0 -55,-80 -55,-110 0,-30 25,-55 55,-55 31,0 55,25 55,55z"/>
    <path class="fil2" d="M2308 1428c0,15 -11,26 -26,26 -14,0 -26,-11 -26,-26 0,-14 12,-25 26,-25 15,0 26,11 26,25z"/>
    <path class="fil1" d="M2237 1436c0,-27 21,-48 48,-48 15,0 29,7 37,19 -8,-15 -23,-24 -41,-24 -26,0 -48,21 -48,47 0,11 4,21 10,30 -4,-7 -6,-16 -6,-24z"/>
    <path class="fil1" d="M2269 1520c8,13 13,21 13,21 0,0 55,-80 55,-110 0,-2 0,-3 0,-5 -2,9 -5,17 -9,25 -10,21 -26,35 -42,53 -5,5 -11,11 -17,16z"/>
   </g>
   <g>
    <path class="fil0" d="M2627 1574c6,-11 -6,-13 -9,-22l-4 1c-2,0 -3,0 -4,2 -4,1 -6,1 -8,3l25 16z"/>
    <path class="fil1" d="M2703 1538c0,31 -55,111 -55,111 0,0 -55,-80 -55,-111 0,-30 24,-55 55,-55 30,0 55,25 55,55z"/>
    <path class="fil2" d="M2674 1536c0,14 -12,26 -26,26 -15,0 -26,-12 -26,-26 0,-15 11,-26 26,-26 14,0 26,11 26,26z"/>
    <path class="fil1" d="M2602 1543c0,-26 22,-48 48,-48 15,0 29,7 38,19 -8,-14 -24,-24 -42,-24 -26,0 -47,21 -47,48 0,11 3,21 10,29 -5,-7 -7,-15 -7,-24z"/>
    <path class="fil1" d="M2635 1628c7,12 13,21 13,21 0,0 55,-80 55,-111 0,-1 0,-3 0,-5 -3,9 -6,17 -9,25 -11,22 -26,35 -43,53 -5,6 -10,11 -16,17z"/>
   </g>
  </g>
 </g>
</svg>
