<?xml version="1.0" encoding="UTF-8"?>
<!DOCTYPE svg PUBLIC "-//W3C//DTD SVG 1.1//EN" "http://www.w3.org/Graphics/SVG/1.1/DTD/svg11.dtd">
<!-- Creator: CorelDRAW X8 -->
<svg xmlns="http://www.w3.org/2000/svg" xml:space="preserve" width="11in" height="8.5in" version="1.1" style="shape-rendering:geometricPrecision; text-rendering:geometricPrecision; image-rendering:optimizeQuality; fill-rule:evenodd; clip-rule:evenodd"
viewBox="0 0 11000 8500"
 xmlns:xlink="http://www.w3.org/1999/xlink">
 <defs>
  <style type="text/css">
   <![CDATA[
    .str0 {stroke:#FEFEFE;stroke-width:6.94488}
    .fil0 {fill:#D2D3D5}
    .fil1 {fill:#6BBE50}
    .fil2 {fill:white}
   ]]>
  </style>
 </defs>
 <g id="Layer_x0020_1">
  <metadata id="CorelCorpID_0Corel-Layer"/>
  <path class="fil0" d="M6394 2460c8,4 27,11 20,23 -7,7 -20,-2 -28,-4 -17,0 -16,-6 -19,-20 -5,1 -11,8 -14,13 3,10 12,11 7,25 -11,52 23,6 43,35 3,6 4,15 7,22 3,7 9,13 6,21 -13,6 -22,-3 -24,-15 0,-6 -2,-13 -6,-16 -6,-3 -13,0 -16,3 -4,6 6,12 -10,28 -18,18 -30,35 -48,31 -10,-1 -26,-6 -21,-18 10,-9 19,8 37,-16 2,-5 7,-12 9,-18 5,-11 2,-11 -2,-19 -9,-20 2,-36 -5,-48 -4,-8 -4,-15 -1,-23 4,-10 6,-12 4,-24 -7,-9 -32,-6 -38,2 -4,5 -6,12 -10,18 -4,6 -9,10 -13,16 -6,7 -4,11 -6,21 -1,12 2,14 9,20 7,7 21,25 10,37 -13,3 -20,-11 -29,-16 -4,-3 -10,-5 -14,-7 -7,-2 -8,-5 -14,-8 -14,-10 -37,-4 -54,-11 -6,-3 -9,-7 -14,-9 2,14 18,18 21,28 1,8 -3,14 -10,14 -9,0 -13,-6 -20,-4 -6,1 -6,7 -17,7 -31,-4 -40,25 -45,-7 -6,0 -15,2 -22,2 -10,1 -11,1 -17,8 -11,16 -18,12 -28,22 -5,4 -7,8 -15,11 -7,2 -14,1 -19,-1 -26,-10 -2,-29 0,-29 -5,-6 -15,-11 -22,-6 -6,7 -4,20 0,29 6,9 7,17 -3,23 -11,5 -12,-6 -27,3 -8,5 -15,6 -22,12 0,7 14,32 -12,26 -7,-1 -31,-9 -34,-11 4,12 18,12 14,24 -15,6 -45,-9 -48,-24 -3,-15 7,-19 -6,-32 -7,-6 -18,-10 -17,-21 9,-5 16,2 24,7 13,7 49,10 63,6 4,-2 7,-4 11,-6 3,-1 5,-1 6,-4 4,-2 4,-1 6,-6 -5,-8 -17,-15 -27,-19 -26,-12 -29,-23 -62,-28 -27,-2 -20,-15 -27,-19 -4,0 -10,4 -14,4 -10,-1 -4,-7 -16,-3 -7,3 -5,5 -8,14 -7,24 4,18 8,32 2,7 -1,13 -1,20 0,16 7,22 7,39 0,14 -1,28 3,40 3,11 14,20 11,30 -4,15 -34,28 -37,48 8,2 10,0 13,6 0,8 -13,14 -21,15 -3,11 -7,18 -4,32 1,11 7,17 7,30l21 6c19,4 16,21 23,35 4,7 8,12 7,23 47,20 8,30 65,57 15,7 32,3 37,23 3,14 0,28 -12,31 -8,3 -8,0 -9,7 3,6 -3,-3 3,4 4,5 0,11 -3,18 -4,8 -10,13 -11,19 4,4 7,5 11,9 4,3 9,8 13,10 6,3 10,3 16,4 4,1 5,2 7,5l4 8c51,1 35,1 75,27 10,6 13,9 27,8 -5,-19 -21,-22 -27,-47 -3,-9 -5,-23 2,-31 7,-10 14,-8 20,-16 -6,-10 -15,-16 -22,-24 -8,-7 -12,-24 -5,-34 5,-9 18,-15 24,-22 5,-6 7,-8 13,-12 4,-2 11,-5 17,-6 45,-11 40,28 65,16 10,-5 20,-15 34,-10 13,4 19,17 33,7 1,-8 -1,-23 -1,-33 0,-14 4,-18 11,-23 14,-12 30,-16 51,-18 36,-4 56,-18 80,5 27,26 57,-3 77,18 11,12 21,36 30,42 12,10 32,2 51,14 7,5 37,29 42,29l20 -12c30,-16 46,-22 76,-3 7,6 14,5 21,-2 9,-10 0,-17 10,-25 9,-6 14,-9 26,-9 13,2 17,5 22,12 18,18 20,15 49,18 18,3 33,12 51,16 38,7 70,-34 90,-12 4,4 3,6 5,11 15,-6 33,-7 37,-34 6,-23 -17,-38 30,-38 24,0 40,1 51,18 12,14 16,33 28,45 7,6 14,11 18,17 6,6 10,15 16,22 17,21 32,-18 48,2 11,15 -6,37 -16,49 -10,14 -34,17 -25,36l0 3c4,-3 8,-5 14,-4 7,1 6,5 11,9 12,1 42,-41 50,-53 7,-10 14,-18 20,-30 7,-10 19,-19 20,-33 1,-8 -1,-15 0,-24 1,-8 4,-13 7,-19 3,-7 3,-14 3,-23 1,-10 3,-18 -4,-21 -23,-13 -17,-10 -33,-1 -9,3 -11,0 -17,-5 -11,-10 -29,-7 -6,-31l33 -33c17,-14 28,-33 53,-46 21,-12 52,7 84,-8 8,-3 17,-4 24,2 7,7 5,13 21,8 20,-7 19,-20 33,-35 5,-6 10,-11 15,-17 12,-10 36,-15 50,-7 2,9 -1,11 -4,18 7,-1 33,-13 37,-17 3,-3 6,-10 11,-15 3,-4 7,-7 13,-7 10,1 3,13 0,19 -7,11 -6,21 -17,30 -20,13 -43,49 -60,59 -15,8 -17,-3 -27,19 -7,15 -11,11 -14,35 -1,13 0,32 6,40 8,13 8,23 8,42 0,0 0,-1 2,0l22 -31c5,-7 8,-4 13,-13 3,-7 3,-15 9,-19 5,-4 14,-4 18,-9 5,-3 3,-13 7,-19 5,-6 12,-7 9,-17 -6,-15 -3,-7 -3,-24 -3,-2 -6,-3 -8,-6 0,-12 10,-22 15,-30 7,-9 14,-12 26,-19 10,-5 10,1 15,1 10,2 20,-10 35,-9 8,1 10,6 15,7 5,2 43,-29 51,-34 12,-4 19,-6 30,-13 15,-11 22,3 36,-5 -1,-6 -4,-12 -7,-16 -4,-10 -14,-18 -23,-23 -24,-13 -1,-25 13,-17 6,2 7,5 14,4 23,-3 10,-29 26,-29 11,-1 8,12 22,13 13,2 18,1 26,10 6,6 10,10 21,14 15,2 17,-2 23,-13 6,-13 9,-10 22,-15 0,-12 -9,-14 -18,-18 -7,-2 -15,-9 -24,-9 -8,7 -11,17 -20,0 -10,-19 -21,-24 -38,-35 -21,-12 -51,-30 -75,-33 -12,-2 -22,-2 -33,-3 -23,0 -36,-11 -30,7 3,11 -4,22 -16,20 -4,0 -13,-6 -14,-9 -8,-7 -1,-12 0,-19 -13,-4 -13,1 -21,6 -7,4 -16,1 -26,1 -7,0 -21,-1 -28,0 -13,1 -10,10 -23,9 -9,-12 -24,-35 -37,-41 -6,-3 -56,1 -71,-3 -12,-2 -16,-7 -27,-12 -13,-6 -16,-4 -23,-15 -6,-6 -16,-15 -29,-11 -8,2 -14,19 -24,13 -7,-5 -5,-14 -10,-20 -7,-9 -38,-11 -47,-5 -2,2 -4,4 -8,6 -3,2 -7,4 -10,6 3,10 6,17 -6,22 -8,2 -21,1 -28,0 -16,-3 -14,1 -26,3 -14,3 -16,-3 -24,-7 -14,-6 -10,29 -38,13 -8,-3 -15,-9 -18,-14 -9,-12 -2,-16 2,-23 0,-16 -9,-24 -24,-25 -19,-1 -33,-9 -39,-9 -11,30 -18,21 -35,16 -17,-4 -34,1 -49,-12 -21,-19 -39,-1 -64,-4 -11,-2 -17,-9 -30,-1 -11,6 -10,12 -27,13 -10,2 -25,6 -32,0 -3,-16 21,-20 31,-25 6,-2 27,-19 36,-24 7,-6 29,-19 31,-27 1,-16 -23,-16 -34,-24 -17,-13 -30,4 -47,-2 -6,-1 -12,-7 -17,-10 -12,-6 -9,-10 -16,-16 -13,-9 -34,9 -38,16 -6,7 -6,10 -16,14 -9,2 -14,1 -21,7 -17,15 -25,5 -49,7 -8,2 -13,5 -20,9 -7,3 -14,5 -22,6 -9,0 -19,-1 -26,2 -30,17 -7,28 -19,42 -12,17 -58,-2 -71,17 -15,22 15,20 16,36 1,11 -7,14 -16,12 -17,-6 -18,-25 -40,-19l-12 9c-6,5 -2,-1 -5,5z"/>
  <path class="fil0" d="M4158 2555c3,10 4,19 -7,20 -10,-4 -6,-13 -12,-18 -1,-1 -17,-10 -20,-10 -5,13 -1,15 -20,16 -9,0 -29,2 -38,0 -6,-1 -7,-4 -13,-7 -5,-1 -11,0 -17,-2 -11,-3 -10,-16 -23,-16 -4,11 2,10 -8,19 1,9 4,11 0,20 -3,4 -6,8 -13,8 -11,-12 3,-20 -27,-20 -16,0 -33,0 -48,-2 -32,-1 -9,-19 -9,-27 -10,-4 -23,-3 -34,-4 -11,-1 -19,-6 -30,-8 -13,-3 -20,-10 -28,-11 -16,-1 -29,19 -33,2 -1,-3 -1,-7 -1,-10 -8,4 -15,22 -26,13 -6,-6 -10,-24 -19,-27 -5,8 -2,18 -14,22 -7,1 -7,0 -13,4 -22,13 -25,-6 -38,0 -14,7 -16,3 -31,3 1,9 4,6 1,17 -7,4 -10,2 -18,-1 -8,-5 -12,-5 -19,-7 -14,-4 -16,-16 -33,-18 -5,63 -4,161 -2,232 11,3 17,9 25,10 17,1 12,9 19,17 11,4 17,-11 29,-4 6,17 -7,17 -12,23 12,23 21,-10 28,0 3,6 0,17 0,25 10,0 16,-13 21,-6 9,10 -9,24 -4,35 9,6 13,-11 26,-4 11,6 4,19 4,30 9,11 29,17 34,26 5,9 3,18 7,24 5,5 13,8 22,11 7,4 13,7 17,12l23 19c11,10 283,-2 317,-2 14,0 33,-7 41,2 6,5 6,10 13,12 7,2 14,3 21,4 13,4 32,-1 39,-10 7,-7 15,-21 32,-9l25 27c12,21 0,16 25,27 14,5 29,2 37,13 16,25 -10,23 -18,24 -2,5 -5,18 0,22 10,9 21,-11 25,-16 7,-10 20,-10 34,-10 13,0 17,-10 30,-13 19,-3 37,10 50,-12 4,-8 -3,-9 0,-19 6,-17 16,-31 29,-41 21,-17 19,-25 44,-25 25,0 44,14 65,-4 7,-4 14,-19 21,-20 6,-2 10,2 18,0 5,-1 8,-6 14,-8 -7,-12 -9,-4 -2,-20 -10,-2 -17,-10 -24,-10 -8,-2 -18,8 -27,-2 0,-7 3,-9 7,-13 4,-1 13,-1 17,-3 -3,-3 -25,-15 -31,-18 -6,-4 -9,-7 -16,-11 -7,-4 -12,-2 -12,-12 5,-6 8,-2 17,-6 -2,-10 -27,-40 -32,-48 -3,-4 -3,-6 -4,-10 -1,-6 -1,-7 -4,-9 -7,3 -7,21 -14,27 -5,5 -18,15 -26,14 -10,0 -9,-4 -13,-9 -3,-3 -8,-5 -11,-8 -9,-11 3,-34 -7,-36 -12,-4 -13,1 -23,-11 -4,-5 -13,-18 -19,-20 -4,-3 -24,-3 -32,-4 -12,-2 -22,-5 -32,1 5,10 19,15 12,37 -2,3 -3,5 -3,9 -2,5 0,7 -2,12 -2,7 -8,9 -8,15 4,8 14,10 21,17 12,13 6,16 5,31 -2,16 -8,17 -16,24 -14,12 -17,8 -26,14 0,11 6,2 7,21 0,17 16,24 0,42 -4,5 -7,12 -14,12 -6,-2 -27,-29 -30,-35 -5,-11 -4,-17 -4,-31 0,-19 -4,-15 -18,-15 -20,0 -18,0 -30,-9 -9,-7 -19,-8 -26,-15 -4,-4 -4,-8 -10,-10 -4,-2 -11,-4 -16,-5 -5,-2 -8,-6 -14,-5 -7,3 -6,8 -15,5 -5,-13 1,-27 -12,-33 -13,-6 -20,-4 -20,-27 0,-27 3,-32 14,-48 6,-7 9,-13 13,-19 6,-5 12,-10 17,-13 -5,-5 -12,-6 -18,-11 -7,-6 -9,-14 4,-14 13,-2 24,10 27,9 4,-2 7,-7 10,-13 4,0 19,7 29,-18 -5,0 -36,1 -27,-23 8,-2 29,16 38,6 4,-6 0,-15 8,-17 9,-1 13,4 19,5 4,-6 1,-20 11,-15 2,1 3,3 6,6 4,3 9,-1 11,-5 16,-16 2,-16 2,-30 0,-13 14,-17 -2,-29 -10,-6 -14,-12 -31,-8 0,7 7,7 3,15 -3,5 -7,9 -11,12 -6,9 -5,23 -15,29 -8,7 -25,-1 -24,-13 2,-7 4,-8 3,-17 -11,-33 -17,6 -23,9 -13,0 -10,-14 -11,-24 -2,-11 -10,-9 -19,-16l0 -14c-2,-3 -7,-5 -10,-9 -2,-6 -1,-8 -2,-14 -3,-5 -6,-4 -10,-7 -5,-2 -8,-4 -12,-6 -3,3 -1,8 -7,14 -3,5 -7,6 -6,14 0,21 15,11 23,20 4,3 4,9 6,15 4,12 21,22 -17,35z"/>
  <path class="fil0" d="M6880 2990c10,0 31,-9 48,12 4,6 3,15 -3,17 -6,4 -21,-2 -34,6 -10,6 -16,14 -26,20 -14,9 -18,6 -35,6 -19,2 -10,16 -22,26 -8,7 -21,7 -32,12 -12,3 -19,9 -30,13 -33,9 -44,-12 -73,-13 -37,-3 -42,6 -64,-23 -21,-29 -41,-16 -50,-40 -4,-14 -1,-27 -11,-35 -4,-3 -10,-4 -14,-8 -4,-2 -9,-6 -13,-10 -17,5 -18,20 -23,27 -5,12 -21,7 -32,14 -2,11 1,19 -6,25 -6,4 -17,2 -19,10 -4,12 6,31 -14,48 -17,14 -27,28 -50,37 -7,3 -14,4 -20,10 -1,4 10,30 10,30 2,3 7,4 12,9 3,5 5,10 7,15 21,9 20,1 27,28 8,28 -21,50 40,65 14,4 28,19 52,33 3,1 6,2 9,3 6,4 4,5 10,4 28,-9 13,-11 45,-5 13,1 26,-14 35,-20 21,-15 22,18 31,21 1,0 3,0 4,1 6,2 13,10 13,18 3,22 -17,16 11,60 9,13 16,11 22,18 11,-6 31,-20 45,-22 29,-5 19,21 33,35 6,-2 14,-9 20,-10 7,-2 10,4 17,12 4,-2 6,-4 10,-6 4,-3 8,-4 13,-5 7,-4 12,-11 21,-15 9,-2 20,-1 28,-3 9,-4 15,-11 20,-16 6,-7 10,-10 17,-18 10,-12 6,-7 12,-25 6,-14 25,-23 28,-45 -5,-4 -10,-5 -8,-16 1,-13 -5,-10 -2,-23 0,-5 9,-15 -11,-33 -4,-4 -9,-9 -10,-17 0,-9 4,-15 9,-17 11,-8 22,-13 27,-25 -27,-1 -26,12 -36,7 -6,-2 -4,-11 -7,-17 -4,-6 -26,-12 0,-24 6,-2 10,-4 14,-9 6,-4 9,-6 13,-11 4,-4 10,-10 16,-7 11,8 -2,26 -5,36 19,-4 17,-21 46,-17 8,-19 20,-16 35,-28 15,-10 13,-9 30,-16 5,-3 9,-3 12,-4 4,-12 -7,-17 4,-30 4,-6 14,-10 21,-17 6,-6 12,-13 16,-21 4,-8 10,-24 -3,-27 -6,-1 -14,10 -26,10 -14,1 -15,-7 -22,-16 -15,-23 -26,-24 -36,-41 -8,-14 -17,-38 -30,-45 -10,-6 -55,-10 -61,0 -4,5 11,31 -17,55 -17,16 -36,5 -38,37z"/>
  <path class="fil0" d="M4124 3348c-3,-23 3,-27 15,-36 20,-14 29,-28 49,-20 8,3 12,0 18,4 7,4 10,4 14,-4l12 -16c10,-4 34,2 41,8 3,2 10,12 14,10 6,-3 6,-10 19,-2 4,5 8,10 11,15 9,15 -3,19 20,48 3,2 4,6 9,5 2,-21 -9,-39 -12,-50 -3,-8 -7,-25 -7,-34 2,-10 3,-10 7,-15 10,-15 3,-9 19,-23 13,-10 31,-25 41,-39 13,-19 -1,-22 -1,-49 0,-9 0,-13 4,-17 7,1 8,11 11,17 4,-4 3,-5 6,-9 1,-2 6,-6 7,-8 13,-16 -3,-32 36,-37 20,-3 7,-13 14,-29 1,-5 10,-12 14,-16 14,-15 11,5 29,-9 2,-3 4,-4 7,-7 -15,-2 -15,-6 -13,-22 1,-14 -3,-20 -12,-24 -18,18 -15,7 -14,24 0,11 -11,22 -18,25 -19,9 -30,-9 -52,7 -8,6 -5,3 -8,12 -7,20 -19,15 -27,16 -16,1 -13,12 -21,20 -6,5 -22,14 -29,15 -10,1 -10,-4 -14,-6 -7,-5 -7,-3 -13,-9 0,-19 20,-4 14,-30 -4,-2 -11,-2 -14,-8 -1,-6 9,-35 -17,-11 -17,16 -9,35 -17,43 -4,5 -13,10 -19,8 -4,-10 0,-46 3,-58 5,-23 30,-14 36,-24 -6,-4 -14,-5 -23,-6 -8,0 -20,-5 -24,-4 -9,2 -10,8 -21,8 -37,1 -26,-18 -18,-26 -5,-2 -28,-6 -32,-8 -12,-8 -2,-17 -29,-13l-242 8 -89 -1c1,10 1,19 -4,25 -10,5 -18,-47 -70,-55 3,2 1,1 4,4 2,1 2,1 4,2 16,12 36,30 43,50 9,24 -11,41 -3,99 3,14 3,37 7,48l22 33c4,10 14,29 20,35 17,18 37,7 39,26 0,3 0,6 0,8 2,6 2,6 26,2 26,-4 50,18 57,19 44,6 40,-21 65,-7 17,8 19,50 40,36 6,-2 7,-12 16,-8 6,3 16,26 20,33 4,6 8,10 13,15 4,7 5,12 17,12z"/>
  <path class="fil0" d="M4744 3773c-4,-7 7,-12 7,-19 2,-2 2,-2 0,-2 -7,-4 -11,2 -17,4 -6,3 -16,3 -16,-4 -1,-8 17,-17 20,-27 -3,-6 -5,-9 -8,-17 -3,-7 -3,-13 -6,-20 -11,6 -6,12 -13,22 -14,22 -31,0 -42,13 -9,9 -12,7 -19,-1 -13,1 -34,7 -37,-9 -3,-17 9,-32 -10,-38l-4 3c-3,3 -2,3 -6,4 -4,1 -6,2 -10,4 -14,9 -7,8 -20,3 0,11 9,16 5,27 -8,14 -43,34 -52,6 -30,0 -37,-3 -30,32 2,10 18,42 -17,53 -14,5 -22,12 -28,26 -7,19 -3,25 4,41 12,19 23,5 36,18 4,4 7,13 14,12 4,0 13,-7 16,-11 10,-7 25,-17 32,3 6,15 -1,2 7,20 3,7 5,12 15,12 8,1 14,-1 22,4 6,2 12,7 15,12 10,17 -3,23 17,37 11,8 23,13 24,31 1,18 -6,35 3,47 4,4 10,9 14,14 6,6 6,10 10,17 11,15 20,2 21,32 2,39 -21,42 -37,71 7,11 19,13 27,23 5,3 6,9 12,14 1,1 4,5 5,6 3,4 2,5 5,7 4,-6 3,-7 4,-16 1,-8 9,-27 11,-29 6,-4 9,1 13,3l22 -34c1,-4 -2,-17 -2,-26 2,-7 4,-15 7,-20 9,-16 16,-17 33,-22 13,-3 8,-4 16,-13 4,-5 12,-3 20,-5 34,-3 34,-34 46,-63 6,-15 13,-25 13,-45 0,-19 -5,-37 7,-46 12,-9 6,-3 12,-17 3,-10 27,-26 31,-53 1,-8 -1,-18 -4,-25 -3,-8 -6,-11 -14,-12 -27,0 -35,-30 -53,-26 -16,3 -9,0 -20,-4 -13,-2 -31,17 -37,-5 -3,-12 -4,-9 -13,-15 -4,-4 -8,-9 -17,-8 -7,0 -10,8 -16,12 -5,4 -14,5 -18,-1z"/>
  <path class="fil0" d="M6027 3013c12,-4 23,-16 37,-14 16,1 16,25 7,33 -4,4 -14,6 -17,10 -1,2 -5,18 -2,21 0,3 9,12 11,16 4,5 7,11 10,17 4,1 8,0 11,1 7,1 5,4 12,4 24,0 32,12 20,-45 -6,-24 8,-23 25,-21 4,-3 0,-9 6,-14 3,-4 8,-4 14,-3 13,2 16,8 16,25 5,5 5,1 10,11 10,21 34,6 49,19 12,7 9,23 19,29 9,6 26,8 38,7 9,-8 10,-23 22,-28 5,-3 13,-1 20,-1 10,-1 39,-13 61,-7 17,6 11,12 35,10 5,-15 2,-21 5,-35 3,-13 12,-10 22,-15 3,-10 -1,-20 6,-25 7,-5 16,-5 24,-7 13,-5 2,-13 23,-30l4 -4c-10,-8 -22,-14 -32,-21 -19,-16 -19,-10 -43,-13 -17,-4 -21,-14 -29,-27 -31,-52 -37,-18 -72,-30 -27,-8 -23,-18 -36,-20 -11,-4 -84,9 -94,13 -7,4 -12,6 -17,11 -7,7 -7,9 -7,23 2,20 10,39 -15,37 -17,-3 -17,-19 -42,-9 -14,6 -25,18 -39,3 -10,-12 -19,-16 -40,-11 -20,5 -20,13 -33,24 -4,2 -13,8 -16,11 -4,6 -4,18 0,25 5,6 12,7 15,13 2,4 2,4 7,9 2,3 2,3 5,8z"/>
  <path class="fil0" d="M4669 4163c-15,-1 -29,2 -36,-11 -10,-21 11,-20 -4,-35 -19,-16 -39,-13 -44,-26 -3,-7 -3,-13 -6,-18 -13,6 -14,13 -31,2 -9,-3 -10,-2 -16,3 -11,8 -23,21 -27,38 -3,12 -3,28 -7,39 -9,18 -9,7 -13,34 -1,17 -7,16 -6,39 2,13 6,27 5,40 -3,21 -16,51 -20,74 -9,60 1,88 -3,135 -2,15 -9,21 -12,35 -1,6 -1,12 -4,18 -4,12 -8,27 -4,41 7,27 24,12 38,26 -4,38 -1,17 -12,30 1,8 5,8 11,11 4,2 8,6 14,6 6,0 10,-4 17,-4 7,0 13,0 20,0 -6,-9 -20,-14 -27,-23 -4,-6 -6,-10 -10,-16 -3,-5 -7,-8 -6,-18 3,-12 -1,-9 -2,-21 -3,-23 14,-19 18,-30 4,-12 2,-7 9,-15 11,-12 22,-17 11,-30 -7,-9 -24,-13 -14,-30 8,-12 24,-11 28,-21 3,-6 2,-14 6,-20 4,-6 10,-5 14,-10 -3,-2 -3,-2 -6,-3 -1,-1 -2,-1 -5,-3 -16,-7 -4,-30 -3,-31 16,-2 13,10 31,5 -3,-29 6,-40 36,-36 13,2 17,-1 24,-8 23,-26 13,-20 10,-38 -3,-13 -14,-7 -16,-21 -1,-10 2,-10 6,-13 -11,-53 30,-81 36,-95z"/>
  <path class="fil0" d="M5832 3268c-4,3 -5,9 -11,5 -6,-2 0,-2 -7,-2l-26 3c-10,2 -8,3 -15,6 -12,6 -40,-19 -60,-14 -3,49 3,97 1,146 37,-3 74,0 107,-2 11,0 11,-4 27,-8 -11,-28 -4,-21 -23,-53 -4,-7 -8,-15 -14,-23 -3,-5 -4,-7 -7,-12 -3,-4 -6,-6 -3,-13 7,-5 9,2 13,3 6,3 17,-8 23,11 5,18 32,47 42,63 16,21 9,43 25,59 29,33 21,36 34,51 10,-4 11,-7 24,-3 8,4 16,8 28,5 13,-2 23,-15 44,-23 32,-10 49,0 66,-36 7,-13 3,-15 0,-27 -9,1 -51,13 -39,-17 -9,-9 -5,-12 -11,-23 -8,-2 -14,5 -21,-1 -3,-3 -3,-13 -5,-20 -2,-7 -5,-11 -8,-18 -3,-6 -4,-12 -9,-18 -29,-3 -27,20 -58,-6 -14,-11 -26,-25 -44,-34 -10,-5 -23,-3 -26,7 -2,8 3,11 -2,18 -3,4 -8,8 -12,10 -44,24 -16,-24 -33,-34z"/>
  <path class="fil0" d="M6299 3340c-1,17 14,24 13,38 -2,13 -17,13 -33,19 3,2 10,8 13,16 3,11 -4,17 6,23 22,15 20,-17 34,-15 5,12 1,39 7,58 10,40 6,48 23,77 14,25 20,61 30,72 5,-3 12,-19 18,-25 13,-16 7,-8 11,-32 2,-8 3,-12 3,-21 -1,-8 -3,-12 0,-20 5,-15 12,-19 20,-25 6,-6 49,-47 54,-53 5,-6 5,-10 7,-16 10,-15 17,-9 27,-15 0,-11 -2,-17 -2,-30 0,-9 0,-24 -3,-30 -20,5 -44,-18 -60,-24 -20,-7 -47,-15 -37,-46 -17,-11 -27,-20 -21,-42 2,-11 0,-19 -3,-29 -3,-10 -7,-13 -19,-14 3,36 -28,7 -30,26 -2,14 17,12 2,47 -7,15 -30,43 -40,51 -7,6 -14,7 -20,10z"/>
  <path class="fil0" d="M5373 3213c-3,28 13,34 0,46l-30 23c-37,32 -54,14 -57,49 4,2 31,29 38,35 32,25 82,57 106,79 5,6 14,15 21,18 6,-9 93,-64 98,-70 -13,-15 -25,5 -30,-38 -1,-24 -1,-48 2,-72 -9,-4 -10,-12 -14,-21 -3,-8 -9,-15 -12,-24 -10,-24 20,-26 4,-57 -38,0 -37,1 -68,11 -33,9 -11,0 -44,15 -4,3 -10,4 -14,6z"/>
  <path class="fil0" d="M6527 2969c1,1 1,1 1,2 20,19 30,7 34,41 6,33 15,18 39,37 17,14 17,31 44,32 11,2 24,0 35,2 15,2 19,6 29,10 23,11 41,0 58,-8 10,-5 19,-5 29,-8 15,-5 11,-11 17,-23 5,-10 18,-9 30,-9 25,0 31,-19 48,-27 11,-6 27,-1 33,-5 3,-7 -12,-17 -19,-18 -11,-4 -25,7 -31,-2 -4,-10 7,-27 13,-30 -3,-26 -29,-14 -43,-6 -51,24 -60,-3 -101,-8 -27,-2 -31,0 -47,-18 -16,-18 -37,-12 -44,-2 -6,6 0,14 -10,24 -27,23 -30,-20 -73,-6 -12,4 -34,13 -42,22z"/>
  <path class="fil0" d="M5714 3419c0,8 0,22 -1,29 -6,11 -10,0 -11,22 -3,27 -3,33 -15,51 -17,28 -11,30 -3,45 13,22 6,29 33,63 20,22 12,11 29,36 7,9 7,9 20,12 10,3 11,7 17,13 8,10 8,6 20,3 31,-11 22,-10 28,-20 3,-5 4,-5 6,-10 -19,-22 -32,-19 -27,-42 2,-10 17,-31 24,-46l20 -33c3,-6 0,-5 1,-13 3,-34 9,-34 20,-52 -1,-8 -6,-12 -7,-23 -3,-11 -3,-18 -6,-26 -1,-5 -8,-18 -13,-19 -4,-3 -14,6 -19,7 -16,3 -40,1 -57,1 -20,0 -39,1 -59,2z"/>
  <path class="fil0" d="M5549 3819c0,5 3,7 5,12 11,0 35,-1 44,2 11,6 8,13 17,21 15,15 31,-20 51,-3 8,7 8,17 7,31 -1,21 3,18 19,21 10,2 5,7 25,11 7,2 23,4 30,4 1,-7 4,-30 6,-36 3,-10 8,-14 17,-20 -6,-7 -13,-19 -16,-31 -3,-13 -4,-33 4,-41 10,0 10,11 15,18 5,-16 1,-17 -7,-25 -12,-11 1,-16 0,-25 -2,-17 0,-22 8,-32 7,-8 7,-12 13,-24 -10,-12 -16,-16 -27,-20 -19,-4 -17,-15 -26,-24 -11,6 -15,12 -30,15 -14,2 -21,6 -32,9 -12,2 -30,-5 -36,0 -6,6 -8,24 -11,35 -3,13 -7,21 -12,33 -11,34 5,62 -64,69z"/>
  <path class="fil0" d="M3875 3256c4,5 8,11 10,20 2,13 2,14 10,21 31,25 14,21 15,40 13,8 26,9 30,29 3,16 3,8 13,16 6,5 7,10 16,14 -5,-17 -26,-45 -37,-57 -9,-11 -9,-21 -15,-32 -4,-7 -20,-17 -15,-33 4,-10 24,-8 28,5 7,19 2,21 14,34 9,8 16,13 25,23 7,9 2,15 17,30 11,10 38,34 42,49 6,15 -7,26 5,39 4,6 17,17 25,19 13,6 22,6 32,16 14,13 12,7 31,13 18,6 17,5 37,4 15,-3 24,6 31,13 7,-6 17,-8 17,-22 3,-36 44,0 43,-37 -2,-20 1,-20 8,-31 -10,-2 -27,-1 -34,5 -11,9 -5,19 -11,32 -9,19 -13,0 -24,5 -9,4 -19,16 -27,8 -5,-2 -6,-6 -10,-9 -17,-16 -6,-17 -16,-28 -4,-5 -6,-6 -10,-12 -14,-21 -1,-48 -1,-76 -16,1 -17,-8 -32,-26 -7,-9 -14,-28 -22,-34 -6,4 -10,13 -23,10 -19,-3 -17,-34 -33,-39 -24,-9 -7,11 -55,8 -25,0 -26,-26 -84,-17z"/>
  <path class="fil0" d="M6019 3291c25,-1 24,11 35,28 3,5 32,24 40,24 9,1 12,-6 24,-3 10,3 12,9 17,16 6,10 35,16 49,14 1,-2 1,-6 3,-9 3,-10 14,-17 12,-28 -2,-14 -18,-17 -18,-37 0,-11 1,-13 -1,-24 -3,-12 -12,-52 0,-61l8 -5c-37,-43 -24,-22 -51,-38 -19,-11 -6,-12 -29,0 -5,3 -10,2 -15,4 -9,3 -4,9 -10,15 -6,6 -27,8 -34,2l-23 -23c-19,-18 -9,-18 -26,-20 -27,-5 -15,-6 -32,-11 -6,16 -9,12 -5,33 2,6 2,6 6,9 14,10 16,17 13,40 -2,19 14,21 21,32 3,6 4,15 7,22 3,7 6,13 9,20z"/>
  <path class="fil0" d="M5552 3252c-21,28 -30,14 -27,76 2,64 6,45 23,56 6,3 4,4 7,7l27 11c24,2 1,-28 87,31 10,6 20,14 30,19 12,-9 10,-12 10,-37 0,-51 -2,-99 -3,-150l-17 -12c-7,-4 -17,-3 -24,-1 -25,6 -5,33 -28,34 -17,2 -49,-27 -59,-30 -7,-2 -19,-3 -26,-4z"/>
  <path class="fil0" d="M5804 4151c-13,-1 -26,4 -23,-16 3,-12 10,-13 10,-31 -1,-13 -4,-23 -16,-24 -14,-1 -19,4 -28,9 -17,10 -18,31 -38,39 -12,5 -16,-1 -29,9 -15,13 -18,3 -25,0 -3,20 -3,27 -13,39 -14,18 -26,-2 -37,6 3,4 7,12 10,17 3,6 5,12 8,18 9,21 -13,71 44,43 26,-13 22,17 73,-19 23,-16 28,-38 45,-59 5,-5 18,-20 19,-31z"/>
  <path class="fil0" d="M5636 2543c-14,22 -10,4 -24,25l-24 50c-3,8 -3,15 -6,21 -6,19 -18,12 -21,27 -5,20 3,53 -3,75 -7,23 -16,25 0,57 3,6 6,10 7,18 3,9 3,15 8,18 8,-2 6,-8 13,-13 6,-5 12,-3 17,-6 2,-19 -4,-31 7,-45 6,-9 19,-17 19,-32 -14,-9 -19,-14 -16,-44 3,-31 42,-36 53,-65 11,-30 16,-24 33,-25 1,-17 -2,-32 -7,-47 -8,-18 0,-21 -13,-24 -24,-2 -14,10 -43,10z"/>
  <path class="fil0" d="M5238 3525c3,8 5,14 10,20 4,9 4,14 15,15 23,0 17,2 30,31 41,-8 29,-4 43,-29 10,-20 28,-29 48,-33 9,-3 3,-2 7,-5 9,-7 42,1 52,-21 5,-10 8,-31 0,-38 -30,-29 -82,-62 -114,-90 -5,-2 -3,-3 -7,-2 -7,1 -10,6 -9,13 0,14 3,33 6,45 5,20 3,28 3,47 1,16 12,34 -2,37 -15,3 -27,-3 -42,3 -16,6 -22,7 -40,7z"/>
  <path class="fil0" d="M5573 3597l15 14c4,6 7,11 11,18 29,2 80,-50 83,-58 -17,-20 -10,-33 1,-52 13,-23 11,-29 14,-61l-60 -39c-45,-27 -39,-25 -39,24 0,16 0,34 -5,48 -4,15 -12,20 -17,33 -4,12 5,26 9,37 6,16 -10,22 -12,36z"/>
  <path class="fil0" d="M4477 4012l0 -1c12,-18 14,4 12,-28 -1,-17 2,-60 0,-69 0,-5 -5,-9 -8,-12 -14,-18 -13,-5 -30,-14 -7,-2 -14,-18 -17,-27 -6,-12 0,-27 4,-36 13,-24 31,-23 39,-28 5,-3 5,-7 8,-12 -11,-3 -31,3 -41,-3 -6,-4 -16,-21 -20,-28 -10,2 -12,13 -17,20 -7,8 -13,10 -22,16 -12,10 -11,14 -18,19 -3,3 -24,7 -28,7 0,21 5,17 15,27 6,6 12,17 14,27 12,40 16,29 27,58 5,7 8,26 12,31 5,6 18,10 27,13 15,6 37,25 41,41l2 -1z"/>
  <path class="fil0" d="M5453 3467c5,59 -29,57 -50,60l-7 2c0,2 0,1 2,2 2,1 2,2 3,4 7,6 9,18 20,20 20,4 27,-11 41,-12 18,-1 13,8 43,8 17,0 34,-1 51,-1 8,-8 10,-15 15,-29 4,-12 11,-16 15,-27 6,-13 7,-70 6,-88 -19,6 -27,-12 -41,-6l-98 67z"/>
  <path class="fil0" d="M4299 3583c-9,0 -10,-2 -16,2 -3,4 -6,6 -3,13 9,4 10,-1 19,7 4,6 4,10 12,14 25,7 25,15 35,16 4,-4 4,-12 7,-15 4,-4 13,-4 17,-1 5,2 5,9 8,15 3,6 5,6 6,16 7,62 -9,52 -17,69 1,1 0,0 3,3 0,0 0,1 1,1 0,0 2,1 3,2 7,5 13,10 23,11 14,4 20,2 30,13 7,7 14,24 20,28 8,3 30,0 39,0 -2,-12 -9,-31 -8,-46 1,-20 20,-13 36,-17 -2,-7 -8,-20 -8,-27 -1,-11 5,-25 2,-31 -6,-3 -12,0 -17,-1 -7,-2 -9,-5 -13,-8 -10,-6 -23,9 -29,-4 -2,-4 -2,-11 -4,-16 -1,-6 -4,-10 -5,-14 -3,-9 -8,-23 -9,-32 -26,8 -24,23 -30,33 -18,29 -20,0 -30,-5 -5,-2 -18,-4 -24,0 -7,7 -7,11 -20,5 -17,-10 -20,-13 -27,-30l-1 -1z"/>
  <path class="fil0" d="M5993 3633c-24,-13 -34,-8 -52,-32 -8,-11 -9,-18 -6,-35 3,-11 -12,-17 -19,-23 -14,-14 -2,-7 -28,-6 -6,1 -11,2 -17,4 -10,2 -10,-2 -14,7 -6,9 -12,18 -17,29 -10,21 -32,46 -23,60 3,3 8,6 11,8 6,5 7,8 12,12 8,7 15,12 24,18 5,5 18,18 24,20 8,3 17,-11 27,-14 14,-5 17,5 34,-5 11,-7 43,-24 44,-43z"/>
  <path class="fil0" d="M5549 4001c17,0 36,-1 53,-2 20,0 34,10 48,9l22 -1 -5 -54c-2,-23 20,-25 26,-27 4,-3 9,-6 11,-8 -7,-6 -10,-8 -21,-9 -27,-3 -10,-31 -16,-47 -8,-20 -30,2 -42,2 -23,2 -16,-24 -37,-26 -9,-1 -22,0 -32,0 5,13 8,13 13,38 12,56 3,52 -10,82 -7,13 -10,25 -10,43z"/>
  <path class="fil0" d="M5702 2911c8,25 -10,29 -19,48 4,10 4,11 4,23 54,5 42,-13 61,-10 18,4 27,27 33,42 6,-2 7,-8 16,-8 7,-1 11,3 17,6 6,3 13,3 13,11 0,7 -6,9 -5,19 9,1 16,-4 22,-6 0,-12 -9,-22 7,-27 4,-1 10,-1 14,-2 6,-2 9,-4 13,-6 3,-29 26,-4 23,-36 -2,-22 -22,-16 -36,-24 -48,-28 -31,-31 -43,-44 -4,-5 -12,-10 -19,-11 -3,3 -5,7 -8,11 -11,18 -15,22 -35,21 -27,-1 -41,-18 -58,-7z"/>
  <path class="fil0" d="M4495 3912c0,30 -1,64 0,94 3,25 9,23 11,36 5,18 -2,7 10,36 13,-1 17,-17 32,-9 22,12 15,2 32,-3 -1,-21 5,-27 17,-35 20,-12 22,2 40,-2 5,-39 -13,-32 -28,-48 -10,-10 -6,-15 -10,-29 -3,-10 -12,-17 -20,-17 -21,-2 -29,5 -41,-36 -3,-14 -13,-8 -22,-2l-21 15z"/>
  <path class="fil0" d="M5694 2549c3,10 8,12 9,25 0,12 1,22 1,34 6,3 17,9 15,19 -6,19 -26,25 -35,36 -4,6 -12,14 -14,24 0,6 2,30 2,36 1,9 12,14 20,15 7,2 18,-4 25,-6 10,-1 24,0 34,0 3,-7 9,-18 15,-22 22,-28 32,-21 18,-42 -14,-22 -6,-48 -10,-66 -4,-14 -7,-17 -6,-33 3,-20 -2,-12 -7,-25 -5,-11 2,-23 3,-32 -7,1 -14,2 -23,3 -25,3 0,17 -27,27 -5,1 -15,5 -20,7z"/>
  <path class="fil0" d="M5178 3441c1,2 11,24 11,26 5,15 -4,23 -7,33 14,-1 24,-4 34,6 9,9 12,14 32,13 25,-2 17,-5 34,-8 13,-4 28,2 40,-4 0,-5 -3,-10 -5,-16 -4,-20 3,-34 -2,-57 -5,-12 -6,-22 -8,-35 -1,-17 -2,-26 10,-32 -2,-5 -27,-24 -31,-28 -3,21 -10,12 -33,17 -21,5 -7,19 -17,38 -5,10 -15,31 -18,35 -7,7 -27,7 -40,12z"/>
  <path class="fil0" d="M5959 3172c-4,-22 -7,-19 3,-39 -4,-8 -9,-11 -14,-23 -12,0 -17,-2 -26,-6 -8,15 -40,11 -57,7 -20,-4 -27,-25 -53,-13 -8,4 -15,10 -24,13 -4,2 -10,2 -14,3 -6,2 -7,3 -13,6 -24,12 -37,-16 -20,37 6,18 23,35 42,29 20,-6 18,2 27,4 10,3 15,-8 27,-9 17,-3 11,7 28,5 10,-2 21,-2 31,-5 10,-4 15,-7 27,-9 10,-1 26,-1 36,0z"/>
  <path class="fil0" d="M5693 2500c-7,-4 -4,-5 -9,-7 -8,6 -14,19 -29,15 -10,-2 -9,-2 -19,3 -4,2 -11,3 -16,6 0,7 2,6 2,14 -12,6 -27,-6 -31,8 8,2 10,0 15,6 3,9 -11,10 -25,36 -8,16 -17,24 -25,39 -4,6 -7,15 -11,20 -4,6 -11,7 -17,13 -23,28 -67,31 -64,59l10 40c1,3 1,8 3,13 3,11 7,12 17,14 10,3 13,-3 18,-9 20,-22 20,-23 33,-5 1,-15 7,-22 9,-36 2,-25 -8,-67 10,-78 24,-16 4,-9 27,-52 5,-9 15,-40 29,-49 17,-9 5,-14 23,-13 7,1 24,-17 43,-7 7,2 4,7 8,12 6,-3 20,-6 25,-9 8,-6 0,-18 12,-22 17,-8 50,1 52,-18 0,-6 -3,-5 -9,-6 -7,-2 -8,-3 -14,-4 -13,-5 -19,12 -34,14 -9,3 -7,-1 -10,-4 -9,-10 -13,6 -23,7z"/>
  <path class="fil0" d="M6328 3187c-10,13 -2,30 -18,49l-31 36c-6,5 -11,8 -18,13 -23,17 -3,37 -64,30 2,9 12,16 5,30 -4,9 -12,15 -12,27 22,2 48,-9 65,7 4,3 10,13 16,14 5,1 7,-6 20,-8 7,0 11,0 14,-5 5,-13 -27,-38 -4,-48 12,-6 11,-4 19,-13 72,-76 17,-70 35,-96 5,-10 15,-1 25,-5 4,-16 -4,-32 -13,-37 -5,-1 -27,9 -39,6z"/>
  <path class="fil0" d="M5344 2977l-8 1c-2,12 21,10 28,21 6,7 2,8 9,10 13,5 13,9 10,24 -3,11 -3,26 -6,34 7,4 17,11 26,12 11,4 21,1 32,6 18,-43 29,-5 52,-20 -2,-6 -3,-17 -5,-26 0,-13 -4,-13 -5,-22 -5,-18 14,-26 17,-41 0,-10 -4,-17 -10,-18 -7,-3 -12,5 -23,-4 -10,-7 -20,-21 -31,-25 -16,13 8,10 -37,31 -6,3 -7,1 -13,3 -6,1 -3,4 -7,9 -6,6 -19,5 -29,5z"/>
  <path class="fil0" d="M5447 3556c0,17 1,36 -6,48 -4,6 -6,6 -6,18 0,7 2,19 -1,25 30,3 17,3 26,18 7,12 20,11 31,9 10,-3 8,-3 17,2 16,-54 24,-32 40,-42 6,-2 8,-12 11,-17 3,-4 10,-13 10,-15 0,-15 -1,-12 6,-22 4,-7 7,-11 3,-20 -5,-9 -5,-12 -7,-21 -3,5 -6,9 -9,12 -4,6 -6,6 -14,6 -12,-1 -27,0 -37,0 -14,2 -23,0 -34,-4 -15,-8 -19,-2 -30,3z"/>
  <path class="fil0" d="M6187 3303c12,9 44,12 54,-1 8,-10 4,-12 15,-20 25,-21 16,-9 37,-36 33,-39 16,-20 25,-51 4,-15 7,-7 -3,-25 -7,-16 -17,11 -49,11 -11,0 -20,-5 -30,1 -14,7 -21,23 -42,30 -14,5 -14,4 -14,23 0,12 1,21 4,32 6,15 1,21 3,36z"/>
  <path class="fil0" d="M4458 3615c-14,-22 -1,-36 0,-48 -6,0 -18,7 -23,11 5,9 6,23 9,32 3,6 4,9 7,15 3,12 0,16 8,16 3,2 6,-1 9,-1 6,-1 9,-1 13,1 15,10 5,5 23,6 12,2 12,11 10,23 -3,13 -2,17 1,29 4,15 6,42 33,26 27,-14 8,-25 10,-36 0,-3 0,-3 1,-5 10,-7 7,8 19,-1 7,-6 9,-4 18,-9 0,-11 -1,-15 3,-24 4,-9 6,-12 6,-22 -12,-9 -5,-9 -10,-20 -6,-4 -8,-1 -15,-6 -2,-3 -5,-6 -10,-10 -11,0 -14,9 -32,6 -6,-1 -10,-5 -16,-2 -7,1 -4,5 -14,3 -9,-12 1,-18 -24,-22 -3,2 -6,6 -9,9 -3,5 -3,6 -1,12 3,13 -5,18 -16,17z"/>
  <path class="fil0" d="M4478 4262c0,-18 -7,-33 -4,-53 1,-9 4,-12 5,-22 6,-38 10,-23 16,-41 1,-7 1,-17 3,-24 4,-21 10,-25 17,-37 -9,-10 -11,-19 -13,-37 -1,-9 -4,-12 -7,-19 -3,-6 -4,-12 -4,-21 -12,4 -12,11 -12,24 0,63 -4,37 -7,63 -3,12 0,30 0,42 0,42 -10,16 -11,74 -2,56 -6,29 -12,65 -2,13 -4,19 -12,25 -10,8 -3,14 -3,29 3,54 -4,54 -4,72 4,-3 5,-6 12,-5 5,11 -8,66 -12,72 -9,1 -5,-1 -10,-1 -8,12 -2,8 2,18 0,7 -7,12 -10,21 -2,7 -4,18 -1,26 4,3 6,0 11,5 6,9 -12,16 12,28 3,-48 4,-23 10,-51 1,-10 3,-13 5,-21 3,-7 6,-16 6,-24l-1 -83c0,-59 24,-103 24,-125z"/>
  <path class="fil0" d="M5552 4008c0,7 13,29 16,37 14,39 4,77 33,131 18,-9 25,13 39,-8 13,-19 7,-35 5,-49 -8,-24 -9,-33 4,-48 7,-11 4,-41 7,-57 -23,0 -31,-8 -50,-8 -8,0 -48,0 -54,2z"/>
  <path class="fil0" d="M5767 3776c28,21 4,33 10,50 0,4 3,8 4,12 10,26 -4,16 20,35 16,12 10,7 16,6 10,-3 23,11 24,32 33,-5 47,10 57,-14 -7,-16 -7,-19 -10,-40 -3,-29 -9,-15 0,-42 -7,-7 -9,-5 -14,-14 -5,-10 -5,-11 -15,-16 -7,-5 -34,-13 -37,-18 -2,11 -2,18 -12,21 -13,3 -17,3 -25,-4l3 -19c-5,0 -10,1 -14,1 -7,1 -7,1 -7,10z"/>
  <path class="fil0" d="M5492 2877c5,41 -10,39 -10,63 0,11 5,11 10,17 10,9 9,24 0,36 -10,14 -15,13 -5,33 20,-18 27,-9 42,-23 7,-6 12,-9 19,-15 6,-6 11,-9 18,-16 -1,-11 -11,-17 -7,-27 5,-18 30,-12 19,-45 -6,-13 -9,-15 -2,-29 -8,-3 -14,-8 -25,-2 -10,5 -16,7 -22,-4 -17,-28 -4,-27 0,-55 2,-15 -12,-2 -17,2 -25,16 2,21 0,50 -1,17 -5,15 -20,15z"/>
  <path class="fil0" d="M5753 3920c31,3 20,30 15,35 -15,2 -17,-19 -21,-31 -6,-1 -30,-4 -36,-2 -5,1 -8,6 -27,13 -19,7 -8,35 -7,70 44,2 23,3 47,10 3,-4 13,-10 23,-20 7,-8 13,-16 28,-17 6,-15 9,-17 18,-26 10,-11 0,-6 14,-30 7,-11 13,-17 4,-34 0,-1 0,-1 -1,-2 -2,-1 -3,-1 -5,-2l-18 -15c-6,0 -3,3 -7,3 -4,0 -5,-3 -7,-4 -7,6 -13,7 -16,19 -1,5 -4,28 -4,33z"/>
  <path class="fil0" d="M5305 3180c8,0 12,6 21,4 6,-1 4,-3 21,-6 16,-2 13,-6 20,-8 13,-4 10,0 17,-11 7,-8 6,-11 9,-21 1,-9 5,-13 10,-19 13,-24 25,-15 30,-29 -13,-3 -29,-3 -40,-7 -30,-15 -7,-11 -39,-11 -15,0 -39,0 -54,-5 -8,-2 -15,-7 -20,4 0,2 -1,12 -1,14 0,4 -4,6 10,6 8,0 38,-6 18,30 -10,17 -4,38 -2,59z"/>
  <path class="fil0" d="M5841 3918c0,5 0,8 0,12 -1,14 7,15 8,31 2,10 -1,16 -4,22 -13,24 -15,17 -21,-1 -4,-9 -6,-10 -7,-21 -7,-2 -13,-3 -17,-7 -7,7 -15,12 -19,25 23,6 36,12 30,46 -4,31 -6,37 -20,56 16,39 -7,46 -4,64l18 0c-5,-18 -11,-18 9,-26 11,-5 18,-11 20,-27 1,-53 -26,-38 7,-69 8,-9 13,-15 24,-22 9,-5 19,-11 26,-18 8,-8 13,-17 14,-32 0,-13 -1,-35 -4,-45 -9,8 -7,12 -24,11 -13,0 -23,-1 -36,1z"/>
  <path class="fil0" d="M6569 3429c5,10 6,8 12,16 35,42 11,38 18,62 20,7 16,-12 32,-10 5,14 -5,14 10,39 7,-15 -8,-45 1,-71 6,-22 28,-25 38,-37 -20,-10 -24,-23 -34,-42 -7,-14 -3,-19 0,-32 3,-14 -7,-26 -14,-18 -4,3 -6,6 -10,9 -21,15 -14,19 -20,39 -6,20 -27,31 -33,45z"/>
  <path class="fil0" d="M5923 3178c3,29 2,44 -18,53 -10,5 -36,17 -41,25 10,20 18,-2 37,3 37,8 52,59 84,45 8,-3 12,-3 22,-3 2,-4 5,-5 6,-9 -3,-6 -6,-12 -8,-19 -2,-6 -3,-13 -6,-19 -7,-11 -21,-14 -23,-30 -1,-12 9,-30 -8,-41 -12,-7 -30,-5 -45,-5z"/>
  <path class="fil0" d="M5662 4014c-2,12 -2,47 -6,55 -3,6 -6,8 -9,12 -5,11 0,29 5,41 1,7 0,5 3,7 2,3 10,8 12,8 7,0 13,-11 26,-12 34,-4 26,-18 43,-35 5,-6 15,-11 24,-16 -4,-8 -10,-19 -16,-25 -5,-6 -20,-12 -23,-19 -4,-10 3,-7 -8,-12 -21,-12 -33,-5 -51,-4z"/>
  <path class="fil0" d="M6097 3107c1,16 -1,12 -17,20 1,15 11,5 9,39 29,-3 28,-22 45,-8 16,13 21,6 41,24 3,4 6,6 10,11 3,5 6,7 10,12 22,-7 26,-29 51,-33 -2,-19 -35,-22 -48,-43 -6,-8 -6,-15 -14,-18 -13,-4 -12,-1 -19,-13 -10,-17 -37,5 -42,9 -13,4 -16,-2 -26,0z"/>
  <path class="fil0" d="M5679 2954c4,-5 21,-26 20,-35 -3,-7 -9,-9 -7,-20 0,-11 4,-12 4,-25 -17,-14 -26,-16 -47,-16 -6,0 -9,6 -16,3 -7,-4 -5,-12 -30,3 -5,3 -8,5 -14,7 -17,6 -11,12 -6,27 6,18 -1,23 30,37 20,8 2,8 30,12 13,2 23,4 36,7z"/>
  <path class="fil0" d="M5710 2989c-38,0 -28,-4 -37,12 -3,4 -4,7 -7,12 -7,11 3,19 8,25 19,24 8,41 12,79 37,-22 31,-9 47,-12 6,0 13,-1 18,-2 -7,-20 -11,-10 3,-46 2,-7 4,-9 3,-14 -6,-14 -4,-19 -6,-35 -3,-13 -10,-19 -14,-26 -11,5 -13,7 -27,7z"/>
  <path class="fil0" d="M6719 3725c-3,-11 -7,-12 -9,-27 -1,-12 -3,-18 -7,-28 -15,-24 -24,-13 -31,-37 -7,-22 -16,-29 -10,-56 8,-40 14,-17 34,-11 -3,-30 0,-27 37,-36 -13,-51 -16,-41 -36,-36 -25,6 -15,-34 -28,-49 -10,6 -20,10 -23,25 -7,29 6,27 0,66 0,8 10,35 6,68 -1,7 -7,12 -3,19 2,3 9,10 11,14 8,8 10,22 13,34 6,19 7,21 19,31 7,6 18,20 27,23z"/>
  <path class="fil0" d="M5625 3687c8,-5 3,-14 22,-13 15,2 18,3 32,-1 21,-9 32,-4 51,-20 -4,-8 -20,-24 -28,-32 -10,-11 -16,-22 -19,-41 -7,4 -11,11 -17,16 -19,17 -34,33 -60,39 -23,5 -23,17 -21,46 1,6 0,8 6,11 17,10 15,-5 34,-5z"/>
  <path class="fil0" d="M6019 3147c3,10 18,21 24,28 4,3 7,9 14,11 36,7 27,-36 23,-45 -14,-22 0,-18 11,-26 0,-11 -5,-12 -14,-12 -13,0 -8,-10 -25,-30 -6,-7 -10,-8 -6,-20 1,-9 1,-16 7,-20 8,-4 13,-1 17,-10 4,-8 1,-18 -7,-18 -9,0 -48,22 -54,26 -12,10 -4,32 1,43 13,18 32,24 20,58 -3,10 -3,12 -11,15z"/>
  <path class="fil0" d="M6126 3097c7,-4 28,-18 41,-7 5,6 3,11 14,13 24,6 6,19 44,41 17,9 21,10 29,30 7,0 12,1 21,0 0,-8 0,-10 -2,-16 -4,-26 3,-17 8,-42 -12,-2 -25,-3 -32,-9 -8,-9 -7,-22 -15,-29 -13,-10 -37,0 -49,-15 -4,-6 -3,-10 -10,-12 -4,9 -3,20 -17,11 -7,-5 -13,-11 -14,-21 -43,-3 -17,6 -18,56z"/>
  <path class="fil0" d="M5824 3761c10,7 27,11 38,18 16,9 16,23 29,30 10,-39 23,-35 23,-48 -2,-12 -5,-21 -5,-35 2,-15 3,-19 0,-33 -11,3 -14,19 -35,0 -10,-10 -19,-18 -32,-25 -21,21 6,37 -15,82 -3,5 -2,6 -3,11z"/>
  <path class="fil0" d="M5914 3688c4,16 2,19 1,35 -1,13 1,25 3,38l20 -19c25,-28 50,-43 71,-78 4,-8 8,-15 13,-24 10,-15 18,-35 20,-60 -6,3 -8,4 -15,5 -22,5 -15,10 -41,13 -11,1 -23,1 -31,-5 -9,-7 -9,-16 -16,-24 -1,12 0,21 6,28 15,18 20,18 40,25 8,3 18,7 14,18 -9,19 -39,40 -56,46 -10,3 -18,-2 -29,2z"/>
  <path class="fil0" d="M5245 3319c4,12 21,8 35,9 2,-18 7,-25 23,-30 13,-6 23,-9 33,-19 6,-3 10,-7 14,-12 6,-3 10,-7 16,-11 14,-10 -3,-19 1,-42 -8,0 -15,2 -24,0 -9,-1 -17,-7 -23,-4 -10,6 -3,16 -30,32 -5,4 -11,8 -14,14 -13,23 2,42 -31,63z"/>
  <path class="fil0" d="M4198 3001c27,12 34,-10 49,-4 23,9 45,-1 45,21 -16,12 -29,5 -36,19 -4,10 -4,40 -4,52 13,-4 11,-8 13,-22 2,-22 24,-38 32,-38 13,-2 9,14 9,25 10,1 15,5 15,18 -1,14 -10,11 -15,19 4,4 7,2 11,7 4,4 6,5 13,1 38,-13 21,-31 45,-32 2,-1 26,2 23,-16 -10,-1 -25,2 -31,6 -9,8 -9,17 -21,21 -16,3 -20,-5 -17,-22 2,-21 11,-8 24,-17 0,-20 -22,-15 -44,-24 -25,-9 -6,-13 -32,-38 -4,-4 -12,-14 -18,-16 -13,-3 -14,6 -22,12 -15,15 -28,3 -39,28z"/>
  <path class="fil0" d="M4636 4036c-13,1 -20,-6 -30,-3 -6,2 -16,11 -19,16 -2,7 -1,24 0,32 3,14 9,11 19,16 53,23 28,34 31,47 3,15 19,13 37,13 9,-11 12,-17 12,-36 -2,-23 -10,-12 -19,-26 -3,-4 -6,-10 -8,-15 -10,-13 -25,-13 -23,-44z"/>
  <path class="fil0" d="M5492 3060c9,-9 22,-17 35,-4 8,10 7,19 21,33 8,7 21,13 31,20 14,11 14,28 23,32 3,-27 10,-14 14,-26 -47,-22 -41,-32 -48,-46 -6,-8 -13,-13 -13,-28 -1,-23 16,-20 28,-3 6,7 10,16 18,22 0,-13 -2,-18 7,-24 8,-5 14,-4 20,-11 -10,-6 -22,-8 -26,-19 -14,7 -13,6 -30,3 -13,-2 -20,-4 -31,-8 -16,20 -44,17 -51,34 -3,4 0,20 2,25z"/>
  <path class="fil0" d="M5697 2904c9,1 16,-5 27,-3 7,3 13,8 23,9 6,1 20,3 26,1 8,-2 11,-8 17,-16 17,-24 7,-21 -2,-44 -8,-21 5,-20 -35,-29 -6,10 -7,12 -14,20 -16,15 -3,3 -19,15 -4,5 -16,13 -17,18 -1,4 -7,25 -6,29z"/>
  <path class="fil0" d="M5941 3494c2,8 5,12 5,24 0,9 -1,20 3,27 6,10 10,6 19,3 15,-4 15,2 45,-13 6,-4 11,-9 19,-12 20,-10 12,1 37,-22 -2,-14 -5,-22 -8,-34 -54,8 -55,40 -91,28 -15,-5 -14,-10 -29,-1z"/>
  <path class="fil0" d="M6710 3416c2,24 17,15 22,29 5,16 -10,27 -13,39 11,9 8,12 14,27 6,16 3,18 20,21 10,3 18,11 17,24 -1,9 -13,17 -18,23 1,6 1,5 4,10 1,1 1,1 1,2l3 4c6,-4 11,-8 17,-12 7,-6 9,-9 9,-22 1,-22 4,-37 -12,-47 -7,-5 -8,-9 -14,-15 -10,-11 -24,-17 -16,-41 3,-9 8,-12 13,-18 -3,-5 -5,-9 -7,-15 -1,-6 -3,-13 -7,-16 -11,-7 -24,4 -33,7z"/>
  <path class="fil0" d="M5766 4073c10,1 12,1 21,5 6,-11 10,-11 14,-28 2,-9 4,-24 6,-35 1,-31 -32,-33 -44,-26 -7,4 -15,13 -20,19 -7,5 -23,12 -14,22 10,11 21,7 37,43z"/>
  <path class="fil0" d="M5512 3680l6 6c7,7 10,9 9,24l71 -8c-6,-4 -13,-3 -16,-9 -3,-6 -3,-17 -3,-24 -3,-22 3,-28 14,-37 -2,-9 -12,-21 -20,-24 -11,12 -11,31 -31,35 -18,2 -17,3 -30,37z"/>
  <path class="fil0" d="M6067 3466c2,6 3,10 4,16 2,5 2,11 3,15 3,2 10,-1 15,-2 7,-4 7,-6 11,-11 7,-8 20,-6 24,-17 6,-13 2,-14 17,-27 27,-24 21,-23 10,-35 -6,-5 -6,-8 -11,-11 -6,-3 -12,-3 -16,-7 -6,-6 -4,-12 -8,-17 -5,3 -6,6 -8,14 0,7 -2,13 -2,15 -2,10 8,17 1,32 -9,20 -18,30 -40,35z"/>
  <path class="fil0" d="M6303 3109c9,2 13,1 19,6 8,6 7,19 27,23 6,1 6,0 8,-3 16,-10 17,2 54,-33 5,-4 10,-7 15,-12 -24,1 -24,-19 -69,-10 -5,1 -10,4 -15,5 -7,2 -13,0 -20,1 -6,0 -10,4 -13,9 -3,6 -6,12 -6,14z"/>
  <path class="fil0" d="M5175 3434c39,-5 40,-6 47,-25 3,-7 4,-10 9,-16 8,-17 -2,-30 10,-38 11,-9 29,-4 38,-10 3,-14 -1,-9 -20,-11 -10,-1 -13,-4 -20,-10 -14,7 -44,58 -55,75 -10,13 -13,16 -9,35z"/>
  <path class="fil0" d="M5319 3673c11,-5 18,-8 33,-4 0,-12 -3,-22 0,-32 4,-10 11,-12 7,-26 -5,-10 -5,-2 -25,-6 -19,-3 -5,-15 -32,-9 -12,2 -7,11 -12,25 -1,6 -4,6 -3,12 13,40 10,24 23,31 5,3 6,6 9,9z"/>
  <path class="fil0" d="M5573 3712c2,26 16,44 8,59 -6,11 -15,5 -23,11 -4,2 -13,16 -16,20l4 11c9,0 30,-6 37,-9 15,-6 16,-13 19,-32 6,-32 17,-40 21,-78 -24,1 -8,18 -50,18z"/>
  <path class="fil0" d="M5539 3796c5,-6 10,-17 15,-19 7,-6 17,-1 22,-10 6,-11 -8,-30 -8,-55 -13,0 -23,1 -36,4 -8,1 -7,1 -10,9 -1,6 -3,11 -4,18 -6,29 -7,22 13,42 3,4 4,7 8,11z"/>
  <path class="fil0" d="M6998 3137c8,14 -3,16 -3,29 15,5 24,-1 24,24 0,11 -3,21 -1,33 5,0 10,-5 14,-7 7,-5 10,-4 17,-6 4,-10 1,-33 -6,-40 -7,-8 -18,-14 -18,-33 8,-5 18,-10 22,-17 5,-6 13,-19 16,-25 -14,3 -23,12 -34,19 -6,3 -13,5 -19,8 -7,5 -7,8 -12,15z"/>
  <path class="fil0" d="M5202 3589l13 15c14,0 28,-8 40,1 4,5 20,21 27,21 4,-5 4,-10 5,-18 2,-11 5,-10 -1,-18 -8,-16 -1,-24 -23,-24 -10,0 -10,-4 -17,-4 -4,0 -20,-1 -23,0 -5,1 -8,6 -11,13 -3,10 -4,8 -10,14z"/>
  <path class="fil0" d="M6279 3172c16,-3 31,-24 41,-6 5,9 5,16 16,15 9,0 19,-3 24,-6 0,-5 -8,-25 -10,-30 -5,-3 -11,-4 -15,-7 -20,-11 2,-23 -49,-22 0,12 -4,17 -7,25 -3,5 2,22 0,31z"/>
  <path class="fil0" d="M5324 3591c3,4 5,7 12,8 4,2 14,2 17,-1l3 -5c5,-10 5,-18 33,-13 22,4 25,-8 37,-17l-5 -2c-1,0 -1,0 -3,-1 -4,-1 -5,-3 -8,-4 -12,-11 -9,-32 -43,-15 -11,6 -18,12 -24,20 -10,14 -4,16 -19,30z"/>
  <path class="fil0" d="M4339 3810c7,-1 24,-4 27,-8 7,-7 7,-11 17,-18 32,-22 15,-16 31,-31l4 -4c-6,-2 -10,-3 -15,-5 -29,-6 -26,-13 -40,-19 -6,11 -10,21 -16,31 -13,18 6,20 6,34 -6,8 -14,4 -14,20z"/>
  <path class="fil0" d="M6737 3620l17 -22c-4,-8 -11,-14 -5,-24 3,-6 14,-11 15,-19 2,-12 -8,-16 -17,-17 -4,-1 -8,-3 -11,-2 -4,1 -9,3 -13,5 -24,6 -23,0 -21,26 0,7 1,8 4,13 11,17 26,7 28,31 0,2 2,3 2,4l1 5z"/>
  <path class="fil0" d="M5606 3065c3,3 14,9 26,20 14,13 8,18 14,34 16,34 30,25 31,38 2,7 -3,13 -3,20 6,0 9,-3 12,-8 4,-6 7,-5 11,-11 -1,-2 -15,-18 -17,-28 -1,-5 0,-5 2,-11 -26,-4 -22,-15 -33,-34 -6,-7 -10,-11 -12,-23 -1,-13 -1,-19 -5,-31 -4,1 -4,4 -9,5 -17,8 -18,2 -17,29z"/>
  <path class="fil0" d="M4502 2983c4,6 10,10 12,17 2,9 -3,18 0,27 4,2 17,5 19,4 9,-2 10,-11 17,-8 9,1 10,9 6,15 -6,6 -11,5 -13,17 9,-5 16,-14 35,-17 8,-1 14,0 18,-6l11 -17c-11,3 -21,27 -39,11 -19,-15 -15,-18 -16,-31 -2,-7 -3,-6 -7,-8 -2,-16 14,-30 -14,-21 -13,5 -23,7 -29,17z"/>
  <path class="fil0" d="M5357 3671c14,5 10,9 22,-2 5,-6 14,-7 19,-14 0,-24 -4,-45 0,-68 -19,0 -32,-9 -37,10 -2,8 0,5 3,12 5,14 -3,19 -5,28 -5,9 -3,24 -2,34z"/>
  <path class="fil0" d="M5857 3193c1,23 -6,29 -12,43 13,6 9,7 16,14 53,-38 60,-16 57,-70 -10,2 -16,7 -27,9 -12,1 -23,3 -34,4z"/>
  <path class="fil0" d="M4650 4452c-8,16 -17,24 -11,55 0,7 0,8 5,11 13,5 26,9 37,2 6,-2 15,-13 16,-18 1,-8 -10,-14 -13,-19 -7,-9 -7,-11 -17,-18 -7,-3 -13,-9 -17,-13z"/>
  <path class="fil0" d="M6551 3354c3,14 14,9 23,16 3,3 5,11 11,20l6 6c1,-6 5,-9 7,-17 1,-7 1,-15 4,-22 4,-12 17,-17 26,-25 -2,-8 -7,-22 -14,-23 -10,-1 -19,13 -32,21 -8,4 -5,0 -11,7 -13,14 -13,11 -20,17z"/>
  <path class="fil0" d="M6019 3927c-7,3 -6,3 -9,11 -3,6 -5,6 -10,10 -7,13 2,16 -17,22 -17,5 -41,-5 -37,41 2,14 12,20 9,28 -2,8 -12,17 -14,27 -6,13 -2,19 2,31 5,12 20,52 36,35 4,-5 11,-18 14,-25 9,-20 13,-40 20,-60 11,-30 2,-30 13,-50 4,-7 1,-7 4,-16 2,-14 10,-10 3,-31 -3,-9 -4,-28 -14,-23z"/>
  <path class="fil0" d="M4652 3713c0,-11 -9,-17 -9,-29 -1,-8 4,-19 6,-28 -6,-6 -12,-7 -19,-15 -7,-7 -7,-14 -20,-13 -3,28 -10,25 -8,40 18,8 20,9 17,34 -2,11 0,16 10,16 7,-1 17,-1 23,-5z"/>
  <path class="fil0" d="M7076 3231c10,7 28,-7 47,-3 3,8 1,20 14,14 6,-2 13,-8 20,-11 16,-8 28,-9 38,-23 13,-16 6,-33 15,-51 4,-10 5,-10 4,-25 -1,-10 1,-23 -10,-22 -21,4 -16,24 -21,42 -9,23 -23,26 -33,31 -10,5 -10,12 -14,16 -3,2 -20,2 -27,3 -12,4 -34,14 -33,29z"/>
  <path class="fil0" d="M5219 3609c2,6 13,24 16,28 4,4 17,9 24,15 14,12 27,31 54,25 -6,-15 -16,-3 -23,-19 -1,-3 -3,-12 -5,-17 -3,-9 -3,-7 -10,-10 -7,-5 -16,-14 -22,-20 -11,-8 -20,-2 -34,-2z"/>
  <path class="fil0" d="M5636 3024c1,8 6,13 6,27 1,12 1,17 8,26 16,21 12,34 30,34l0 -38c0,-23 -7,-25 -15,-37 -9,-12 -5,-13 -10,-16 -8,-5 -15,0 -19,4z"/>
  <path class="fil0" d="M5667 2821c2,18 2,19 -5,33 18,0 27,6 38,15 6,-7 11,-13 20,-19 9,-6 14,-11 19,-19 -6,-1 -12,-3 -16,-5 -31,-16 -23,-6 -56,-5z"/>
  <path class="fil0" d="M5404 3651c9,-4 16,-5 26,-5 -4,-47 10,-36 11,-61 0,-8 0,-17 0,-25 -13,1 -13,12 -27,21 -10,9 -14,5 -11,36 1,12 0,23 1,34z"/>
  <path class="fil0" d="M5178 3507c-4,16 -4,24 4,37 17,-1 14,-1 30,6 10,6 20,6 34,6 -4,-7 -7,-12 -10,-20 -8,-17 -3,-7 -14,-17 -6,-4 -8,-11 -17,-13 -9,-3 -19,0 -27,1z"/>
  <path class="fil0" d="M5771 3750c0,16 6,8 19,9 5,-9 4,-12 13,-18 9,-7 14,-9 22,-1 5,-27 6,-22 2,-50 -7,2 -13,5 -20,8 -27,9 -12,13 -27,31 -6,6 -9,9 -9,21z"/>
  <path class="fil0" d="M6675 3441c5,13 8,36 14,47 10,0 14,-4 24,-5 3,-10 17,-25 14,-35 -3,-7 -10,-7 -14,-11 -6,-4 -6,-10 -8,-16 -10,4 -22,13 -30,20z"/>
  <path class="fil0" d="M5522 3277l23 -28c-4,-5 -17,-11 -17,-27 1,-10 4,-9 1,-20 -5,-22 -1,-18 -22,-21 1,8 4,17 1,27 -3,10 -10,14 -9,24 0,2 19,41 23,45z"/>
  <path class="fil0" d="M6532 3358c2,11 2,18 3,32l5 29c9,-2 12,-10 24,-10 3,3 3,6 5,9 5,-6 10,-11 16,-18 -1,-2 -13,-24 -17,-26 -11,-6 -17,-2 -23,-18l-13 2z"/>
  <path class="fil0" d="M4654 3657c-1,10 -5,18 -5,26 0,7 5,16 7,23 3,8 -3,25 8,12 7,-8 13,-7 23,-5l1 -51c-11,-3 -21,-4 -34,-5z"/>
  <path class="fil0" d="M6525 3355c-4,-24 -20,-23 -41,-36 -7,-5 -14,-11 -21,-17 -5,-1 -26,-10 -27,-7 -5,5 -3,18 8,26 10,6 17,6 27,11 17,7 32,24 54,23z"/>
  <path class="fil0" d="M7627 4472c9,-28 -26,-23 -26,-22 -7,3 -7,11 -10,18 -6,26 -27,24 -40,36 -6,5 -23,22 -24,29 -1,11 4,13 11,16 17,9 26,14 47,-13 19,-23 5,-24 20,-33 9,-5 17,-21 22,-31z"/>
  <path class="fil0" d="M5299 3178c0,-14 -4,-32 -2,-46 3,-15 15,-21 9,-35l-28 0c0,8 1,18 1,28 -1,10 -7,13 -4,21 10,23 -6,34 24,32z"/>
  <path class="fil0" d="M5666 2815c13,-1 30,-6 43,-2 10,2 25,14 35,12 6,-9 2,-34 -7,-36 -1,-1 -3,-1 -4,-1l-30 0c1,6 1,12 -4,14 -6,2 -10,-4 -13,-6 -10,-7 -20,10 -20,19z"/>
  <path class="fil0" d="M5955 3110c7,25 42,28 51,31 7,1 7,4 11,0 7,-4 10,-14 12,-25 -29,0 -27,-11 -36,-12 -4,0 -30,6 -38,6z"/>
  <path class="fil0" d="M5572 2967c-7,17 4,5 -18,23 0,0 -2,1 -3,3l-5 4c10,3 22,5 33,6 16,3 19,-3 26,-12 18,-19 1,-28 -14,-25 -8,1 -12,1 -19,1z"/>
  <path class="fil0" d="M5616 2987c-3,7 -8,9 -10,14 3,8 17,16 24,19 9,-5 7,-12 29,-6 4,-8 13,-18 14,-29 -34,-13 -34,14 -57,2z"/>
  <path class="fil0" d="M4193 3524c5,5 7,9 15,11 2,1 7,1 11,2 4,1 6,2 10,4 1,-5 3,-8 4,-12 4,-27 9,-11 9,-26 -2,-6 -2,-12 -2,-18 -5,-1 -12,0 -18,2 -9,1 -9,2 -10,12 -2,18 -10,14 -19,25z"/>
  <path class="fil0" d="M7645 4459c10,-5 14,-16 19,-27 4,-13 19,-16 17,-27 -8,-3 -16,2 -23,-3 -4,-4 -4,-13 -10,-16 -4,3 -6,14 -10,20 -4,6 -10,8 -10,18 7,4 16,0 18,10 2,7 -2,14 -1,25z"/>
  <path class="fil0" d="M4245 3515c-6,5 -5,5 -6,15 -2,7 -3,8 -6,14 24,4 19,9 34,-6 13,-9 26,-7 36,-13 -10,-6 -10,-14 -27,-18 -16,-2 -13,12 -31,8z"/>
  <path class="fil0" d="M7217 2916c0,20 -2,31 -2,50 0,12 2,37 15,34 5,-3 7,-11 7,-18 0,-18 -2,-9 10,-15 5,-16 -9,-31 -9,-58 0,-12 4,-39 -13,-33 -11,4 -8,27 -8,40z"/>
  <path class="fil0" d="M5569 2961c12,2 16,-1 26,-2 11,-1 15,5 21,8 3,-2 9,-9 9,-13 -2,-13 -23,-12 -39,-31 -13,14 -1,2 -17,17 -7,7 -7,12 0,21z"/>
  <path class="fil0" d="M4257 3554c5,12 10,11 20,26l2 1c10,-7 7,-4 23,-6 0,-10 0,-14 0,-25 0,-11 4,-13 7,-19 -20,6 -33,5 -52,23z"/>
  <path class="fil0" d="M5834 3262c14,8 10,26 10,33 1,7 0,3 3,6 4,2 14,-4 18,-6 12,-7 7,-7 7,-23 -8,-6 -10,-4 -15,-14 -3,-8 -8,-15 -15,-16 -4,4 -7,14 -8,20z"/>
  <path class="fil0" d="M5682 2982c2,-15 -3,-23 -16,-24 -10,-3 -24,-5 -36,-6 -1,5 0,7 -2,12 -3,3 -6,3 -8,8 -7,12 9,12 15,9 35,-14 35,2 47,1z"/>
  <path class="fil0" d="M5904 3529l-25 -46c-17,14 -24,52 -14,52l39 -6z"/>
  <path class="fil0" d="M7267 3065c-8,-10 -22,-2 -40,-21 -5,-5 -5,-8 -13,-8 -9,11 -1,24 -11,39 -15,18 -12,32 2,23 10,-6 9,-2 20,-2 7,0 12,-4 17,-7 9,-5 29,-11 25,-24z"/>
  <path class="fil0" d="M5700 2783c14,-4 26,-3 40,-1 -1,-12 1,-18 3,-29 -12,0 -24,0 -34,3 -16,6 -13,14 -9,27z"/>
  <path class="fil0" d="M5925 3099c21,6 37,6 60,-1 -23,-18 -26,-18 -60,-18l0 19z"/>
  <path class="fil0" d="M7241 4460c0,2 7,14 8,20 2,9 3,16 8,21 14,17 39,-21 38,-39 -1,-20 -17,-8 -26,-10 -4,0 -29,-8 -28,8z"/>
  <path class="fil0" d="M5438 2925c5,5 13,11 17,16 6,6 12,12 23,11 0,-6 -1,-7 -1,-13 0,-5 3,-11 1,-14 -6,-7 -18,-6 -25,-15 -8,12 -9,11 -15,15z"/>
  <path class="fil0" d="M7106 3231c-6,1 -10,6 -17,9 -12,2 -34,-4 -26,19 3,7 3,17 10,18 6,0 41,-31 43,-35 4,-8 -3,-14 -10,-11z"/>
  <path class="fil0" d="M5455 2904c6,8 15,12 27,14 3,-15 8,-15 6,-38 -14,0 -30,12 -33,24z"/>
  <path class="fil0" d="M5761 3038c6,-6 12,-13 17,-18 -2,-7 -8,-20 -12,-26 -5,-7 -12,-16 -23,-16 1,6 4,6 7,12 3,4 4,9 6,13 1,9 1,18 2,27l3 8z"/>
  <path class="fil0" d="M5793 3783c4,1 18,1 22,-11 3,-8 6,-22 5,-30 -15,-4 -29,17 -27,41z"/>
  <path class="fil0" d="M4693 3714c20,0 13,-18 24,-30l-6 -4c-1,-3 -3,-4 -5,-5 -5,-4 -8,-7 -12,-8l-1 47z"/>
  <path class="fil0" d="M5830 3947c10,-11 5,-45 1,-54 -3,-3 -17,-17 -13,1 4,12 9,16 4,29 -2,7 5,21 8,24z"/>
  <path class="fil0" d="M5184 3551c1,18 7,21 12,32 8,-2 9,-4 12,-10 3,-7 3,-8 7,-13 -9,-7 -19,-12 -31,-9z"/>
  <path class="fil0" d="M6168 3059c6,-20 7,-39 -17,-34 -8,13 3,32 17,34z"/>
  <path class="fil0" d="M5825 3953c-3,10 -3,11 0,20 3,6 6,12 9,18 7,-7 15,-28 4,-45 -4,8 -6,7 -13,7z"/>
  <path class="fil0" d="M6525 3337c2,5 5,11 6,14 10,1 23,-5 30,-12 3,-2 3,-5 6,-7 -12,-6 -33,-1 -42,5z"/>
  <path class="fil0" d="M5780 3864c1,-14 -5,-24 -9,-34 -4,-12 -4,-24 -11,-33 -3,5 -3,13 -2,21 0,7 2,14 5,19 1,6 11,25 17,27z"/>
  <path class="fil0" d="M7615 4536c-7,8 10,39 20,26 9,-9 -3,-23 -8,-26 -8,-5 -9,-4 -12,0z"/>
  <path class="fil0" d="M6104 3378c-10,14 -14,12 -34,12 -6,-2 -16,15 23,9 11,-2 10,-9 11,-21z"/>
  <path class="fil0" d="M5818 3954c4,-8 3,-10 0,-18 -6,-10 -1,-10 0,-21 -1,2 -31,38 0,39z"/>
  <path class="fil0" d="M5766 3950c4,-21 0,-22 -12,-24 0,6 2,9 3,14 3,5 4,8 9,10z"/>
  <path class="fil0" d="M7671 4407c-5,1 -10,1 -15,-2l0 0 0 0c-2,-3 -3,-6 -4,-9 -1,-2 -2,-5 -4,-6 -1,1 -2,4 -3,7 -1,4 -3,8 -5,11 -1,2 -3,3 -4,5 -2,2 -5,5 -5,9 1,1 3,1 5,1 5,1 11,2 13,10l0 0c1,4 0,8 -1,12 0,3 -1,6 -1,9 7,-5 11,-14 14,-23 2,-6 7,-11 11,-14 3,-4 6,-6 6,-10 -2,0 -4,0 -7,0zm-12 -7c4,2 8,2 12,2 3,-1 7,-1 10,0l2 1 0 1c2,8 -2,12 -8,17 -3,3 -7,7 -9,12l0 1c-5,11 -9,22 -20,28l-3 1 -1 -4c0,-6 1,-11 1,-15 1,-4 1,-7 1,-10 -1,-4 -5,-4 -9,-5 -2,0 -5,-1 -8,-2l-2 -1 0 -2c0,-8 4,-12 7,-16 2,-1 3,-2 4,-4 2,-2 3,-6 4,-9 2,-5 3,-9 6,-12l2 -1 1 1c4,3 6,7 7,11 1,2 2,4 3,6l0 0z"/>
  <path class="fil0" d="M7137 3951c-2,4 -2,9 -2,13 2,7 5,13 7,16 2,3 4,3 6,4 3,0 5,1 8,2l0 1c2,2 3,3 4,5 1,1 2,2 6,2 13,0 15,5 18,10 1,2 2,4 5,5 3,-3 4,-6 6,-10 1,-3 3,-7 5,-10l2 -3c3,-7 6,-12 5,-23 -3,-28 -2,-43 0,-50 2,-4 4,-6 7,-6 2,0 4,2 6,5 5,6 11,19 12,30l1 3c1,9 1,15 10,17l0 0c14,3 14,4 15,14 1,3 1,5 1,9l0 0c1,3 2,4 3,6 4,4 8,9 6,32 0,5 1,6 2,6 1,1 3,0 4,0 5,0 9,-1 13,3 2,2 3,5 5,8 1,4 3,7 5,9l0 0 0 1c1,1 3,3 4,4 3,2 5,4 8,9 4,5 5,9 6,13 0,2 0,4 3,5l0 0 0 0c1,1 2,1 2,2 2,0 3,1 6,3l0 1c3,4 2,6 2,9 0,1 0,3 8,8l0 0c3,2 7,7 11,12 3,6 6,12 6,16l0 0c2,11 5,17 7,22 6,9 10,16 3,49 0,3 -1,6 -1,9 -2,15 -5,30 -13,36 -14,13 -14,18 -14,23 0,5 0,9 -3,15 -2,3 -4,4 -6,6 -2,2 -4,4 -5,11 -1,3 -1,7 -1,11 1,7 1,13 -1,17l0 1c-4,5 -10,5 -15,5 -3,1 -6,1 -8,2l0 0c-5,1 -8,4 -10,6 -2,2 -3,3 -5,5l0 0c-19,14 -26,2 -33,-11l-1 0c-1,2 -2,4 -3,5 -4,6 -7,12 -14,12l-1 0c-4,-1 -6,-2 -8,-4 -2,-2 -5,-5 -17,-5 -3,0 -6,0 -8,-1 -2,-1 -4,-2 -7,-4l0 0c-14,-15 -14,-17 -13,-23 0,-3 1,-8 -1,-17 -2,-1 -4,-1 -6,-2 -6,-1 -9,-1 -10,-13l-9 -3 0 -2c-1,-4 -1,-7 0,-10 -2,3 -3,3 -5,3 -1,0 -2,0 -9,7l0 0c-7,7 -12,5 -15,1 -3,-3 -5,-9 -6,-13 -1,-2 -1,-4 -2,-5 -5,-7 -5,-12 -5,-15 0,-3 0,-4 -19,-5 -4,0 -8,-2 -13,-4 -10,-4 -23,-10 -36,-2l-4 2c-6,4 -9,6 -11,7 -2,0 -4,0 -6,-1 -3,0 -7,-1 -14,-1 -3,0 -6,2 -10,5 -6,4 -11,9 -14,11 -4,5 -8,9 -13,11 -4,2 -10,3 -17,5l0 0c-2,0 -4,0 -5,0 -5,0 -9,0 -15,-2l-2 -1c-3,-1 -6,-2 -9,1 -2,1 -4,3 -5,4 -7,7 -13,13 -26,12 -5,0 -10,-2 -15,-5 -5,-2 -10,-6 -13,-9l-1 -1 0 -1c-1,-10 0,-12 2,-15 1,-2 2,-3 2,-6l0 0c1,-4 0,-9 -1,-13 0,-3 0,-6 0,-9 -2,-10 -5,-15 -7,-20 -2,-4 -4,-8 -6,-14 -3,-7 -6,-16 -9,-24 -1,-3 -3,-9 -4,-12 -1,-6 -2,-10 -3,-13 -4,-11 -5,-14 4,-24 -1,-1 -1,-2 -2,-3 -1,-2 -2,-4 -3,-7l0 0c-1,-6 0,-8 1,-11 1,-1 1,-3 1,-4l0 -1 1 0c1,-5 1,-8 2,-11 1,-6 1,-10 9,-16l4 -4c13,-11 20,-17 41,-18 5,-11 12,-10 22,-9 5,0 10,0 15,-1 5,-2 7,-4 9,-8l1 -2 0 0c6,-6 6,-10 6,-19l0 -5c0,-12 3,-16 8,-16 4,0 8,3 12,6 3,3 6,6 8,5 2,-4 2,-5 3,-10l0 -3 1 0c1,-4 4,-8 7,-11 6,-12 6,-12 9,-14 2,0 3,-1 7,-4l0 0c5,-3 11,-6 17,-6 5,-1 9,0 14,4 2,2 3,3 4,5 3,2 4,4 10,5 -2,-7 1,-13 6,-22l3 -5c4,-7 7,-11 11,-13 4,-2 10,-3 18,-3 5,-1 6,-2 7,-3 1,-2 2,-3 5,-4 5,-2 8,-1 12,1 2,0 3,1 5,1l0 0c4,1 10,1 15,1 9,0 18,0 22,3 5,5 5,9 2,13 -1,3 -5,6 -8,8 -3,2 -6,4 -6,6l0 0z"/>
  <path class="fil0" d="M6958 3579c-13,5 -3,16 0,23 3,7 3,25 17,15 17,-10 -9,-40 -17,-38zm55 46c-4,-9 0,-11 -1,-20 -16,-8 -16,15 -36,20 -8,2 -14,3 -18,12 -9,15 8,12 15,12 3,3 15,28 23,24 5,-5 5,-9 7,-16 3,-8 5,-8 9,-14 4,-8 4,-10 1,-18l0 0zm-57 -105c6,6 22,15 36,41 23,47 1,59 -31,-2 -10,-20 -20,-4 -30,-20 -16,-21 -6,-31 -2,-37 3,-7 2,-14 3,-24 7,-2 13,-5 17,1 15,20 -1,32 7,41l0 0z"/>
  <path class="fil0" d="M6982 3725c7,-1 9,5 6,11 -7,18 -33,10 -40,11 -9,0 -23,9 -14,18 5,7 12,-16 28,-6 6,5 3,12 0,14 -3,4 -8,6 -13,9 5,6 7,4 9,15 0,6 -2,5 1,11 2,5 3,4 2,8 -7,8 -15,2 -19,-3 -7,-9 -6,-16 -11,-17 0,5 0,11 -2,16 -5,2 -7,1 -11,-5 -4,-5 -9,-6 -10,-11 -1,-6 4,-8 6,-14 1,-5 1,-12 1,-18 3,-20 17,-42 37,-36 6,1 10,3 17,2 7,0 9,-4 13,-5l0 0z"/>
  <path class="fil0" d="M6985 3872c10,1 30,-14 30,6 -3,3 -6,4 -12,7 -8,6 -27,26 -32,17 -5,-6 0,-10 1,-15 -8,-7 -23,-1 -37,-5 -4,-1 -13,-4 -8,-12 2,-4 12,-3 18,-3 7,0 16,0 23,1 7,0 10,4 17,4l0 0z"/>
  <path class="fil0" d="M6878 3866c3,-2 23,1 27,2 13,8 -6,17 -8,19 -15,11 -13,9 -20,-1 -6,-6 -13,-16 1,-20l0 0z"/>
  <path class="fil0" d="M6851 3866c-10,-8 -8,-16 -24,-18 -23,-5 -37,1 -53,-9 -7,-3 -11,-2 -17,0 -7,1 -25,3 -5,18 12,10 14,9 31,10 14,2 15,9 33,9 17,0 17,9 34,8 11,-2 20,-9 1,-18l0 0z"/>
  <path class="fil0" d="M6746 3774c8,15 0,27 -3,40 -10,44 -19,20 -31,10 -7,-6 -32,-28 -34,-35 -9,-18 0,-18 -16,-34 -23,-25 -9,-18 -16,-32 -7,-15 -41,-31 -41,-53 7,-6 17,0 24,3 12,2 13,2 17,13 3,6 23,27 36,31 14,3 25,18 31,33 3,12 6,15 11,22 13,13 9,2 22,2z"/>
  <path class="fil0" d="M7038 3725c4,4 7,3 7,11 0,10 -9,19 -19,18 -6,-7 -6,-25 0,-35 9,-1 6,3 12,6zm2 60c32,-7 32,31 19,27 -4,-2 -6,-5 -10,-8 -4,-1 -9,0 -13,-2 -11,-4 -7,-14 4,-17l0 0z"/>
  <path class="fil0" d="M6164 2340c14,-5 21,-9 38,-12 16,-2 29,-3 43,-7 13,-4 30,-11 41,-4 0,12 -14,16 -31,22 -38,17 -28,10 -70,32 -11,6 -25,10 -32,18 -8,8 -13,24 -20,36 -6,11 -16,22 -7,39 7,14 14,30 -12,24 -23,-5 -18,-4 -35,-15 -18,-12 -37,2 -6,-42 3,-2 4,-3 6,-7 12,-17 8,-3 28,-37 9,-13 14,-18 24,-28 13,-13 13,-14 33,-19zm48 -162c3,-9 39,-15 39,8 -6,6 -13,7 -23,7 -9,1 -19,-4 -16,-15l0 0zm-200 11c7,-2 12,-5 20,-9 7,-5 10,-9 18,-12 7,-3 20,-2 23,6 3,8 -9,13 -12,18 -5,8 -7,9 -18,13 -7,2 -16,5 -21,7 -25,4 -34,-13 -10,-23l0 0zm88 -2c0,-15 10,-17 23,-17 12,0 15,-7 27,-1 21,13 38,-1 48,11 7,8 -1,15 -8,18 -9,3 -18,1 -28,6 -5,2 -14,7 -22,6 -10,-3 -9,-10 -17,-14 -13,-4 -13,-1 -23,-9l0 0zm-471 13c-1,-13 24,-12 34,-8 44,14 27,6 63,9 7,0 10,1 15,6 0,10 -7,13 -11,18 -6,5 -7,9 -14,12 -17,11 -34,1 -43,7 0,6 4,14 7,16 4,4 9,6 14,8 6,3 13,4 16,10 3,11 -14,28 -41,11 -10,-7 -9,-27 -20,-25 -6,0 -7,8 -10,13 -4,9 -23,35 -30,39 -13,7 -18,-2 -27,-14 -11,-13 10,-17 16,-25 -3,-11 -9,-7 0,-19 -22,-2 -34,19 -49,2 -4,-4 -5,-8 -5,-16 -3,-12 -17,-19 1,-27 17,-9 20,2 28,7 6,-8 8,-19 20,-12 3,8 -1,20 10,19 0,-8 -5,-11 -3,-18 8,-13 33,11 43,12 6,0 13,-1 16,-6 -9,-6 -29,-6 -30,-19l0 0z"/>
  <path class="fil0" d="M5346 2783c8,5 20,3 23,14 2,15 -9,18 -10,28 18,9 14,3 25,23 2,3 5,7 6,9 6,8 6,16 10,23 6,9 13,5 18,12 3,14 -8,12 -11,27 -1,29 -24,9 -50,20 -8,3 -23,8 -28,-2 -3,-14 13,-16 18,-22 -15,-5 -15,-5 -15,-24 0,-15 14,-11 21,-18 0,-6 -4,-16 -7,-18 -6,-6 -10,-1 -16,-11 -6,-12 -4,-5 -13,-11 -15,-9 -2,-30 0,-39 3,-11 13,-24 25,-26 11,-2 5,9 4,15l0 0z"/>
  <path class="fil0" d="M5293 2842c-14,3 -8,9 -17,18 -8,8 -13,8 -8,22 2,12 -10,16 -6,27 7,14 31,-2 35,-4 5,-1 10,-2 13,-5 9,-7 3,-19 7,-29 3,-8 13,-11 2,-23 -6,-9 -14,-9 -26,-6l0 0z"/>
  <path class="fil0" d="M5085 2615c2,-13 23,-24 35,-16 8,7 5,13 17,6 7,-6 10,-6 20,-7 32,-2 32,-20 59,11 5,5 10,11 7,19 -4,12 -22,20 -34,23 -14,5 -27,15 -41,14 -7,0 -14,-3 -23,-6 -30,-8 -10,-23 -22,-33 -8,-5 -10,-3 -18,-11z"/>
  <path class="fil0" d="M4297 3405c5,-5 27,-11 37,-11 7,2 10,5 16,8 7,3 10,3 17,4 6,3 10,6 14,10 7,5 10,3 16,7 15,8 25,12 24,23 -7,6 -28,6 -38,1 -6,-4 -8,-7 -13,-12 -17,-13 -17,-11 -31,-14 -9,-2 -9,-8 -16,-8 -7,-1 -9,5 -17,4 -6,-1 -13,-5 -9,-12l0 0z"/>
  <path class="fil0" d="M4441 3459c-10,4 -20,4 -20,17 7,6 27,6 40,5 7,0 10,-4 17,-5 10,-3 10,0 17,-6 3,-17 -16,-13 -27,-19 -26,-12 -23,-8 -27,8z"/>
  <path class="fil0" d="M4670 2949c6,8 13,5 20,10 10,4 6,13 11,22 3,6 10,12 7,21 -8,3 -11,-2 -20,-6 -4,-1 -8,-1 -11,-2 -4,-3 -4,-6 -7,-9 -10,-8 -26,15 -43,6 -14,-7 7,-30 12,-37 7,-11 8,-35 28,-29 4,11 -6,16 3,24z"/>
  <path class="fil0" d="M5033 2088c47,9 30,12 57,21 5,1 27,8 14,17 -7,3 -56,8 -67,8 -13,-1 -21,-1 -33,2 -8,2 -20,6 -25,12 24,10 54,-16 75,-2 0,12 -7,11 -8,17 2,1 8,1 11,1 10,-1 16,-8 23,-16 8,-8 23,-19 32,-7 3,17 -15,25 -19,43 10,-4 24,-20 32,-26 17,-12 33,11 43,-1 10,-9 7,-28 37,-17 65,23 14,34 -10,44 -7,3 -11,8 -18,10 -15,6 -33,1 -42,18 -4,8 3,16 0,25 -3,10 -24,27 -17,40 2,1 0,1 3,1 3,0 -1,0 6,-2 15,-5 8,10 13,19 2,5 9,7 5,12 -3,5 -18,1 -31,7 4,14 20,12 28,21 5,5 5,14 0,18 -5,5 -10,2 -15,9 3,11 13,6 13,18 -3,3 -5,3 -10,3 -25,4 0,12 -2,28 -7,4 -20,6 -30,4 -7,-3 -14,-14 -23,-3 -9,15 18,35 25,41 21,16 17,47 7,48 -16,1 -32,-31 -36,-34 0,2 0,-1 -1,3 -6,14 -13,18 -13,29 13,4 27,0 37,7 0,8 -3,9 -9,13l-39 23c-15,7 -19,3 -35,6 -14,1 -14,12 -28,2 -6,7 -10,16 -16,23 -4,7 -11,14 -17,19 -30,28 -37,8 -48,5 -3,13 0,17 -13,19 -7,2 -16,5 -18,12 -2,10 2,5 -6,28 -3,9 -6,14 -11,20 -16,14 -2,7 -12,37 -4,13 0,29 -18,29 -19,-1 -26,-13 -44,-17 -19,-3 -22,-6 -33,-29 -4,-8 -4,-15 -7,-24 -3,-6 -10,-13 -15,-18 -5,-8 -7,-12 -8,-22 -4,-21 -24,-22 -16,-36 3,-5 2,1 3,-5 -8,-16 -16,-16 -4,-35 3,-5 6,-12 11,-14 5,-3 10,-3 13,-5 9,-5 7,-23 4,-30 -14,-2 -10,8 -20,12 -24,8 -37,-36 15,-37 -2,-4 -2,-3 -5,-5 -5,-2 -11,-5 -15,-10 -15,-15 -13,0 -23,-6 -7,-4 -6,-15 -4,-24 3,-13 0,-14 -5,-25 -7,-19 -2,-24 -18,-37 -4,-5 -10,-10 -14,-13 -6,-6 -7,-11 -13,-16 -6,-3 -14,-5 -20,-7 -9,-2 -14,-5 -20,-7 -24,-9 -27,2 -45,2 -12,0 -10,-2 -23,1 -16,4 -51,-25 -32,-37 6,-3 12,-6 19,-7 9,-2 17,0 24,-2 0,-2 0,-3 0,-3 0,0 -1,0 -3,-1 -7,-3 -32,0 -42,-1 -7,-1 -27,-14 -32,-18 0,-24 25,-16 37,-22 5,-2 7,-6 13,-7 13,-2 20,4 33,-6 4,-2 23,-24 8,-26 -5,-1 -17,2 -18,-5 -2,-13 18,-19 30,-24 18,-8 41,-4 44,-10 3,-9 -3,-21 8,-24 9,-2 16,5 25,4 5,-6 4,-14 14,-17 8,-2 15,0 25,-3 29,-9 22,3 27,27 5,-1 3,-1 6,-5 2,-4 3,-10 3,-15 6,-22 16,19 37,5 -3,-4 -6,-6 -6,-14 20,-15 42,10 59,20 8,4 12,4 18,-3 -3,-12 -13,-12 -20,-20 -8,-10 6,-19 13,-23 7,-2 57,-8 67,-7 14,1 13,9 27,-1 21,-17 75,-11 101,-10 13,1 18,6 30,8z"/>
  <path class="fil0" d="M4306 2622c-4,-2 -7,-2 -13,-5 -3,-2 -7,-7 -11,-5 -6,3 -6,4 -9,11 -1,6 -3,10 -6,15 -4,8 -12,18 -1,25 8,3 18,11 27,6 7,-4 13,-16 24,-11 0,0 22,14 27,1 4,-9 -11,-11 -28,-26 -6,-5 -5,-7 -10,-11zm-491 -308c27,-10 23,-22 44,-26 7,-2 7,2 13,2 6,1 11,0 15,1 12,5 0,21 -2,24 -15,13 -16,2 -27,6 -6,2 -8,10 -22,12 -18,4 -52,-8 -21,-19l0 0zm158 -4c-14,13 -2,25 -2,35 -25,2 -15,-13 -38,-18 -20,-5 -11,-4 -23,-7 -11,-4 -15,1 -17,12 -3,13 -3,12 -11,18 -16,11 4,26 25,12 8,-4 17,0 23,2 -8,5 -14,4 -14,15 16,12 30,0 41,-6 14,-8 34,-8 53,-8 14,0 20,-14 14,-27 -7,-15 -21,8 -30,-7 -4,-8 -7,-33 -21,-21l0 0zm-175 67c-36,2 -12,16 -20,33 -4,7 -19,32 -16,41 6,7 12,3 19,9 8,6 5,24 35,7 6,-3 10,-8 15,-14 5,-7 10,-7 12,-14 7,-11 3,-9 16,-15 6,-3 11,-7 17,-9 26,-16 -4,-27 -8,-28 -9,-1 -18,1 -26,1 -17,-1 7,-13 -44,-11l0 0zm168 -130c7,0 14,-1 15,5 2,7 -4,10 -8,13 -4,3 -10,7 -14,8 -10,5 -27,4 -36,-2 -1,-19 29,-24 43,-24l0 0zm188 103c7,-4 21,-1 27,3 7,6 4,18 -6,21 -31,6 -39,-17 -21,-24l0 0zm-116 -43c16,-9 37,37 26,43 -16,7 -39,-36 -26,-43l0 0zm86 -59c4,-1 24,4 30,5 9,5 15,15 4,21 -7,4 -24,3 -30,-1 -7,-5 -14,-19 -4,-25l0 0zm-91 -18c22,-6 31,6 48,12 31,13 24,34 10,32 -9,-1 -11,-7 -24,-7 -9,-1 -22,-1 -27,-5 -6,-3 -3,-6 -6,-10 -3,-3 -30,-15 -1,-22l0 0zm94 111c1,21 -12,22 -26,16 0,-8 3,-14 -6,-18 -5,-1 -14,1 -15,-6 -3,-8 2,-12 7,-16 5,-4 10,-2 15,3 12,8 25,-3 25,21l0 0zm-28 57c0,0 30,-21 30,1 -1,7 -5,12 -5,18 4,5 10,4 14,8 4,4 6,12 1,18 -3,4 -21,20 -25,21 -16,3 -23,-9 -30,-15 -6,-4 -24,-16 -17,-27 3,-5 8,-1 13,1 8,4 11,2 14,-4 -6,-8 -13,-2 -13,-15 9,-10 9,-4 18,-6l0 0zm-44 116c7,4 17,5 19,12 -2,6 -4,6 -12,7 -5,2 -8,3 -14,2 -38,-8 -28,-26 -48,-11 -12,8 -13,6 -27,8 -9,3 -9,10 -26,9 -11,-2 -18,-4 -25,-10 -23,-17 -43,-8 -43,-26 7,-10 26,-8 41,-9 2,-1 4,-1 7,-1 5,-2 3,-1 6,-4 -9,-16 -55,3 -71,-14 0,-10 8,-11 16,-13 -6,-1 -15,0 -20,-3 -27,-15 35,-49 45,-51 21,-5 9,24 9,24 12,3 11,-17 24,-13 10,2 14,14 24,15 4,-5 3,-9 7,-14 9,-1 12,6 16,12 1,3 3,6 4,9 1,6 1,8 6,9 5,-11 -5,-18 -2,-33 7,-7 10,-2 22,-2 -2,-13 1,-18 12,-17 9,1 15,6 10,17 -4,10 -8,10 -5,23 1,9 3,19 4,27 3,12 9,9 19,12l19 11c5,3 15,15 5,17 -3,1 -7,0 -12,1 -10,1 -8,5 -10,6l0 0zm140 -125c-10,0 -20,-1 -29,2 -8,2 -14,4 -15,14 -7,25 8,41 18,36 4,-2 4,-4 10,-6 10,-4 17,1 29,-17 21,-31 2,-29 -13,-29l0 0zm111 15c11,-4 24,-10 31,1 7,10 6,25 7,40 4,-3 4,-6 12,-8 5,-1 10,3 14,3 10,-12 21,-17 37,-9 4,4 4,5 7,10 4,6 6,5 11,7 5,4 5,6 9,10 10,8 15,0 25,5 6,3 5,7 3,15 39,1 39,15 44,19 8,4 8,0 13,9 2,13 -14,25 -3,33 17,12 42,10 54,30 8,15 15,8 27,15 0,12 -8,18 -14,22 -5,4 -15,14 -21,16 -17,6 -17,-25 -44,-24 -16,23 8,20 20,32 4,4 31,53 -7,44 -10,-3 -13,-11 -26,-12 3,7 28,25 21,36 -1,3 -3,3 -5,2 -7,0 -16,-5 -22,-8 -8,-5 -13,-10 -22,-15 -19,-8 -10,-9 -20,-18 -5,-5 -9,-3 -12,-9 -3,-5 -1,-9 -7,-11 -11,-5 -18,5 -31,5 -37,-2 -32,-23 -4,-28 9,-2 24,4 31,-4 0,-9 -7,-6 -7,-19 5,-7 18,-9 28,-3 10,3 23,8 29,-3 -6,-12 -17,-7 -26,-10 -9,-6 -6,-23 -14,-30 -3,-3 -9,-4 -13,-6 -6,-4 -9,-5 -13,-9 -8,-8 -13,-11 -23,-18 -7,-3 -15,-15 -22,-17 -10,-1 -12,11 -32,8 -11,-3 -21,-6 -34,-5 -13,1 -24,3 -37,0 -11,-4 -21,-1 -30,-9l0 -6c12,-9 13,-2 16,-12 -7,-2 -51,-1 -27,-44 16,-28 47,-34 53,-24 2,11 -13,12 -10,34 1,10 11,24 21,22 0,-3 -10,-20 -10,-36 1,-16 16,-19 23,-21l0 0zm-128 -238c-9,6 -7,9 -20,12 -10,5 -12,6 -9,20 5,13 -7,13 -3,25 9,20 35,0 46,11 -4,4 -14,9 -11,18 1,2 14,14 15,15 7,7 16,4 23,1 10,-2 18,0 24,-6 7,-7 9,-9 16,-15 8,-6 10,-11 4,-21 -3,-6 -8,-15 -11,-19 -10,-11 -13,-1 -19,-13 -5,-10 -5,-10 -17,-13 -21,-7 -24,-28 -38,-15l0 0zm162 180c-53,-14 -38,-3 -63,0 -10,1 -25,-1 -35,-3 -23,-6 -9,-12 -19,-22 -5,-6 -40,-13 -57,-20 -35,-15 -34,24 -4,25 16,1 20,1 29,11 7,7 -2,21 9,30 8,6 20,8 30,8 23,0 49,8 72,5 14,-3 19,-4 34,-5 15,0 48,-18 4,-29l0 0zm67 -249c21,-6 20,7 27,8 4,0 10,-3 14,-5l50 -1c18,0 16,6 25,9 16,2 35,-3 49,9 8,7 14,4 23,7 4,14 -20,18 -32,20 -13,2 -40,-2 -40,12 9,1 13,-3 18,2 5,8 -19,13 -32,24 -17,13 -32,24 -51,35 -7,3 -16,1 -23,3 -10,2 -11,5 -23,5 -7,1 -15,4 -19,9 7,7 41,2 27,25 -3,5 -8,12 -15,14 -7,4 -17,1 -22,5 -8,5 -3,13 -16,17 -10,1 -20,-1 -27,3 11,5 33,0 37,16 -3,11 -19,12 -30,12 -18,0 -30,-6 -47,-3 -7,2 -14,5 -21,4 -7,-1 -13,-4 -20,-4 -12,0 -26,2 -24,-14 1,-11 12,-11 21,-13 -3,-7 -4,-5 -4,-13 20,-15 32,9 38,7 2,-5 -1,-5 -4,-10 -2,-3 0,-2 -2,-8 -1,-10 -14,2 -22,-2 -6,-4 -5,-14 1,-18 4,-4 11,-4 17,-5 34,-4 26,12 36,7 1,-4 0,-5 -3,-7 -16,-11 -7,-4 -20,-17 -4,-5 -41,-29 -7,-32 38,-3 27,22 45,21 0,-12 -7,-9 -5,-23 11,-8 34,-4 35,-18 -5,0 -10,3 -14,4 -6,1 -10,1 -16,1 -24,1 -39,13 -59,0 -7,-5 -6,-5 -13,-1 -27,12 -54,-31 -31,-42 4,-2 7,-2 12,-5 17,-9 19,3 27,-1 7,-5 19,-19 39,-10 11,6 15,-1 25,-4 9,-5 3,-5 23,-15 19,-9 10,-5 27,0 9,3 17,-7 26,-8l0 0z"/>
  <path class="fil0" d="M7285 3856c9,26 43,36 33,47 -3,3 -4,0 -13,0 -19,-1 -19,11 -31,-11 -3,-5 -5,-5 -7,-8 -3,-4 -5,-6 -8,-10 -2,-5 -10,-11 -18,-11 -4,5 -4,10 -9,15 -2,3 -18,18 -25,18 -3,-1 -5,-2 -7,-4l0 -102c1,1 2,1 3,1 8,3 29,11 35,15 23,16 20,24 44,34 12,5 6,10 3,16l0 0z"/>
  <path class="fil0" d="M7195 3880c-2,-4 -4,-7 -10,-7 -7,0 -11,2 -18,1 -6,0 -11,-5 -10,-11 3,-6 7,-7 11,-11 0,-8 -2,-12 -5,-15 -24,-29 -23,-9 -42,-15 -5,-2 -5,-6 -11,-9 -6,-5 -7,-3 -13,-6 -4,-1 -8,-6 -8,-12 -2,-6 4,-9 8,-11 -1,-1 2,0 -3,-1 0,0 -1,0 -2,0 -2,-1 -3,-1 -5,-1 -11,-4 -17,-21 -13,-26 3,-2 18,-1 22,0 25,4 17,22 21,33 3,5 12,8 19,7 11,-2 7,-22 30,-20 8,0 12,3 18,8 6,6 8,5 11,5l0 91z"/>
  <path class="fil0" d="M6814 3707c6,-2 13,1 20,0 4,-11 7,-21 16,-27 11,-7 14,4 25,-17 20,-36 19,-4 29,1 5,4 7,1 13,6 2,14 -9,13 -15,19 0,0 -1,0 -2,-1 -1,0 -3,-1 -5,-2 -2,0 -3,-1 -5,-1 -2,-1 -3,-1 -5,-1 -2,0 -3,1 -5,1 -2,1 -3,2 -5,3 -2,2 -3,4 -5,6 -2,4 -4,8 -6,13l-2 4c-1,3 -2,5 -3,7 -1,1 -2,3 -3,4 -1,2 -2,3 -4,4 -1,1 -2,1 -2,2 -2,0 -3,-1 -4,-1l-1 -1c-1,0 -3,-1 -4,-1 -2,0 -4,0 -6,0 -3,1 -6,2 -8,3l-3 2c-1,0 -2,1 -3,1 -1,0 -1,0 -2,-1 -2,0 -3,-1 -5,-2 -2,-1 -3,-3 -5,-5 -1,0 -1,-1 -2,-2 1,-6 0,-12 7,-14l0 0z"/>
  <path class="fil0" d="M6899 3695l-1 -1c-1,0 -3,-1 -5,-2 -1,0 -3,-1 -4,-1 -1,0 -3,0 -4,0 -1,0 -2,0 -3,0 -1,1 -2,1 -3,2 -2,1 -3,3 -4,5 -2,3 -4,7 -6,12l-2 4c-1,3 -2,5 -3,7 -1,2 -3,4 -4,5 -1,2 -3,4 -4,5 -2,1 -3,2 -5,3 -3,1 -5,0 -7,-1l-1 -1c-1,0 -2,-1 -3,-1 -1,0 -2,0 -4,0 -2,1 -5,2 -7,3l-3 2c-1,0 -3,1 -4,1 -2,0 -3,0 -5,-1 -2,0 -4,-1 -6,-3 -2,-1 -4,-3 -6,-5 -2,-2 -4,-5 -7,-8 -5,-4 -11,-7 -15,3 -7,24 7,41 10,48 7,12 3,19 17,25 10,4 4,1 11,8 7,9 23,-3 30,4 3,4 9,16 21,-4 8,-9 9,-16 15,-27 7,-15 8,-10 10,-31 22,-9 10,-12 7,-27 -2,-6 -6,-15 -6,-19 0,-2 1,-4 1,-5z"/>
  <path class="fil0 str0" d="M5766 3592c-50,2 -38,16 -65,13 3,7 8,14 16,24 20,22 12,11 29,36 7,9 7,9 20,12 10,3 11,7 17,13 8,10 8,6 20,3 31,-11 22,-10 28,-20 3,-5 4,-5 6,-10 -19,-22 -32,-19 -27,-42 0,-3 2,-6 4,-10l-5 -5c-17,-19 -32,-15 -43,-14z"/>
  <path class="fil0" d="M6435 3605c-1,-1 -2,-1 -4,-1 -1,-1 -1,0 -1,1 0,1 1,2 0,3 -3,5 -2,11 -3,15 0,8 1,14 4,20 1,3 4,4 7,4 9,-1 15,-10 12,-19 -3,-9 -9,-16 -15,-23z"/>
  <path class="fil0" d="M6322 3654c0,0 0,0 1,0 0,0 0,0 1,-1 0,0 0,0 0,1 0,0 1,0 1,0 0,0 1,1 1,1 0,0 0,1 0,1 0,0 0,0 -1,1 0,0 0,0 0,0 -1,-1 -1,-1 -1,-1 0,0 0,-1 0,-1 -1,0 -2,0 -2,-1z"/>
  <path class="fil0" d="M6325 3659c0,0 0,-1 0,-1 0,0 0,0 0,0 1,0 1,0 1,0 0,0 0,0 1,0 0,0 0,0 0,-1 0,0 1,-1 1,-1 0,0 1,0 1,0 0,0 0,0 0,0 1,0 1,0 1,1 0,0 0,0 0,0 0,0 0,1 0,1 0,0 -1,0 -1,1 0,0 0,0 0,0 0,1 0,1 0,1 -1,0 -1,0 -1,0 0,0 0,1 0,1 -1,0 -1,-1 -1,0 0,0 0,1 0,1 0,0 0,1 0,1 0,0 0,0 0,1 0,0 0,1 1,1 0,1 1,1 1,1 0,0 0,0 0,0 1,1 1,1 1,1 0,0 0,1 1,1 0,1 0,1 0,1 0,0 0,0 0,1 0,1 0,1 0,2 0,0 0,1 1,1 0,0 1,-1 1,0 0,0 0,0 0,0 1,0 1,1 1,1 0,1 0,1 0,1 0,1 -1,1 -1,1 0,1 0,2 -1,2 0,0 -1,0 -2,0 0,0 0,-1 0,-1 -1,-1 -1,-1 -1,-2 -1,0 -1,0 -1,0 0,-1 0,-1 0,-1 0,0 0,-1 0,-1 0,0 0,-1 -1,-1 0,0 0,0 0,-1 -1,0 -1,-1 -1,-1 0,0 0,0 0,0 0,-1 -1,-1 0,-1 0,0 0,0 0,-1 0,0 0,-1 0,-1 0,0 -1,-1 -1,-1 0,0 -1,0 -1,0 0,-1 0,-1 0,-2 0,0 0,0 0,-1 0,0 0,0 0,0 -1,0 -1,0 0,-1 0,0 0,0 0,0 -1,0 -1,-1 0,-1 0,-1 0,0 0,-1 0,0 0,0 1,0 0,-1 0,-1 0,-1z"/>
  <path class="fil0" d="M6318 3668c0,0 0,0 0,0 1,0 1,0 1,-1 0,0 0,0 0,-1 1,0 1,0 1,0 0,-1 0,-1 0,-1 0,0 0,0 0,0 1,0 1,0 1,0 0,1 0,1 -1,1 0,0 0,0 0,1 0,0 0,0 -1,1 0,0 0,0 0,1 0,0 0,0 0,0 -1,0 -1,-1 -1,-1z"/>
  <path class="fil0" d="M6325 3673c0,0 0,-1 0,-1 0,0 0,1 0,1 0,0 0,0 0,0 0,0 0,0 0,0z"/>
  <path class="fil0" d="M6324 3675c0,0 0,-1 0,-1 1,0 1,0 1,0 0,0 0,0 0,0 0,0 0,0 0,0 0,0 0,-1 1,0 0,0 0,1 0,2 0,0 1,2 1,3 0,1 0,2 0,2 0,1 0,1 -1,1 0,0 0,0 0,0 -1,1 -1,0 -1,1 0,0 -1,0 -1,0 0,0 0,0 -1,0 0,0 0,0 0,0 1,0 1,0 1,-1 -1,0 0,0 0,0 0,0 0,-1 -1,-1 0,0 0,0 0,-1 0,0 0,0 0,0 -1,0 -1,0 -1,0 1,0 1,0 1,-1 0,0 0,0 0,0 0,0 0,0 0,-1 0,0 0,0 0,0 0,0 0,-1 0,-1 0,0 0,0 0,-1 0,0 0,0 0,0 1,0 1,0 1,-1 0,0 0,0 0,0 0,0 0,0 0,0z"/>
  <path class="fil0" d="M6324 3684c0,0 0,0 0,-1 1,0 1,0 2,0 0,0 0,-1 1,0 0,0 1,0 0,0 0,1 0,1 0,1 -1,0 -1,0 -1,0 -1,0 -2,0 -2,0z"/>
  <path class="fil0" d="M6323 3685c0,0 0,-1 1,-1 0,0 2,0 2,0 1,0 1,0 2,0 0,0 1,0 1,1 0,0 0,0 0,0 0,1 -1,1 -1,1 0,1 -2,2 -2,2 -1,1 -1,1 -2,1 0,0 0,0 0,0 0,0 -1,0 -1,0 0,-1 0,0 0,-1 0,0 0,0 0,0 0,0 0,0 0,0 0,0 0,-1 0,-1 -1,0 0,-1 0,-1 0,0 0,0 0,-1 0,0 0,0 0,0z"/>
  <path class="fil0" d="M6332 3683c0,0 -1,0 0,-1 0,0 0,0 0,-1 0,0 1,-1 1,-1 0,0 0,0 0,0 0,0 1,-1 1,0 1,0 1,1 1,1 1,0 2,0 2,1 0,1 0,2 0,2 0,0 0,1 -1,1 0,0 -1,0 -1,0 0,0 -1,0 -1,0 0,-1 0,-1 0,-1 0,0 0,0 0,-1 -1,0 -1,0 -1,0 0,0 -1,-1 -1,0 0,0 0,0 0,0z"/>
  <path class="fil0" d="M6323 3691c0,0 0,0 0,0 1,-1 1,-1 2,-1 0,0 1,0 1,0 0,0 0,0 0,0 0,0 0,1 -1,1 -1,1 -1,0 -2,0z"/>
  <path class="fil0" d="M6325 3694c0,0 0,0 0,0 1,0 1,0 1,0 -1,0 -1,0 -1,0z"/>
  <path class="fil0" d="M6325 3696c0,0 0,0 1,0 0,0 0,-1 1,0 0,0 -1,1 -1,1 -1,0 -1,0 -1,-1z"/>
  <path class="fil0" d="M6332 3691c0,0 0,0 0,-1 1,0 1,0 2,0 0,0 1,1 0,1 0,0 0,0 -1,0 0,0 -1,0 -1,0z"/>
  <path class="fil0" d="M6332 3692c0,0 1,0 1,0 0,0 0,-1 0,-1 0,0 1,0 2,0 0,1 1,2 1,3 1,0 1,1 2,1 0,0 0,0 0,1 0,0 0,0 0,0 -1,1 -1,1 -1,1 0,0 -1,0 -1,0 0,1 0,1 0,1 0,0 -1,0 -1,1 0,0 0,0 0,1 0,0 0,0 -1,0 -1,0 -1,0 -2,0 0,-1 0,-2 0,-2 0,-1 0,-2 0,-2 0,-1 0,-2 0,-4z"/>
  <path class="fil0" d="M6332 3701c0,0 1,0 1,0 1,0 2,0 2,0 0,0 0,1 0,1 0,0 0,1 0,1 -1,0 -1,0 -1,1 0,0 0,0 0,0 0,0 0,0 0,1 0,0 0,0 0,1 0,0 -1,0 -1,0 -1,0 -1,0 -1,-1 0,-1 0,-3 0,-4z"/>
  <path class="fil0" d="M6332 3709c0,0 0,-1 1,-1 1,0 2,0 1,1 0,1 0,1 0,2 1,0 1,1 1,1 1,0 1,0 1,0 1,0 1,0 2,0 0,0 0,-1 1,-1 0,1 0,1 0,1 0,0 0,0 0,1 0,0 0,1 -1,1 0,0 0,-1 -1,0 0,0 0,0 0,0 -1,0 -1,0 -2,0 0,0 0,0 0,0 0,0 -1,1 -1,1 0,0 0,0 -1,-1 0,0 0,0 0,0 0,0 -1,-1 -1,-2 -1,0 -1,0 -1,0 0,0 -1,0 -1,-1 1,0 2,-2 2,-2z"/>
  <path class="fil0" d="M6333 3716c0,0 -1,0 0,-1 0,0 0,0 0,0 1,0 1,1 1,1 0,0 -1,0 -1,0z"/>
  <path class="fil0" d="M6332 3718c0,0 0,-1 1,-1 0,0 1,0 2,0 0,1 1,1 1,1 1,0 1,0 1,0 0,1 0,1 0,1 0,0 0,1 -1,1 0,1 0,1 0,1 0,1 0,1 -1,1 0,0 -1,1 -1,1 0,0 -1,0 -1,1 0,0 0,0 0,0 -1,0 -1,0 -1,-1 0,-1 0,-2 0,-3 0,0 0,-1 0,-2 0,0 0,0 0,0z"/>
  <path class="fil0" d="M6321 3700c0,0 0,-1 0,-1 1,0 1,-1 1,-1 0,0 0,-1 0,-1 0,0 0,-1 0,-1 1,0 1,0 2,1 0,0 0,0 0,1 1,0 1,0 1,0 0,0 0,0 0,1 0,1 1,1 1,2 0,0 0,2 0,3 0,0 0,1 0,1 0,0 0,1 0,1 0,0 0,0 0,1 0,0 0,1 0,1 0,0 -1,2 -1,2 -1,0 -1,0 -2,0 0,0 0,0 -1,0 0,0 0,0 0,0 -1,-1 -1,-2 -1,-3 0,0 0,0 0,0 0,0 0,-1 0,-1 0,0 0,-1 0,-2 0,0 0,0 0,0 0,-1 0,-1 0,-1 0,-1 0,-3 0,-3z"/>
  <path class="fil0" d="M6323 3716c0,0 0,0 0,-1 0,0 0,0 0,0 0,0 0,-1 1,-1 0,-1 2,-1 3,1 0,1 0,2 -1,3 -1,0 -1,0 -2,0 0,0 -1,0 0,-1 0,0 0,0 0,-1 -1,0 -1,0 -1,0z"/>
  <path class="fil0" d="M6323 3722c0,0 0,0 0,0 1,0 1,0 1,-1 -1,0 -1,0 0,-1 0,-1 1,-1 2,-1 0,0 1,0 1,1 0,1 0,3 -1,4 -1,1 -1,1 -2,1 0,0 -1,-1 -1,-1 0,-1 1,-1 0,-1 0,0 0,-1 0,-1z"/>
  <path class="fil0" d="M6325 3731c0,0 -1,0 0,-1 0,0 0,0 0,0 -1,-1 0,-2 0,-2 1,0 2,-1 3,-1 1,0 2,1 2,1 1,0 1,0 1,0 0,0 0,1 1,1 0,0 0,1 0,1 0,1 -2,2 -2,2 -1,0 -1,1 -2,1 0,0 0,0 0,0 -1,1 -1,1 -2,0 -1,0 -1,-1 -1,-1 0,-1 0,-1 0,-1 0,0 0,0 0,0z"/>
  <path class="fil0" d="M6330 3738c0,0 0,-1 1,-1 0,0 1,-1 2,-1 0,0 1,-1 1,-1 0,0 1,0 1,0 0,0 1,-1 1,-1 0,1 -1,1 -1,2 0,1 0,1 0,2 0,1 0,1 -1,1 0,1 -1,0 -1,1 0,0 -1,0 -1,0 -1,0 -2,-1 -2,-1 0,-1 1,-1 0,-1z"/>
  <path class="fil0" d="M6327 3764c0,0 0,-1 0,-1 -1,0 -1,-1 -1,-1 0,0 0,-1 1,-2 0,0 1,0 1,-1 0,0 0,0 1,0 0,0 0,0 1,-1 0,0 0,0 0,0 1,0 1,-1 1,-1 -1,0 -2,-1 -2,-2 1,0 2,0 2,0 0,-1 0,0 0,0 1,0 1,-1 1,0 1,0 2,1 2,2 0,1 0,1 0,2 0,0 0,0 0,1 1,0 1,0 1,1 0,0 1,1 1,2 0,0 -1,1 -1,1 0,0 -1,0 -1,0 0,1 0,1 -1,1 -1,0 -1,0 -1,0 -1,1 -2,1 -2,2 -1,0 -1,-1 -2,-1 0,-1 0,-1 -1,-1 0,0 0,-1 0,-1z"/>
  <path class="fil0" d="M6333 3775c0,0 0,0 0,0 1,0 1,0 1,0 0,1 -1,0 -1,0z"/>
  <path class="fil0" d="M6328 3780c0,0 0,0 0,0 0,0 1,0 1,0 0,0 1,-1 1,0 0,1 0,1 -1,2 0,0 -1,-1 -1,-1 0,0 0,-1 0,-1z"/>
  <path class="fil0" d="M4610 3609c6,-11 -6,-13 -9,-23l-4 2c-2,0 -3,0 -4,2 -4,1 -6,1 -8,3l25 16z"/>
  <path class="fil0" d="M4320 2857c-4,0 -11,2 -19,2 -14,0 -23,5 -35,11 -2,8 18,62 28,69 10,7 25,14 37,6 3,-2 22,-13 22,-16 0,-9 -36,-27 -36,-61 0,-3 3,-8 3,-11l0 0z"/>
  <path class="fil0" d="M6716 3724c-2,0 -20,-11 -24,-19 -6,-12 -16,-9 -21,-38 -1,-4 -4,-32 8,-18 15,17 17,2 28,34 2,6 14,39 9,41z"/>
  <path class="fil0" d="M7033 2337c3,4 12,11 7,17 -2,3 -16,4 -21,5 -13,3 -21,22 -35,17 -2,-11 3,-15 6,-22 3,-6 5,-13 10,-18 4,-4 11,-8 17,-9 9,0 12,5 16,10zm34 31c-6,-6 -29,-6 -40,-5 -16,2 -24,19 -15,26 4,4 30,9 38,9 8,0 8,-6 12,-12 2,-5 9,-10 5,-18l0 0zm36 24c4,1 11,-5 22,2 5,2 12,12 3,18 0,0 -60,19 -64,4 -2,-9 15,-31 23,-33 7,-2 12,8 16,9l0 0zm475 102c3,12 13,14 26,15 12,0 29,2 26,-13 -9,-9 -18,-4 -30,-8 0,0 -25,-16 -22,6l0 0zm-24 -18c25,7 0,35 -10,26 -2,-3 -1,-3 -5,-5 -8,4 -4,7 -25,10 -62,10 -39,-41 -18,-41 11,0 13,8 30,5 11,-2 17,2 28,5l0 0z"/>
  <path class="fil1" d="M6376 3592c0,31 -55,111 -55,111 0,0 -55,-80 -55,-111 0,-30 25,-55 55,-55 31,0 55,25 55,55z"/>
  <path class="fil2" d="M6347 3590c0,14 -11,26 -26,26 -14,0 -25,-12 -25,-26 0,-14 11,-26 25,-26 15,0 26,12 26,26z"/>
  <path class="fil1" d="M6276 3597c0,-26 21,-48 48,-48 15,0 29,8 38,19 -9,-14 -24,-24 -42,-24 -26,0 -48,21 -48,48 0,11 4,21 10,29 -4,-7 -6,-15 -6,-24z"/>
  <path class="fil1" d="M6308 3682c8,12 13,21 13,21 0,0 55,-80 55,-111 0,-1 0,-3 0,-4 -2,8 -5,16 -9,24 -10,22 -26,36 -42,53 -5,6 -11,12 -17,17z"/>
  <path class="fil1" d="M4487 3815c0,30 -55,110 -55,110 0,0 -55,-80 -55,-110 0,-31 25,-55 55,-55 31,0 55,24 55,55z"/>
  <path class="fil2" d="M4458 3812c0,15 -12,26 -26,26 -14,0 -26,-11 -26,-26 0,-14 12,-26 26,-26 14,0 26,12 26,26z"/>
  <path class="fil1" d="M4387 3820c0,-27 21,-48 47,-48 16,0 29,7 38,18 -8,-14 -24,-24 -41,-24 -27,0 -48,22 -48,48 0,11 4,21 10,29 -4,-7 -6,-15 -6,-23z"/>
  <path class="fil1" d="M4419 3904c8,13 13,21 13,21 0,0 55,-80 55,-110 0,-2 0,-3 0,-5 -2,8 -5,17 -9,24 -11,22 -26,36 -42,54 -6,5 -11,11 -17,16z"/>
  <path class="fil1" d="M4686 3573c0,31 -55,111 -55,111 0,0 -55,-80 -55,-111 0,-30 24,-55 55,-55 30,0 55,25 55,55z"/>
  <path class="fil2" d="M4657 3571c0,14 -12,26 -26,26 -15,0 -26,-12 -26,-26 0,-15 11,-26 26,-26 14,0 26,11 26,26z"/>
  <path class="fil1" d="M4585 3578c0,-26 21,-48 48,-48 15,0 29,7 38,19 -9,-15 -24,-24 -42,-24 -26,0 -47,21 -47,48 0,11 3,21 9,29 -4,-7 -6,-15 -6,-24z"/>
  <path class="fil1" d="M4618 3663c7,12 13,21 13,21 0,0 55,-80 55,-111 0,-1 0,-3 -1,-5 -2,9 -5,17 -9,25 -10,22 -25,35 -42,53 -5,6 -11,11 -16,17z"/>
  <path class="fil1" d="M4305 3014c0,30 -55,110 -55,110 0,0 -55,-80 -55,-110 0,-31 25,-55 55,-55 31,0 55,24 55,55z"/>
  <path class="fil2" d="M4276 3011c0,14 -11,26 -26,26 -14,0 -26,-12 -26,-26 0,-14 12,-26 26,-26 15,0 26,12 26,26z"/>
  <path class="fil1" d="M4205 3018c0,-26 21,-47 47,-47 16,0 30,7 38,18 -8,-14 -23,-24 -41,-24 -26,0 -48,22 -48,48 0,11 4,21 10,29 -4,-7 -6,-15 -6,-24z"/>
  <path class="fil1" d="M4237 3103c8,13 13,21 13,21 0,0 55,-80 55,-110 0,-2 0,-4 0,-5 -2,8 -5,16 -9,24 -10,22 -26,36 -42,53 -5,6 -11,12 -17,17z"/>
  <path class="fil1" d="M5429 3524c0,30 -55,110 -55,110 0,0 -55,-80 -55,-110 0,-30 25,-55 55,-55 31,0 55,25 55,55z"/>
  <path class="fil1" d="M5329 3529c0,-27 21,-48 47,-48 16,0 30,7 38,19 -8,-15 -23,-24 -41,-24 -26,0 -48,21 -48,47 0,11 4,21 10,30 -4,-7 -6,-16 -6,-24z"/>
  <path class="fil1" d="M5361 3613c8,13 13,21 13,21 0,0 55,-80 55,-110 0,-2 0,-3 0,-5 -2,9 -5,17 -9,25 -10,21 -26,35 -42,53 -5,5 -11,11 -17,16z"/>
  <path class="fil1" d="M5916 3628c0,31 -55,111 -55,111 0,0 -55,-80 -55,-111 0,-30 25,-55 55,-55 30,0 55,25 55,55z"/>
  <path class="fil2" d="M5887 3626c0,14 -12,26 -26,26 -14,0 -26,-12 -26,-26 0,-14 12,-26 26,-26 14,0 26,12 26,26z"/>
  <path class="fil1" d="M5815 3633c0,-26 22,-48 48,-48 16,0 29,8 38,19 -8,-14 -24,-24 -41,-24 -27,0 -48,21 -48,48 0,11 3,21 10,29 -4,-7 -7,-15 -7,-24z"/>
  <path class="fil1" d="M5848 3718c7,12 13,21 13,21 0,0 55,-80 55,-111 0,-1 0,-3 0,-4 -2,8 -6,16 -9,24 -11,22 -26,36 -43,53 -5,6 -10,12 -16,17z"/>
  <path class="fil1" d="M6466 3325c0,30 -55,110 -55,110 0,0 -55,-80 -55,-110 0,-31 24,-55 55,-55 30,0 55,24 55,55z"/>
  <path class="fil2" d="M6436 3322c0,15 -11,26 -25,26 -15,0 -26,-11 -26,-26 0,-14 11,-26 26,-26 14,0 25,12 25,26z"/>
  <path class="fil1" d="M6365 3330c0,-27 21,-48 48,-48 15,0 29,7 38,18 -9,-14 -24,-24 -42,-24 -26,0 -48,22 -48,48 0,11 4,21 10,29 -4,-7 -6,-15 -6,-23z"/>
  <path class="fil1" d="M6398 3414c7,13 13,21 13,21 0,0 55,-80 55,-110 0,-2 0,-3 -1,-5 -2,8 -5,17 -9,24 -10,22 -25,36 -42,54 -5,5 -11,11 -16,16z"/>
  <path class="fil1" d="M5545 2583c0,31 -55,111 -55,111 0,0 -55,-80 -55,-111 0,-30 24,-55 55,-55 30,0 55,25 55,55z"/>
  <path class="fil2" d="M5516 2581c0,14 -12,26 -26,26 -15,0 -26,-12 -26,-26 0,-15 11,-26 26,-26 14,0 26,11 26,26z"/>
  <path class="fil1" d="M5444 2588c0,-26 21,-48 48,-48 15,0 29,7 38,19 -8,-14 -24,-24 -42,-24 -26,0 -47,21 -47,48 0,11 3,21 9,29 -4,-7 -6,-15 -6,-24z"/>
  <path class="fil1" d="M5477 2673c7,12 13,21 13,21 0,0 55,-80 55,-111 0,-1 0,-3 -1,-5 -2,9 -5,17 -9,25 -10,22 -25,35 -42,53 -5,6 -11,11 -16,17z"/>
  <path class="fil1" d="M7042 3458c0,30 -55,110 -55,110 0,0 -55,-80 -55,-110 0,-31 24,-55 55,-55 30,0 55,24 55,55z"/>
  <path class="fil2" d="M7013 3455c0,14 -12,26 -26,26 -14,0 -26,-12 -26,-26 0,-14 12,-26 26,-26 14,0 26,12 26,26z"/>
  <path class="fil1" d="M6941 3462c0,-26 22,-47 48,-47 16,0 29,7 38,18 -8,-14 -24,-24 -41,-24 -27,0 -48,22 -48,48 0,11 3,21 10,29 -4,-7 -7,-15 -7,-24z"/>
  <path class="fil1" d="M6974 3547c7,13 13,21 13,21 0,0 55,-80 55,-110 0,-2 0,-4 0,-5 -2,8 -6,17 -9,24 -11,22 -26,36 -43,54 -5,5 -10,11 -16,16z"/>
  <path class="fil2" d="M5405 3523c0,15 -14,27 -31,27 -17,0 -30,-12 -30,-27 0,-15 13,-27 30,-27 17,0 31,12 31,27z"/>
  <path class="fil1" d="M5512 2813c0,31 -55,111 -55,111 0,0 -55,-80 -55,-111 0,-30 25,-55 55,-55 31,0 55,25 55,55z"/>
  <path class="fil2" d="M5483 2811c0,14 -11,26 -26,26 -14,0 -26,-12 -26,-26 0,-14 12,-26 26,-26 15,0 26,12 26,26z"/>
  <path class="fil1" d="M5412 2818c0,-26 21,-48 47,-48 16,0 30,8 38,19 -8,-14 -23,-24 -41,-24 -27,0 -48,22 -48,48 0,11 4,21 10,29 -4,-7 -6,-15 -6,-24z"/>
  <path class="fil1" d="M5444 2903c8,13 13,21 13,21 0,0 55,-80 55,-111 0,-1 0,-3 0,-4 -2,8 -5,16 -9,24 -10,22 -26,36 -42,53 -5,6 -11,12 -17,17z"/>
  <path class="fil1" d="M6122 3300c0,31 -55,111 -55,111 0,0 -55,-80 -55,-111 0,-30 25,-55 55,-55 31,0 55,25 55,55z"/>
  <path class="fil2" d="M6093 3298c0,14 -11,26 -26,26 -14,0 -25,-12 -25,-26 0,-14 11,-26 25,-26 15,0 26,12 26,26z"/>
  <path class="fil1" d="M6022 3305c0,-26 21,-48 48,-48 15,0 29,8 38,19 -9,-14 -24,-24 -42,-24 -26,0 -48,21 -48,48 0,11 4,21 10,29 -4,-7 -6,-15 -6,-24z"/>
  <path class="fil1" d="M6054 3390c8,12 13,21 13,21 0,0 55,-80 55,-111 0,-1 0,-3 0,-4 -2,8 -5,16 -9,24 -10,22 -26,36 -42,53 -5,6 -11,11 -17,17z"/>
  <path class="fil1" d="M6711 3441c0,30 -55,111 -55,111 0,0 -55,-81 -55,-111 0,-30 24,-55 55,-55 30,0 55,25 55,55z"/>
  <path class="fil2" d="M6682 3439c0,14 -12,26 -26,26 -15,0 -26,-12 -26,-26 0,-15 11,-26 26,-26 14,0 26,11 26,26z"/>
  <path class="fil1" d="M6610 3446c0,-26 22,-48 48,-48 15,0 29,7 38,19 -8,-15 -24,-24 -42,-24 -26,0 -47,21 -47,48 0,11 3,21 10,29 -5,-7 -7,-15 -7,-24z"/>
  <path class="fil1" d="M6643 3531c7,12 13,21 13,21 0,0 55,-81 55,-111 0,-1 0,-3 0,-5 -3,9 -6,17 -9,25 -11,22 -26,35 -43,53 -5,6 -10,11 -16,17z"/>
  <path class="fil0" d="M3237 2542c5,6 16,6 22,9 10,8 8,17 12,21 6,6 15,-3 23,8 4,5 3,4 9,7 18,13 -9,19 -22,18 -14,-2 -18,-11 -27,-13 -7,2 -7,8 -15,13 -6,4 -15,5 -19,10 6,6 12,3 14,12 5,8 5,13 16,12 7,-1 17,-1 23,-3 10,-2 10,-9 17,-10 18,-4 13,37 11,39 -3,7 -10,7 -17,10 -20,6 -15,-4 -21,0 -6,5 -4,11 -9,14 -4,5 -10,6 -12,12 2,6 8,9 11,18 3,10 3,18 10,23 8,5 14,-5 23,-4 11,2 8,12 8,23 9,3 13,-2 20,-1 3,0 6,1 10,2 4,0 7,-1 11,-1 15,0 16,23 10,35 -4,10 -18,16 -27,23 -17,13 -24,13 -28,21 8,-1 17,-7 24,-10 14,-5 23,-12 34,-22 3,-4 6,-6 9,-10 17,-21 33,-10 34,-40 0,-12 3,-9 16,-23l17 -19c4,-5 18,-15 22,-4 3,17 -21,14 -15,42 5,-1 10,-8 15,-12 6,-5 13,-5 17,-11 -1,-6 -4,-6 -1,-12 7,-13 38,7 46,11 11,5 12,4 25,6 10,1 17,4 26,6 -2,-48 0,-106 0,-156l1 -77c-35,0 -32,-7 -64,-8 -11,0 -24,1 -31,-5 -19,-15 -33,3 -60,-14 -10,-6 -18,-1 -30,-1 -15,-2 -4,-12 -24,-3 -8,4 -21,4 -27,9 -6,7 -3,10 -21,13 -13,2 -17,2 -23,12 -6,9 -7,15 -17,20 -12,6 -19,4 -24,9l0 0c0,1 -2,1 -2,1z"/>
  <path class="fil1" d="M5555 3514c0,30 -55,110 -55,110 0,0 -55,-80 -55,-110 0,-31 25,-55 55,-55 31,0 55,24 55,55z"/>
  <path class="fil2" d="M5530 3507c0,15 -14,27 -31,27 -17,0 -31,-12 -31,-27 0,-15 14,-27 31,-27 17,0 31,12 31,27z"/>
  <path class="fil1" d="M5464 2950c0,31 -55,111 -55,111 0,0 -55,-80 -55,-111 0,-30 24,-55 55,-55 30,0 55,25 55,55z"/>
  <path class="fil2" d="M5435 2948c0,14 -12,26 -26,26 -15,0 -26,-12 -26,-26 0,-14 11,-26 26,-26 14,0 26,12 26,26z"/>
  <path class="fil1" d="M5363 2955c0,-26 22,-48 48,-48 15,0 29,8 38,19 -8,-14 -24,-24 -42,-24 -26,0 -47,22 -47,48 0,11 3,21 10,29 -5,-7 -7,-15 -7,-24z"/>
  <path class="fil1" d="M5396 3040c7,13 13,21 13,21 0,0 55,-80 55,-111 0,-1 0,-3 0,-4 -3,8 -6,16 -9,24 -11,22 -26,36 -43,53 -5,6 -10,12 -16,17z"/>
 </g>
</svg>
